%
M48
M72
T01C0.0150
T02C0.0200
T03C0.0400
T04C0.1300
%
T01
X5650Y4150
X7650Y3650
X5700Y6200
X5000Y6650
X4650Y6150
X3650Y6150
X4150Y8150
X3650Y8650
X5450Y9250
X6800Y9300
X6650Y8150
X7150Y8150
X7650Y8150
X8150Y7650
X8550Y7650
X8150Y8950
X8050Y11150
X7650Y14350
X5650Y14850
X5700Y16900
X5000Y17350
X4650Y16850
X3650Y16850
X4150Y18850
X3650Y19350
X5450Y19950
X6800Y20000
X6650Y18850
X7150Y18850
X7650Y18850
X8150Y18350
X8550Y18350
X8150Y19650
X8050Y21850
X7650Y25050
X5650Y25550
X5700Y27600
X5000Y28050
X4650Y27550
X3650Y27550
X4150Y29550
X3650Y30050
X5450Y30650
X6800Y30700
X6650Y29550
X7150Y29550
X7650Y29550
X8150Y29050
X8550Y29050
X8150Y30350
X8050Y32550
X11650Y30050
X11650Y29550
X11650Y29050
X11650Y27800
X13850Y27550
X14850Y27550
X15200Y28050
X15900Y27600
X15850Y25550
X17850Y25050
X18250Y21850
X17000Y20000
X16850Y18850
X17350Y18850
X17850Y18850
X18350Y18350
X18750Y18350
X18350Y19650
X15650Y19950
X14350Y18850
X13850Y19350
X11650Y19350
X11650Y18850
X11650Y18350
X11650Y17100
X13850Y16850
X14850Y16850
X15200Y17350
X15900Y16900
X15850Y14850
X17850Y14350
X18250Y11150
X17000Y9300
X16850Y8150
X17350Y8150
X17850Y8150
X18350Y7650
X18750Y7650
X18350Y8950
X15650Y9250
X14350Y8150
X13850Y8650
X11650Y8650
X11650Y8150
X11650Y7650
X11650Y6400
X13850Y6150
X14850Y6150
X15200Y6650
X15900Y6200
X15850Y4150
X17850Y3650
X21850Y6400
X21850Y7650
X21850Y8150
X21850Y8650
X24050Y8650
X24550Y8150
X25850Y9250
X27200Y9300
X27050Y8150
X27550Y8150
X28050Y8150
X28550Y7650
X28950Y7650
X28550Y8950
X28450Y11150
X28050Y14350
X26050Y14850
X26100Y16900
X25400Y17350
X25050Y16850
X24050Y16850
X24550Y18850
X24050Y19350
X25850Y19950
X27200Y20000
X27050Y18850
X27550Y18850
X28050Y18850
X28550Y18350
X28950Y18350
X28550Y19650
X28450Y21850
X28050Y25050
X26050Y25550
X26100Y27600
X25400Y28050
X25050Y27550
X24050Y27550
X24550Y29550
X24050Y30050
X25850Y30650
X27200Y30700
X27050Y29550
X27550Y29550
X28050Y29550
X28550Y29050
X28950Y29050
X28550Y30350
X28450Y32550
X32050Y30050
X32050Y29550
X32050Y29050
X32050Y27800
X32050Y19350
X32050Y18850
X32050Y18350
X32050Y17100
X32050Y8650
X32050Y8150
X32050Y7650
X32050Y6400
X28050Y3650
X26050Y4150
X25050Y6150
X25400Y6650
X26100Y6200
X24050Y6150
X21850Y17100
X21850Y18350
X21850Y18850
X21850Y19350
X21850Y27800
X21850Y29050
X21850Y29550
X21850Y30050
X18750Y29050
X18350Y29050
X17850Y29550
X17350Y29550
X16850Y29550
X17000Y30700
X15650Y30650
X14350Y29550
X13850Y30050
X18350Y30350
X18250Y32550
T02
X17850Y33250
X17850Y34250
X16850Y34250
X16850Y33250
X18850Y33250
X18850Y34250
X27050Y34250
X27050Y33250
X28050Y33250
X28050Y34250
X29050Y34250
X29050Y33250
X29050Y23550
X29050Y22550
X28050Y22550
X28050Y23550
X27050Y23550
X27050Y22550
X18850Y22550
X18850Y23550
X17850Y23550
X17850Y22550
X16850Y22550
X16850Y23550
X8650Y23550
X8650Y22550
X7650Y22550
X7650Y23550
X6650Y23550
X6650Y22550
X6650Y12850
X7650Y12850
X7650Y11850
X6650Y11850
X8650Y11850
X8650Y12850
X16850Y12850
X17850Y12850
X17850Y11850
X16850Y11850
X18850Y11850
X18850Y12850
X27050Y12850
X28050Y12850
X28050Y11850
X27050Y11850
X29050Y11850
X29050Y12850
X8650Y33250
X8650Y34250
X7650Y34250
X7650Y33250
X6650Y33250
X6650Y34250
T03
X6150Y26550
X7150Y26550
X8150Y26550
X9150Y26550
X10150Y26550
X9150Y24550
X8150Y24550
X7150Y24550
X6150Y24550
X5150Y26550
X15350Y26550
X16350Y26550
X17350Y26550
X18350Y26550
X19350Y26550
X20350Y26550
X19350Y24550
X18350Y24550
X17350Y24550
X16350Y24550
X16350Y15850
X17350Y15850
X18350Y15850
X19350Y15850
X20350Y15850
X19350Y13850
X18350Y13850
X17350Y13850
X16350Y13850
X15350Y15850
X10150Y15850
X9150Y15850
X8150Y15850
X7150Y15850
X6150Y15850
X5150Y15850
X6150Y13850
X7150Y13850
X8150Y13850
X9150Y13850
X9150Y5150
X10150Y5150
X8150Y5150
X7150Y5150
X6150Y5150
X5150Y5150
X6150Y3150
X7150Y3150
X8150Y3150
X9150Y3150
X15350Y5150
X16350Y5150
X17350Y5150
X18350Y5150
X19350Y5150
X20350Y5150
X19350Y3150
X18350Y3150
X17350Y3150
X16350Y3150
X25550Y5150
X26550Y5150
X27550Y5150
X28550Y5150
X29550Y5150
X30550Y5150
X29550Y3150
X28550Y3150
X27550Y3150
X26550Y3150
X26550Y13850
X27550Y13850
X28550Y13850
X29550Y13850
X29550Y15850
X30550Y15850
X28550Y15850
X27550Y15850
X26550Y15850
X25550Y15850
X26550Y24550
X27550Y24550
X28550Y24550
X29550Y24550
X29550Y26550
X30550Y26550
X28550Y26550
X27550Y26550
X26550Y26550
X25550Y26550
T04
X24050Y22850
X21850Y22850
X13850Y22850
X11650Y22850
X3650Y22850
X3650Y33550
X11650Y33550
X13850Y33550
X21850Y33550
X24050Y33550
X32050Y33550
X32050Y22850
X32050Y12150
X24050Y12150
X21850Y12150
X13850Y12150
X11650Y12150
X3650Y12150
M30
