G75*
%MOIN*%
%OFA0B0*%
%FSLAX25Y25*%
%IPPOS*%
%LPD*%
%AMOC8*
5,1,8,0,0,1.08239X$1,22.5*
%
%ADD10R,0.05131X0.04737*%
%ADD11R,0.04737X0.05131*%
%ADD12C,0.01421*%
%ADD13C,0.02572*%
%ADD14R,0.13760X0.06040*%
%ADD15C,0.03300*%
%ADD16C,0.08200*%
%ADD17R,0.08674X0.05524*%
%ADD18R,0.06115X0.03162*%
%ADD19R,0.03300X0.05800*%
%ADD20C,0.13800*%
%ADD21C,0.04808*%
%ADD22R,0.05800X0.03000*%
%ADD23R,0.03000X0.05800*%
D10*
X0066154Y0059000D03*
X0072846Y0059000D03*
X0080154Y0059000D03*
X0086846Y0059000D03*
X0093154Y0111500D03*
X0099846Y0111500D03*
X0059846Y0111500D03*
X0053154Y0111500D03*
X0066154Y0166000D03*
X0072846Y0166000D03*
X0080154Y0166000D03*
X0086846Y0166000D03*
X0093154Y0218500D03*
X0099846Y0218500D03*
X0059846Y0218500D03*
X0053154Y0218500D03*
X0066154Y0273000D03*
X0072846Y0273000D03*
X0080154Y0273000D03*
X0086846Y0273000D03*
X0093154Y0325500D03*
X0099846Y0325500D03*
X0059846Y0325500D03*
X0053154Y0325500D03*
X0155154Y0325500D03*
X0161846Y0325500D03*
X0195154Y0325500D03*
X0201846Y0325500D03*
X0257154Y0325500D03*
X0263846Y0325500D03*
X0297154Y0325500D03*
X0303846Y0325500D03*
X0290846Y0273000D03*
X0284154Y0273000D03*
X0276846Y0273000D03*
X0270154Y0273000D03*
X0263846Y0218500D03*
X0257154Y0218500D03*
X0297154Y0218500D03*
X0303846Y0218500D03*
X0290846Y0166000D03*
X0284154Y0166000D03*
X0276846Y0166000D03*
X0270154Y0166000D03*
X0263846Y0111500D03*
X0257154Y0111500D03*
X0297154Y0111500D03*
X0303846Y0111500D03*
X0290846Y0059000D03*
X0284154Y0059000D03*
X0276846Y0059000D03*
X0270154Y0059000D03*
X0201846Y0111500D03*
X0195154Y0111500D03*
X0161846Y0111500D03*
X0155154Y0111500D03*
X0168154Y0059000D03*
X0174846Y0059000D03*
X0182154Y0059000D03*
X0188846Y0059000D03*
X0188846Y0166000D03*
X0182154Y0166000D03*
X0174846Y0166000D03*
X0168154Y0166000D03*
X0161846Y0218500D03*
X0155154Y0218500D03*
X0195154Y0218500D03*
X0201846Y0218500D03*
X0188846Y0273000D03*
X0182154Y0273000D03*
X0174846Y0273000D03*
X0168154Y0273000D03*
D11*
X0155500Y0292154D03*
X0155500Y0298846D03*
X0201500Y0298846D03*
X0201500Y0292154D03*
X0235500Y0253846D03*
X0235500Y0247154D03*
X0255500Y0247154D03*
X0255500Y0253846D03*
X0257500Y0292154D03*
X0257500Y0298846D03*
X0303500Y0298846D03*
X0303500Y0292154D03*
X0303500Y0191846D03*
X0303500Y0185154D03*
X0257500Y0185154D03*
X0257500Y0191846D03*
X0255500Y0146846D03*
X0255500Y0140154D03*
X0235500Y0140154D03*
X0235500Y0146846D03*
X0201500Y0185154D03*
X0201500Y0191846D03*
X0155500Y0191846D03*
X0155500Y0185154D03*
X0153500Y0146846D03*
X0153500Y0140154D03*
X0133500Y0140154D03*
X0133500Y0146846D03*
X0099500Y0185154D03*
X0099500Y0191846D03*
X0053500Y0191846D03*
X0053500Y0185154D03*
X0051500Y0146846D03*
X0051500Y0140154D03*
X0031500Y0140154D03*
X0031500Y0146846D03*
X0053500Y0084846D03*
X0053500Y0078154D03*
X0051500Y0039846D03*
X0051500Y0033154D03*
X0031500Y0033154D03*
X0031500Y0039846D03*
X0099500Y0078154D03*
X0099500Y0084846D03*
X0133500Y0039846D03*
X0133500Y0033154D03*
X0153500Y0033154D03*
X0153500Y0039846D03*
X0155500Y0078154D03*
X0155500Y0084846D03*
X0201500Y0084846D03*
X0201500Y0078154D03*
X0235500Y0039846D03*
X0235500Y0033154D03*
X0255500Y0033154D03*
X0255500Y0039846D03*
X0257500Y0078154D03*
X0257500Y0084846D03*
X0303500Y0084846D03*
X0303500Y0078154D03*
X0153500Y0247154D03*
X0153500Y0253846D03*
X0133500Y0253846D03*
X0133500Y0247154D03*
X0099500Y0292154D03*
X0099500Y0298846D03*
X0053500Y0298846D03*
X0053500Y0292154D03*
X0051500Y0253846D03*
X0051500Y0247154D03*
X0031500Y0247154D03*
X0031500Y0253846D03*
D12*
X0051389Y0225158D02*
X0051389Y0221842D01*
X0051389Y0225158D02*
X0054705Y0225158D01*
X0054705Y0221842D01*
X0051389Y0221842D01*
X0051389Y0223262D02*
X0054705Y0223262D01*
X0054705Y0224682D02*
X0051389Y0224682D01*
X0058295Y0225158D02*
X0058295Y0221842D01*
X0058295Y0225158D02*
X0061611Y0225158D01*
X0061611Y0221842D01*
X0058295Y0221842D01*
X0058295Y0223262D02*
X0061611Y0223262D01*
X0061611Y0224682D02*
X0058295Y0224682D01*
X0094705Y0225158D02*
X0094705Y0221842D01*
X0091389Y0221842D01*
X0091389Y0225158D01*
X0094705Y0225158D01*
X0094705Y0223262D02*
X0091389Y0223262D01*
X0091389Y0224682D02*
X0094705Y0224682D01*
X0101611Y0225158D02*
X0101611Y0221842D01*
X0098295Y0221842D01*
X0098295Y0225158D01*
X0101611Y0225158D01*
X0101611Y0223262D02*
X0098295Y0223262D01*
X0098295Y0224682D02*
X0101611Y0224682D01*
X0153389Y0225158D02*
X0153389Y0221842D01*
X0153389Y0225158D02*
X0156705Y0225158D01*
X0156705Y0221842D01*
X0153389Y0221842D01*
X0153389Y0223262D02*
X0156705Y0223262D01*
X0156705Y0224682D02*
X0153389Y0224682D01*
X0160295Y0225158D02*
X0160295Y0221842D01*
X0160295Y0225158D02*
X0163611Y0225158D01*
X0163611Y0221842D01*
X0160295Y0221842D01*
X0160295Y0223262D02*
X0163611Y0223262D01*
X0163611Y0224682D02*
X0160295Y0224682D01*
X0196705Y0225158D02*
X0196705Y0221842D01*
X0193389Y0221842D01*
X0193389Y0225158D01*
X0196705Y0225158D01*
X0196705Y0223262D02*
X0193389Y0223262D01*
X0193389Y0224682D02*
X0196705Y0224682D01*
X0203611Y0225158D02*
X0203611Y0221842D01*
X0200295Y0221842D01*
X0200295Y0225158D01*
X0203611Y0225158D01*
X0203611Y0223262D02*
X0200295Y0223262D01*
X0200295Y0224682D02*
X0203611Y0224682D01*
X0255389Y0225158D02*
X0255389Y0221842D01*
X0255389Y0225158D02*
X0258705Y0225158D01*
X0258705Y0221842D01*
X0255389Y0221842D01*
X0255389Y0223262D02*
X0258705Y0223262D01*
X0258705Y0224682D02*
X0255389Y0224682D01*
X0262295Y0225158D02*
X0262295Y0221842D01*
X0262295Y0225158D02*
X0265611Y0225158D01*
X0265611Y0221842D01*
X0262295Y0221842D01*
X0262295Y0223262D02*
X0265611Y0223262D01*
X0265611Y0224682D02*
X0262295Y0224682D01*
X0298705Y0225158D02*
X0298705Y0221842D01*
X0295389Y0221842D01*
X0295389Y0225158D01*
X0298705Y0225158D01*
X0298705Y0223262D02*
X0295389Y0223262D01*
X0295389Y0224682D02*
X0298705Y0224682D01*
X0305611Y0225158D02*
X0305611Y0221842D01*
X0302295Y0221842D01*
X0302295Y0225158D01*
X0305611Y0225158D01*
X0305611Y0223262D02*
X0302295Y0223262D01*
X0302295Y0224682D02*
X0305611Y0224682D01*
X0305611Y0328842D02*
X0305611Y0332158D01*
X0305611Y0328842D02*
X0302295Y0328842D01*
X0302295Y0332158D01*
X0305611Y0332158D01*
X0305611Y0330262D02*
X0302295Y0330262D01*
X0302295Y0331682D02*
X0305611Y0331682D01*
X0298705Y0332158D02*
X0298705Y0328842D01*
X0295389Y0328842D01*
X0295389Y0332158D01*
X0298705Y0332158D01*
X0298705Y0330262D02*
X0295389Y0330262D01*
X0295389Y0331682D02*
X0298705Y0331682D01*
X0262295Y0332158D02*
X0262295Y0328842D01*
X0262295Y0332158D02*
X0265611Y0332158D01*
X0265611Y0328842D01*
X0262295Y0328842D01*
X0262295Y0330262D02*
X0265611Y0330262D01*
X0265611Y0331682D02*
X0262295Y0331682D01*
X0255389Y0332158D02*
X0255389Y0328842D01*
X0255389Y0332158D02*
X0258705Y0332158D01*
X0258705Y0328842D01*
X0255389Y0328842D01*
X0255389Y0330262D02*
X0258705Y0330262D01*
X0258705Y0331682D02*
X0255389Y0331682D01*
X0203611Y0332158D02*
X0203611Y0328842D01*
X0200295Y0328842D01*
X0200295Y0332158D01*
X0203611Y0332158D01*
X0203611Y0330262D02*
X0200295Y0330262D01*
X0200295Y0331682D02*
X0203611Y0331682D01*
X0196705Y0332158D02*
X0196705Y0328842D01*
X0193389Y0328842D01*
X0193389Y0332158D01*
X0196705Y0332158D01*
X0196705Y0330262D02*
X0193389Y0330262D01*
X0193389Y0331682D02*
X0196705Y0331682D01*
X0160295Y0332158D02*
X0160295Y0328842D01*
X0160295Y0332158D02*
X0163611Y0332158D01*
X0163611Y0328842D01*
X0160295Y0328842D01*
X0160295Y0330262D02*
X0163611Y0330262D01*
X0163611Y0331682D02*
X0160295Y0331682D01*
X0153389Y0332158D02*
X0153389Y0328842D01*
X0153389Y0332158D02*
X0156705Y0332158D01*
X0156705Y0328842D01*
X0153389Y0328842D01*
X0153389Y0330262D02*
X0156705Y0330262D01*
X0156705Y0331682D02*
X0153389Y0331682D01*
X0101611Y0332158D02*
X0101611Y0328842D01*
X0098295Y0328842D01*
X0098295Y0332158D01*
X0101611Y0332158D01*
X0101611Y0330262D02*
X0098295Y0330262D01*
X0098295Y0331682D02*
X0101611Y0331682D01*
X0094705Y0332158D02*
X0094705Y0328842D01*
X0091389Y0328842D01*
X0091389Y0332158D01*
X0094705Y0332158D01*
X0094705Y0330262D02*
X0091389Y0330262D01*
X0091389Y0331682D02*
X0094705Y0331682D01*
X0058295Y0332158D02*
X0058295Y0328842D01*
X0058295Y0332158D02*
X0061611Y0332158D01*
X0061611Y0328842D01*
X0058295Y0328842D01*
X0058295Y0330262D02*
X0061611Y0330262D01*
X0061611Y0331682D02*
X0058295Y0331682D01*
X0051389Y0332158D02*
X0051389Y0328842D01*
X0051389Y0332158D02*
X0054705Y0332158D01*
X0054705Y0328842D01*
X0051389Y0328842D01*
X0051389Y0330262D02*
X0054705Y0330262D01*
X0054705Y0331682D02*
X0051389Y0331682D01*
X0051389Y0118158D02*
X0051389Y0114842D01*
X0051389Y0118158D02*
X0054705Y0118158D01*
X0054705Y0114842D01*
X0051389Y0114842D01*
X0051389Y0116262D02*
X0054705Y0116262D01*
X0054705Y0117682D02*
X0051389Y0117682D01*
X0058295Y0118158D02*
X0058295Y0114842D01*
X0058295Y0118158D02*
X0061611Y0118158D01*
X0061611Y0114842D01*
X0058295Y0114842D01*
X0058295Y0116262D02*
X0061611Y0116262D01*
X0061611Y0117682D02*
X0058295Y0117682D01*
X0094705Y0118158D02*
X0094705Y0114842D01*
X0091389Y0114842D01*
X0091389Y0118158D01*
X0094705Y0118158D01*
X0094705Y0116262D02*
X0091389Y0116262D01*
X0091389Y0117682D02*
X0094705Y0117682D01*
X0101611Y0118158D02*
X0101611Y0114842D01*
X0098295Y0114842D01*
X0098295Y0118158D01*
X0101611Y0118158D01*
X0101611Y0116262D02*
X0098295Y0116262D01*
X0098295Y0117682D02*
X0101611Y0117682D01*
X0153389Y0118158D02*
X0153389Y0114842D01*
X0153389Y0118158D02*
X0156705Y0118158D01*
X0156705Y0114842D01*
X0153389Y0114842D01*
X0153389Y0116262D02*
X0156705Y0116262D01*
X0156705Y0117682D02*
X0153389Y0117682D01*
X0160295Y0118158D02*
X0160295Y0114842D01*
X0160295Y0118158D02*
X0163611Y0118158D01*
X0163611Y0114842D01*
X0160295Y0114842D01*
X0160295Y0116262D02*
X0163611Y0116262D01*
X0163611Y0117682D02*
X0160295Y0117682D01*
X0196705Y0118158D02*
X0196705Y0114842D01*
X0193389Y0114842D01*
X0193389Y0118158D01*
X0196705Y0118158D01*
X0196705Y0116262D02*
X0193389Y0116262D01*
X0193389Y0117682D02*
X0196705Y0117682D01*
X0203611Y0118158D02*
X0203611Y0114842D01*
X0200295Y0114842D01*
X0200295Y0118158D01*
X0203611Y0118158D01*
X0203611Y0116262D02*
X0200295Y0116262D01*
X0200295Y0117682D02*
X0203611Y0117682D01*
X0255389Y0118158D02*
X0255389Y0114842D01*
X0255389Y0118158D02*
X0258705Y0118158D01*
X0258705Y0114842D01*
X0255389Y0114842D01*
X0255389Y0116262D02*
X0258705Y0116262D01*
X0258705Y0117682D02*
X0255389Y0117682D01*
X0262295Y0118158D02*
X0262295Y0114842D01*
X0262295Y0118158D02*
X0265611Y0118158D01*
X0265611Y0114842D01*
X0262295Y0114842D01*
X0262295Y0116262D02*
X0265611Y0116262D01*
X0265611Y0117682D02*
X0262295Y0117682D01*
X0298705Y0118158D02*
X0298705Y0114842D01*
X0295389Y0114842D01*
X0295389Y0118158D01*
X0298705Y0118158D01*
X0298705Y0116262D02*
X0295389Y0116262D01*
X0295389Y0117682D02*
X0298705Y0117682D01*
X0305611Y0118158D02*
X0305611Y0114842D01*
X0302295Y0114842D01*
X0302295Y0118158D01*
X0305611Y0118158D01*
X0305611Y0116262D02*
X0302295Y0116262D01*
X0302295Y0117682D02*
X0305611Y0117682D01*
D13*
X0305500Y0104364D02*
X0305500Y0098636D01*
X0300776Y0098636D02*
X0300776Y0104364D01*
X0310224Y0104364D02*
X0310224Y0098636D01*
X0208224Y0098636D02*
X0208224Y0104364D01*
X0203500Y0104364D02*
X0203500Y0098636D01*
X0198776Y0098636D02*
X0198776Y0104364D01*
X0106224Y0104364D02*
X0106224Y0098636D01*
X0101500Y0098636D02*
X0101500Y0104364D01*
X0096776Y0104364D02*
X0096776Y0098636D01*
X0096776Y0205636D02*
X0096776Y0211364D01*
X0101500Y0211364D02*
X0101500Y0205636D01*
X0106224Y0205636D02*
X0106224Y0211364D01*
X0198776Y0211364D02*
X0198776Y0205636D01*
X0203500Y0205636D02*
X0203500Y0211364D01*
X0208224Y0211364D02*
X0208224Y0205636D01*
X0300776Y0205636D02*
X0300776Y0211364D01*
X0305500Y0211364D02*
X0305500Y0205636D01*
X0310224Y0205636D02*
X0310224Y0211364D01*
X0310224Y0312636D02*
X0310224Y0318364D01*
X0305500Y0318364D02*
X0305500Y0312636D01*
X0300776Y0312636D02*
X0300776Y0318364D01*
X0208224Y0318364D02*
X0208224Y0312636D01*
X0203500Y0312636D02*
X0203500Y0318364D01*
X0198776Y0318364D02*
X0198776Y0312636D01*
X0106224Y0312636D02*
X0106224Y0318364D01*
X0101500Y0318364D02*
X0101500Y0312636D01*
X0096776Y0312636D02*
X0096776Y0318364D01*
D14*
X0101490Y0315490D03*
X0203490Y0315490D03*
X0305490Y0315490D03*
X0305490Y0208490D03*
X0203490Y0208490D03*
X0101490Y0208490D03*
X0101490Y0101490D03*
X0203490Y0101490D03*
X0305490Y0101490D03*
D15*
X0029000Y0029000D03*
X0131000Y0029000D03*
X0233000Y0029000D03*
X0226000Y0129000D03*
X0233000Y0136000D03*
X0328000Y0129000D03*
X0328000Y0236000D03*
X0233000Y0243000D03*
X0226000Y0236000D03*
X0131000Y0243000D03*
X0124000Y0236000D03*
X0029000Y0243000D03*
X0124000Y0343000D03*
X0226000Y0343000D03*
X0328000Y0343000D03*
X0131000Y0136000D03*
X0124000Y0129000D03*
X0029000Y0136000D03*
D16*
X0051500Y0158500D03*
X0061500Y0158500D03*
X0071500Y0158500D03*
X0081500Y0158500D03*
X0091500Y0158500D03*
X0101500Y0158500D03*
X0091500Y0138500D03*
X0081500Y0138500D03*
X0071500Y0138500D03*
X0061500Y0138500D03*
X0061500Y0051500D03*
X0071500Y0051500D03*
X0081500Y0051500D03*
X0091500Y0051500D03*
X0101500Y0051500D03*
X0091500Y0031500D03*
X0081500Y0031500D03*
X0071500Y0031500D03*
X0061500Y0031500D03*
X0051500Y0051500D03*
X0153500Y0051500D03*
X0163500Y0051500D03*
X0173500Y0051500D03*
X0183500Y0051500D03*
X0193500Y0051500D03*
X0203500Y0051500D03*
X0193500Y0031500D03*
X0183500Y0031500D03*
X0173500Y0031500D03*
X0163500Y0031500D03*
X0255500Y0051500D03*
X0265500Y0051500D03*
X0275500Y0051500D03*
X0285500Y0051500D03*
X0295500Y0051500D03*
X0305500Y0051500D03*
X0295500Y0031500D03*
X0285500Y0031500D03*
X0275500Y0031500D03*
X0265500Y0031500D03*
X0265500Y0138500D03*
X0275500Y0138500D03*
X0285500Y0138500D03*
X0295500Y0138500D03*
X0295500Y0158500D03*
X0305500Y0158500D03*
X0285500Y0158500D03*
X0275500Y0158500D03*
X0265500Y0158500D03*
X0255500Y0158500D03*
X0203500Y0158500D03*
X0193500Y0158500D03*
X0183500Y0158500D03*
X0173500Y0158500D03*
X0163500Y0158500D03*
X0153500Y0158500D03*
X0163500Y0138500D03*
X0173500Y0138500D03*
X0183500Y0138500D03*
X0193500Y0138500D03*
X0193500Y0245500D03*
X0183500Y0245500D03*
X0173500Y0245500D03*
X0163500Y0245500D03*
X0163500Y0265500D03*
X0173500Y0265500D03*
X0183500Y0265500D03*
X0193500Y0265500D03*
X0203500Y0265500D03*
X0153500Y0265500D03*
X0101500Y0265500D03*
X0091500Y0265500D03*
X0081500Y0265500D03*
X0071500Y0265500D03*
X0061500Y0265500D03*
X0051500Y0265500D03*
X0061500Y0245500D03*
X0071500Y0245500D03*
X0081500Y0245500D03*
X0091500Y0245500D03*
X0255500Y0265500D03*
X0265500Y0265500D03*
X0275500Y0265500D03*
X0285500Y0265500D03*
X0295500Y0265500D03*
X0305500Y0265500D03*
X0295500Y0245500D03*
X0285500Y0245500D03*
X0275500Y0245500D03*
X0265500Y0245500D03*
D17*
X0236031Y0284476D03*
X0222969Y0284476D03*
X0222969Y0306524D03*
X0236031Y0306524D03*
X0324969Y0306524D03*
X0324969Y0284476D03*
X0324969Y0199524D03*
X0324969Y0177476D03*
X0324969Y0092524D03*
X0324969Y0070476D03*
X0236031Y0070476D03*
X0222969Y0070476D03*
X0222969Y0092524D03*
X0236031Y0092524D03*
X0236031Y0177476D03*
X0222969Y0177476D03*
X0222969Y0199524D03*
X0236031Y0199524D03*
X0134031Y0199524D03*
X0120969Y0199524D03*
X0120969Y0177476D03*
X0134031Y0177476D03*
X0134031Y0092524D03*
X0120969Y0092524D03*
X0120969Y0070476D03*
X0134031Y0070476D03*
X0032031Y0070476D03*
X0032031Y0092524D03*
X0032031Y0177476D03*
X0032031Y0199524D03*
X0032031Y0284476D03*
X0032031Y0306524D03*
X0120969Y0306524D03*
X0134031Y0306524D03*
X0134031Y0284476D03*
X0120969Y0284476D03*
D18*
X0106500Y0289594D03*
X0106500Y0293531D03*
X0106500Y0297469D03*
X0106500Y0301406D03*
X0148500Y0301406D03*
X0148500Y0297469D03*
X0148500Y0293531D03*
X0148500Y0289594D03*
X0208500Y0289594D03*
X0208500Y0293531D03*
X0208500Y0297469D03*
X0208500Y0301406D03*
X0250500Y0301406D03*
X0250500Y0297469D03*
X0250500Y0293531D03*
X0250500Y0289594D03*
X0310500Y0289594D03*
X0310500Y0293531D03*
X0310500Y0297469D03*
X0310500Y0301406D03*
X0310500Y0194406D03*
X0310500Y0190469D03*
X0310500Y0186531D03*
X0310500Y0182594D03*
X0250500Y0182594D03*
X0250500Y0186531D03*
X0250500Y0190469D03*
X0250500Y0194406D03*
X0208500Y0194406D03*
X0208500Y0190469D03*
X0208500Y0186531D03*
X0208500Y0182594D03*
X0148500Y0182594D03*
X0148500Y0186531D03*
X0148500Y0190469D03*
X0148500Y0194406D03*
X0106500Y0194406D03*
X0106500Y0190469D03*
X0106500Y0186531D03*
X0106500Y0182594D03*
X0046500Y0182594D03*
X0046500Y0186531D03*
X0046500Y0190469D03*
X0046500Y0194406D03*
X0046500Y0289594D03*
X0046500Y0293531D03*
X0046500Y0297469D03*
X0046500Y0301406D03*
X0046500Y0087406D03*
X0046500Y0083469D03*
X0046500Y0079531D03*
X0046500Y0075594D03*
X0106500Y0075594D03*
X0106500Y0079531D03*
X0106500Y0083469D03*
X0106500Y0087406D03*
X0148500Y0087406D03*
X0148500Y0083469D03*
X0148500Y0079531D03*
X0148500Y0075594D03*
X0208500Y0075594D03*
X0208500Y0079531D03*
X0208500Y0083469D03*
X0208500Y0087406D03*
X0250500Y0087406D03*
X0250500Y0083469D03*
X0250500Y0079531D03*
X0250500Y0075594D03*
X0310500Y0075594D03*
X0310500Y0079531D03*
X0310500Y0083469D03*
X0310500Y0087406D03*
D19*
X0248700Y0036500D03*
X0245500Y0036500D03*
X0242300Y0036500D03*
X0146700Y0036500D03*
X0143500Y0036500D03*
X0140300Y0036500D03*
X0044700Y0036500D03*
X0041500Y0036500D03*
X0038300Y0036500D03*
X0038300Y0143500D03*
X0041500Y0143500D03*
X0044700Y0143500D03*
X0140300Y0143500D03*
X0143500Y0143500D03*
X0146700Y0143500D03*
X0242300Y0143500D03*
X0245500Y0143500D03*
X0248700Y0143500D03*
X0248700Y0250500D03*
X0245500Y0250500D03*
X0242300Y0250500D03*
X0146700Y0250500D03*
X0143500Y0250500D03*
X0140300Y0250500D03*
X0044700Y0250500D03*
X0041500Y0250500D03*
X0038300Y0250500D03*
D20*
X0036500Y0228500D03*
X0116500Y0228500D03*
X0138500Y0228500D03*
X0218500Y0228500D03*
X0240500Y0228500D03*
X0320500Y0228500D03*
X0320500Y0335500D03*
X0240500Y0335500D03*
X0218500Y0335500D03*
X0138500Y0335500D03*
X0116500Y0335500D03*
X0036500Y0335500D03*
X0036500Y0121500D03*
X0116500Y0121500D03*
X0138500Y0121500D03*
X0218500Y0121500D03*
X0240500Y0121500D03*
X0320500Y0121500D03*
D21*
X0290500Y0118500D03*
X0290500Y0128500D03*
X0280500Y0128500D03*
X0270500Y0128500D03*
X0270500Y0118500D03*
X0280500Y0118500D03*
X0188500Y0118500D03*
X0188500Y0128500D03*
X0178500Y0128500D03*
X0168500Y0128500D03*
X0168500Y0118500D03*
X0178500Y0118500D03*
X0086500Y0118500D03*
X0086500Y0128500D03*
X0076500Y0128500D03*
X0066500Y0128500D03*
X0066500Y0118500D03*
X0076500Y0118500D03*
X0076500Y0225500D03*
X0076500Y0235500D03*
X0066500Y0235500D03*
X0066500Y0225500D03*
X0086500Y0225500D03*
X0086500Y0235500D03*
X0168500Y0235500D03*
X0168500Y0225500D03*
X0178500Y0225500D03*
X0178500Y0235500D03*
X0188500Y0235500D03*
X0188500Y0225500D03*
X0270500Y0225500D03*
X0270500Y0235500D03*
X0280500Y0235500D03*
X0280500Y0225500D03*
X0290500Y0225500D03*
X0290500Y0235500D03*
X0290500Y0332500D03*
X0290500Y0342500D03*
X0280500Y0342500D03*
X0280500Y0332500D03*
X0270500Y0332500D03*
X0270500Y0342500D03*
X0188500Y0342500D03*
X0188500Y0332500D03*
X0178500Y0332500D03*
X0178500Y0342500D03*
X0168500Y0342500D03*
X0168500Y0332500D03*
X0086500Y0332500D03*
X0086500Y0342500D03*
X0076500Y0342500D03*
X0076500Y0332500D03*
X0066500Y0332500D03*
X0066500Y0342500D03*
D22*
X0059600Y0306524D03*
X0059600Y0303374D03*
X0059600Y0300224D03*
X0059600Y0297075D03*
X0059600Y0293925D03*
X0059600Y0290776D03*
X0059600Y0287626D03*
X0059600Y0284476D03*
X0093400Y0284476D03*
X0093400Y0287626D03*
X0093400Y0290776D03*
X0093400Y0293925D03*
X0093400Y0297075D03*
X0093400Y0300224D03*
X0093400Y0303374D03*
X0093400Y0306524D03*
X0161600Y0306524D03*
X0161600Y0303374D03*
X0161600Y0300224D03*
X0161600Y0297075D03*
X0161600Y0293925D03*
X0161600Y0290776D03*
X0161600Y0287626D03*
X0161600Y0284476D03*
X0195400Y0284476D03*
X0195400Y0287626D03*
X0195400Y0290776D03*
X0195400Y0293925D03*
X0195400Y0297075D03*
X0195400Y0300224D03*
X0195400Y0303374D03*
X0195400Y0306524D03*
X0263600Y0306524D03*
X0263600Y0303374D03*
X0263600Y0300224D03*
X0263600Y0297075D03*
X0263600Y0293925D03*
X0263600Y0290776D03*
X0263600Y0287626D03*
X0263600Y0284476D03*
X0297400Y0284476D03*
X0297400Y0287626D03*
X0297400Y0290776D03*
X0297400Y0293925D03*
X0297400Y0297075D03*
X0297400Y0300224D03*
X0297400Y0303374D03*
X0297400Y0306524D03*
X0297400Y0199524D03*
X0297400Y0196374D03*
X0297400Y0193224D03*
X0297400Y0190075D03*
X0297400Y0186925D03*
X0297400Y0183776D03*
X0297400Y0180626D03*
X0297400Y0177476D03*
X0263600Y0177476D03*
X0263600Y0180626D03*
X0263600Y0183776D03*
X0263600Y0186925D03*
X0263600Y0190075D03*
X0263600Y0193224D03*
X0263600Y0196374D03*
X0263600Y0199524D03*
X0195400Y0199524D03*
X0195400Y0196374D03*
X0195400Y0193224D03*
X0195400Y0190075D03*
X0195400Y0186925D03*
X0195400Y0183776D03*
X0195400Y0180626D03*
X0195400Y0177476D03*
X0161600Y0177476D03*
X0161600Y0180626D03*
X0161600Y0183776D03*
X0161600Y0186925D03*
X0161600Y0190075D03*
X0161600Y0193224D03*
X0161600Y0196374D03*
X0161600Y0199524D03*
X0093400Y0199524D03*
X0093400Y0196374D03*
X0093400Y0193224D03*
X0093400Y0190075D03*
X0093400Y0186925D03*
X0093400Y0183776D03*
X0093400Y0180626D03*
X0093400Y0177476D03*
X0059600Y0177476D03*
X0059600Y0180626D03*
X0059600Y0183776D03*
X0059600Y0186925D03*
X0059600Y0190075D03*
X0059600Y0193224D03*
X0059600Y0196374D03*
X0059600Y0199524D03*
X0059600Y0092524D03*
X0059600Y0089374D03*
X0059600Y0086224D03*
X0059600Y0083075D03*
X0059600Y0079925D03*
X0059600Y0076776D03*
X0059600Y0073626D03*
X0059600Y0070476D03*
X0093400Y0070476D03*
X0093400Y0073626D03*
X0093400Y0076776D03*
X0093400Y0079925D03*
X0093400Y0083075D03*
X0093400Y0086224D03*
X0093400Y0089374D03*
X0093400Y0092524D03*
X0161600Y0092524D03*
X0161600Y0089374D03*
X0161600Y0086224D03*
X0161600Y0083075D03*
X0161600Y0079925D03*
X0161600Y0076776D03*
X0161600Y0073626D03*
X0161600Y0070476D03*
X0195400Y0070476D03*
X0195400Y0073626D03*
X0195400Y0076776D03*
X0195400Y0079925D03*
X0195400Y0083075D03*
X0195400Y0086224D03*
X0195400Y0089374D03*
X0195400Y0092524D03*
X0263600Y0092524D03*
X0263600Y0089374D03*
X0263600Y0086224D03*
X0263600Y0083075D03*
X0263600Y0079925D03*
X0263600Y0076776D03*
X0263600Y0073626D03*
X0263600Y0070476D03*
X0297400Y0070476D03*
X0297400Y0073626D03*
X0297400Y0076776D03*
X0297400Y0079925D03*
X0297400Y0083075D03*
X0297400Y0086224D03*
X0297400Y0089374D03*
X0297400Y0092524D03*
D23*
X0291524Y0098400D03*
X0288374Y0098400D03*
X0285224Y0098400D03*
X0282075Y0098400D03*
X0278925Y0098400D03*
X0275776Y0098400D03*
X0272626Y0098400D03*
X0269476Y0098400D03*
X0269476Y0064600D03*
X0272626Y0064600D03*
X0275776Y0064600D03*
X0278925Y0064600D03*
X0282075Y0064600D03*
X0285224Y0064600D03*
X0288374Y0064600D03*
X0291524Y0064600D03*
X0189524Y0064600D03*
X0186374Y0064600D03*
X0183224Y0064600D03*
X0180075Y0064600D03*
X0176925Y0064600D03*
X0173776Y0064600D03*
X0170626Y0064600D03*
X0167476Y0064600D03*
X0167476Y0098400D03*
X0170626Y0098400D03*
X0173776Y0098400D03*
X0176925Y0098400D03*
X0180075Y0098400D03*
X0183224Y0098400D03*
X0186374Y0098400D03*
X0189524Y0098400D03*
X0189524Y0171600D03*
X0186374Y0171600D03*
X0183224Y0171600D03*
X0180075Y0171600D03*
X0176925Y0171600D03*
X0173776Y0171600D03*
X0170626Y0171600D03*
X0167476Y0171600D03*
X0167476Y0205400D03*
X0170626Y0205400D03*
X0173776Y0205400D03*
X0176925Y0205400D03*
X0180075Y0205400D03*
X0183224Y0205400D03*
X0186374Y0205400D03*
X0189524Y0205400D03*
X0189524Y0278600D03*
X0186374Y0278600D03*
X0183224Y0278600D03*
X0180075Y0278600D03*
X0176925Y0278600D03*
X0173776Y0278600D03*
X0170626Y0278600D03*
X0167476Y0278600D03*
X0167476Y0312400D03*
X0170626Y0312400D03*
X0173776Y0312400D03*
X0176925Y0312400D03*
X0180075Y0312400D03*
X0183224Y0312400D03*
X0186374Y0312400D03*
X0189524Y0312400D03*
X0269476Y0312400D03*
X0272626Y0312400D03*
X0275776Y0312400D03*
X0278925Y0312400D03*
X0282075Y0312400D03*
X0285224Y0312400D03*
X0288374Y0312400D03*
X0291524Y0312400D03*
X0291524Y0278600D03*
X0288374Y0278600D03*
X0285224Y0278600D03*
X0282075Y0278600D03*
X0278925Y0278600D03*
X0275776Y0278600D03*
X0272626Y0278600D03*
X0269476Y0278600D03*
X0269476Y0205400D03*
X0272626Y0205400D03*
X0275776Y0205400D03*
X0278925Y0205400D03*
X0282075Y0205400D03*
X0285224Y0205400D03*
X0288374Y0205400D03*
X0291524Y0205400D03*
X0291524Y0171600D03*
X0288374Y0171600D03*
X0285224Y0171600D03*
X0282075Y0171600D03*
X0278925Y0171600D03*
X0275776Y0171600D03*
X0272626Y0171600D03*
X0269476Y0171600D03*
X0087524Y0171600D03*
X0084374Y0171600D03*
X0081224Y0171600D03*
X0078075Y0171600D03*
X0074925Y0171600D03*
X0071776Y0171600D03*
X0068626Y0171600D03*
X0065476Y0171600D03*
X0065476Y0205400D03*
X0068626Y0205400D03*
X0071776Y0205400D03*
X0074925Y0205400D03*
X0078075Y0205400D03*
X0081224Y0205400D03*
X0084374Y0205400D03*
X0087524Y0205400D03*
X0087524Y0278600D03*
X0084374Y0278600D03*
X0081224Y0278600D03*
X0078075Y0278600D03*
X0074925Y0278600D03*
X0071776Y0278600D03*
X0068626Y0278600D03*
X0065476Y0278600D03*
X0065476Y0312400D03*
X0068626Y0312400D03*
X0071776Y0312400D03*
X0074925Y0312400D03*
X0078075Y0312400D03*
X0081224Y0312400D03*
X0084374Y0312400D03*
X0087524Y0312400D03*
X0087524Y0098400D03*
X0084374Y0098400D03*
X0081224Y0098400D03*
X0078075Y0098400D03*
X0074925Y0098400D03*
X0071776Y0098400D03*
X0068626Y0098400D03*
X0065476Y0098400D03*
X0065476Y0064600D03*
X0068626Y0064600D03*
X0071776Y0064600D03*
X0074925Y0064600D03*
X0078075Y0064600D03*
X0081224Y0064600D03*
X0084374Y0064600D03*
X0087524Y0064600D03*
M02*
