G75*
%MOIN*%
%OFA0B0*%
%FSLAX25Y25*%
%IPPOS*%
%LPD*%
%AMOC8*
5,1,8,0,0,1.08239X$1,22.5*
%
%ADD10C,0.00800*%
%ADD11C,0.01000*%
%ADD12C,0.01100*%
%ADD13C,0.00000*%
D10*
X0026500Y0026500D02*
X0126500Y0026500D01*
X0126500Y0131500D01*
X0026500Y0131500D01*
X0026500Y0026500D01*
X0128500Y0026500D02*
X0228500Y0026500D01*
X0228500Y0131500D01*
X0128500Y0131500D01*
X0128500Y0026500D01*
X0230500Y0026500D02*
X0330500Y0026500D01*
X0330500Y0131500D01*
X0230500Y0131500D01*
X0230500Y0026500D01*
X0230500Y0133500D02*
X0330500Y0133500D01*
X0330500Y0238500D01*
X0230500Y0238500D01*
X0230500Y0133500D01*
X0228500Y0133500D02*
X0128500Y0133500D01*
X0128500Y0238500D01*
X0228500Y0238500D01*
X0228500Y0133500D01*
X0126500Y0133500D02*
X0026500Y0133500D01*
X0026500Y0238500D01*
X0126500Y0238500D01*
X0126500Y0133500D01*
X0126500Y0240500D02*
X0026500Y0240500D01*
X0026500Y0345500D01*
X0126500Y0345500D01*
X0126500Y0240500D01*
X0128500Y0240500D02*
X0228500Y0240500D01*
X0228500Y0345500D01*
X0128500Y0345500D01*
X0128500Y0240500D01*
X0230500Y0240500D02*
X0330500Y0240500D01*
X0330500Y0345500D01*
X0230500Y0345500D01*
X0230500Y0240500D01*
D11*
X0357500Y0239500D02*
X0001500Y0239500D01*
X0001500Y0132500D02*
X0357500Y0132500D01*
X0229500Y0001500D02*
X0229500Y0372500D01*
X0127500Y0372500D02*
X0127500Y0001500D01*
D12*
X0363518Y0131050D02*
X0361550Y0134987D01*
X0365487Y0134987D02*
X0363518Y0131050D01*
X0367995Y0134003D02*
X0371932Y0134003D01*
X0374441Y0134003D02*
X0375425Y0134987D01*
X0378378Y0134987D01*
X0377394Y0133018D02*
X0375425Y0133018D01*
X0374441Y0134003D01*
X0374441Y0131050D02*
X0377394Y0131050D01*
X0378378Y0132034D01*
X0377394Y0133018D01*
X0380886Y0132034D02*
X0381871Y0131050D01*
X0384823Y0131050D01*
X0387332Y0132034D02*
X0388316Y0131050D01*
X0390285Y0131050D01*
X0391269Y0132034D01*
X0391269Y0134003D01*
X0390285Y0134987D01*
X0388316Y0134987D01*
X0387332Y0134003D01*
X0387332Y0132034D01*
X0384823Y0134987D02*
X0381871Y0134987D01*
X0380886Y0134003D01*
X0380886Y0132034D01*
X0393777Y0131050D02*
X0393777Y0134987D01*
X0393777Y0133018D02*
X0395746Y0134987D01*
X0396730Y0134987D01*
X0399149Y0134003D02*
X0400133Y0134987D01*
X0402101Y0134987D01*
X0403085Y0134003D01*
X0403085Y0133018D01*
X0399149Y0133018D01*
X0399149Y0132034D02*
X0399149Y0134003D01*
X0399149Y0132034D02*
X0400133Y0131050D01*
X0402101Y0131050D01*
X0402101Y0238050D02*
X0400133Y0238050D01*
X0399149Y0239034D01*
X0399149Y0241003D01*
X0400133Y0241987D01*
X0402101Y0241987D01*
X0403085Y0241003D01*
X0403085Y0240018D01*
X0399149Y0240018D01*
X0396730Y0241987D02*
X0395746Y0241987D01*
X0393777Y0240018D01*
X0393777Y0238050D02*
X0393777Y0241987D01*
X0391269Y0241003D02*
X0391269Y0239034D01*
X0390285Y0238050D01*
X0388316Y0238050D01*
X0387332Y0239034D01*
X0387332Y0241003D01*
X0388316Y0241987D01*
X0390285Y0241987D01*
X0391269Y0241003D01*
X0384823Y0241987D02*
X0381871Y0241987D01*
X0380886Y0241003D01*
X0380886Y0239034D01*
X0381871Y0238050D01*
X0384823Y0238050D01*
X0378378Y0239034D02*
X0377394Y0240018D01*
X0375425Y0240018D01*
X0374441Y0241003D01*
X0375425Y0241987D01*
X0378378Y0241987D01*
X0378378Y0239034D02*
X0377394Y0238050D01*
X0374441Y0238050D01*
X0371932Y0241003D02*
X0367995Y0241003D01*
X0365487Y0241987D02*
X0363518Y0238050D01*
X0361550Y0241987D01*
X0248101Y0376550D02*
X0246133Y0376550D01*
X0245149Y0377534D01*
X0245149Y0379503D01*
X0246133Y0380487D01*
X0248101Y0380487D01*
X0249085Y0379503D01*
X0249085Y0378518D01*
X0245149Y0378518D01*
X0242730Y0380487D02*
X0241746Y0380487D01*
X0239777Y0378518D01*
X0239777Y0376550D02*
X0239777Y0380487D01*
X0237269Y0379503D02*
X0236285Y0380487D01*
X0234316Y0380487D01*
X0233332Y0379503D01*
X0233332Y0377534D01*
X0234316Y0376550D01*
X0236285Y0376550D01*
X0237269Y0377534D01*
X0237269Y0379503D01*
X0230823Y0380487D02*
X0227871Y0380487D01*
X0226886Y0379503D01*
X0226886Y0377534D01*
X0227871Y0376550D01*
X0230823Y0376550D01*
X0224378Y0377534D02*
X0223394Y0378518D01*
X0221425Y0378518D01*
X0220441Y0379503D01*
X0221425Y0380487D01*
X0224378Y0380487D01*
X0224378Y0377534D02*
X0223394Y0376550D01*
X0220441Y0376550D01*
X0217932Y0379503D02*
X0213995Y0379503D01*
X0211487Y0380487D02*
X0209518Y0376550D01*
X0207550Y0380487D01*
X0147085Y0379503D02*
X0147085Y0378518D01*
X0143149Y0378518D01*
X0143149Y0377534D02*
X0143149Y0379503D01*
X0144133Y0380487D01*
X0146101Y0380487D01*
X0147085Y0379503D01*
X0146101Y0376550D02*
X0144133Y0376550D01*
X0143149Y0377534D01*
X0140730Y0380487D02*
X0139746Y0380487D01*
X0137777Y0378518D01*
X0137777Y0376550D02*
X0137777Y0380487D01*
X0135269Y0379503D02*
X0134285Y0380487D01*
X0132316Y0380487D01*
X0131332Y0379503D01*
X0131332Y0377534D01*
X0132316Y0376550D01*
X0134285Y0376550D01*
X0135269Y0377534D01*
X0135269Y0379503D01*
X0128823Y0380487D02*
X0125871Y0380487D01*
X0124886Y0379503D01*
X0124886Y0377534D01*
X0125871Y0376550D01*
X0128823Y0376550D01*
X0122378Y0377534D02*
X0121394Y0378518D01*
X0119425Y0378518D01*
X0118441Y0379503D01*
X0119425Y0380487D01*
X0122378Y0380487D01*
X0122378Y0377534D02*
X0121394Y0376550D01*
X0118441Y0376550D01*
X0115932Y0379503D02*
X0111995Y0379503D01*
X0109487Y0380487D02*
X0107518Y0376550D01*
X0105550Y0380487D01*
D13*
X0110000Y0335500D02*
X0110002Y0335661D01*
X0110008Y0335821D01*
X0110018Y0335982D01*
X0110032Y0336142D01*
X0110050Y0336302D01*
X0110071Y0336461D01*
X0110097Y0336620D01*
X0110127Y0336778D01*
X0110160Y0336935D01*
X0110198Y0337092D01*
X0110239Y0337247D01*
X0110284Y0337401D01*
X0110333Y0337554D01*
X0110386Y0337706D01*
X0110442Y0337857D01*
X0110503Y0338006D01*
X0110566Y0338154D01*
X0110634Y0338300D01*
X0110705Y0338444D01*
X0110779Y0338586D01*
X0110857Y0338727D01*
X0110939Y0338865D01*
X0111024Y0339002D01*
X0111112Y0339136D01*
X0111204Y0339268D01*
X0111299Y0339398D01*
X0111397Y0339526D01*
X0111498Y0339651D01*
X0111602Y0339773D01*
X0111709Y0339893D01*
X0111819Y0340010D01*
X0111932Y0340125D01*
X0112048Y0340236D01*
X0112167Y0340345D01*
X0112288Y0340450D01*
X0112412Y0340553D01*
X0112538Y0340653D01*
X0112666Y0340749D01*
X0112797Y0340842D01*
X0112931Y0340932D01*
X0113066Y0341019D01*
X0113204Y0341102D01*
X0113343Y0341182D01*
X0113485Y0341258D01*
X0113628Y0341331D01*
X0113773Y0341400D01*
X0113920Y0341466D01*
X0114068Y0341528D01*
X0114218Y0341586D01*
X0114369Y0341641D01*
X0114522Y0341692D01*
X0114676Y0341739D01*
X0114831Y0341782D01*
X0114987Y0341821D01*
X0115143Y0341857D01*
X0115301Y0341888D01*
X0115459Y0341916D01*
X0115618Y0341940D01*
X0115778Y0341960D01*
X0115938Y0341976D01*
X0116098Y0341988D01*
X0116259Y0341996D01*
X0116420Y0342000D01*
X0116580Y0342000D01*
X0116741Y0341996D01*
X0116902Y0341988D01*
X0117062Y0341976D01*
X0117222Y0341960D01*
X0117382Y0341940D01*
X0117541Y0341916D01*
X0117699Y0341888D01*
X0117857Y0341857D01*
X0118013Y0341821D01*
X0118169Y0341782D01*
X0118324Y0341739D01*
X0118478Y0341692D01*
X0118631Y0341641D01*
X0118782Y0341586D01*
X0118932Y0341528D01*
X0119080Y0341466D01*
X0119227Y0341400D01*
X0119372Y0341331D01*
X0119515Y0341258D01*
X0119657Y0341182D01*
X0119796Y0341102D01*
X0119934Y0341019D01*
X0120069Y0340932D01*
X0120203Y0340842D01*
X0120334Y0340749D01*
X0120462Y0340653D01*
X0120588Y0340553D01*
X0120712Y0340450D01*
X0120833Y0340345D01*
X0120952Y0340236D01*
X0121068Y0340125D01*
X0121181Y0340010D01*
X0121291Y0339893D01*
X0121398Y0339773D01*
X0121502Y0339651D01*
X0121603Y0339526D01*
X0121701Y0339398D01*
X0121796Y0339268D01*
X0121888Y0339136D01*
X0121976Y0339002D01*
X0122061Y0338865D01*
X0122143Y0338727D01*
X0122221Y0338586D01*
X0122295Y0338444D01*
X0122366Y0338300D01*
X0122434Y0338154D01*
X0122497Y0338006D01*
X0122558Y0337857D01*
X0122614Y0337706D01*
X0122667Y0337554D01*
X0122716Y0337401D01*
X0122761Y0337247D01*
X0122802Y0337092D01*
X0122840Y0336935D01*
X0122873Y0336778D01*
X0122903Y0336620D01*
X0122929Y0336461D01*
X0122950Y0336302D01*
X0122968Y0336142D01*
X0122982Y0335982D01*
X0122992Y0335821D01*
X0122998Y0335661D01*
X0123000Y0335500D01*
X0122998Y0335339D01*
X0122992Y0335179D01*
X0122982Y0335018D01*
X0122968Y0334858D01*
X0122950Y0334698D01*
X0122929Y0334539D01*
X0122903Y0334380D01*
X0122873Y0334222D01*
X0122840Y0334065D01*
X0122802Y0333908D01*
X0122761Y0333753D01*
X0122716Y0333599D01*
X0122667Y0333446D01*
X0122614Y0333294D01*
X0122558Y0333143D01*
X0122497Y0332994D01*
X0122434Y0332846D01*
X0122366Y0332700D01*
X0122295Y0332556D01*
X0122221Y0332414D01*
X0122143Y0332273D01*
X0122061Y0332135D01*
X0121976Y0331998D01*
X0121888Y0331864D01*
X0121796Y0331732D01*
X0121701Y0331602D01*
X0121603Y0331474D01*
X0121502Y0331349D01*
X0121398Y0331227D01*
X0121291Y0331107D01*
X0121181Y0330990D01*
X0121068Y0330875D01*
X0120952Y0330764D01*
X0120833Y0330655D01*
X0120712Y0330550D01*
X0120588Y0330447D01*
X0120462Y0330347D01*
X0120334Y0330251D01*
X0120203Y0330158D01*
X0120069Y0330068D01*
X0119934Y0329981D01*
X0119796Y0329898D01*
X0119657Y0329818D01*
X0119515Y0329742D01*
X0119372Y0329669D01*
X0119227Y0329600D01*
X0119080Y0329534D01*
X0118932Y0329472D01*
X0118782Y0329414D01*
X0118631Y0329359D01*
X0118478Y0329308D01*
X0118324Y0329261D01*
X0118169Y0329218D01*
X0118013Y0329179D01*
X0117857Y0329143D01*
X0117699Y0329112D01*
X0117541Y0329084D01*
X0117382Y0329060D01*
X0117222Y0329040D01*
X0117062Y0329024D01*
X0116902Y0329012D01*
X0116741Y0329004D01*
X0116580Y0329000D01*
X0116420Y0329000D01*
X0116259Y0329004D01*
X0116098Y0329012D01*
X0115938Y0329024D01*
X0115778Y0329040D01*
X0115618Y0329060D01*
X0115459Y0329084D01*
X0115301Y0329112D01*
X0115143Y0329143D01*
X0114987Y0329179D01*
X0114831Y0329218D01*
X0114676Y0329261D01*
X0114522Y0329308D01*
X0114369Y0329359D01*
X0114218Y0329414D01*
X0114068Y0329472D01*
X0113920Y0329534D01*
X0113773Y0329600D01*
X0113628Y0329669D01*
X0113485Y0329742D01*
X0113343Y0329818D01*
X0113204Y0329898D01*
X0113066Y0329981D01*
X0112931Y0330068D01*
X0112797Y0330158D01*
X0112666Y0330251D01*
X0112538Y0330347D01*
X0112412Y0330447D01*
X0112288Y0330550D01*
X0112167Y0330655D01*
X0112048Y0330764D01*
X0111932Y0330875D01*
X0111819Y0330990D01*
X0111709Y0331107D01*
X0111602Y0331227D01*
X0111498Y0331349D01*
X0111397Y0331474D01*
X0111299Y0331602D01*
X0111204Y0331732D01*
X0111112Y0331864D01*
X0111024Y0331998D01*
X0110939Y0332135D01*
X0110857Y0332273D01*
X0110779Y0332414D01*
X0110705Y0332556D01*
X0110634Y0332700D01*
X0110566Y0332846D01*
X0110503Y0332994D01*
X0110442Y0333143D01*
X0110386Y0333294D01*
X0110333Y0333446D01*
X0110284Y0333599D01*
X0110239Y0333753D01*
X0110198Y0333908D01*
X0110160Y0334065D01*
X0110127Y0334222D01*
X0110097Y0334380D01*
X0110071Y0334539D01*
X0110050Y0334698D01*
X0110032Y0334858D01*
X0110018Y0335018D01*
X0110008Y0335179D01*
X0110002Y0335339D01*
X0110000Y0335500D01*
X0132000Y0335500D02*
X0132002Y0335661D01*
X0132008Y0335821D01*
X0132018Y0335982D01*
X0132032Y0336142D01*
X0132050Y0336302D01*
X0132071Y0336461D01*
X0132097Y0336620D01*
X0132127Y0336778D01*
X0132160Y0336935D01*
X0132198Y0337092D01*
X0132239Y0337247D01*
X0132284Y0337401D01*
X0132333Y0337554D01*
X0132386Y0337706D01*
X0132442Y0337857D01*
X0132503Y0338006D01*
X0132566Y0338154D01*
X0132634Y0338300D01*
X0132705Y0338444D01*
X0132779Y0338586D01*
X0132857Y0338727D01*
X0132939Y0338865D01*
X0133024Y0339002D01*
X0133112Y0339136D01*
X0133204Y0339268D01*
X0133299Y0339398D01*
X0133397Y0339526D01*
X0133498Y0339651D01*
X0133602Y0339773D01*
X0133709Y0339893D01*
X0133819Y0340010D01*
X0133932Y0340125D01*
X0134048Y0340236D01*
X0134167Y0340345D01*
X0134288Y0340450D01*
X0134412Y0340553D01*
X0134538Y0340653D01*
X0134666Y0340749D01*
X0134797Y0340842D01*
X0134931Y0340932D01*
X0135066Y0341019D01*
X0135204Y0341102D01*
X0135343Y0341182D01*
X0135485Y0341258D01*
X0135628Y0341331D01*
X0135773Y0341400D01*
X0135920Y0341466D01*
X0136068Y0341528D01*
X0136218Y0341586D01*
X0136369Y0341641D01*
X0136522Y0341692D01*
X0136676Y0341739D01*
X0136831Y0341782D01*
X0136987Y0341821D01*
X0137143Y0341857D01*
X0137301Y0341888D01*
X0137459Y0341916D01*
X0137618Y0341940D01*
X0137778Y0341960D01*
X0137938Y0341976D01*
X0138098Y0341988D01*
X0138259Y0341996D01*
X0138420Y0342000D01*
X0138580Y0342000D01*
X0138741Y0341996D01*
X0138902Y0341988D01*
X0139062Y0341976D01*
X0139222Y0341960D01*
X0139382Y0341940D01*
X0139541Y0341916D01*
X0139699Y0341888D01*
X0139857Y0341857D01*
X0140013Y0341821D01*
X0140169Y0341782D01*
X0140324Y0341739D01*
X0140478Y0341692D01*
X0140631Y0341641D01*
X0140782Y0341586D01*
X0140932Y0341528D01*
X0141080Y0341466D01*
X0141227Y0341400D01*
X0141372Y0341331D01*
X0141515Y0341258D01*
X0141657Y0341182D01*
X0141796Y0341102D01*
X0141934Y0341019D01*
X0142069Y0340932D01*
X0142203Y0340842D01*
X0142334Y0340749D01*
X0142462Y0340653D01*
X0142588Y0340553D01*
X0142712Y0340450D01*
X0142833Y0340345D01*
X0142952Y0340236D01*
X0143068Y0340125D01*
X0143181Y0340010D01*
X0143291Y0339893D01*
X0143398Y0339773D01*
X0143502Y0339651D01*
X0143603Y0339526D01*
X0143701Y0339398D01*
X0143796Y0339268D01*
X0143888Y0339136D01*
X0143976Y0339002D01*
X0144061Y0338865D01*
X0144143Y0338727D01*
X0144221Y0338586D01*
X0144295Y0338444D01*
X0144366Y0338300D01*
X0144434Y0338154D01*
X0144497Y0338006D01*
X0144558Y0337857D01*
X0144614Y0337706D01*
X0144667Y0337554D01*
X0144716Y0337401D01*
X0144761Y0337247D01*
X0144802Y0337092D01*
X0144840Y0336935D01*
X0144873Y0336778D01*
X0144903Y0336620D01*
X0144929Y0336461D01*
X0144950Y0336302D01*
X0144968Y0336142D01*
X0144982Y0335982D01*
X0144992Y0335821D01*
X0144998Y0335661D01*
X0145000Y0335500D01*
X0144998Y0335339D01*
X0144992Y0335179D01*
X0144982Y0335018D01*
X0144968Y0334858D01*
X0144950Y0334698D01*
X0144929Y0334539D01*
X0144903Y0334380D01*
X0144873Y0334222D01*
X0144840Y0334065D01*
X0144802Y0333908D01*
X0144761Y0333753D01*
X0144716Y0333599D01*
X0144667Y0333446D01*
X0144614Y0333294D01*
X0144558Y0333143D01*
X0144497Y0332994D01*
X0144434Y0332846D01*
X0144366Y0332700D01*
X0144295Y0332556D01*
X0144221Y0332414D01*
X0144143Y0332273D01*
X0144061Y0332135D01*
X0143976Y0331998D01*
X0143888Y0331864D01*
X0143796Y0331732D01*
X0143701Y0331602D01*
X0143603Y0331474D01*
X0143502Y0331349D01*
X0143398Y0331227D01*
X0143291Y0331107D01*
X0143181Y0330990D01*
X0143068Y0330875D01*
X0142952Y0330764D01*
X0142833Y0330655D01*
X0142712Y0330550D01*
X0142588Y0330447D01*
X0142462Y0330347D01*
X0142334Y0330251D01*
X0142203Y0330158D01*
X0142069Y0330068D01*
X0141934Y0329981D01*
X0141796Y0329898D01*
X0141657Y0329818D01*
X0141515Y0329742D01*
X0141372Y0329669D01*
X0141227Y0329600D01*
X0141080Y0329534D01*
X0140932Y0329472D01*
X0140782Y0329414D01*
X0140631Y0329359D01*
X0140478Y0329308D01*
X0140324Y0329261D01*
X0140169Y0329218D01*
X0140013Y0329179D01*
X0139857Y0329143D01*
X0139699Y0329112D01*
X0139541Y0329084D01*
X0139382Y0329060D01*
X0139222Y0329040D01*
X0139062Y0329024D01*
X0138902Y0329012D01*
X0138741Y0329004D01*
X0138580Y0329000D01*
X0138420Y0329000D01*
X0138259Y0329004D01*
X0138098Y0329012D01*
X0137938Y0329024D01*
X0137778Y0329040D01*
X0137618Y0329060D01*
X0137459Y0329084D01*
X0137301Y0329112D01*
X0137143Y0329143D01*
X0136987Y0329179D01*
X0136831Y0329218D01*
X0136676Y0329261D01*
X0136522Y0329308D01*
X0136369Y0329359D01*
X0136218Y0329414D01*
X0136068Y0329472D01*
X0135920Y0329534D01*
X0135773Y0329600D01*
X0135628Y0329669D01*
X0135485Y0329742D01*
X0135343Y0329818D01*
X0135204Y0329898D01*
X0135066Y0329981D01*
X0134931Y0330068D01*
X0134797Y0330158D01*
X0134666Y0330251D01*
X0134538Y0330347D01*
X0134412Y0330447D01*
X0134288Y0330550D01*
X0134167Y0330655D01*
X0134048Y0330764D01*
X0133932Y0330875D01*
X0133819Y0330990D01*
X0133709Y0331107D01*
X0133602Y0331227D01*
X0133498Y0331349D01*
X0133397Y0331474D01*
X0133299Y0331602D01*
X0133204Y0331732D01*
X0133112Y0331864D01*
X0133024Y0331998D01*
X0132939Y0332135D01*
X0132857Y0332273D01*
X0132779Y0332414D01*
X0132705Y0332556D01*
X0132634Y0332700D01*
X0132566Y0332846D01*
X0132503Y0332994D01*
X0132442Y0333143D01*
X0132386Y0333294D01*
X0132333Y0333446D01*
X0132284Y0333599D01*
X0132239Y0333753D01*
X0132198Y0333908D01*
X0132160Y0334065D01*
X0132127Y0334222D01*
X0132097Y0334380D01*
X0132071Y0334539D01*
X0132050Y0334698D01*
X0132032Y0334858D01*
X0132018Y0335018D01*
X0132008Y0335179D01*
X0132002Y0335339D01*
X0132000Y0335500D01*
X0212000Y0335500D02*
X0212002Y0335661D01*
X0212008Y0335821D01*
X0212018Y0335982D01*
X0212032Y0336142D01*
X0212050Y0336302D01*
X0212071Y0336461D01*
X0212097Y0336620D01*
X0212127Y0336778D01*
X0212160Y0336935D01*
X0212198Y0337092D01*
X0212239Y0337247D01*
X0212284Y0337401D01*
X0212333Y0337554D01*
X0212386Y0337706D01*
X0212442Y0337857D01*
X0212503Y0338006D01*
X0212566Y0338154D01*
X0212634Y0338300D01*
X0212705Y0338444D01*
X0212779Y0338586D01*
X0212857Y0338727D01*
X0212939Y0338865D01*
X0213024Y0339002D01*
X0213112Y0339136D01*
X0213204Y0339268D01*
X0213299Y0339398D01*
X0213397Y0339526D01*
X0213498Y0339651D01*
X0213602Y0339773D01*
X0213709Y0339893D01*
X0213819Y0340010D01*
X0213932Y0340125D01*
X0214048Y0340236D01*
X0214167Y0340345D01*
X0214288Y0340450D01*
X0214412Y0340553D01*
X0214538Y0340653D01*
X0214666Y0340749D01*
X0214797Y0340842D01*
X0214931Y0340932D01*
X0215066Y0341019D01*
X0215204Y0341102D01*
X0215343Y0341182D01*
X0215485Y0341258D01*
X0215628Y0341331D01*
X0215773Y0341400D01*
X0215920Y0341466D01*
X0216068Y0341528D01*
X0216218Y0341586D01*
X0216369Y0341641D01*
X0216522Y0341692D01*
X0216676Y0341739D01*
X0216831Y0341782D01*
X0216987Y0341821D01*
X0217143Y0341857D01*
X0217301Y0341888D01*
X0217459Y0341916D01*
X0217618Y0341940D01*
X0217778Y0341960D01*
X0217938Y0341976D01*
X0218098Y0341988D01*
X0218259Y0341996D01*
X0218420Y0342000D01*
X0218580Y0342000D01*
X0218741Y0341996D01*
X0218902Y0341988D01*
X0219062Y0341976D01*
X0219222Y0341960D01*
X0219382Y0341940D01*
X0219541Y0341916D01*
X0219699Y0341888D01*
X0219857Y0341857D01*
X0220013Y0341821D01*
X0220169Y0341782D01*
X0220324Y0341739D01*
X0220478Y0341692D01*
X0220631Y0341641D01*
X0220782Y0341586D01*
X0220932Y0341528D01*
X0221080Y0341466D01*
X0221227Y0341400D01*
X0221372Y0341331D01*
X0221515Y0341258D01*
X0221657Y0341182D01*
X0221796Y0341102D01*
X0221934Y0341019D01*
X0222069Y0340932D01*
X0222203Y0340842D01*
X0222334Y0340749D01*
X0222462Y0340653D01*
X0222588Y0340553D01*
X0222712Y0340450D01*
X0222833Y0340345D01*
X0222952Y0340236D01*
X0223068Y0340125D01*
X0223181Y0340010D01*
X0223291Y0339893D01*
X0223398Y0339773D01*
X0223502Y0339651D01*
X0223603Y0339526D01*
X0223701Y0339398D01*
X0223796Y0339268D01*
X0223888Y0339136D01*
X0223976Y0339002D01*
X0224061Y0338865D01*
X0224143Y0338727D01*
X0224221Y0338586D01*
X0224295Y0338444D01*
X0224366Y0338300D01*
X0224434Y0338154D01*
X0224497Y0338006D01*
X0224558Y0337857D01*
X0224614Y0337706D01*
X0224667Y0337554D01*
X0224716Y0337401D01*
X0224761Y0337247D01*
X0224802Y0337092D01*
X0224840Y0336935D01*
X0224873Y0336778D01*
X0224903Y0336620D01*
X0224929Y0336461D01*
X0224950Y0336302D01*
X0224968Y0336142D01*
X0224982Y0335982D01*
X0224992Y0335821D01*
X0224998Y0335661D01*
X0225000Y0335500D01*
X0224998Y0335339D01*
X0224992Y0335179D01*
X0224982Y0335018D01*
X0224968Y0334858D01*
X0224950Y0334698D01*
X0224929Y0334539D01*
X0224903Y0334380D01*
X0224873Y0334222D01*
X0224840Y0334065D01*
X0224802Y0333908D01*
X0224761Y0333753D01*
X0224716Y0333599D01*
X0224667Y0333446D01*
X0224614Y0333294D01*
X0224558Y0333143D01*
X0224497Y0332994D01*
X0224434Y0332846D01*
X0224366Y0332700D01*
X0224295Y0332556D01*
X0224221Y0332414D01*
X0224143Y0332273D01*
X0224061Y0332135D01*
X0223976Y0331998D01*
X0223888Y0331864D01*
X0223796Y0331732D01*
X0223701Y0331602D01*
X0223603Y0331474D01*
X0223502Y0331349D01*
X0223398Y0331227D01*
X0223291Y0331107D01*
X0223181Y0330990D01*
X0223068Y0330875D01*
X0222952Y0330764D01*
X0222833Y0330655D01*
X0222712Y0330550D01*
X0222588Y0330447D01*
X0222462Y0330347D01*
X0222334Y0330251D01*
X0222203Y0330158D01*
X0222069Y0330068D01*
X0221934Y0329981D01*
X0221796Y0329898D01*
X0221657Y0329818D01*
X0221515Y0329742D01*
X0221372Y0329669D01*
X0221227Y0329600D01*
X0221080Y0329534D01*
X0220932Y0329472D01*
X0220782Y0329414D01*
X0220631Y0329359D01*
X0220478Y0329308D01*
X0220324Y0329261D01*
X0220169Y0329218D01*
X0220013Y0329179D01*
X0219857Y0329143D01*
X0219699Y0329112D01*
X0219541Y0329084D01*
X0219382Y0329060D01*
X0219222Y0329040D01*
X0219062Y0329024D01*
X0218902Y0329012D01*
X0218741Y0329004D01*
X0218580Y0329000D01*
X0218420Y0329000D01*
X0218259Y0329004D01*
X0218098Y0329012D01*
X0217938Y0329024D01*
X0217778Y0329040D01*
X0217618Y0329060D01*
X0217459Y0329084D01*
X0217301Y0329112D01*
X0217143Y0329143D01*
X0216987Y0329179D01*
X0216831Y0329218D01*
X0216676Y0329261D01*
X0216522Y0329308D01*
X0216369Y0329359D01*
X0216218Y0329414D01*
X0216068Y0329472D01*
X0215920Y0329534D01*
X0215773Y0329600D01*
X0215628Y0329669D01*
X0215485Y0329742D01*
X0215343Y0329818D01*
X0215204Y0329898D01*
X0215066Y0329981D01*
X0214931Y0330068D01*
X0214797Y0330158D01*
X0214666Y0330251D01*
X0214538Y0330347D01*
X0214412Y0330447D01*
X0214288Y0330550D01*
X0214167Y0330655D01*
X0214048Y0330764D01*
X0213932Y0330875D01*
X0213819Y0330990D01*
X0213709Y0331107D01*
X0213602Y0331227D01*
X0213498Y0331349D01*
X0213397Y0331474D01*
X0213299Y0331602D01*
X0213204Y0331732D01*
X0213112Y0331864D01*
X0213024Y0331998D01*
X0212939Y0332135D01*
X0212857Y0332273D01*
X0212779Y0332414D01*
X0212705Y0332556D01*
X0212634Y0332700D01*
X0212566Y0332846D01*
X0212503Y0332994D01*
X0212442Y0333143D01*
X0212386Y0333294D01*
X0212333Y0333446D01*
X0212284Y0333599D01*
X0212239Y0333753D01*
X0212198Y0333908D01*
X0212160Y0334065D01*
X0212127Y0334222D01*
X0212097Y0334380D01*
X0212071Y0334539D01*
X0212050Y0334698D01*
X0212032Y0334858D01*
X0212018Y0335018D01*
X0212008Y0335179D01*
X0212002Y0335339D01*
X0212000Y0335500D01*
X0234000Y0335500D02*
X0234002Y0335661D01*
X0234008Y0335821D01*
X0234018Y0335982D01*
X0234032Y0336142D01*
X0234050Y0336302D01*
X0234071Y0336461D01*
X0234097Y0336620D01*
X0234127Y0336778D01*
X0234160Y0336935D01*
X0234198Y0337092D01*
X0234239Y0337247D01*
X0234284Y0337401D01*
X0234333Y0337554D01*
X0234386Y0337706D01*
X0234442Y0337857D01*
X0234503Y0338006D01*
X0234566Y0338154D01*
X0234634Y0338300D01*
X0234705Y0338444D01*
X0234779Y0338586D01*
X0234857Y0338727D01*
X0234939Y0338865D01*
X0235024Y0339002D01*
X0235112Y0339136D01*
X0235204Y0339268D01*
X0235299Y0339398D01*
X0235397Y0339526D01*
X0235498Y0339651D01*
X0235602Y0339773D01*
X0235709Y0339893D01*
X0235819Y0340010D01*
X0235932Y0340125D01*
X0236048Y0340236D01*
X0236167Y0340345D01*
X0236288Y0340450D01*
X0236412Y0340553D01*
X0236538Y0340653D01*
X0236666Y0340749D01*
X0236797Y0340842D01*
X0236931Y0340932D01*
X0237066Y0341019D01*
X0237204Y0341102D01*
X0237343Y0341182D01*
X0237485Y0341258D01*
X0237628Y0341331D01*
X0237773Y0341400D01*
X0237920Y0341466D01*
X0238068Y0341528D01*
X0238218Y0341586D01*
X0238369Y0341641D01*
X0238522Y0341692D01*
X0238676Y0341739D01*
X0238831Y0341782D01*
X0238987Y0341821D01*
X0239143Y0341857D01*
X0239301Y0341888D01*
X0239459Y0341916D01*
X0239618Y0341940D01*
X0239778Y0341960D01*
X0239938Y0341976D01*
X0240098Y0341988D01*
X0240259Y0341996D01*
X0240420Y0342000D01*
X0240580Y0342000D01*
X0240741Y0341996D01*
X0240902Y0341988D01*
X0241062Y0341976D01*
X0241222Y0341960D01*
X0241382Y0341940D01*
X0241541Y0341916D01*
X0241699Y0341888D01*
X0241857Y0341857D01*
X0242013Y0341821D01*
X0242169Y0341782D01*
X0242324Y0341739D01*
X0242478Y0341692D01*
X0242631Y0341641D01*
X0242782Y0341586D01*
X0242932Y0341528D01*
X0243080Y0341466D01*
X0243227Y0341400D01*
X0243372Y0341331D01*
X0243515Y0341258D01*
X0243657Y0341182D01*
X0243796Y0341102D01*
X0243934Y0341019D01*
X0244069Y0340932D01*
X0244203Y0340842D01*
X0244334Y0340749D01*
X0244462Y0340653D01*
X0244588Y0340553D01*
X0244712Y0340450D01*
X0244833Y0340345D01*
X0244952Y0340236D01*
X0245068Y0340125D01*
X0245181Y0340010D01*
X0245291Y0339893D01*
X0245398Y0339773D01*
X0245502Y0339651D01*
X0245603Y0339526D01*
X0245701Y0339398D01*
X0245796Y0339268D01*
X0245888Y0339136D01*
X0245976Y0339002D01*
X0246061Y0338865D01*
X0246143Y0338727D01*
X0246221Y0338586D01*
X0246295Y0338444D01*
X0246366Y0338300D01*
X0246434Y0338154D01*
X0246497Y0338006D01*
X0246558Y0337857D01*
X0246614Y0337706D01*
X0246667Y0337554D01*
X0246716Y0337401D01*
X0246761Y0337247D01*
X0246802Y0337092D01*
X0246840Y0336935D01*
X0246873Y0336778D01*
X0246903Y0336620D01*
X0246929Y0336461D01*
X0246950Y0336302D01*
X0246968Y0336142D01*
X0246982Y0335982D01*
X0246992Y0335821D01*
X0246998Y0335661D01*
X0247000Y0335500D01*
X0246998Y0335339D01*
X0246992Y0335179D01*
X0246982Y0335018D01*
X0246968Y0334858D01*
X0246950Y0334698D01*
X0246929Y0334539D01*
X0246903Y0334380D01*
X0246873Y0334222D01*
X0246840Y0334065D01*
X0246802Y0333908D01*
X0246761Y0333753D01*
X0246716Y0333599D01*
X0246667Y0333446D01*
X0246614Y0333294D01*
X0246558Y0333143D01*
X0246497Y0332994D01*
X0246434Y0332846D01*
X0246366Y0332700D01*
X0246295Y0332556D01*
X0246221Y0332414D01*
X0246143Y0332273D01*
X0246061Y0332135D01*
X0245976Y0331998D01*
X0245888Y0331864D01*
X0245796Y0331732D01*
X0245701Y0331602D01*
X0245603Y0331474D01*
X0245502Y0331349D01*
X0245398Y0331227D01*
X0245291Y0331107D01*
X0245181Y0330990D01*
X0245068Y0330875D01*
X0244952Y0330764D01*
X0244833Y0330655D01*
X0244712Y0330550D01*
X0244588Y0330447D01*
X0244462Y0330347D01*
X0244334Y0330251D01*
X0244203Y0330158D01*
X0244069Y0330068D01*
X0243934Y0329981D01*
X0243796Y0329898D01*
X0243657Y0329818D01*
X0243515Y0329742D01*
X0243372Y0329669D01*
X0243227Y0329600D01*
X0243080Y0329534D01*
X0242932Y0329472D01*
X0242782Y0329414D01*
X0242631Y0329359D01*
X0242478Y0329308D01*
X0242324Y0329261D01*
X0242169Y0329218D01*
X0242013Y0329179D01*
X0241857Y0329143D01*
X0241699Y0329112D01*
X0241541Y0329084D01*
X0241382Y0329060D01*
X0241222Y0329040D01*
X0241062Y0329024D01*
X0240902Y0329012D01*
X0240741Y0329004D01*
X0240580Y0329000D01*
X0240420Y0329000D01*
X0240259Y0329004D01*
X0240098Y0329012D01*
X0239938Y0329024D01*
X0239778Y0329040D01*
X0239618Y0329060D01*
X0239459Y0329084D01*
X0239301Y0329112D01*
X0239143Y0329143D01*
X0238987Y0329179D01*
X0238831Y0329218D01*
X0238676Y0329261D01*
X0238522Y0329308D01*
X0238369Y0329359D01*
X0238218Y0329414D01*
X0238068Y0329472D01*
X0237920Y0329534D01*
X0237773Y0329600D01*
X0237628Y0329669D01*
X0237485Y0329742D01*
X0237343Y0329818D01*
X0237204Y0329898D01*
X0237066Y0329981D01*
X0236931Y0330068D01*
X0236797Y0330158D01*
X0236666Y0330251D01*
X0236538Y0330347D01*
X0236412Y0330447D01*
X0236288Y0330550D01*
X0236167Y0330655D01*
X0236048Y0330764D01*
X0235932Y0330875D01*
X0235819Y0330990D01*
X0235709Y0331107D01*
X0235602Y0331227D01*
X0235498Y0331349D01*
X0235397Y0331474D01*
X0235299Y0331602D01*
X0235204Y0331732D01*
X0235112Y0331864D01*
X0235024Y0331998D01*
X0234939Y0332135D01*
X0234857Y0332273D01*
X0234779Y0332414D01*
X0234705Y0332556D01*
X0234634Y0332700D01*
X0234566Y0332846D01*
X0234503Y0332994D01*
X0234442Y0333143D01*
X0234386Y0333294D01*
X0234333Y0333446D01*
X0234284Y0333599D01*
X0234239Y0333753D01*
X0234198Y0333908D01*
X0234160Y0334065D01*
X0234127Y0334222D01*
X0234097Y0334380D01*
X0234071Y0334539D01*
X0234050Y0334698D01*
X0234032Y0334858D01*
X0234018Y0335018D01*
X0234008Y0335179D01*
X0234002Y0335339D01*
X0234000Y0335500D01*
X0314000Y0335500D02*
X0314002Y0335661D01*
X0314008Y0335821D01*
X0314018Y0335982D01*
X0314032Y0336142D01*
X0314050Y0336302D01*
X0314071Y0336461D01*
X0314097Y0336620D01*
X0314127Y0336778D01*
X0314160Y0336935D01*
X0314198Y0337092D01*
X0314239Y0337247D01*
X0314284Y0337401D01*
X0314333Y0337554D01*
X0314386Y0337706D01*
X0314442Y0337857D01*
X0314503Y0338006D01*
X0314566Y0338154D01*
X0314634Y0338300D01*
X0314705Y0338444D01*
X0314779Y0338586D01*
X0314857Y0338727D01*
X0314939Y0338865D01*
X0315024Y0339002D01*
X0315112Y0339136D01*
X0315204Y0339268D01*
X0315299Y0339398D01*
X0315397Y0339526D01*
X0315498Y0339651D01*
X0315602Y0339773D01*
X0315709Y0339893D01*
X0315819Y0340010D01*
X0315932Y0340125D01*
X0316048Y0340236D01*
X0316167Y0340345D01*
X0316288Y0340450D01*
X0316412Y0340553D01*
X0316538Y0340653D01*
X0316666Y0340749D01*
X0316797Y0340842D01*
X0316931Y0340932D01*
X0317066Y0341019D01*
X0317204Y0341102D01*
X0317343Y0341182D01*
X0317485Y0341258D01*
X0317628Y0341331D01*
X0317773Y0341400D01*
X0317920Y0341466D01*
X0318068Y0341528D01*
X0318218Y0341586D01*
X0318369Y0341641D01*
X0318522Y0341692D01*
X0318676Y0341739D01*
X0318831Y0341782D01*
X0318987Y0341821D01*
X0319143Y0341857D01*
X0319301Y0341888D01*
X0319459Y0341916D01*
X0319618Y0341940D01*
X0319778Y0341960D01*
X0319938Y0341976D01*
X0320098Y0341988D01*
X0320259Y0341996D01*
X0320420Y0342000D01*
X0320580Y0342000D01*
X0320741Y0341996D01*
X0320902Y0341988D01*
X0321062Y0341976D01*
X0321222Y0341960D01*
X0321382Y0341940D01*
X0321541Y0341916D01*
X0321699Y0341888D01*
X0321857Y0341857D01*
X0322013Y0341821D01*
X0322169Y0341782D01*
X0322324Y0341739D01*
X0322478Y0341692D01*
X0322631Y0341641D01*
X0322782Y0341586D01*
X0322932Y0341528D01*
X0323080Y0341466D01*
X0323227Y0341400D01*
X0323372Y0341331D01*
X0323515Y0341258D01*
X0323657Y0341182D01*
X0323796Y0341102D01*
X0323934Y0341019D01*
X0324069Y0340932D01*
X0324203Y0340842D01*
X0324334Y0340749D01*
X0324462Y0340653D01*
X0324588Y0340553D01*
X0324712Y0340450D01*
X0324833Y0340345D01*
X0324952Y0340236D01*
X0325068Y0340125D01*
X0325181Y0340010D01*
X0325291Y0339893D01*
X0325398Y0339773D01*
X0325502Y0339651D01*
X0325603Y0339526D01*
X0325701Y0339398D01*
X0325796Y0339268D01*
X0325888Y0339136D01*
X0325976Y0339002D01*
X0326061Y0338865D01*
X0326143Y0338727D01*
X0326221Y0338586D01*
X0326295Y0338444D01*
X0326366Y0338300D01*
X0326434Y0338154D01*
X0326497Y0338006D01*
X0326558Y0337857D01*
X0326614Y0337706D01*
X0326667Y0337554D01*
X0326716Y0337401D01*
X0326761Y0337247D01*
X0326802Y0337092D01*
X0326840Y0336935D01*
X0326873Y0336778D01*
X0326903Y0336620D01*
X0326929Y0336461D01*
X0326950Y0336302D01*
X0326968Y0336142D01*
X0326982Y0335982D01*
X0326992Y0335821D01*
X0326998Y0335661D01*
X0327000Y0335500D01*
X0326998Y0335339D01*
X0326992Y0335179D01*
X0326982Y0335018D01*
X0326968Y0334858D01*
X0326950Y0334698D01*
X0326929Y0334539D01*
X0326903Y0334380D01*
X0326873Y0334222D01*
X0326840Y0334065D01*
X0326802Y0333908D01*
X0326761Y0333753D01*
X0326716Y0333599D01*
X0326667Y0333446D01*
X0326614Y0333294D01*
X0326558Y0333143D01*
X0326497Y0332994D01*
X0326434Y0332846D01*
X0326366Y0332700D01*
X0326295Y0332556D01*
X0326221Y0332414D01*
X0326143Y0332273D01*
X0326061Y0332135D01*
X0325976Y0331998D01*
X0325888Y0331864D01*
X0325796Y0331732D01*
X0325701Y0331602D01*
X0325603Y0331474D01*
X0325502Y0331349D01*
X0325398Y0331227D01*
X0325291Y0331107D01*
X0325181Y0330990D01*
X0325068Y0330875D01*
X0324952Y0330764D01*
X0324833Y0330655D01*
X0324712Y0330550D01*
X0324588Y0330447D01*
X0324462Y0330347D01*
X0324334Y0330251D01*
X0324203Y0330158D01*
X0324069Y0330068D01*
X0323934Y0329981D01*
X0323796Y0329898D01*
X0323657Y0329818D01*
X0323515Y0329742D01*
X0323372Y0329669D01*
X0323227Y0329600D01*
X0323080Y0329534D01*
X0322932Y0329472D01*
X0322782Y0329414D01*
X0322631Y0329359D01*
X0322478Y0329308D01*
X0322324Y0329261D01*
X0322169Y0329218D01*
X0322013Y0329179D01*
X0321857Y0329143D01*
X0321699Y0329112D01*
X0321541Y0329084D01*
X0321382Y0329060D01*
X0321222Y0329040D01*
X0321062Y0329024D01*
X0320902Y0329012D01*
X0320741Y0329004D01*
X0320580Y0329000D01*
X0320420Y0329000D01*
X0320259Y0329004D01*
X0320098Y0329012D01*
X0319938Y0329024D01*
X0319778Y0329040D01*
X0319618Y0329060D01*
X0319459Y0329084D01*
X0319301Y0329112D01*
X0319143Y0329143D01*
X0318987Y0329179D01*
X0318831Y0329218D01*
X0318676Y0329261D01*
X0318522Y0329308D01*
X0318369Y0329359D01*
X0318218Y0329414D01*
X0318068Y0329472D01*
X0317920Y0329534D01*
X0317773Y0329600D01*
X0317628Y0329669D01*
X0317485Y0329742D01*
X0317343Y0329818D01*
X0317204Y0329898D01*
X0317066Y0329981D01*
X0316931Y0330068D01*
X0316797Y0330158D01*
X0316666Y0330251D01*
X0316538Y0330347D01*
X0316412Y0330447D01*
X0316288Y0330550D01*
X0316167Y0330655D01*
X0316048Y0330764D01*
X0315932Y0330875D01*
X0315819Y0330990D01*
X0315709Y0331107D01*
X0315602Y0331227D01*
X0315498Y0331349D01*
X0315397Y0331474D01*
X0315299Y0331602D01*
X0315204Y0331732D01*
X0315112Y0331864D01*
X0315024Y0331998D01*
X0314939Y0332135D01*
X0314857Y0332273D01*
X0314779Y0332414D01*
X0314705Y0332556D01*
X0314634Y0332700D01*
X0314566Y0332846D01*
X0314503Y0332994D01*
X0314442Y0333143D01*
X0314386Y0333294D01*
X0314333Y0333446D01*
X0314284Y0333599D01*
X0314239Y0333753D01*
X0314198Y0333908D01*
X0314160Y0334065D01*
X0314127Y0334222D01*
X0314097Y0334380D01*
X0314071Y0334539D01*
X0314050Y0334698D01*
X0314032Y0334858D01*
X0314018Y0335018D01*
X0314008Y0335179D01*
X0314002Y0335339D01*
X0314000Y0335500D01*
X0314000Y0228500D02*
X0314002Y0228661D01*
X0314008Y0228821D01*
X0314018Y0228982D01*
X0314032Y0229142D01*
X0314050Y0229302D01*
X0314071Y0229461D01*
X0314097Y0229620D01*
X0314127Y0229778D01*
X0314160Y0229935D01*
X0314198Y0230092D01*
X0314239Y0230247D01*
X0314284Y0230401D01*
X0314333Y0230554D01*
X0314386Y0230706D01*
X0314442Y0230857D01*
X0314503Y0231006D01*
X0314566Y0231154D01*
X0314634Y0231300D01*
X0314705Y0231444D01*
X0314779Y0231586D01*
X0314857Y0231727D01*
X0314939Y0231865D01*
X0315024Y0232002D01*
X0315112Y0232136D01*
X0315204Y0232268D01*
X0315299Y0232398D01*
X0315397Y0232526D01*
X0315498Y0232651D01*
X0315602Y0232773D01*
X0315709Y0232893D01*
X0315819Y0233010D01*
X0315932Y0233125D01*
X0316048Y0233236D01*
X0316167Y0233345D01*
X0316288Y0233450D01*
X0316412Y0233553D01*
X0316538Y0233653D01*
X0316666Y0233749D01*
X0316797Y0233842D01*
X0316931Y0233932D01*
X0317066Y0234019D01*
X0317204Y0234102D01*
X0317343Y0234182D01*
X0317485Y0234258D01*
X0317628Y0234331D01*
X0317773Y0234400D01*
X0317920Y0234466D01*
X0318068Y0234528D01*
X0318218Y0234586D01*
X0318369Y0234641D01*
X0318522Y0234692D01*
X0318676Y0234739D01*
X0318831Y0234782D01*
X0318987Y0234821D01*
X0319143Y0234857D01*
X0319301Y0234888D01*
X0319459Y0234916D01*
X0319618Y0234940D01*
X0319778Y0234960D01*
X0319938Y0234976D01*
X0320098Y0234988D01*
X0320259Y0234996D01*
X0320420Y0235000D01*
X0320580Y0235000D01*
X0320741Y0234996D01*
X0320902Y0234988D01*
X0321062Y0234976D01*
X0321222Y0234960D01*
X0321382Y0234940D01*
X0321541Y0234916D01*
X0321699Y0234888D01*
X0321857Y0234857D01*
X0322013Y0234821D01*
X0322169Y0234782D01*
X0322324Y0234739D01*
X0322478Y0234692D01*
X0322631Y0234641D01*
X0322782Y0234586D01*
X0322932Y0234528D01*
X0323080Y0234466D01*
X0323227Y0234400D01*
X0323372Y0234331D01*
X0323515Y0234258D01*
X0323657Y0234182D01*
X0323796Y0234102D01*
X0323934Y0234019D01*
X0324069Y0233932D01*
X0324203Y0233842D01*
X0324334Y0233749D01*
X0324462Y0233653D01*
X0324588Y0233553D01*
X0324712Y0233450D01*
X0324833Y0233345D01*
X0324952Y0233236D01*
X0325068Y0233125D01*
X0325181Y0233010D01*
X0325291Y0232893D01*
X0325398Y0232773D01*
X0325502Y0232651D01*
X0325603Y0232526D01*
X0325701Y0232398D01*
X0325796Y0232268D01*
X0325888Y0232136D01*
X0325976Y0232002D01*
X0326061Y0231865D01*
X0326143Y0231727D01*
X0326221Y0231586D01*
X0326295Y0231444D01*
X0326366Y0231300D01*
X0326434Y0231154D01*
X0326497Y0231006D01*
X0326558Y0230857D01*
X0326614Y0230706D01*
X0326667Y0230554D01*
X0326716Y0230401D01*
X0326761Y0230247D01*
X0326802Y0230092D01*
X0326840Y0229935D01*
X0326873Y0229778D01*
X0326903Y0229620D01*
X0326929Y0229461D01*
X0326950Y0229302D01*
X0326968Y0229142D01*
X0326982Y0228982D01*
X0326992Y0228821D01*
X0326998Y0228661D01*
X0327000Y0228500D01*
X0326998Y0228339D01*
X0326992Y0228179D01*
X0326982Y0228018D01*
X0326968Y0227858D01*
X0326950Y0227698D01*
X0326929Y0227539D01*
X0326903Y0227380D01*
X0326873Y0227222D01*
X0326840Y0227065D01*
X0326802Y0226908D01*
X0326761Y0226753D01*
X0326716Y0226599D01*
X0326667Y0226446D01*
X0326614Y0226294D01*
X0326558Y0226143D01*
X0326497Y0225994D01*
X0326434Y0225846D01*
X0326366Y0225700D01*
X0326295Y0225556D01*
X0326221Y0225414D01*
X0326143Y0225273D01*
X0326061Y0225135D01*
X0325976Y0224998D01*
X0325888Y0224864D01*
X0325796Y0224732D01*
X0325701Y0224602D01*
X0325603Y0224474D01*
X0325502Y0224349D01*
X0325398Y0224227D01*
X0325291Y0224107D01*
X0325181Y0223990D01*
X0325068Y0223875D01*
X0324952Y0223764D01*
X0324833Y0223655D01*
X0324712Y0223550D01*
X0324588Y0223447D01*
X0324462Y0223347D01*
X0324334Y0223251D01*
X0324203Y0223158D01*
X0324069Y0223068D01*
X0323934Y0222981D01*
X0323796Y0222898D01*
X0323657Y0222818D01*
X0323515Y0222742D01*
X0323372Y0222669D01*
X0323227Y0222600D01*
X0323080Y0222534D01*
X0322932Y0222472D01*
X0322782Y0222414D01*
X0322631Y0222359D01*
X0322478Y0222308D01*
X0322324Y0222261D01*
X0322169Y0222218D01*
X0322013Y0222179D01*
X0321857Y0222143D01*
X0321699Y0222112D01*
X0321541Y0222084D01*
X0321382Y0222060D01*
X0321222Y0222040D01*
X0321062Y0222024D01*
X0320902Y0222012D01*
X0320741Y0222004D01*
X0320580Y0222000D01*
X0320420Y0222000D01*
X0320259Y0222004D01*
X0320098Y0222012D01*
X0319938Y0222024D01*
X0319778Y0222040D01*
X0319618Y0222060D01*
X0319459Y0222084D01*
X0319301Y0222112D01*
X0319143Y0222143D01*
X0318987Y0222179D01*
X0318831Y0222218D01*
X0318676Y0222261D01*
X0318522Y0222308D01*
X0318369Y0222359D01*
X0318218Y0222414D01*
X0318068Y0222472D01*
X0317920Y0222534D01*
X0317773Y0222600D01*
X0317628Y0222669D01*
X0317485Y0222742D01*
X0317343Y0222818D01*
X0317204Y0222898D01*
X0317066Y0222981D01*
X0316931Y0223068D01*
X0316797Y0223158D01*
X0316666Y0223251D01*
X0316538Y0223347D01*
X0316412Y0223447D01*
X0316288Y0223550D01*
X0316167Y0223655D01*
X0316048Y0223764D01*
X0315932Y0223875D01*
X0315819Y0223990D01*
X0315709Y0224107D01*
X0315602Y0224227D01*
X0315498Y0224349D01*
X0315397Y0224474D01*
X0315299Y0224602D01*
X0315204Y0224732D01*
X0315112Y0224864D01*
X0315024Y0224998D01*
X0314939Y0225135D01*
X0314857Y0225273D01*
X0314779Y0225414D01*
X0314705Y0225556D01*
X0314634Y0225700D01*
X0314566Y0225846D01*
X0314503Y0225994D01*
X0314442Y0226143D01*
X0314386Y0226294D01*
X0314333Y0226446D01*
X0314284Y0226599D01*
X0314239Y0226753D01*
X0314198Y0226908D01*
X0314160Y0227065D01*
X0314127Y0227222D01*
X0314097Y0227380D01*
X0314071Y0227539D01*
X0314050Y0227698D01*
X0314032Y0227858D01*
X0314018Y0228018D01*
X0314008Y0228179D01*
X0314002Y0228339D01*
X0314000Y0228500D01*
X0234000Y0228500D02*
X0234002Y0228661D01*
X0234008Y0228821D01*
X0234018Y0228982D01*
X0234032Y0229142D01*
X0234050Y0229302D01*
X0234071Y0229461D01*
X0234097Y0229620D01*
X0234127Y0229778D01*
X0234160Y0229935D01*
X0234198Y0230092D01*
X0234239Y0230247D01*
X0234284Y0230401D01*
X0234333Y0230554D01*
X0234386Y0230706D01*
X0234442Y0230857D01*
X0234503Y0231006D01*
X0234566Y0231154D01*
X0234634Y0231300D01*
X0234705Y0231444D01*
X0234779Y0231586D01*
X0234857Y0231727D01*
X0234939Y0231865D01*
X0235024Y0232002D01*
X0235112Y0232136D01*
X0235204Y0232268D01*
X0235299Y0232398D01*
X0235397Y0232526D01*
X0235498Y0232651D01*
X0235602Y0232773D01*
X0235709Y0232893D01*
X0235819Y0233010D01*
X0235932Y0233125D01*
X0236048Y0233236D01*
X0236167Y0233345D01*
X0236288Y0233450D01*
X0236412Y0233553D01*
X0236538Y0233653D01*
X0236666Y0233749D01*
X0236797Y0233842D01*
X0236931Y0233932D01*
X0237066Y0234019D01*
X0237204Y0234102D01*
X0237343Y0234182D01*
X0237485Y0234258D01*
X0237628Y0234331D01*
X0237773Y0234400D01*
X0237920Y0234466D01*
X0238068Y0234528D01*
X0238218Y0234586D01*
X0238369Y0234641D01*
X0238522Y0234692D01*
X0238676Y0234739D01*
X0238831Y0234782D01*
X0238987Y0234821D01*
X0239143Y0234857D01*
X0239301Y0234888D01*
X0239459Y0234916D01*
X0239618Y0234940D01*
X0239778Y0234960D01*
X0239938Y0234976D01*
X0240098Y0234988D01*
X0240259Y0234996D01*
X0240420Y0235000D01*
X0240580Y0235000D01*
X0240741Y0234996D01*
X0240902Y0234988D01*
X0241062Y0234976D01*
X0241222Y0234960D01*
X0241382Y0234940D01*
X0241541Y0234916D01*
X0241699Y0234888D01*
X0241857Y0234857D01*
X0242013Y0234821D01*
X0242169Y0234782D01*
X0242324Y0234739D01*
X0242478Y0234692D01*
X0242631Y0234641D01*
X0242782Y0234586D01*
X0242932Y0234528D01*
X0243080Y0234466D01*
X0243227Y0234400D01*
X0243372Y0234331D01*
X0243515Y0234258D01*
X0243657Y0234182D01*
X0243796Y0234102D01*
X0243934Y0234019D01*
X0244069Y0233932D01*
X0244203Y0233842D01*
X0244334Y0233749D01*
X0244462Y0233653D01*
X0244588Y0233553D01*
X0244712Y0233450D01*
X0244833Y0233345D01*
X0244952Y0233236D01*
X0245068Y0233125D01*
X0245181Y0233010D01*
X0245291Y0232893D01*
X0245398Y0232773D01*
X0245502Y0232651D01*
X0245603Y0232526D01*
X0245701Y0232398D01*
X0245796Y0232268D01*
X0245888Y0232136D01*
X0245976Y0232002D01*
X0246061Y0231865D01*
X0246143Y0231727D01*
X0246221Y0231586D01*
X0246295Y0231444D01*
X0246366Y0231300D01*
X0246434Y0231154D01*
X0246497Y0231006D01*
X0246558Y0230857D01*
X0246614Y0230706D01*
X0246667Y0230554D01*
X0246716Y0230401D01*
X0246761Y0230247D01*
X0246802Y0230092D01*
X0246840Y0229935D01*
X0246873Y0229778D01*
X0246903Y0229620D01*
X0246929Y0229461D01*
X0246950Y0229302D01*
X0246968Y0229142D01*
X0246982Y0228982D01*
X0246992Y0228821D01*
X0246998Y0228661D01*
X0247000Y0228500D01*
X0246998Y0228339D01*
X0246992Y0228179D01*
X0246982Y0228018D01*
X0246968Y0227858D01*
X0246950Y0227698D01*
X0246929Y0227539D01*
X0246903Y0227380D01*
X0246873Y0227222D01*
X0246840Y0227065D01*
X0246802Y0226908D01*
X0246761Y0226753D01*
X0246716Y0226599D01*
X0246667Y0226446D01*
X0246614Y0226294D01*
X0246558Y0226143D01*
X0246497Y0225994D01*
X0246434Y0225846D01*
X0246366Y0225700D01*
X0246295Y0225556D01*
X0246221Y0225414D01*
X0246143Y0225273D01*
X0246061Y0225135D01*
X0245976Y0224998D01*
X0245888Y0224864D01*
X0245796Y0224732D01*
X0245701Y0224602D01*
X0245603Y0224474D01*
X0245502Y0224349D01*
X0245398Y0224227D01*
X0245291Y0224107D01*
X0245181Y0223990D01*
X0245068Y0223875D01*
X0244952Y0223764D01*
X0244833Y0223655D01*
X0244712Y0223550D01*
X0244588Y0223447D01*
X0244462Y0223347D01*
X0244334Y0223251D01*
X0244203Y0223158D01*
X0244069Y0223068D01*
X0243934Y0222981D01*
X0243796Y0222898D01*
X0243657Y0222818D01*
X0243515Y0222742D01*
X0243372Y0222669D01*
X0243227Y0222600D01*
X0243080Y0222534D01*
X0242932Y0222472D01*
X0242782Y0222414D01*
X0242631Y0222359D01*
X0242478Y0222308D01*
X0242324Y0222261D01*
X0242169Y0222218D01*
X0242013Y0222179D01*
X0241857Y0222143D01*
X0241699Y0222112D01*
X0241541Y0222084D01*
X0241382Y0222060D01*
X0241222Y0222040D01*
X0241062Y0222024D01*
X0240902Y0222012D01*
X0240741Y0222004D01*
X0240580Y0222000D01*
X0240420Y0222000D01*
X0240259Y0222004D01*
X0240098Y0222012D01*
X0239938Y0222024D01*
X0239778Y0222040D01*
X0239618Y0222060D01*
X0239459Y0222084D01*
X0239301Y0222112D01*
X0239143Y0222143D01*
X0238987Y0222179D01*
X0238831Y0222218D01*
X0238676Y0222261D01*
X0238522Y0222308D01*
X0238369Y0222359D01*
X0238218Y0222414D01*
X0238068Y0222472D01*
X0237920Y0222534D01*
X0237773Y0222600D01*
X0237628Y0222669D01*
X0237485Y0222742D01*
X0237343Y0222818D01*
X0237204Y0222898D01*
X0237066Y0222981D01*
X0236931Y0223068D01*
X0236797Y0223158D01*
X0236666Y0223251D01*
X0236538Y0223347D01*
X0236412Y0223447D01*
X0236288Y0223550D01*
X0236167Y0223655D01*
X0236048Y0223764D01*
X0235932Y0223875D01*
X0235819Y0223990D01*
X0235709Y0224107D01*
X0235602Y0224227D01*
X0235498Y0224349D01*
X0235397Y0224474D01*
X0235299Y0224602D01*
X0235204Y0224732D01*
X0235112Y0224864D01*
X0235024Y0224998D01*
X0234939Y0225135D01*
X0234857Y0225273D01*
X0234779Y0225414D01*
X0234705Y0225556D01*
X0234634Y0225700D01*
X0234566Y0225846D01*
X0234503Y0225994D01*
X0234442Y0226143D01*
X0234386Y0226294D01*
X0234333Y0226446D01*
X0234284Y0226599D01*
X0234239Y0226753D01*
X0234198Y0226908D01*
X0234160Y0227065D01*
X0234127Y0227222D01*
X0234097Y0227380D01*
X0234071Y0227539D01*
X0234050Y0227698D01*
X0234032Y0227858D01*
X0234018Y0228018D01*
X0234008Y0228179D01*
X0234002Y0228339D01*
X0234000Y0228500D01*
X0212000Y0228500D02*
X0212002Y0228661D01*
X0212008Y0228821D01*
X0212018Y0228982D01*
X0212032Y0229142D01*
X0212050Y0229302D01*
X0212071Y0229461D01*
X0212097Y0229620D01*
X0212127Y0229778D01*
X0212160Y0229935D01*
X0212198Y0230092D01*
X0212239Y0230247D01*
X0212284Y0230401D01*
X0212333Y0230554D01*
X0212386Y0230706D01*
X0212442Y0230857D01*
X0212503Y0231006D01*
X0212566Y0231154D01*
X0212634Y0231300D01*
X0212705Y0231444D01*
X0212779Y0231586D01*
X0212857Y0231727D01*
X0212939Y0231865D01*
X0213024Y0232002D01*
X0213112Y0232136D01*
X0213204Y0232268D01*
X0213299Y0232398D01*
X0213397Y0232526D01*
X0213498Y0232651D01*
X0213602Y0232773D01*
X0213709Y0232893D01*
X0213819Y0233010D01*
X0213932Y0233125D01*
X0214048Y0233236D01*
X0214167Y0233345D01*
X0214288Y0233450D01*
X0214412Y0233553D01*
X0214538Y0233653D01*
X0214666Y0233749D01*
X0214797Y0233842D01*
X0214931Y0233932D01*
X0215066Y0234019D01*
X0215204Y0234102D01*
X0215343Y0234182D01*
X0215485Y0234258D01*
X0215628Y0234331D01*
X0215773Y0234400D01*
X0215920Y0234466D01*
X0216068Y0234528D01*
X0216218Y0234586D01*
X0216369Y0234641D01*
X0216522Y0234692D01*
X0216676Y0234739D01*
X0216831Y0234782D01*
X0216987Y0234821D01*
X0217143Y0234857D01*
X0217301Y0234888D01*
X0217459Y0234916D01*
X0217618Y0234940D01*
X0217778Y0234960D01*
X0217938Y0234976D01*
X0218098Y0234988D01*
X0218259Y0234996D01*
X0218420Y0235000D01*
X0218580Y0235000D01*
X0218741Y0234996D01*
X0218902Y0234988D01*
X0219062Y0234976D01*
X0219222Y0234960D01*
X0219382Y0234940D01*
X0219541Y0234916D01*
X0219699Y0234888D01*
X0219857Y0234857D01*
X0220013Y0234821D01*
X0220169Y0234782D01*
X0220324Y0234739D01*
X0220478Y0234692D01*
X0220631Y0234641D01*
X0220782Y0234586D01*
X0220932Y0234528D01*
X0221080Y0234466D01*
X0221227Y0234400D01*
X0221372Y0234331D01*
X0221515Y0234258D01*
X0221657Y0234182D01*
X0221796Y0234102D01*
X0221934Y0234019D01*
X0222069Y0233932D01*
X0222203Y0233842D01*
X0222334Y0233749D01*
X0222462Y0233653D01*
X0222588Y0233553D01*
X0222712Y0233450D01*
X0222833Y0233345D01*
X0222952Y0233236D01*
X0223068Y0233125D01*
X0223181Y0233010D01*
X0223291Y0232893D01*
X0223398Y0232773D01*
X0223502Y0232651D01*
X0223603Y0232526D01*
X0223701Y0232398D01*
X0223796Y0232268D01*
X0223888Y0232136D01*
X0223976Y0232002D01*
X0224061Y0231865D01*
X0224143Y0231727D01*
X0224221Y0231586D01*
X0224295Y0231444D01*
X0224366Y0231300D01*
X0224434Y0231154D01*
X0224497Y0231006D01*
X0224558Y0230857D01*
X0224614Y0230706D01*
X0224667Y0230554D01*
X0224716Y0230401D01*
X0224761Y0230247D01*
X0224802Y0230092D01*
X0224840Y0229935D01*
X0224873Y0229778D01*
X0224903Y0229620D01*
X0224929Y0229461D01*
X0224950Y0229302D01*
X0224968Y0229142D01*
X0224982Y0228982D01*
X0224992Y0228821D01*
X0224998Y0228661D01*
X0225000Y0228500D01*
X0224998Y0228339D01*
X0224992Y0228179D01*
X0224982Y0228018D01*
X0224968Y0227858D01*
X0224950Y0227698D01*
X0224929Y0227539D01*
X0224903Y0227380D01*
X0224873Y0227222D01*
X0224840Y0227065D01*
X0224802Y0226908D01*
X0224761Y0226753D01*
X0224716Y0226599D01*
X0224667Y0226446D01*
X0224614Y0226294D01*
X0224558Y0226143D01*
X0224497Y0225994D01*
X0224434Y0225846D01*
X0224366Y0225700D01*
X0224295Y0225556D01*
X0224221Y0225414D01*
X0224143Y0225273D01*
X0224061Y0225135D01*
X0223976Y0224998D01*
X0223888Y0224864D01*
X0223796Y0224732D01*
X0223701Y0224602D01*
X0223603Y0224474D01*
X0223502Y0224349D01*
X0223398Y0224227D01*
X0223291Y0224107D01*
X0223181Y0223990D01*
X0223068Y0223875D01*
X0222952Y0223764D01*
X0222833Y0223655D01*
X0222712Y0223550D01*
X0222588Y0223447D01*
X0222462Y0223347D01*
X0222334Y0223251D01*
X0222203Y0223158D01*
X0222069Y0223068D01*
X0221934Y0222981D01*
X0221796Y0222898D01*
X0221657Y0222818D01*
X0221515Y0222742D01*
X0221372Y0222669D01*
X0221227Y0222600D01*
X0221080Y0222534D01*
X0220932Y0222472D01*
X0220782Y0222414D01*
X0220631Y0222359D01*
X0220478Y0222308D01*
X0220324Y0222261D01*
X0220169Y0222218D01*
X0220013Y0222179D01*
X0219857Y0222143D01*
X0219699Y0222112D01*
X0219541Y0222084D01*
X0219382Y0222060D01*
X0219222Y0222040D01*
X0219062Y0222024D01*
X0218902Y0222012D01*
X0218741Y0222004D01*
X0218580Y0222000D01*
X0218420Y0222000D01*
X0218259Y0222004D01*
X0218098Y0222012D01*
X0217938Y0222024D01*
X0217778Y0222040D01*
X0217618Y0222060D01*
X0217459Y0222084D01*
X0217301Y0222112D01*
X0217143Y0222143D01*
X0216987Y0222179D01*
X0216831Y0222218D01*
X0216676Y0222261D01*
X0216522Y0222308D01*
X0216369Y0222359D01*
X0216218Y0222414D01*
X0216068Y0222472D01*
X0215920Y0222534D01*
X0215773Y0222600D01*
X0215628Y0222669D01*
X0215485Y0222742D01*
X0215343Y0222818D01*
X0215204Y0222898D01*
X0215066Y0222981D01*
X0214931Y0223068D01*
X0214797Y0223158D01*
X0214666Y0223251D01*
X0214538Y0223347D01*
X0214412Y0223447D01*
X0214288Y0223550D01*
X0214167Y0223655D01*
X0214048Y0223764D01*
X0213932Y0223875D01*
X0213819Y0223990D01*
X0213709Y0224107D01*
X0213602Y0224227D01*
X0213498Y0224349D01*
X0213397Y0224474D01*
X0213299Y0224602D01*
X0213204Y0224732D01*
X0213112Y0224864D01*
X0213024Y0224998D01*
X0212939Y0225135D01*
X0212857Y0225273D01*
X0212779Y0225414D01*
X0212705Y0225556D01*
X0212634Y0225700D01*
X0212566Y0225846D01*
X0212503Y0225994D01*
X0212442Y0226143D01*
X0212386Y0226294D01*
X0212333Y0226446D01*
X0212284Y0226599D01*
X0212239Y0226753D01*
X0212198Y0226908D01*
X0212160Y0227065D01*
X0212127Y0227222D01*
X0212097Y0227380D01*
X0212071Y0227539D01*
X0212050Y0227698D01*
X0212032Y0227858D01*
X0212018Y0228018D01*
X0212008Y0228179D01*
X0212002Y0228339D01*
X0212000Y0228500D01*
X0132000Y0228500D02*
X0132002Y0228661D01*
X0132008Y0228821D01*
X0132018Y0228982D01*
X0132032Y0229142D01*
X0132050Y0229302D01*
X0132071Y0229461D01*
X0132097Y0229620D01*
X0132127Y0229778D01*
X0132160Y0229935D01*
X0132198Y0230092D01*
X0132239Y0230247D01*
X0132284Y0230401D01*
X0132333Y0230554D01*
X0132386Y0230706D01*
X0132442Y0230857D01*
X0132503Y0231006D01*
X0132566Y0231154D01*
X0132634Y0231300D01*
X0132705Y0231444D01*
X0132779Y0231586D01*
X0132857Y0231727D01*
X0132939Y0231865D01*
X0133024Y0232002D01*
X0133112Y0232136D01*
X0133204Y0232268D01*
X0133299Y0232398D01*
X0133397Y0232526D01*
X0133498Y0232651D01*
X0133602Y0232773D01*
X0133709Y0232893D01*
X0133819Y0233010D01*
X0133932Y0233125D01*
X0134048Y0233236D01*
X0134167Y0233345D01*
X0134288Y0233450D01*
X0134412Y0233553D01*
X0134538Y0233653D01*
X0134666Y0233749D01*
X0134797Y0233842D01*
X0134931Y0233932D01*
X0135066Y0234019D01*
X0135204Y0234102D01*
X0135343Y0234182D01*
X0135485Y0234258D01*
X0135628Y0234331D01*
X0135773Y0234400D01*
X0135920Y0234466D01*
X0136068Y0234528D01*
X0136218Y0234586D01*
X0136369Y0234641D01*
X0136522Y0234692D01*
X0136676Y0234739D01*
X0136831Y0234782D01*
X0136987Y0234821D01*
X0137143Y0234857D01*
X0137301Y0234888D01*
X0137459Y0234916D01*
X0137618Y0234940D01*
X0137778Y0234960D01*
X0137938Y0234976D01*
X0138098Y0234988D01*
X0138259Y0234996D01*
X0138420Y0235000D01*
X0138580Y0235000D01*
X0138741Y0234996D01*
X0138902Y0234988D01*
X0139062Y0234976D01*
X0139222Y0234960D01*
X0139382Y0234940D01*
X0139541Y0234916D01*
X0139699Y0234888D01*
X0139857Y0234857D01*
X0140013Y0234821D01*
X0140169Y0234782D01*
X0140324Y0234739D01*
X0140478Y0234692D01*
X0140631Y0234641D01*
X0140782Y0234586D01*
X0140932Y0234528D01*
X0141080Y0234466D01*
X0141227Y0234400D01*
X0141372Y0234331D01*
X0141515Y0234258D01*
X0141657Y0234182D01*
X0141796Y0234102D01*
X0141934Y0234019D01*
X0142069Y0233932D01*
X0142203Y0233842D01*
X0142334Y0233749D01*
X0142462Y0233653D01*
X0142588Y0233553D01*
X0142712Y0233450D01*
X0142833Y0233345D01*
X0142952Y0233236D01*
X0143068Y0233125D01*
X0143181Y0233010D01*
X0143291Y0232893D01*
X0143398Y0232773D01*
X0143502Y0232651D01*
X0143603Y0232526D01*
X0143701Y0232398D01*
X0143796Y0232268D01*
X0143888Y0232136D01*
X0143976Y0232002D01*
X0144061Y0231865D01*
X0144143Y0231727D01*
X0144221Y0231586D01*
X0144295Y0231444D01*
X0144366Y0231300D01*
X0144434Y0231154D01*
X0144497Y0231006D01*
X0144558Y0230857D01*
X0144614Y0230706D01*
X0144667Y0230554D01*
X0144716Y0230401D01*
X0144761Y0230247D01*
X0144802Y0230092D01*
X0144840Y0229935D01*
X0144873Y0229778D01*
X0144903Y0229620D01*
X0144929Y0229461D01*
X0144950Y0229302D01*
X0144968Y0229142D01*
X0144982Y0228982D01*
X0144992Y0228821D01*
X0144998Y0228661D01*
X0145000Y0228500D01*
X0144998Y0228339D01*
X0144992Y0228179D01*
X0144982Y0228018D01*
X0144968Y0227858D01*
X0144950Y0227698D01*
X0144929Y0227539D01*
X0144903Y0227380D01*
X0144873Y0227222D01*
X0144840Y0227065D01*
X0144802Y0226908D01*
X0144761Y0226753D01*
X0144716Y0226599D01*
X0144667Y0226446D01*
X0144614Y0226294D01*
X0144558Y0226143D01*
X0144497Y0225994D01*
X0144434Y0225846D01*
X0144366Y0225700D01*
X0144295Y0225556D01*
X0144221Y0225414D01*
X0144143Y0225273D01*
X0144061Y0225135D01*
X0143976Y0224998D01*
X0143888Y0224864D01*
X0143796Y0224732D01*
X0143701Y0224602D01*
X0143603Y0224474D01*
X0143502Y0224349D01*
X0143398Y0224227D01*
X0143291Y0224107D01*
X0143181Y0223990D01*
X0143068Y0223875D01*
X0142952Y0223764D01*
X0142833Y0223655D01*
X0142712Y0223550D01*
X0142588Y0223447D01*
X0142462Y0223347D01*
X0142334Y0223251D01*
X0142203Y0223158D01*
X0142069Y0223068D01*
X0141934Y0222981D01*
X0141796Y0222898D01*
X0141657Y0222818D01*
X0141515Y0222742D01*
X0141372Y0222669D01*
X0141227Y0222600D01*
X0141080Y0222534D01*
X0140932Y0222472D01*
X0140782Y0222414D01*
X0140631Y0222359D01*
X0140478Y0222308D01*
X0140324Y0222261D01*
X0140169Y0222218D01*
X0140013Y0222179D01*
X0139857Y0222143D01*
X0139699Y0222112D01*
X0139541Y0222084D01*
X0139382Y0222060D01*
X0139222Y0222040D01*
X0139062Y0222024D01*
X0138902Y0222012D01*
X0138741Y0222004D01*
X0138580Y0222000D01*
X0138420Y0222000D01*
X0138259Y0222004D01*
X0138098Y0222012D01*
X0137938Y0222024D01*
X0137778Y0222040D01*
X0137618Y0222060D01*
X0137459Y0222084D01*
X0137301Y0222112D01*
X0137143Y0222143D01*
X0136987Y0222179D01*
X0136831Y0222218D01*
X0136676Y0222261D01*
X0136522Y0222308D01*
X0136369Y0222359D01*
X0136218Y0222414D01*
X0136068Y0222472D01*
X0135920Y0222534D01*
X0135773Y0222600D01*
X0135628Y0222669D01*
X0135485Y0222742D01*
X0135343Y0222818D01*
X0135204Y0222898D01*
X0135066Y0222981D01*
X0134931Y0223068D01*
X0134797Y0223158D01*
X0134666Y0223251D01*
X0134538Y0223347D01*
X0134412Y0223447D01*
X0134288Y0223550D01*
X0134167Y0223655D01*
X0134048Y0223764D01*
X0133932Y0223875D01*
X0133819Y0223990D01*
X0133709Y0224107D01*
X0133602Y0224227D01*
X0133498Y0224349D01*
X0133397Y0224474D01*
X0133299Y0224602D01*
X0133204Y0224732D01*
X0133112Y0224864D01*
X0133024Y0224998D01*
X0132939Y0225135D01*
X0132857Y0225273D01*
X0132779Y0225414D01*
X0132705Y0225556D01*
X0132634Y0225700D01*
X0132566Y0225846D01*
X0132503Y0225994D01*
X0132442Y0226143D01*
X0132386Y0226294D01*
X0132333Y0226446D01*
X0132284Y0226599D01*
X0132239Y0226753D01*
X0132198Y0226908D01*
X0132160Y0227065D01*
X0132127Y0227222D01*
X0132097Y0227380D01*
X0132071Y0227539D01*
X0132050Y0227698D01*
X0132032Y0227858D01*
X0132018Y0228018D01*
X0132008Y0228179D01*
X0132002Y0228339D01*
X0132000Y0228500D01*
X0110000Y0228500D02*
X0110002Y0228661D01*
X0110008Y0228821D01*
X0110018Y0228982D01*
X0110032Y0229142D01*
X0110050Y0229302D01*
X0110071Y0229461D01*
X0110097Y0229620D01*
X0110127Y0229778D01*
X0110160Y0229935D01*
X0110198Y0230092D01*
X0110239Y0230247D01*
X0110284Y0230401D01*
X0110333Y0230554D01*
X0110386Y0230706D01*
X0110442Y0230857D01*
X0110503Y0231006D01*
X0110566Y0231154D01*
X0110634Y0231300D01*
X0110705Y0231444D01*
X0110779Y0231586D01*
X0110857Y0231727D01*
X0110939Y0231865D01*
X0111024Y0232002D01*
X0111112Y0232136D01*
X0111204Y0232268D01*
X0111299Y0232398D01*
X0111397Y0232526D01*
X0111498Y0232651D01*
X0111602Y0232773D01*
X0111709Y0232893D01*
X0111819Y0233010D01*
X0111932Y0233125D01*
X0112048Y0233236D01*
X0112167Y0233345D01*
X0112288Y0233450D01*
X0112412Y0233553D01*
X0112538Y0233653D01*
X0112666Y0233749D01*
X0112797Y0233842D01*
X0112931Y0233932D01*
X0113066Y0234019D01*
X0113204Y0234102D01*
X0113343Y0234182D01*
X0113485Y0234258D01*
X0113628Y0234331D01*
X0113773Y0234400D01*
X0113920Y0234466D01*
X0114068Y0234528D01*
X0114218Y0234586D01*
X0114369Y0234641D01*
X0114522Y0234692D01*
X0114676Y0234739D01*
X0114831Y0234782D01*
X0114987Y0234821D01*
X0115143Y0234857D01*
X0115301Y0234888D01*
X0115459Y0234916D01*
X0115618Y0234940D01*
X0115778Y0234960D01*
X0115938Y0234976D01*
X0116098Y0234988D01*
X0116259Y0234996D01*
X0116420Y0235000D01*
X0116580Y0235000D01*
X0116741Y0234996D01*
X0116902Y0234988D01*
X0117062Y0234976D01*
X0117222Y0234960D01*
X0117382Y0234940D01*
X0117541Y0234916D01*
X0117699Y0234888D01*
X0117857Y0234857D01*
X0118013Y0234821D01*
X0118169Y0234782D01*
X0118324Y0234739D01*
X0118478Y0234692D01*
X0118631Y0234641D01*
X0118782Y0234586D01*
X0118932Y0234528D01*
X0119080Y0234466D01*
X0119227Y0234400D01*
X0119372Y0234331D01*
X0119515Y0234258D01*
X0119657Y0234182D01*
X0119796Y0234102D01*
X0119934Y0234019D01*
X0120069Y0233932D01*
X0120203Y0233842D01*
X0120334Y0233749D01*
X0120462Y0233653D01*
X0120588Y0233553D01*
X0120712Y0233450D01*
X0120833Y0233345D01*
X0120952Y0233236D01*
X0121068Y0233125D01*
X0121181Y0233010D01*
X0121291Y0232893D01*
X0121398Y0232773D01*
X0121502Y0232651D01*
X0121603Y0232526D01*
X0121701Y0232398D01*
X0121796Y0232268D01*
X0121888Y0232136D01*
X0121976Y0232002D01*
X0122061Y0231865D01*
X0122143Y0231727D01*
X0122221Y0231586D01*
X0122295Y0231444D01*
X0122366Y0231300D01*
X0122434Y0231154D01*
X0122497Y0231006D01*
X0122558Y0230857D01*
X0122614Y0230706D01*
X0122667Y0230554D01*
X0122716Y0230401D01*
X0122761Y0230247D01*
X0122802Y0230092D01*
X0122840Y0229935D01*
X0122873Y0229778D01*
X0122903Y0229620D01*
X0122929Y0229461D01*
X0122950Y0229302D01*
X0122968Y0229142D01*
X0122982Y0228982D01*
X0122992Y0228821D01*
X0122998Y0228661D01*
X0123000Y0228500D01*
X0122998Y0228339D01*
X0122992Y0228179D01*
X0122982Y0228018D01*
X0122968Y0227858D01*
X0122950Y0227698D01*
X0122929Y0227539D01*
X0122903Y0227380D01*
X0122873Y0227222D01*
X0122840Y0227065D01*
X0122802Y0226908D01*
X0122761Y0226753D01*
X0122716Y0226599D01*
X0122667Y0226446D01*
X0122614Y0226294D01*
X0122558Y0226143D01*
X0122497Y0225994D01*
X0122434Y0225846D01*
X0122366Y0225700D01*
X0122295Y0225556D01*
X0122221Y0225414D01*
X0122143Y0225273D01*
X0122061Y0225135D01*
X0121976Y0224998D01*
X0121888Y0224864D01*
X0121796Y0224732D01*
X0121701Y0224602D01*
X0121603Y0224474D01*
X0121502Y0224349D01*
X0121398Y0224227D01*
X0121291Y0224107D01*
X0121181Y0223990D01*
X0121068Y0223875D01*
X0120952Y0223764D01*
X0120833Y0223655D01*
X0120712Y0223550D01*
X0120588Y0223447D01*
X0120462Y0223347D01*
X0120334Y0223251D01*
X0120203Y0223158D01*
X0120069Y0223068D01*
X0119934Y0222981D01*
X0119796Y0222898D01*
X0119657Y0222818D01*
X0119515Y0222742D01*
X0119372Y0222669D01*
X0119227Y0222600D01*
X0119080Y0222534D01*
X0118932Y0222472D01*
X0118782Y0222414D01*
X0118631Y0222359D01*
X0118478Y0222308D01*
X0118324Y0222261D01*
X0118169Y0222218D01*
X0118013Y0222179D01*
X0117857Y0222143D01*
X0117699Y0222112D01*
X0117541Y0222084D01*
X0117382Y0222060D01*
X0117222Y0222040D01*
X0117062Y0222024D01*
X0116902Y0222012D01*
X0116741Y0222004D01*
X0116580Y0222000D01*
X0116420Y0222000D01*
X0116259Y0222004D01*
X0116098Y0222012D01*
X0115938Y0222024D01*
X0115778Y0222040D01*
X0115618Y0222060D01*
X0115459Y0222084D01*
X0115301Y0222112D01*
X0115143Y0222143D01*
X0114987Y0222179D01*
X0114831Y0222218D01*
X0114676Y0222261D01*
X0114522Y0222308D01*
X0114369Y0222359D01*
X0114218Y0222414D01*
X0114068Y0222472D01*
X0113920Y0222534D01*
X0113773Y0222600D01*
X0113628Y0222669D01*
X0113485Y0222742D01*
X0113343Y0222818D01*
X0113204Y0222898D01*
X0113066Y0222981D01*
X0112931Y0223068D01*
X0112797Y0223158D01*
X0112666Y0223251D01*
X0112538Y0223347D01*
X0112412Y0223447D01*
X0112288Y0223550D01*
X0112167Y0223655D01*
X0112048Y0223764D01*
X0111932Y0223875D01*
X0111819Y0223990D01*
X0111709Y0224107D01*
X0111602Y0224227D01*
X0111498Y0224349D01*
X0111397Y0224474D01*
X0111299Y0224602D01*
X0111204Y0224732D01*
X0111112Y0224864D01*
X0111024Y0224998D01*
X0110939Y0225135D01*
X0110857Y0225273D01*
X0110779Y0225414D01*
X0110705Y0225556D01*
X0110634Y0225700D01*
X0110566Y0225846D01*
X0110503Y0225994D01*
X0110442Y0226143D01*
X0110386Y0226294D01*
X0110333Y0226446D01*
X0110284Y0226599D01*
X0110239Y0226753D01*
X0110198Y0226908D01*
X0110160Y0227065D01*
X0110127Y0227222D01*
X0110097Y0227380D01*
X0110071Y0227539D01*
X0110050Y0227698D01*
X0110032Y0227858D01*
X0110018Y0228018D01*
X0110008Y0228179D01*
X0110002Y0228339D01*
X0110000Y0228500D01*
X0030000Y0228500D02*
X0030002Y0228661D01*
X0030008Y0228821D01*
X0030018Y0228982D01*
X0030032Y0229142D01*
X0030050Y0229302D01*
X0030071Y0229461D01*
X0030097Y0229620D01*
X0030127Y0229778D01*
X0030160Y0229935D01*
X0030198Y0230092D01*
X0030239Y0230247D01*
X0030284Y0230401D01*
X0030333Y0230554D01*
X0030386Y0230706D01*
X0030442Y0230857D01*
X0030503Y0231006D01*
X0030566Y0231154D01*
X0030634Y0231300D01*
X0030705Y0231444D01*
X0030779Y0231586D01*
X0030857Y0231727D01*
X0030939Y0231865D01*
X0031024Y0232002D01*
X0031112Y0232136D01*
X0031204Y0232268D01*
X0031299Y0232398D01*
X0031397Y0232526D01*
X0031498Y0232651D01*
X0031602Y0232773D01*
X0031709Y0232893D01*
X0031819Y0233010D01*
X0031932Y0233125D01*
X0032048Y0233236D01*
X0032167Y0233345D01*
X0032288Y0233450D01*
X0032412Y0233553D01*
X0032538Y0233653D01*
X0032666Y0233749D01*
X0032797Y0233842D01*
X0032931Y0233932D01*
X0033066Y0234019D01*
X0033204Y0234102D01*
X0033343Y0234182D01*
X0033485Y0234258D01*
X0033628Y0234331D01*
X0033773Y0234400D01*
X0033920Y0234466D01*
X0034068Y0234528D01*
X0034218Y0234586D01*
X0034369Y0234641D01*
X0034522Y0234692D01*
X0034676Y0234739D01*
X0034831Y0234782D01*
X0034987Y0234821D01*
X0035143Y0234857D01*
X0035301Y0234888D01*
X0035459Y0234916D01*
X0035618Y0234940D01*
X0035778Y0234960D01*
X0035938Y0234976D01*
X0036098Y0234988D01*
X0036259Y0234996D01*
X0036420Y0235000D01*
X0036580Y0235000D01*
X0036741Y0234996D01*
X0036902Y0234988D01*
X0037062Y0234976D01*
X0037222Y0234960D01*
X0037382Y0234940D01*
X0037541Y0234916D01*
X0037699Y0234888D01*
X0037857Y0234857D01*
X0038013Y0234821D01*
X0038169Y0234782D01*
X0038324Y0234739D01*
X0038478Y0234692D01*
X0038631Y0234641D01*
X0038782Y0234586D01*
X0038932Y0234528D01*
X0039080Y0234466D01*
X0039227Y0234400D01*
X0039372Y0234331D01*
X0039515Y0234258D01*
X0039657Y0234182D01*
X0039796Y0234102D01*
X0039934Y0234019D01*
X0040069Y0233932D01*
X0040203Y0233842D01*
X0040334Y0233749D01*
X0040462Y0233653D01*
X0040588Y0233553D01*
X0040712Y0233450D01*
X0040833Y0233345D01*
X0040952Y0233236D01*
X0041068Y0233125D01*
X0041181Y0233010D01*
X0041291Y0232893D01*
X0041398Y0232773D01*
X0041502Y0232651D01*
X0041603Y0232526D01*
X0041701Y0232398D01*
X0041796Y0232268D01*
X0041888Y0232136D01*
X0041976Y0232002D01*
X0042061Y0231865D01*
X0042143Y0231727D01*
X0042221Y0231586D01*
X0042295Y0231444D01*
X0042366Y0231300D01*
X0042434Y0231154D01*
X0042497Y0231006D01*
X0042558Y0230857D01*
X0042614Y0230706D01*
X0042667Y0230554D01*
X0042716Y0230401D01*
X0042761Y0230247D01*
X0042802Y0230092D01*
X0042840Y0229935D01*
X0042873Y0229778D01*
X0042903Y0229620D01*
X0042929Y0229461D01*
X0042950Y0229302D01*
X0042968Y0229142D01*
X0042982Y0228982D01*
X0042992Y0228821D01*
X0042998Y0228661D01*
X0043000Y0228500D01*
X0042998Y0228339D01*
X0042992Y0228179D01*
X0042982Y0228018D01*
X0042968Y0227858D01*
X0042950Y0227698D01*
X0042929Y0227539D01*
X0042903Y0227380D01*
X0042873Y0227222D01*
X0042840Y0227065D01*
X0042802Y0226908D01*
X0042761Y0226753D01*
X0042716Y0226599D01*
X0042667Y0226446D01*
X0042614Y0226294D01*
X0042558Y0226143D01*
X0042497Y0225994D01*
X0042434Y0225846D01*
X0042366Y0225700D01*
X0042295Y0225556D01*
X0042221Y0225414D01*
X0042143Y0225273D01*
X0042061Y0225135D01*
X0041976Y0224998D01*
X0041888Y0224864D01*
X0041796Y0224732D01*
X0041701Y0224602D01*
X0041603Y0224474D01*
X0041502Y0224349D01*
X0041398Y0224227D01*
X0041291Y0224107D01*
X0041181Y0223990D01*
X0041068Y0223875D01*
X0040952Y0223764D01*
X0040833Y0223655D01*
X0040712Y0223550D01*
X0040588Y0223447D01*
X0040462Y0223347D01*
X0040334Y0223251D01*
X0040203Y0223158D01*
X0040069Y0223068D01*
X0039934Y0222981D01*
X0039796Y0222898D01*
X0039657Y0222818D01*
X0039515Y0222742D01*
X0039372Y0222669D01*
X0039227Y0222600D01*
X0039080Y0222534D01*
X0038932Y0222472D01*
X0038782Y0222414D01*
X0038631Y0222359D01*
X0038478Y0222308D01*
X0038324Y0222261D01*
X0038169Y0222218D01*
X0038013Y0222179D01*
X0037857Y0222143D01*
X0037699Y0222112D01*
X0037541Y0222084D01*
X0037382Y0222060D01*
X0037222Y0222040D01*
X0037062Y0222024D01*
X0036902Y0222012D01*
X0036741Y0222004D01*
X0036580Y0222000D01*
X0036420Y0222000D01*
X0036259Y0222004D01*
X0036098Y0222012D01*
X0035938Y0222024D01*
X0035778Y0222040D01*
X0035618Y0222060D01*
X0035459Y0222084D01*
X0035301Y0222112D01*
X0035143Y0222143D01*
X0034987Y0222179D01*
X0034831Y0222218D01*
X0034676Y0222261D01*
X0034522Y0222308D01*
X0034369Y0222359D01*
X0034218Y0222414D01*
X0034068Y0222472D01*
X0033920Y0222534D01*
X0033773Y0222600D01*
X0033628Y0222669D01*
X0033485Y0222742D01*
X0033343Y0222818D01*
X0033204Y0222898D01*
X0033066Y0222981D01*
X0032931Y0223068D01*
X0032797Y0223158D01*
X0032666Y0223251D01*
X0032538Y0223347D01*
X0032412Y0223447D01*
X0032288Y0223550D01*
X0032167Y0223655D01*
X0032048Y0223764D01*
X0031932Y0223875D01*
X0031819Y0223990D01*
X0031709Y0224107D01*
X0031602Y0224227D01*
X0031498Y0224349D01*
X0031397Y0224474D01*
X0031299Y0224602D01*
X0031204Y0224732D01*
X0031112Y0224864D01*
X0031024Y0224998D01*
X0030939Y0225135D01*
X0030857Y0225273D01*
X0030779Y0225414D01*
X0030705Y0225556D01*
X0030634Y0225700D01*
X0030566Y0225846D01*
X0030503Y0225994D01*
X0030442Y0226143D01*
X0030386Y0226294D01*
X0030333Y0226446D01*
X0030284Y0226599D01*
X0030239Y0226753D01*
X0030198Y0226908D01*
X0030160Y0227065D01*
X0030127Y0227222D01*
X0030097Y0227380D01*
X0030071Y0227539D01*
X0030050Y0227698D01*
X0030032Y0227858D01*
X0030018Y0228018D01*
X0030008Y0228179D01*
X0030002Y0228339D01*
X0030000Y0228500D01*
X0030000Y0335500D02*
X0030002Y0335661D01*
X0030008Y0335821D01*
X0030018Y0335982D01*
X0030032Y0336142D01*
X0030050Y0336302D01*
X0030071Y0336461D01*
X0030097Y0336620D01*
X0030127Y0336778D01*
X0030160Y0336935D01*
X0030198Y0337092D01*
X0030239Y0337247D01*
X0030284Y0337401D01*
X0030333Y0337554D01*
X0030386Y0337706D01*
X0030442Y0337857D01*
X0030503Y0338006D01*
X0030566Y0338154D01*
X0030634Y0338300D01*
X0030705Y0338444D01*
X0030779Y0338586D01*
X0030857Y0338727D01*
X0030939Y0338865D01*
X0031024Y0339002D01*
X0031112Y0339136D01*
X0031204Y0339268D01*
X0031299Y0339398D01*
X0031397Y0339526D01*
X0031498Y0339651D01*
X0031602Y0339773D01*
X0031709Y0339893D01*
X0031819Y0340010D01*
X0031932Y0340125D01*
X0032048Y0340236D01*
X0032167Y0340345D01*
X0032288Y0340450D01*
X0032412Y0340553D01*
X0032538Y0340653D01*
X0032666Y0340749D01*
X0032797Y0340842D01*
X0032931Y0340932D01*
X0033066Y0341019D01*
X0033204Y0341102D01*
X0033343Y0341182D01*
X0033485Y0341258D01*
X0033628Y0341331D01*
X0033773Y0341400D01*
X0033920Y0341466D01*
X0034068Y0341528D01*
X0034218Y0341586D01*
X0034369Y0341641D01*
X0034522Y0341692D01*
X0034676Y0341739D01*
X0034831Y0341782D01*
X0034987Y0341821D01*
X0035143Y0341857D01*
X0035301Y0341888D01*
X0035459Y0341916D01*
X0035618Y0341940D01*
X0035778Y0341960D01*
X0035938Y0341976D01*
X0036098Y0341988D01*
X0036259Y0341996D01*
X0036420Y0342000D01*
X0036580Y0342000D01*
X0036741Y0341996D01*
X0036902Y0341988D01*
X0037062Y0341976D01*
X0037222Y0341960D01*
X0037382Y0341940D01*
X0037541Y0341916D01*
X0037699Y0341888D01*
X0037857Y0341857D01*
X0038013Y0341821D01*
X0038169Y0341782D01*
X0038324Y0341739D01*
X0038478Y0341692D01*
X0038631Y0341641D01*
X0038782Y0341586D01*
X0038932Y0341528D01*
X0039080Y0341466D01*
X0039227Y0341400D01*
X0039372Y0341331D01*
X0039515Y0341258D01*
X0039657Y0341182D01*
X0039796Y0341102D01*
X0039934Y0341019D01*
X0040069Y0340932D01*
X0040203Y0340842D01*
X0040334Y0340749D01*
X0040462Y0340653D01*
X0040588Y0340553D01*
X0040712Y0340450D01*
X0040833Y0340345D01*
X0040952Y0340236D01*
X0041068Y0340125D01*
X0041181Y0340010D01*
X0041291Y0339893D01*
X0041398Y0339773D01*
X0041502Y0339651D01*
X0041603Y0339526D01*
X0041701Y0339398D01*
X0041796Y0339268D01*
X0041888Y0339136D01*
X0041976Y0339002D01*
X0042061Y0338865D01*
X0042143Y0338727D01*
X0042221Y0338586D01*
X0042295Y0338444D01*
X0042366Y0338300D01*
X0042434Y0338154D01*
X0042497Y0338006D01*
X0042558Y0337857D01*
X0042614Y0337706D01*
X0042667Y0337554D01*
X0042716Y0337401D01*
X0042761Y0337247D01*
X0042802Y0337092D01*
X0042840Y0336935D01*
X0042873Y0336778D01*
X0042903Y0336620D01*
X0042929Y0336461D01*
X0042950Y0336302D01*
X0042968Y0336142D01*
X0042982Y0335982D01*
X0042992Y0335821D01*
X0042998Y0335661D01*
X0043000Y0335500D01*
X0042998Y0335339D01*
X0042992Y0335179D01*
X0042982Y0335018D01*
X0042968Y0334858D01*
X0042950Y0334698D01*
X0042929Y0334539D01*
X0042903Y0334380D01*
X0042873Y0334222D01*
X0042840Y0334065D01*
X0042802Y0333908D01*
X0042761Y0333753D01*
X0042716Y0333599D01*
X0042667Y0333446D01*
X0042614Y0333294D01*
X0042558Y0333143D01*
X0042497Y0332994D01*
X0042434Y0332846D01*
X0042366Y0332700D01*
X0042295Y0332556D01*
X0042221Y0332414D01*
X0042143Y0332273D01*
X0042061Y0332135D01*
X0041976Y0331998D01*
X0041888Y0331864D01*
X0041796Y0331732D01*
X0041701Y0331602D01*
X0041603Y0331474D01*
X0041502Y0331349D01*
X0041398Y0331227D01*
X0041291Y0331107D01*
X0041181Y0330990D01*
X0041068Y0330875D01*
X0040952Y0330764D01*
X0040833Y0330655D01*
X0040712Y0330550D01*
X0040588Y0330447D01*
X0040462Y0330347D01*
X0040334Y0330251D01*
X0040203Y0330158D01*
X0040069Y0330068D01*
X0039934Y0329981D01*
X0039796Y0329898D01*
X0039657Y0329818D01*
X0039515Y0329742D01*
X0039372Y0329669D01*
X0039227Y0329600D01*
X0039080Y0329534D01*
X0038932Y0329472D01*
X0038782Y0329414D01*
X0038631Y0329359D01*
X0038478Y0329308D01*
X0038324Y0329261D01*
X0038169Y0329218D01*
X0038013Y0329179D01*
X0037857Y0329143D01*
X0037699Y0329112D01*
X0037541Y0329084D01*
X0037382Y0329060D01*
X0037222Y0329040D01*
X0037062Y0329024D01*
X0036902Y0329012D01*
X0036741Y0329004D01*
X0036580Y0329000D01*
X0036420Y0329000D01*
X0036259Y0329004D01*
X0036098Y0329012D01*
X0035938Y0329024D01*
X0035778Y0329040D01*
X0035618Y0329060D01*
X0035459Y0329084D01*
X0035301Y0329112D01*
X0035143Y0329143D01*
X0034987Y0329179D01*
X0034831Y0329218D01*
X0034676Y0329261D01*
X0034522Y0329308D01*
X0034369Y0329359D01*
X0034218Y0329414D01*
X0034068Y0329472D01*
X0033920Y0329534D01*
X0033773Y0329600D01*
X0033628Y0329669D01*
X0033485Y0329742D01*
X0033343Y0329818D01*
X0033204Y0329898D01*
X0033066Y0329981D01*
X0032931Y0330068D01*
X0032797Y0330158D01*
X0032666Y0330251D01*
X0032538Y0330347D01*
X0032412Y0330447D01*
X0032288Y0330550D01*
X0032167Y0330655D01*
X0032048Y0330764D01*
X0031932Y0330875D01*
X0031819Y0330990D01*
X0031709Y0331107D01*
X0031602Y0331227D01*
X0031498Y0331349D01*
X0031397Y0331474D01*
X0031299Y0331602D01*
X0031204Y0331732D01*
X0031112Y0331864D01*
X0031024Y0331998D01*
X0030939Y0332135D01*
X0030857Y0332273D01*
X0030779Y0332414D01*
X0030705Y0332556D01*
X0030634Y0332700D01*
X0030566Y0332846D01*
X0030503Y0332994D01*
X0030442Y0333143D01*
X0030386Y0333294D01*
X0030333Y0333446D01*
X0030284Y0333599D01*
X0030239Y0333753D01*
X0030198Y0333908D01*
X0030160Y0334065D01*
X0030127Y0334222D01*
X0030097Y0334380D01*
X0030071Y0334539D01*
X0030050Y0334698D01*
X0030032Y0334858D01*
X0030018Y0335018D01*
X0030008Y0335179D01*
X0030002Y0335339D01*
X0030000Y0335500D01*
X0030000Y0121500D02*
X0030002Y0121661D01*
X0030008Y0121821D01*
X0030018Y0121982D01*
X0030032Y0122142D01*
X0030050Y0122302D01*
X0030071Y0122461D01*
X0030097Y0122620D01*
X0030127Y0122778D01*
X0030160Y0122935D01*
X0030198Y0123092D01*
X0030239Y0123247D01*
X0030284Y0123401D01*
X0030333Y0123554D01*
X0030386Y0123706D01*
X0030442Y0123857D01*
X0030503Y0124006D01*
X0030566Y0124154D01*
X0030634Y0124300D01*
X0030705Y0124444D01*
X0030779Y0124586D01*
X0030857Y0124727D01*
X0030939Y0124865D01*
X0031024Y0125002D01*
X0031112Y0125136D01*
X0031204Y0125268D01*
X0031299Y0125398D01*
X0031397Y0125526D01*
X0031498Y0125651D01*
X0031602Y0125773D01*
X0031709Y0125893D01*
X0031819Y0126010D01*
X0031932Y0126125D01*
X0032048Y0126236D01*
X0032167Y0126345D01*
X0032288Y0126450D01*
X0032412Y0126553D01*
X0032538Y0126653D01*
X0032666Y0126749D01*
X0032797Y0126842D01*
X0032931Y0126932D01*
X0033066Y0127019D01*
X0033204Y0127102D01*
X0033343Y0127182D01*
X0033485Y0127258D01*
X0033628Y0127331D01*
X0033773Y0127400D01*
X0033920Y0127466D01*
X0034068Y0127528D01*
X0034218Y0127586D01*
X0034369Y0127641D01*
X0034522Y0127692D01*
X0034676Y0127739D01*
X0034831Y0127782D01*
X0034987Y0127821D01*
X0035143Y0127857D01*
X0035301Y0127888D01*
X0035459Y0127916D01*
X0035618Y0127940D01*
X0035778Y0127960D01*
X0035938Y0127976D01*
X0036098Y0127988D01*
X0036259Y0127996D01*
X0036420Y0128000D01*
X0036580Y0128000D01*
X0036741Y0127996D01*
X0036902Y0127988D01*
X0037062Y0127976D01*
X0037222Y0127960D01*
X0037382Y0127940D01*
X0037541Y0127916D01*
X0037699Y0127888D01*
X0037857Y0127857D01*
X0038013Y0127821D01*
X0038169Y0127782D01*
X0038324Y0127739D01*
X0038478Y0127692D01*
X0038631Y0127641D01*
X0038782Y0127586D01*
X0038932Y0127528D01*
X0039080Y0127466D01*
X0039227Y0127400D01*
X0039372Y0127331D01*
X0039515Y0127258D01*
X0039657Y0127182D01*
X0039796Y0127102D01*
X0039934Y0127019D01*
X0040069Y0126932D01*
X0040203Y0126842D01*
X0040334Y0126749D01*
X0040462Y0126653D01*
X0040588Y0126553D01*
X0040712Y0126450D01*
X0040833Y0126345D01*
X0040952Y0126236D01*
X0041068Y0126125D01*
X0041181Y0126010D01*
X0041291Y0125893D01*
X0041398Y0125773D01*
X0041502Y0125651D01*
X0041603Y0125526D01*
X0041701Y0125398D01*
X0041796Y0125268D01*
X0041888Y0125136D01*
X0041976Y0125002D01*
X0042061Y0124865D01*
X0042143Y0124727D01*
X0042221Y0124586D01*
X0042295Y0124444D01*
X0042366Y0124300D01*
X0042434Y0124154D01*
X0042497Y0124006D01*
X0042558Y0123857D01*
X0042614Y0123706D01*
X0042667Y0123554D01*
X0042716Y0123401D01*
X0042761Y0123247D01*
X0042802Y0123092D01*
X0042840Y0122935D01*
X0042873Y0122778D01*
X0042903Y0122620D01*
X0042929Y0122461D01*
X0042950Y0122302D01*
X0042968Y0122142D01*
X0042982Y0121982D01*
X0042992Y0121821D01*
X0042998Y0121661D01*
X0043000Y0121500D01*
X0042998Y0121339D01*
X0042992Y0121179D01*
X0042982Y0121018D01*
X0042968Y0120858D01*
X0042950Y0120698D01*
X0042929Y0120539D01*
X0042903Y0120380D01*
X0042873Y0120222D01*
X0042840Y0120065D01*
X0042802Y0119908D01*
X0042761Y0119753D01*
X0042716Y0119599D01*
X0042667Y0119446D01*
X0042614Y0119294D01*
X0042558Y0119143D01*
X0042497Y0118994D01*
X0042434Y0118846D01*
X0042366Y0118700D01*
X0042295Y0118556D01*
X0042221Y0118414D01*
X0042143Y0118273D01*
X0042061Y0118135D01*
X0041976Y0117998D01*
X0041888Y0117864D01*
X0041796Y0117732D01*
X0041701Y0117602D01*
X0041603Y0117474D01*
X0041502Y0117349D01*
X0041398Y0117227D01*
X0041291Y0117107D01*
X0041181Y0116990D01*
X0041068Y0116875D01*
X0040952Y0116764D01*
X0040833Y0116655D01*
X0040712Y0116550D01*
X0040588Y0116447D01*
X0040462Y0116347D01*
X0040334Y0116251D01*
X0040203Y0116158D01*
X0040069Y0116068D01*
X0039934Y0115981D01*
X0039796Y0115898D01*
X0039657Y0115818D01*
X0039515Y0115742D01*
X0039372Y0115669D01*
X0039227Y0115600D01*
X0039080Y0115534D01*
X0038932Y0115472D01*
X0038782Y0115414D01*
X0038631Y0115359D01*
X0038478Y0115308D01*
X0038324Y0115261D01*
X0038169Y0115218D01*
X0038013Y0115179D01*
X0037857Y0115143D01*
X0037699Y0115112D01*
X0037541Y0115084D01*
X0037382Y0115060D01*
X0037222Y0115040D01*
X0037062Y0115024D01*
X0036902Y0115012D01*
X0036741Y0115004D01*
X0036580Y0115000D01*
X0036420Y0115000D01*
X0036259Y0115004D01*
X0036098Y0115012D01*
X0035938Y0115024D01*
X0035778Y0115040D01*
X0035618Y0115060D01*
X0035459Y0115084D01*
X0035301Y0115112D01*
X0035143Y0115143D01*
X0034987Y0115179D01*
X0034831Y0115218D01*
X0034676Y0115261D01*
X0034522Y0115308D01*
X0034369Y0115359D01*
X0034218Y0115414D01*
X0034068Y0115472D01*
X0033920Y0115534D01*
X0033773Y0115600D01*
X0033628Y0115669D01*
X0033485Y0115742D01*
X0033343Y0115818D01*
X0033204Y0115898D01*
X0033066Y0115981D01*
X0032931Y0116068D01*
X0032797Y0116158D01*
X0032666Y0116251D01*
X0032538Y0116347D01*
X0032412Y0116447D01*
X0032288Y0116550D01*
X0032167Y0116655D01*
X0032048Y0116764D01*
X0031932Y0116875D01*
X0031819Y0116990D01*
X0031709Y0117107D01*
X0031602Y0117227D01*
X0031498Y0117349D01*
X0031397Y0117474D01*
X0031299Y0117602D01*
X0031204Y0117732D01*
X0031112Y0117864D01*
X0031024Y0117998D01*
X0030939Y0118135D01*
X0030857Y0118273D01*
X0030779Y0118414D01*
X0030705Y0118556D01*
X0030634Y0118700D01*
X0030566Y0118846D01*
X0030503Y0118994D01*
X0030442Y0119143D01*
X0030386Y0119294D01*
X0030333Y0119446D01*
X0030284Y0119599D01*
X0030239Y0119753D01*
X0030198Y0119908D01*
X0030160Y0120065D01*
X0030127Y0120222D01*
X0030097Y0120380D01*
X0030071Y0120539D01*
X0030050Y0120698D01*
X0030032Y0120858D01*
X0030018Y0121018D01*
X0030008Y0121179D01*
X0030002Y0121339D01*
X0030000Y0121500D01*
X0110000Y0121500D02*
X0110002Y0121661D01*
X0110008Y0121821D01*
X0110018Y0121982D01*
X0110032Y0122142D01*
X0110050Y0122302D01*
X0110071Y0122461D01*
X0110097Y0122620D01*
X0110127Y0122778D01*
X0110160Y0122935D01*
X0110198Y0123092D01*
X0110239Y0123247D01*
X0110284Y0123401D01*
X0110333Y0123554D01*
X0110386Y0123706D01*
X0110442Y0123857D01*
X0110503Y0124006D01*
X0110566Y0124154D01*
X0110634Y0124300D01*
X0110705Y0124444D01*
X0110779Y0124586D01*
X0110857Y0124727D01*
X0110939Y0124865D01*
X0111024Y0125002D01*
X0111112Y0125136D01*
X0111204Y0125268D01*
X0111299Y0125398D01*
X0111397Y0125526D01*
X0111498Y0125651D01*
X0111602Y0125773D01*
X0111709Y0125893D01*
X0111819Y0126010D01*
X0111932Y0126125D01*
X0112048Y0126236D01*
X0112167Y0126345D01*
X0112288Y0126450D01*
X0112412Y0126553D01*
X0112538Y0126653D01*
X0112666Y0126749D01*
X0112797Y0126842D01*
X0112931Y0126932D01*
X0113066Y0127019D01*
X0113204Y0127102D01*
X0113343Y0127182D01*
X0113485Y0127258D01*
X0113628Y0127331D01*
X0113773Y0127400D01*
X0113920Y0127466D01*
X0114068Y0127528D01*
X0114218Y0127586D01*
X0114369Y0127641D01*
X0114522Y0127692D01*
X0114676Y0127739D01*
X0114831Y0127782D01*
X0114987Y0127821D01*
X0115143Y0127857D01*
X0115301Y0127888D01*
X0115459Y0127916D01*
X0115618Y0127940D01*
X0115778Y0127960D01*
X0115938Y0127976D01*
X0116098Y0127988D01*
X0116259Y0127996D01*
X0116420Y0128000D01*
X0116580Y0128000D01*
X0116741Y0127996D01*
X0116902Y0127988D01*
X0117062Y0127976D01*
X0117222Y0127960D01*
X0117382Y0127940D01*
X0117541Y0127916D01*
X0117699Y0127888D01*
X0117857Y0127857D01*
X0118013Y0127821D01*
X0118169Y0127782D01*
X0118324Y0127739D01*
X0118478Y0127692D01*
X0118631Y0127641D01*
X0118782Y0127586D01*
X0118932Y0127528D01*
X0119080Y0127466D01*
X0119227Y0127400D01*
X0119372Y0127331D01*
X0119515Y0127258D01*
X0119657Y0127182D01*
X0119796Y0127102D01*
X0119934Y0127019D01*
X0120069Y0126932D01*
X0120203Y0126842D01*
X0120334Y0126749D01*
X0120462Y0126653D01*
X0120588Y0126553D01*
X0120712Y0126450D01*
X0120833Y0126345D01*
X0120952Y0126236D01*
X0121068Y0126125D01*
X0121181Y0126010D01*
X0121291Y0125893D01*
X0121398Y0125773D01*
X0121502Y0125651D01*
X0121603Y0125526D01*
X0121701Y0125398D01*
X0121796Y0125268D01*
X0121888Y0125136D01*
X0121976Y0125002D01*
X0122061Y0124865D01*
X0122143Y0124727D01*
X0122221Y0124586D01*
X0122295Y0124444D01*
X0122366Y0124300D01*
X0122434Y0124154D01*
X0122497Y0124006D01*
X0122558Y0123857D01*
X0122614Y0123706D01*
X0122667Y0123554D01*
X0122716Y0123401D01*
X0122761Y0123247D01*
X0122802Y0123092D01*
X0122840Y0122935D01*
X0122873Y0122778D01*
X0122903Y0122620D01*
X0122929Y0122461D01*
X0122950Y0122302D01*
X0122968Y0122142D01*
X0122982Y0121982D01*
X0122992Y0121821D01*
X0122998Y0121661D01*
X0123000Y0121500D01*
X0122998Y0121339D01*
X0122992Y0121179D01*
X0122982Y0121018D01*
X0122968Y0120858D01*
X0122950Y0120698D01*
X0122929Y0120539D01*
X0122903Y0120380D01*
X0122873Y0120222D01*
X0122840Y0120065D01*
X0122802Y0119908D01*
X0122761Y0119753D01*
X0122716Y0119599D01*
X0122667Y0119446D01*
X0122614Y0119294D01*
X0122558Y0119143D01*
X0122497Y0118994D01*
X0122434Y0118846D01*
X0122366Y0118700D01*
X0122295Y0118556D01*
X0122221Y0118414D01*
X0122143Y0118273D01*
X0122061Y0118135D01*
X0121976Y0117998D01*
X0121888Y0117864D01*
X0121796Y0117732D01*
X0121701Y0117602D01*
X0121603Y0117474D01*
X0121502Y0117349D01*
X0121398Y0117227D01*
X0121291Y0117107D01*
X0121181Y0116990D01*
X0121068Y0116875D01*
X0120952Y0116764D01*
X0120833Y0116655D01*
X0120712Y0116550D01*
X0120588Y0116447D01*
X0120462Y0116347D01*
X0120334Y0116251D01*
X0120203Y0116158D01*
X0120069Y0116068D01*
X0119934Y0115981D01*
X0119796Y0115898D01*
X0119657Y0115818D01*
X0119515Y0115742D01*
X0119372Y0115669D01*
X0119227Y0115600D01*
X0119080Y0115534D01*
X0118932Y0115472D01*
X0118782Y0115414D01*
X0118631Y0115359D01*
X0118478Y0115308D01*
X0118324Y0115261D01*
X0118169Y0115218D01*
X0118013Y0115179D01*
X0117857Y0115143D01*
X0117699Y0115112D01*
X0117541Y0115084D01*
X0117382Y0115060D01*
X0117222Y0115040D01*
X0117062Y0115024D01*
X0116902Y0115012D01*
X0116741Y0115004D01*
X0116580Y0115000D01*
X0116420Y0115000D01*
X0116259Y0115004D01*
X0116098Y0115012D01*
X0115938Y0115024D01*
X0115778Y0115040D01*
X0115618Y0115060D01*
X0115459Y0115084D01*
X0115301Y0115112D01*
X0115143Y0115143D01*
X0114987Y0115179D01*
X0114831Y0115218D01*
X0114676Y0115261D01*
X0114522Y0115308D01*
X0114369Y0115359D01*
X0114218Y0115414D01*
X0114068Y0115472D01*
X0113920Y0115534D01*
X0113773Y0115600D01*
X0113628Y0115669D01*
X0113485Y0115742D01*
X0113343Y0115818D01*
X0113204Y0115898D01*
X0113066Y0115981D01*
X0112931Y0116068D01*
X0112797Y0116158D01*
X0112666Y0116251D01*
X0112538Y0116347D01*
X0112412Y0116447D01*
X0112288Y0116550D01*
X0112167Y0116655D01*
X0112048Y0116764D01*
X0111932Y0116875D01*
X0111819Y0116990D01*
X0111709Y0117107D01*
X0111602Y0117227D01*
X0111498Y0117349D01*
X0111397Y0117474D01*
X0111299Y0117602D01*
X0111204Y0117732D01*
X0111112Y0117864D01*
X0111024Y0117998D01*
X0110939Y0118135D01*
X0110857Y0118273D01*
X0110779Y0118414D01*
X0110705Y0118556D01*
X0110634Y0118700D01*
X0110566Y0118846D01*
X0110503Y0118994D01*
X0110442Y0119143D01*
X0110386Y0119294D01*
X0110333Y0119446D01*
X0110284Y0119599D01*
X0110239Y0119753D01*
X0110198Y0119908D01*
X0110160Y0120065D01*
X0110127Y0120222D01*
X0110097Y0120380D01*
X0110071Y0120539D01*
X0110050Y0120698D01*
X0110032Y0120858D01*
X0110018Y0121018D01*
X0110008Y0121179D01*
X0110002Y0121339D01*
X0110000Y0121500D01*
X0132000Y0121500D02*
X0132002Y0121661D01*
X0132008Y0121821D01*
X0132018Y0121982D01*
X0132032Y0122142D01*
X0132050Y0122302D01*
X0132071Y0122461D01*
X0132097Y0122620D01*
X0132127Y0122778D01*
X0132160Y0122935D01*
X0132198Y0123092D01*
X0132239Y0123247D01*
X0132284Y0123401D01*
X0132333Y0123554D01*
X0132386Y0123706D01*
X0132442Y0123857D01*
X0132503Y0124006D01*
X0132566Y0124154D01*
X0132634Y0124300D01*
X0132705Y0124444D01*
X0132779Y0124586D01*
X0132857Y0124727D01*
X0132939Y0124865D01*
X0133024Y0125002D01*
X0133112Y0125136D01*
X0133204Y0125268D01*
X0133299Y0125398D01*
X0133397Y0125526D01*
X0133498Y0125651D01*
X0133602Y0125773D01*
X0133709Y0125893D01*
X0133819Y0126010D01*
X0133932Y0126125D01*
X0134048Y0126236D01*
X0134167Y0126345D01*
X0134288Y0126450D01*
X0134412Y0126553D01*
X0134538Y0126653D01*
X0134666Y0126749D01*
X0134797Y0126842D01*
X0134931Y0126932D01*
X0135066Y0127019D01*
X0135204Y0127102D01*
X0135343Y0127182D01*
X0135485Y0127258D01*
X0135628Y0127331D01*
X0135773Y0127400D01*
X0135920Y0127466D01*
X0136068Y0127528D01*
X0136218Y0127586D01*
X0136369Y0127641D01*
X0136522Y0127692D01*
X0136676Y0127739D01*
X0136831Y0127782D01*
X0136987Y0127821D01*
X0137143Y0127857D01*
X0137301Y0127888D01*
X0137459Y0127916D01*
X0137618Y0127940D01*
X0137778Y0127960D01*
X0137938Y0127976D01*
X0138098Y0127988D01*
X0138259Y0127996D01*
X0138420Y0128000D01*
X0138580Y0128000D01*
X0138741Y0127996D01*
X0138902Y0127988D01*
X0139062Y0127976D01*
X0139222Y0127960D01*
X0139382Y0127940D01*
X0139541Y0127916D01*
X0139699Y0127888D01*
X0139857Y0127857D01*
X0140013Y0127821D01*
X0140169Y0127782D01*
X0140324Y0127739D01*
X0140478Y0127692D01*
X0140631Y0127641D01*
X0140782Y0127586D01*
X0140932Y0127528D01*
X0141080Y0127466D01*
X0141227Y0127400D01*
X0141372Y0127331D01*
X0141515Y0127258D01*
X0141657Y0127182D01*
X0141796Y0127102D01*
X0141934Y0127019D01*
X0142069Y0126932D01*
X0142203Y0126842D01*
X0142334Y0126749D01*
X0142462Y0126653D01*
X0142588Y0126553D01*
X0142712Y0126450D01*
X0142833Y0126345D01*
X0142952Y0126236D01*
X0143068Y0126125D01*
X0143181Y0126010D01*
X0143291Y0125893D01*
X0143398Y0125773D01*
X0143502Y0125651D01*
X0143603Y0125526D01*
X0143701Y0125398D01*
X0143796Y0125268D01*
X0143888Y0125136D01*
X0143976Y0125002D01*
X0144061Y0124865D01*
X0144143Y0124727D01*
X0144221Y0124586D01*
X0144295Y0124444D01*
X0144366Y0124300D01*
X0144434Y0124154D01*
X0144497Y0124006D01*
X0144558Y0123857D01*
X0144614Y0123706D01*
X0144667Y0123554D01*
X0144716Y0123401D01*
X0144761Y0123247D01*
X0144802Y0123092D01*
X0144840Y0122935D01*
X0144873Y0122778D01*
X0144903Y0122620D01*
X0144929Y0122461D01*
X0144950Y0122302D01*
X0144968Y0122142D01*
X0144982Y0121982D01*
X0144992Y0121821D01*
X0144998Y0121661D01*
X0145000Y0121500D01*
X0144998Y0121339D01*
X0144992Y0121179D01*
X0144982Y0121018D01*
X0144968Y0120858D01*
X0144950Y0120698D01*
X0144929Y0120539D01*
X0144903Y0120380D01*
X0144873Y0120222D01*
X0144840Y0120065D01*
X0144802Y0119908D01*
X0144761Y0119753D01*
X0144716Y0119599D01*
X0144667Y0119446D01*
X0144614Y0119294D01*
X0144558Y0119143D01*
X0144497Y0118994D01*
X0144434Y0118846D01*
X0144366Y0118700D01*
X0144295Y0118556D01*
X0144221Y0118414D01*
X0144143Y0118273D01*
X0144061Y0118135D01*
X0143976Y0117998D01*
X0143888Y0117864D01*
X0143796Y0117732D01*
X0143701Y0117602D01*
X0143603Y0117474D01*
X0143502Y0117349D01*
X0143398Y0117227D01*
X0143291Y0117107D01*
X0143181Y0116990D01*
X0143068Y0116875D01*
X0142952Y0116764D01*
X0142833Y0116655D01*
X0142712Y0116550D01*
X0142588Y0116447D01*
X0142462Y0116347D01*
X0142334Y0116251D01*
X0142203Y0116158D01*
X0142069Y0116068D01*
X0141934Y0115981D01*
X0141796Y0115898D01*
X0141657Y0115818D01*
X0141515Y0115742D01*
X0141372Y0115669D01*
X0141227Y0115600D01*
X0141080Y0115534D01*
X0140932Y0115472D01*
X0140782Y0115414D01*
X0140631Y0115359D01*
X0140478Y0115308D01*
X0140324Y0115261D01*
X0140169Y0115218D01*
X0140013Y0115179D01*
X0139857Y0115143D01*
X0139699Y0115112D01*
X0139541Y0115084D01*
X0139382Y0115060D01*
X0139222Y0115040D01*
X0139062Y0115024D01*
X0138902Y0115012D01*
X0138741Y0115004D01*
X0138580Y0115000D01*
X0138420Y0115000D01*
X0138259Y0115004D01*
X0138098Y0115012D01*
X0137938Y0115024D01*
X0137778Y0115040D01*
X0137618Y0115060D01*
X0137459Y0115084D01*
X0137301Y0115112D01*
X0137143Y0115143D01*
X0136987Y0115179D01*
X0136831Y0115218D01*
X0136676Y0115261D01*
X0136522Y0115308D01*
X0136369Y0115359D01*
X0136218Y0115414D01*
X0136068Y0115472D01*
X0135920Y0115534D01*
X0135773Y0115600D01*
X0135628Y0115669D01*
X0135485Y0115742D01*
X0135343Y0115818D01*
X0135204Y0115898D01*
X0135066Y0115981D01*
X0134931Y0116068D01*
X0134797Y0116158D01*
X0134666Y0116251D01*
X0134538Y0116347D01*
X0134412Y0116447D01*
X0134288Y0116550D01*
X0134167Y0116655D01*
X0134048Y0116764D01*
X0133932Y0116875D01*
X0133819Y0116990D01*
X0133709Y0117107D01*
X0133602Y0117227D01*
X0133498Y0117349D01*
X0133397Y0117474D01*
X0133299Y0117602D01*
X0133204Y0117732D01*
X0133112Y0117864D01*
X0133024Y0117998D01*
X0132939Y0118135D01*
X0132857Y0118273D01*
X0132779Y0118414D01*
X0132705Y0118556D01*
X0132634Y0118700D01*
X0132566Y0118846D01*
X0132503Y0118994D01*
X0132442Y0119143D01*
X0132386Y0119294D01*
X0132333Y0119446D01*
X0132284Y0119599D01*
X0132239Y0119753D01*
X0132198Y0119908D01*
X0132160Y0120065D01*
X0132127Y0120222D01*
X0132097Y0120380D01*
X0132071Y0120539D01*
X0132050Y0120698D01*
X0132032Y0120858D01*
X0132018Y0121018D01*
X0132008Y0121179D01*
X0132002Y0121339D01*
X0132000Y0121500D01*
X0212000Y0121500D02*
X0212002Y0121661D01*
X0212008Y0121821D01*
X0212018Y0121982D01*
X0212032Y0122142D01*
X0212050Y0122302D01*
X0212071Y0122461D01*
X0212097Y0122620D01*
X0212127Y0122778D01*
X0212160Y0122935D01*
X0212198Y0123092D01*
X0212239Y0123247D01*
X0212284Y0123401D01*
X0212333Y0123554D01*
X0212386Y0123706D01*
X0212442Y0123857D01*
X0212503Y0124006D01*
X0212566Y0124154D01*
X0212634Y0124300D01*
X0212705Y0124444D01*
X0212779Y0124586D01*
X0212857Y0124727D01*
X0212939Y0124865D01*
X0213024Y0125002D01*
X0213112Y0125136D01*
X0213204Y0125268D01*
X0213299Y0125398D01*
X0213397Y0125526D01*
X0213498Y0125651D01*
X0213602Y0125773D01*
X0213709Y0125893D01*
X0213819Y0126010D01*
X0213932Y0126125D01*
X0214048Y0126236D01*
X0214167Y0126345D01*
X0214288Y0126450D01*
X0214412Y0126553D01*
X0214538Y0126653D01*
X0214666Y0126749D01*
X0214797Y0126842D01*
X0214931Y0126932D01*
X0215066Y0127019D01*
X0215204Y0127102D01*
X0215343Y0127182D01*
X0215485Y0127258D01*
X0215628Y0127331D01*
X0215773Y0127400D01*
X0215920Y0127466D01*
X0216068Y0127528D01*
X0216218Y0127586D01*
X0216369Y0127641D01*
X0216522Y0127692D01*
X0216676Y0127739D01*
X0216831Y0127782D01*
X0216987Y0127821D01*
X0217143Y0127857D01*
X0217301Y0127888D01*
X0217459Y0127916D01*
X0217618Y0127940D01*
X0217778Y0127960D01*
X0217938Y0127976D01*
X0218098Y0127988D01*
X0218259Y0127996D01*
X0218420Y0128000D01*
X0218580Y0128000D01*
X0218741Y0127996D01*
X0218902Y0127988D01*
X0219062Y0127976D01*
X0219222Y0127960D01*
X0219382Y0127940D01*
X0219541Y0127916D01*
X0219699Y0127888D01*
X0219857Y0127857D01*
X0220013Y0127821D01*
X0220169Y0127782D01*
X0220324Y0127739D01*
X0220478Y0127692D01*
X0220631Y0127641D01*
X0220782Y0127586D01*
X0220932Y0127528D01*
X0221080Y0127466D01*
X0221227Y0127400D01*
X0221372Y0127331D01*
X0221515Y0127258D01*
X0221657Y0127182D01*
X0221796Y0127102D01*
X0221934Y0127019D01*
X0222069Y0126932D01*
X0222203Y0126842D01*
X0222334Y0126749D01*
X0222462Y0126653D01*
X0222588Y0126553D01*
X0222712Y0126450D01*
X0222833Y0126345D01*
X0222952Y0126236D01*
X0223068Y0126125D01*
X0223181Y0126010D01*
X0223291Y0125893D01*
X0223398Y0125773D01*
X0223502Y0125651D01*
X0223603Y0125526D01*
X0223701Y0125398D01*
X0223796Y0125268D01*
X0223888Y0125136D01*
X0223976Y0125002D01*
X0224061Y0124865D01*
X0224143Y0124727D01*
X0224221Y0124586D01*
X0224295Y0124444D01*
X0224366Y0124300D01*
X0224434Y0124154D01*
X0224497Y0124006D01*
X0224558Y0123857D01*
X0224614Y0123706D01*
X0224667Y0123554D01*
X0224716Y0123401D01*
X0224761Y0123247D01*
X0224802Y0123092D01*
X0224840Y0122935D01*
X0224873Y0122778D01*
X0224903Y0122620D01*
X0224929Y0122461D01*
X0224950Y0122302D01*
X0224968Y0122142D01*
X0224982Y0121982D01*
X0224992Y0121821D01*
X0224998Y0121661D01*
X0225000Y0121500D01*
X0224998Y0121339D01*
X0224992Y0121179D01*
X0224982Y0121018D01*
X0224968Y0120858D01*
X0224950Y0120698D01*
X0224929Y0120539D01*
X0224903Y0120380D01*
X0224873Y0120222D01*
X0224840Y0120065D01*
X0224802Y0119908D01*
X0224761Y0119753D01*
X0224716Y0119599D01*
X0224667Y0119446D01*
X0224614Y0119294D01*
X0224558Y0119143D01*
X0224497Y0118994D01*
X0224434Y0118846D01*
X0224366Y0118700D01*
X0224295Y0118556D01*
X0224221Y0118414D01*
X0224143Y0118273D01*
X0224061Y0118135D01*
X0223976Y0117998D01*
X0223888Y0117864D01*
X0223796Y0117732D01*
X0223701Y0117602D01*
X0223603Y0117474D01*
X0223502Y0117349D01*
X0223398Y0117227D01*
X0223291Y0117107D01*
X0223181Y0116990D01*
X0223068Y0116875D01*
X0222952Y0116764D01*
X0222833Y0116655D01*
X0222712Y0116550D01*
X0222588Y0116447D01*
X0222462Y0116347D01*
X0222334Y0116251D01*
X0222203Y0116158D01*
X0222069Y0116068D01*
X0221934Y0115981D01*
X0221796Y0115898D01*
X0221657Y0115818D01*
X0221515Y0115742D01*
X0221372Y0115669D01*
X0221227Y0115600D01*
X0221080Y0115534D01*
X0220932Y0115472D01*
X0220782Y0115414D01*
X0220631Y0115359D01*
X0220478Y0115308D01*
X0220324Y0115261D01*
X0220169Y0115218D01*
X0220013Y0115179D01*
X0219857Y0115143D01*
X0219699Y0115112D01*
X0219541Y0115084D01*
X0219382Y0115060D01*
X0219222Y0115040D01*
X0219062Y0115024D01*
X0218902Y0115012D01*
X0218741Y0115004D01*
X0218580Y0115000D01*
X0218420Y0115000D01*
X0218259Y0115004D01*
X0218098Y0115012D01*
X0217938Y0115024D01*
X0217778Y0115040D01*
X0217618Y0115060D01*
X0217459Y0115084D01*
X0217301Y0115112D01*
X0217143Y0115143D01*
X0216987Y0115179D01*
X0216831Y0115218D01*
X0216676Y0115261D01*
X0216522Y0115308D01*
X0216369Y0115359D01*
X0216218Y0115414D01*
X0216068Y0115472D01*
X0215920Y0115534D01*
X0215773Y0115600D01*
X0215628Y0115669D01*
X0215485Y0115742D01*
X0215343Y0115818D01*
X0215204Y0115898D01*
X0215066Y0115981D01*
X0214931Y0116068D01*
X0214797Y0116158D01*
X0214666Y0116251D01*
X0214538Y0116347D01*
X0214412Y0116447D01*
X0214288Y0116550D01*
X0214167Y0116655D01*
X0214048Y0116764D01*
X0213932Y0116875D01*
X0213819Y0116990D01*
X0213709Y0117107D01*
X0213602Y0117227D01*
X0213498Y0117349D01*
X0213397Y0117474D01*
X0213299Y0117602D01*
X0213204Y0117732D01*
X0213112Y0117864D01*
X0213024Y0117998D01*
X0212939Y0118135D01*
X0212857Y0118273D01*
X0212779Y0118414D01*
X0212705Y0118556D01*
X0212634Y0118700D01*
X0212566Y0118846D01*
X0212503Y0118994D01*
X0212442Y0119143D01*
X0212386Y0119294D01*
X0212333Y0119446D01*
X0212284Y0119599D01*
X0212239Y0119753D01*
X0212198Y0119908D01*
X0212160Y0120065D01*
X0212127Y0120222D01*
X0212097Y0120380D01*
X0212071Y0120539D01*
X0212050Y0120698D01*
X0212032Y0120858D01*
X0212018Y0121018D01*
X0212008Y0121179D01*
X0212002Y0121339D01*
X0212000Y0121500D01*
X0234000Y0121500D02*
X0234002Y0121661D01*
X0234008Y0121821D01*
X0234018Y0121982D01*
X0234032Y0122142D01*
X0234050Y0122302D01*
X0234071Y0122461D01*
X0234097Y0122620D01*
X0234127Y0122778D01*
X0234160Y0122935D01*
X0234198Y0123092D01*
X0234239Y0123247D01*
X0234284Y0123401D01*
X0234333Y0123554D01*
X0234386Y0123706D01*
X0234442Y0123857D01*
X0234503Y0124006D01*
X0234566Y0124154D01*
X0234634Y0124300D01*
X0234705Y0124444D01*
X0234779Y0124586D01*
X0234857Y0124727D01*
X0234939Y0124865D01*
X0235024Y0125002D01*
X0235112Y0125136D01*
X0235204Y0125268D01*
X0235299Y0125398D01*
X0235397Y0125526D01*
X0235498Y0125651D01*
X0235602Y0125773D01*
X0235709Y0125893D01*
X0235819Y0126010D01*
X0235932Y0126125D01*
X0236048Y0126236D01*
X0236167Y0126345D01*
X0236288Y0126450D01*
X0236412Y0126553D01*
X0236538Y0126653D01*
X0236666Y0126749D01*
X0236797Y0126842D01*
X0236931Y0126932D01*
X0237066Y0127019D01*
X0237204Y0127102D01*
X0237343Y0127182D01*
X0237485Y0127258D01*
X0237628Y0127331D01*
X0237773Y0127400D01*
X0237920Y0127466D01*
X0238068Y0127528D01*
X0238218Y0127586D01*
X0238369Y0127641D01*
X0238522Y0127692D01*
X0238676Y0127739D01*
X0238831Y0127782D01*
X0238987Y0127821D01*
X0239143Y0127857D01*
X0239301Y0127888D01*
X0239459Y0127916D01*
X0239618Y0127940D01*
X0239778Y0127960D01*
X0239938Y0127976D01*
X0240098Y0127988D01*
X0240259Y0127996D01*
X0240420Y0128000D01*
X0240580Y0128000D01*
X0240741Y0127996D01*
X0240902Y0127988D01*
X0241062Y0127976D01*
X0241222Y0127960D01*
X0241382Y0127940D01*
X0241541Y0127916D01*
X0241699Y0127888D01*
X0241857Y0127857D01*
X0242013Y0127821D01*
X0242169Y0127782D01*
X0242324Y0127739D01*
X0242478Y0127692D01*
X0242631Y0127641D01*
X0242782Y0127586D01*
X0242932Y0127528D01*
X0243080Y0127466D01*
X0243227Y0127400D01*
X0243372Y0127331D01*
X0243515Y0127258D01*
X0243657Y0127182D01*
X0243796Y0127102D01*
X0243934Y0127019D01*
X0244069Y0126932D01*
X0244203Y0126842D01*
X0244334Y0126749D01*
X0244462Y0126653D01*
X0244588Y0126553D01*
X0244712Y0126450D01*
X0244833Y0126345D01*
X0244952Y0126236D01*
X0245068Y0126125D01*
X0245181Y0126010D01*
X0245291Y0125893D01*
X0245398Y0125773D01*
X0245502Y0125651D01*
X0245603Y0125526D01*
X0245701Y0125398D01*
X0245796Y0125268D01*
X0245888Y0125136D01*
X0245976Y0125002D01*
X0246061Y0124865D01*
X0246143Y0124727D01*
X0246221Y0124586D01*
X0246295Y0124444D01*
X0246366Y0124300D01*
X0246434Y0124154D01*
X0246497Y0124006D01*
X0246558Y0123857D01*
X0246614Y0123706D01*
X0246667Y0123554D01*
X0246716Y0123401D01*
X0246761Y0123247D01*
X0246802Y0123092D01*
X0246840Y0122935D01*
X0246873Y0122778D01*
X0246903Y0122620D01*
X0246929Y0122461D01*
X0246950Y0122302D01*
X0246968Y0122142D01*
X0246982Y0121982D01*
X0246992Y0121821D01*
X0246998Y0121661D01*
X0247000Y0121500D01*
X0246998Y0121339D01*
X0246992Y0121179D01*
X0246982Y0121018D01*
X0246968Y0120858D01*
X0246950Y0120698D01*
X0246929Y0120539D01*
X0246903Y0120380D01*
X0246873Y0120222D01*
X0246840Y0120065D01*
X0246802Y0119908D01*
X0246761Y0119753D01*
X0246716Y0119599D01*
X0246667Y0119446D01*
X0246614Y0119294D01*
X0246558Y0119143D01*
X0246497Y0118994D01*
X0246434Y0118846D01*
X0246366Y0118700D01*
X0246295Y0118556D01*
X0246221Y0118414D01*
X0246143Y0118273D01*
X0246061Y0118135D01*
X0245976Y0117998D01*
X0245888Y0117864D01*
X0245796Y0117732D01*
X0245701Y0117602D01*
X0245603Y0117474D01*
X0245502Y0117349D01*
X0245398Y0117227D01*
X0245291Y0117107D01*
X0245181Y0116990D01*
X0245068Y0116875D01*
X0244952Y0116764D01*
X0244833Y0116655D01*
X0244712Y0116550D01*
X0244588Y0116447D01*
X0244462Y0116347D01*
X0244334Y0116251D01*
X0244203Y0116158D01*
X0244069Y0116068D01*
X0243934Y0115981D01*
X0243796Y0115898D01*
X0243657Y0115818D01*
X0243515Y0115742D01*
X0243372Y0115669D01*
X0243227Y0115600D01*
X0243080Y0115534D01*
X0242932Y0115472D01*
X0242782Y0115414D01*
X0242631Y0115359D01*
X0242478Y0115308D01*
X0242324Y0115261D01*
X0242169Y0115218D01*
X0242013Y0115179D01*
X0241857Y0115143D01*
X0241699Y0115112D01*
X0241541Y0115084D01*
X0241382Y0115060D01*
X0241222Y0115040D01*
X0241062Y0115024D01*
X0240902Y0115012D01*
X0240741Y0115004D01*
X0240580Y0115000D01*
X0240420Y0115000D01*
X0240259Y0115004D01*
X0240098Y0115012D01*
X0239938Y0115024D01*
X0239778Y0115040D01*
X0239618Y0115060D01*
X0239459Y0115084D01*
X0239301Y0115112D01*
X0239143Y0115143D01*
X0238987Y0115179D01*
X0238831Y0115218D01*
X0238676Y0115261D01*
X0238522Y0115308D01*
X0238369Y0115359D01*
X0238218Y0115414D01*
X0238068Y0115472D01*
X0237920Y0115534D01*
X0237773Y0115600D01*
X0237628Y0115669D01*
X0237485Y0115742D01*
X0237343Y0115818D01*
X0237204Y0115898D01*
X0237066Y0115981D01*
X0236931Y0116068D01*
X0236797Y0116158D01*
X0236666Y0116251D01*
X0236538Y0116347D01*
X0236412Y0116447D01*
X0236288Y0116550D01*
X0236167Y0116655D01*
X0236048Y0116764D01*
X0235932Y0116875D01*
X0235819Y0116990D01*
X0235709Y0117107D01*
X0235602Y0117227D01*
X0235498Y0117349D01*
X0235397Y0117474D01*
X0235299Y0117602D01*
X0235204Y0117732D01*
X0235112Y0117864D01*
X0235024Y0117998D01*
X0234939Y0118135D01*
X0234857Y0118273D01*
X0234779Y0118414D01*
X0234705Y0118556D01*
X0234634Y0118700D01*
X0234566Y0118846D01*
X0234503Y0118994D01*
X0234442Y0119143D01*
X0234386Y0119294D01*
X0234333Y0119446D01*
X0234284Y0119599D01*
X0234239Y0119753D01*
X0234198Y0119908D01*
X0234160Y0120065D01*
X0234127Y0120222D01*
X0234097Y0120380D01*
X0234071Y0120539D01*
X0234050Y0120698D01*
X0234032Y0120858D01*
X0234018Y0121018D01*
X0234008Y0121179D01*
X0234002Y0121339D01*
X0234000Y0121500D01*
X0314000Y0121500D02*
X0314002Y0121661D01*
X0314008Y0121821D01*
X0314018Y0121982D01*
X0314032Y0122142D01*
X0314050Y0122302D01*
X0314071Y0122461D01*
X0314097Y0122620D01*
X0314127Y0122778D01*
X0314160Y0122935D01*
X0314198Y0123092D01*
X0314239Y0123247D01*
X0314284Y0123401D01*
X0314333Y0123554D01*
X0314386Y0123706D01*
X0314442Y0123857D01*
X0314503Y0124006D01*
X0314566Y0124154D01*
X0314634Y0124300D01*
X0314705Y0124444D01*
X0314779Y0124586D01*
X0314857Y0124727D01*
X0314939Y0124865D01*
X0315024Y0125002D01*
X0315112Y0125136D01*
X0315204Y0125268D01*
X0315299Y0125398D01*
X0315397Y0125526D01*
X0315498Y0125651D01*
X0315602Y0125773D01*
X0315709Y0125893D01*
X0315819Y0126010D01*
X0315932Y0126125D01*
X0316048Y0126236D01*
X0316167Y0126345D01*
X0316288Y0126450D01*
X0316412Y0126553D01*
X0316538Y0126653D01*
X0316666Y0126749D01*
X0316797Y0126842D01*
X0316931Y0126932D01*
X0317066Y0127019D01*
X0317204Y0127102D01*
X0317343Y0127182D01*
X0317485Y0127258D01*
X0317628Y0127331D01*
X0317773Y0127400D01*
X0317920Y0127466D01*
X0318068Y0127528D01*
X0318218Y0127586D01*
X0318369Y0127641D01*
X0318522Y0127692D01*
X0318676Y0127739D01*
X0318831Y0127782D01*
X0318987Y0127821D01*
X0319143Y0127857D01*
X0319301Y0127888D01*
X0319459Y0127916D01*
X0319618Y0127940D01*
X0319778Y0127960D01*
X0319938Y0127976D01*
X0320098Y0127988D01*
X0320259Y0127996D01*
X0320420Y0128000D01*
X0320580Y0128000D01*
X0320741Y0127996D01*
X0320902Y0127988D01*
X0321062Y0127976D01*
X0321222Y0127960D01*
X0321382Y0127940D01*
X0321541Y0127916D01*
X0321699Y0127888D01*
X0321857Y0127857D01*
X0322013Y0127821D01*
X0322169Y0127782D01*
X0322324Y0127739D01*
X0322478Y0127692D01*
X0322631Y0127641D01*
X0322782Y0127586D01*
X0322932Y0127528D01*
X0323080Y0127466D01*
X0323227Y0127400D01*
X0323372Y0127331D01*
X0323515Y0127258D01*
X0323657Y0127182D01*
X0323796Y0127102D01*
X0323934Y0127019D01*
X0324069Y0126932D01*
X0324203Y0126842D01*
X0324334Y0126749D01*
X0324462Y0126653D01*
X0324588Y0126553D01*
X0324712Y0126450D01*
X0324833Y0126345D01*
X0324952Y0126236D01*
X0325068Y0126125D01*
X0325181Y0126010D01*
X0325291Y0125893D01*
X0325398Y0125773D01*
X0325502Y0125651D01*
X0325603Y0125526D01*
X0325701Y0125398D01*
X0325796Y0125268D01*
X0325888Y0125136D01*
X0325976Y0125002D01*
X0326061Y0124865D01*
X0326143Y0124727D01*
X0326221Y0124586D01*
X0326295Y0124444D01*
X0326366Y0124300D01*
X0326434Y0124154D01*
X0326497Y0124006D01*
X0326558Y0123857D01*
X0326614Y0123706D01*
X0326667Y0123554D01*
X0326716Y0123401D01*
X0326761Y0123247D01*
X0326802Y0123092D01*
X0326840Y0122935D01*
X0326873Y0122778D01*
X0326903Y0122620D01*
X0326929Y0122461D01*
X0326950Y0122302D01*
X0326968Y0122142D01*
X0326982Y0121982D01*
X0326992Y0121821D01*
X0326998Y0121661D01*
X0327000Y0121500D01*
X0326998Y0121339D01*
X0326992Y0121179D01*
X0326982Y0121018D01*
X0326968Y0120858D01*
X0326950Y0120698D01*
X0326929Y0120539D01*
X0326903Y0120380D01*
X0326873Y0120222D01*
X0326840Y0120065D01*
X0326802Y0119908D01*
X0326761Y0119753D01*
X0326716Y0119599D01*
X0326667Y0119446D01*
X0326614Y0119294D01*
X0326558Y0119143D01*
X0326497Y0118994D01*
X0326434Y0118846D01*
X0326366Y0118700D01*
X0326295Y0118556D01*
X0326221Y0118414D01*
X0326143Y0118273D01*
X0326061Y0118135D01*
X0325976Y0117998D01*
X0325888Y0117864D01*
X0325796Y0117732D01*
X0325701Y0117602D01*
X0325603Y0117474D01*
X0325502Y0117349D01*
X0325398Y0117227D01*
X0325291Y0117107D01*
X0325181Y0116990D01*
X0325068Y0116875D01*
X0324952Y0116764D01*
X0324833Y0116655D01*
X0324712Y0116550D01*
X0324588Y0116447D01*
X0324462Y0116347D01*
X0324334Y0116251D01*
X0324203Y0116158D01*
X0324069Y0116068D01*
X0323934Y0115981D01*
X0323796Y0115898D01*
X0323657Y0115818D01*
X0323515Y0115742D01*
X0323372Y0115669D01*
X0323227Y0115600D01*
X0323080Y0115534D01*
X0322932Y0115472D01*
X0322782Y0115414D01*
X0322631Y0115359D01*
X0322478Y0115308D01*
X0322324Y0115261D01*
X0322169Y0115218D01*
X0322013Y0115179D01*
X0321857Y0115143D01*
X0321699Y0115112D01*
X0321541Y0115084D01*
X0321382Y0115060D01*
X0321222Y0115040D01*
X0321062Y0115024D01*
X0320902Y0115012D01*
X0320741Y0115004D01*
X0320580Y0115000D01*
X0320420Y0115000D01*
X0320259Y0115004D01*
X0320098Y0115012D01*
X0319938Y0115024D01*
X0319778Y0115040D01*
X0319618Y0115060D01*
X0319459Y0115084D01*
X0319301Y0115112D01*
X0319143Y0115143D01*
X0318987Y0115179D01*
X0318831Y0115218D01*
X0318676Y0115261D01*
X0318522Y0115308D01*
X0318369Y0115359D01*
X0318218Y0115414D01*
X0318068Y0115472D01*
X0317920Y0115534D01*
X0317773Y0115600D01*
X0317628Y0115669D01*
X0317485Y0115742D01*
X0317343Y0115818D01*
X0317204Y0115898D01*
X0317066Y0115981D01*
X0316931Y0116068D01*
X0316797Y0116158D01*
X0316666Y0116251D01*
X0316538Y0116347D01*
X0316412Y0116447D01*
X0316288Y0116550D01*
X0316167Y0116655D01*
X0316048Y0116764D01*
X0315932Y0116875D01*
X0315819Y0116990D01*
X0315709Y0117107D01*
X0315602Y0117227D01*
X0315498Y0117349D01*
X0315397Y0117474D01*
X0315299Y0117602D01*
X0315204Y0117732D01*
X0315112Y0117864D01*
X0315024Y0117998D01*
X0314939Y0118135D01*
X0314857Y0118273D01*
X0314779Y0118414D01*
X0314705Y0118556D01*
X0314634Y0118700D01*
X0314566Y0118846D01*
X0314503Y0118994D01*
X0314442Y0119143D01*
X0314386Y0119294D01*
X0314333Y0119446D01*
X0314284Y0119599D01*
X0314239Y0119753D01*
X0314198Y0119908D01*
X0314160Y0120065D01*
X0314127Y0120222D01*
X0314097Y0120380D01*
X0314071Y0120539D01*
X0314050Y0120698D01*
X0314032Y0120858D01*
X0314018Y0121018D01*
X0314008Y0121179D01*
X0314002Y0121339D01*
X0314000Y0121500D01*
M02*
