G75*
%MOIN*%
%OFA0B0*%
%FSLAX25Y25*%
%IPPOS*%
%LPD*%
%AMOC8*
5,1,8,0,0,1.08239X$1,22.5*
%
%ADD10R,0.04331X0.03937*%
%ADD11R,0.07087X0.05512*%
%ADD12R,0.05512X0.07480*%
%ADD13R,0.03150X0.05906*%
D10*
X0035404Y0108750D03*
X0042096Y0108750D03*
X0137404Y0108750D03*
X0144096Y0108750D03*
X0239404Y0108750D03*
X0246096Y0108750D03*
X0341404Y0108750D03*
X0348096Y0108750D03*
X0443404Y0108750D03*
X0450096Y0108750D03*
X0545404Y0108750D03*
X0552096Y0108750D03*
X0647404Y0108750D03*
X0654096Y0108750D03*
X0654096Y0215750D03*
X0647404Y0215750D03*
X0552096Y0215750D03*
X0545404Y0215750D03*
X0450096Y0215750D03*
X0443404Y0215750D03*
X0348096Y0215750D03*
X0341404Y0215750D03*
X0246096Y0215750D03*
X0239404Y0215750D03*
X0144096Y0215750D03*
X0137404Y0215750D03*
X0042096Y0215750D03*
X0035404Y0215750D03*
X0035404Y0322750D03*
X0042096Y0322750D03*
X0137404Y0322750D03*
X0144096Y0322750D03*
X0239404Y0322750D03*
X0246096Y0322750D03*
X0341404Y0322750D03*
X0348096Y0322750D03*
X0443404Y0322750D03*
X0450096Y0322750D03*
X0545404Y0322750D03*
X0552096Y0322750D03*
X0647404Y0322750D03*
X0654096Y0322750D03*
X0654096Y0429750D03*
X0647404Y0429750D03*
X0552096Y0429750D03*
X0545404Y0429750D03*
X0450096Y0429750D03*
X0443404Y0429750D03*
X0348096Y0429750D03*
X0341404Y0429750D03*
X0246096Y0429750D03*
X0239404Y0429750D03*
X0144096Y0429750D03*
X0137404Y0429750D03*
X0042096Y0429750D03*
X0035404Y0429750D03*
D11*
X0059321Y0069325D03*
X0081762Y0069325D03*
X0161321Y0069325D03*
X0183762Y0069325D03*
X0263321Y0069325D03*
X0285762Y0069325D03*
X0365321Y0069325D03*
X0387762Y0069325D03*
X0467321Y0069325D03*
X0489762Y0069325D03*
X0569321Y0069325D03*
X0591762Y0069325D03*
X0671321Y0069325D03*
X0693762Y0069325D03*
X0693762Y0176325D03*
X0671321Y0176325D03*
X0591762Y0176325D03*
X0569321Y0176325D03*
X0489762Y0176325D03*
X0467321Y0176325D03*
X0387762Y0176325D03*
X0365321Y0176325D03*
X0285762Y0176325D03*
X0263321Y0176325D03*
X0183762Y0176325D03*
X0161321Y0176325D03*
X0081762Y0176325D03*
X0059321Y0176325D03*
X0059321Y0283325D03*
X0081762Y0283325D03*
X0161321Y0283325D03*
X0183762Y0283325D03*
X0263321Y0283325D03*
X0285762Y0283325D03*
X0365321Y0283325D03*
X0387762Y0283325D03*
X0467321Y0283325D03*
X0489762Y0283325D03*
X0569321Y0283325D03*
X0591762Y0283325D03*
X0671321Y0283325D03*
X0693762Y0283325D03*
X0693762Y0390325D03*
X0671321Y0390325D03*
X0591762Y0390325D03*
X0569321Y0390325D03*
X0489762Y0390325D03*
X0467321Y0390325D03*
X0387762Y0390325D03*
X0365321Y0390325D03*
X0285762Y0390325D03*
X0263321Y0390325D03*
X0183762Y0390325D03*
X0161321Y0390325D03*
X0081762Y0390325D03*
X0059321Y0390325D03*
D12*
X0053022Y0442096D03*
X0104793Y0446033D03*
X0155022Y0442096D03*
X0206793Y0446033D03*
X0257022Y0442096D03*
X0308793Y0446033D03*
X0359022Y0442096D03*
X0410793Y0446033D03*
X0461022Y0442096D03*
X0512793Y0446033D03*
X0563022Y0442096D03*
X0614793Y0446033D03*
X0665022Y0442096D03*
X0716793Y0446033D03*
X0716793Y0339033D03*
X0665022Y0335096D03*
X0614793Y0339033D03*
X0563022Y0335096D03*
X0512793Y0339033D03*
X0461022Y0335096D03*
X0410793Y0339033D03*
X0359022Y0335096D03*
X0308793Y0339033D03*
X0257022Y0335096D03*
X0206793Y0339033D03*
X0155022Y0335096D03*
X0104793Y0339033D03*
X0053022Y0335096D03*
X0104793Y0232033D03*
X0155022Y0228096D03*
X0206793Y0232033D03*
X0257022Y0228096D03*
X0308793Y0232033D03*
X0359022Y0228096D03*
X0410793Y0232033D03*
X0461022Y0228096D03*
X0512793Y0232033D03*
X0563022Y0228096D03*
X0614793Y0232033D03*
X0665022Y0228096D03*
X0716793Y0232033D03*
X0716793Y0125033D03*
X0665022Y0121096D03*
X0614793Y0125033D03*
X0563022Y0121096D03*
X0512793Y0125033D03*
X0461022Y0121096D03*
X0410793Y0125033D03*
X0359022Y0121096D03*
X0308793Y0125033D03*
X0257022Y0121096D03*
X0206793Y0125033D03*
X0155022Y0121096D03*
X0104793Y0125033D03*
X0053022Y0121096D03*
X0053022Y0228096D03*
D13*
X0056132Y0216876D03*
X0060463Y0216876D03*
X0064793Y0217663D03*
X0069124Y0216876D03*
X0073455Y0217663D03*
X0077785Y0216876D03*
X0082116Y0215301D03*
X0086447Y0216876D03*
X0158132Y0216876D03*
X0162463Y0216876D03*
X0166793Y0217663D03*
X0171124Y0216876D03*
X0175455Y0217663D03*
X0179785Y0216876D03*
X0184116Y0215301D03*
X0188447Y0216876D03*
X0260132Y0216876D03*
X0264463Y0216876D03*
X0268793Y0217663D03*
X0273124Y0216876D03*
X0277455Y0217663D03*
X0281785Y0216876D03*
X0286116Y0215301D03*
X0290447Y0216876D03*
X0362132Y0216876D03*
X0366463Y0216876D03*
X0370793Y0217663D03*
X0375124Y0216876D03*
X0379455Y0217663D03*
X0383785Y0216876D03*
X0388116Y0215301D03*
X0392447Y0216876D03*
X0464132Y0216876D03*
X0468463Y0216876D03*
X0472793Y0217663D03*
X0477124Y0216876D03*
X0481455Y0217663D03*
X0485785Y0216876D03*
X0490116Y0215301D03*
X0494447Y0216876D03*
X0566132Y0216876D03*
X0570463Y0216876D03*
X0574793Y0217663D03*
X0579124Y0216876D03*
X0583455Y0217663D03*
X0587785Y0216876D03*
X0592116Y0215301D03*
X0596447Y0216876D03*
X0668132Y0216876D03*
X0672463Y0216876D03*
X0676793Y0217663D03*
X0681124Y0216876D03*
X0685455Y0217663D03*
X0689785Y0216876D03*
X0694116Y0215301D03*
X0698447Y0216876D03*
X0694116Y0322301D03*
X0689785Y0323876D03*
X0685455Y0324663D03*
X0681124Y0323876D03*
X0676793Y0324663D03*
X0672463Y0323876D03*
X0668132Y0323876D03*
X0698447Y0323876D03*
X0596447Y0323876D03*
X0592116Y0322301D03*
X0587785Y0323876D03*
X0583455Y0324663D03*
X0579124Y0323876D03*
X0574793Y0324663D03*
X0570463Y0323876D03*
X0566132Y0323876D03*
X0494447Y0323876D03*
X0490116Y0322301D03*
X0485785Y0323876D03*
X0481455Y0324663D03*
X0477124Y0323876D03*
X0472793Y0324663D03*
X0468463Y0323876D03*
X0464132Y0323876D03*
X0392447Y0323876D03*
X0388116Y0322301D03*
X0383785Y0323876D03*
X0379455Y0324663D03*
X0375124Y0323876D03*
X0370793Y0324663D03*
X0366463Y0323876D03*
X0362132Y0323876D03*
X0290447Y0323876D03*
X0286116Y0322301D03*
X0281785Y0323876D03*
X0277455Y0324663D03*
X0273124Y0323876D03*
X0268793Y0324663D03*
X0264463Y0323876D03*
X0260132Y0323876D03*
X0188447Y0323876D03*
X0184116Y0322301D03*
X0179785Y0323876D03*
X0175455Y0324663D03*
X0171124Y0323876D03*
X0166793Y0324663D03*
X0162463Y0323876D03*
X0158132Y0323876D03*
X0086447Y0323876D03*
X0082116Y0322301D03*
X0077785Y0323876D03*
X0073455Y0324663D03*
X0069124Y0323876D03*
X0064793Y0324663D03*
X0060463Y0323876D03*
X0056132Y0323876D03*
X0056132Y0430876D03*
X0060463Y0430876D03*
X0064793Y0431663D03*
X0069124Y0430876D03*
X0073455Y0431663D03*
X0077785Y0430876D03*
X0082116Y0429301D03*
X0086447Y0430876D03*
X0158132Y0430876D03*
X0162463Y0430876D03*
X0166793Y0431663D03*
X0171124Y0430876D03*
X0175455Y0431663D03*
X0179785Y0430876D03*
X0184116Y0429301D03*
X0188447Y0430876D03*
X0260132Y0430876D03*
X0264463Y0430876D03*
X0268793Y0431663D03*
X0273124Y0430876D03*
X0277455Y0431663D03*
X0281785Y0430876D03*
X0286116Y0429301D03*
X0290447Y0430876D03*
X0362132Y0430876D03*
X0366463Y0430876D03*
X0370793Y0431663D03*
X0375124Y0430876D03*
X0379455Y0431663D03*
X0383785Y0430876D03*
X0388116Y0429301D03*
X0392447Y0430876D03*
X0464132Y0430876D03*
X0468463Y0430876D03*
X0472793Y0431663D03*
X0477124Y0430876D03*
X0481455Y0431663D03*
X0485785Y0430876D03*
X0490116Y0429301D03*
X0494447Y0430876D03*
X0566132Y0430876D03*
X0570463Y0430876D03*
X0574793Y0431663D03*
X0579124Y0430876D03*
X0583455Y0431663D03*
X0587785Y0430876D03*
X0592116Y0429301D03*
X0596447Y0430876D03*
X0668132Y0430876D03*
X0672463Y0430876D03*
X0676793Y0431663D03*
X0681124Y0430876D03*
X0685455Y0431663D03*
X0689785Y0430876D03*
X0694116Y0429301D03*
X0698447Y0430876D03*
X0685455Y0110663D03*
X0689785Y0109876D03*
X0694116Y0108301D03*
X0698447Y0109876D03*
X0681124Y0109876D03*
X0676793Y0110663D03*
X0672463Y0109876D03*
X0668132Y0109876D03*
X0596447Y0109876D03*
X0592116Y0108301D03*
X0587785Y0109876D03*
X0583455Y0110663D03*
X0579124Y0109876D03*
X0574793Y0110663D03*
X0570463Y0109876D03*
X0566132Y0109876D03*
X0494447Y0109876D03*
X0490116Y0108301D03*
X0485785Y0109876D03*
X0481455Y0110663D03*
X0477124Y0109876D03*
X0472793Y0110663D03*
X0468463Y0109876D03*
X0464132Y0109876D03*
X0392447Y0109876D03*
X0388116Y0108301D03*
X0383785Y0109876D03*
X0379455Y0110663D03*
X0375124Y0109876D03*
X0370793Y0110663D03*
X0366463Y0109876D03*
X0362132Y0109876D03*
X0290447Y0109876D03*
X0286116Y0108301D03*
X0281785Y0109876D03*
X0277455Y0110663D03*
X0273124Y0109876D03*
X0268793Y0110663D03*
X0264463Y0109876D03*
X0260132Y0109876D03*
X0188447Y0109876D03*
X0184116Y0108301D03*
X0179785Y0109876D03*
X0175455Y0110663D03*
X0171124Y0109876D03*
X0166793Y0110663D03*
X0162463Y0109876D03*
X0158132Y0109876D03*
X0086447Y0109876D03*
X0082116Y0108301D03*
X0077785Y0109876D03*
X0073455Y0110663D03*
X0069124Y0109876D03*
X0064793Y0110663D03*
X0060463Y0109876D03*
X0056132Y0109876D03*
M02*
