G75*
%MOIN*%
%OFA0B0*%
%FSLAX25Y25*%
%IPPOS*%
%LPD*%
%AMOC8*
5,1,8,0,0,1.08239X$1,22.5*
%
%ADD10R,0.04331X0.03937*%
%ADD11R,0.03937X0.04331*%
%ADD12C,0.01181*%
%ADD13C,0.01772*%
%ADD14R,0.07874X0.04724*%
%ADD15R,0.05315X0.02362*%
%ADD16R,0.05000X0.02200*%
%ADD17R,0.02200X0.05000*%
D10*
X0068404Y0061250D03*
X0075096Y0061250D03*
X0082404Y0061250D03*
X0089096Y0061250D03*
X0095404Y0113750D03*
X0102096Y0113750D03*
X0062096Y0113750D03*
X0055404Y0113750D03*
X0068404Y0168250D03*
X0075096Y0168250D03*
X0082404Y0168250D03*
X0089096Y0168250D03*
X0095404Y0220750D03*
X0102096Y0220750D03*
X0062096Y0220750D03*
X0055404Y0220750D03*
X0068404Y0275250D03*
X0075096Y0275250D03*
X0082404Y0275250D03*
X0089096Y0275250D03*
X0095404Y0327750D03*
X0102096Y0327750D03*
X0062096Y0327750D03*
X0055404Y0327750D03*
X0157404Y0327750D03*
X0164096Y0327750D03*
X0197404Y0327750D03*
X0204096Y0327750D03*
X0191096Y0275250D03*
X0184404Y0275250D03*
X0177096Y0275250D03*
X0170404Y0275250D03*
X0164096Y0220750D03*
X0157404Y0220750D03*
X0197404Y0220750D03*
X0204096Y0220750D03*
X0191096Y0168250D03*
X0184404Y0168250D03*
X0177096Y0168250D03*
X0170404Y0168250D03*
X0164096Y0113750D03*
X0157404Y0113750D03*
X0197404Y0113750D03*
X0204096Y0113750D03*
X0191096Y0061250D03*
X0184404Y0061250D03*
X0177096Y0061250D03*
X0170404Y0061250D03*
X0259404Y0113750D03*
X0266096Y0113750D03*
X0299404Y0113750D03*
X0306096Y0113750D03*
X0293096Y0061250D03*
X0286404Y0061250D03*
X0279096Y0061250D03*
X0272404Y0061250D03*
X0272404Y0168250D03*
X0279096Y0168250D03*
X0286404Y0168250D03*
X0293096Y0168250D03*
X0299404Y0220750D03*
X0306096Y0220750D03*
X0266096Y0220750D03*
X0259404Y0220750D03*
X0272404Y0275250D03*
X0279096Y0275250D03*
X0286404Y0275250D03*
X0293096Y0275250D03*
X0299404Y0327750D03*
X0306096Y0327750D03*
X0266096Y0327750D03*
X0259404Y0327750D03*
D11*
X0033750Y0035404D03*
X0033750Y0042096D03*
X0053750Y0042096D03*
X0053750Y0035404D03*
X0055750Y0080404D03*
X0055750Y0087096D03*
X0101750Y0087096D03*
X0101750Y0080404D03*
X0135750Y0042096D03*
X0135750Y0035404D03*
X0155750Y0035404D03*
X0155750Y0042096D03*
X0157750Y0080404D03*
X0157750Y0087096D03*
X0203750Y0087096D03*
X0203750Y0080404D03*
X0237750Y0042096D03*
X0237750Y0035404D03*
X0257750Y0035404D03*
X0257750Y0042096D03*
X0259750Y0080404D03*
X0259750Y0087096D03*
X0305750Y0087096D03*
X0305750Y0080404D03*
X0257750Y0142404D03*
X0257750Y0149096D03*
X0237750Y0149096D03*
X0237750Y0142404D03*
X0259750Y0187404D03*
X0259750Y0194096D03*
X0305750Y0194096D03*
X0305750Y0187404D03*
X0257750Y0249404D03*
X0257750Y0256096D03*
X0237750Y0256096D03*
X0237750Y0249404D03*
X0259750Y0294404D03*
X0259750Y0301096D03*
X0305750Y0301096D03*
X0305750Y0294404D03*
X0203750Y0294404D03*
X0203750Y0301096D03*
X0157750Y0301096D03*
X0157750Y0294404D03*
X0155750Y0256096D03*
X0155750Y0249404D03*
X0135750Y0249404D03*
X0135750Y0256096D03*
X0101750Y0294404D03*
X0101750Y0301096D03*
X0055750Y0301096D03*
X0055750Y0294404D03*
X0053750Y0256096D03*
X0053750Y0249404D03*
X0033750Y0249404D03*
X0033750Y0256096D03*
X0055750Y0194096D03*
X0055750Y0187404D03*
X0053750Y0149096D03*
X0053750Y0142404D03*
X0033750Y0142404D03*
X0033750Y0149096D03*
X0101750Y0187404D03*
X0101750Y0194096D03*
X0135750Y0149096D03*
X0135750Y0142404D03*
X0155750Y0142404D03*
X0155750Y0149096D03*
X0157750Y0187404D03*
X0157750Y0194096D03*
X0203750Y0194096D03*
X0203750Y0187404D03*
D12*
X0205581Y0224372D02*
X0205581Y0227128D01*
X0205581Y0224372D02*
X0202825Y0224372D01*
X0202825Y0227128D01*
X0205581Y0227128D01*
X0205581Y0225494D02*
X0202825Y0225494D01*
X0202825Y0226616D02*
X0205581Y0226616D01*
X0198675Y0227128D02*
X0198675Y0224372D01*
X0195919Y0224372D01*
X0195919Y0227128D01*
X0198675Y0227128D01*
X0198675Y0225494D02*
X0195919Y0225494D01*
X0195919Y0226616D02*
X0198675Y0226616D01*
X0162825Y0227128D02*
X0162825Y0224372D01*
X0162825Y0227128D02*
X0165581Y0227128D01*
X0165581Y0224372D01*
X0162825Y0224372D01*
X0162825Y0225494D02*
X0165581Y0225494D01*
X0165581Y0226616D02*
X0162825Y0226616D01*
X0155919Y0227128D02*
X0155919Y0224372D01*
X0155919Y0227128D02*
X0158675Y0227128D01*
X0158675Y0224372D01*
X0155919Y0224372D01*
X0155919Y0225494D02*
X0158675Y0225494D01*
X0158675Y0226616D02*
X0155919Y0226616D01*
X0103581Y0227128D02*
X0103581Y0224372D01*
X0100825Y0224372D01*
X0100825Y0227128D01*
X0103581Y0227128D01*
X0103581Y0225494D02*
X0100825Y0225494D01*
X0100825Y0226616D02*
X0103581Y0226616D01*
X0096675Y0227128D02*
X0096675Y0224372D01*
X0093919Y0224372D01*
X0093919Y0227128D01*
X0096675Y0227128D01*
X0096675Y0225494D02*
X0093919Y0225494D01*
X0093919Y0226616D02*
X0096675Y0226616D01*
X0060825Y0227128D02*
X0060825Y0224372D01*
X0060825Y0227128D02*
X0063581Y0227128D01*
X0063581Y0224372D01*
X0060825Y0224372D01*
X0060825Y0225494D02*
X0063581Y0225494D01*
X0063581Y0226616D02*
X0060825Y0226616D01*
X0053919Y0227128D02*
X0053919Y0224372D01*
X0053919Y0227128D02*
X0056675Y0227128D01*
X0056675Y0224372D01*
X0053919Y0224372D01*
X0053919Y0225494D02*
X0056675Y0225494D01*
X0056675Y0226616D02*
X0053919Y0226616D01*
X0053919Y0331372D02*
X0053919Y0334128D01*
X0056675Y0334128D01*
X0056675Y0331372D01*
X0053919Y0331372D01*
X0053919Y0332494D02*
X0056675Y0332494D01*
X0056675Y0333616D02*
X0053919Y0333616D01*
X0060825Y0334128D02*
X0060825Y0331372D01*
X0060825Y0334128D02*
X0063581Y0334128D01*
X0063581Y0331372D01*
X0060825Y0331372D01*
X0060825Y0332494D02*
X0063581Y0332494D01*
X0063581Y0333616D02*
X0060825Y0333616D01*
X0096675Y0334128D02*
X0096675Y0331372D01*
X0093919Y0331372D01*
X0093919Y0334128D01*
X0096675Y0334128D01*
X0096675Y0332494D02*
X0093919Y0332494D01*
X0093919Y0333616D02*
X0096675Y0333616D01*
X0103581Y0334128D02*
X0103581Y0331372D01*
X0100825Y0331372D01*
X0100825Y0334128D01*
X0103581Y0334128D01*
X0103581Y0332494D02*
X0100825Y0332494D01*
X0100825Y0333616D02*
X0103581Y0333616D01*
X0155919Y0334128D02*
X0155919Y0331372D01*
X0155919Y0334128D02*
X0158675Y0334128D01*
X0158675Y0331372D01*
X0155919Y0331372D01*
X0155919Y0332494D02*
X0158675Y0332494D01*
X0158675Y0333616D02*
X0155919Y0333616D01*
X0162825Y0334128D02*
X0162825Y0331372D01*
X0162825Y0334128D02*
X0165581Y0334128D01*
X0165581Y0331372D01*
X0162825Y0331372D01*
X0162825Y0332494D02*
X0165581Y0332494D01*
X0165581Y0333616D02*
X0162825Y0333616D01*
X0198675Y0334128D02*
X0198675Y0331372D01*
X0195919Y0331372D01*
X0195919Y0334128D01*
X0198675Y0334128D01*
X0198675Y0332494D02*
X0195919Y0332494D01*
X0195919Y0333616D02*
X0198675Y0333616D01*
X0205581Y0334128D02*
X0205581Y0331372D01*
X0202825Y0331372D01*
X0202825Y0334128D01*
X0205581Y0334128D01*
X0205581Y0332494D02*
X0202825Y0332494D01*
X0202825Y0333616D02*
X0205581Y0333616D01*
X0257919Y0334128D02*
X0257919Y0331372D01*
X0257919Y0334128D02*
X0260675Y0334128D01*
X0260675Y0331372D01*
X0257919Y0331372D01*
X0257919Y0332494D02*
X0260675Y0332494D01*
X0260675Y0333616D02*
X0257919Y0333616D01*
X0264825Y0334128D02*
X0264825Y0331372D01*
X0264825Y0334128D02*
X0267581Y0334128D01*
X0267581Y0331372D01*
X0264825Y0331372D01*
X0264825Y0332494D02*
X0267581Y0332494D01*
X0267581Y0333616D02*
X0264825Y0333616D01*
X0300675Y0334128D02*
X0300675Y0331372D01*
X0297919Y0331372D01*
X0297919Y0334128D01*
X0300675Y0334128D01*
X0300675Y0332494D02*
X0297919Y0332494D01*
X0297919Y0333616D02*
X0300675Y0333616D01*
X0307581Y0334128D02*
X0307581Y0331372D01*
X0304825Y0331372D01*
X0304825Y0334128D01*
X0307581Y0334128D01*
X0307581Y0332494D02*
X0304825Y0332494D01*
X0304825Y0333616D02*
X0307581Y0333616D01*
X0307581Y0227128D02*
X0307581Y0224372D01*
X0304825Y0224372D01*
X0304825Y0227128D01*
X0307581Y0227128D01*
X0307581Y0225494D02*
X0304825Y0225494D01*
X0304825Y0226616D02*
X0307581Y0226616D01*
X0300675Y0227128D02*
X0300675Y0224372D01*
X0297919Y0224372D01*
X0297919Y0227128D01*
X0300675Y0227128D01*
X0300675Y0225494D02*
X0297919Y0225494D01*
X0297919Y0226616D02*
X0300675Y0226616D01*
X0264825Y0227128D02*
X0264825Y0224372D01*
X0264825Y0227128D02*
X0267581Y0227128D01*
X0267581Y0224372D01*
X0264825Y0224372D01*
X0264825Y0225494D02*
X0267581Y0225494D01*
X0267581Y0226616D02*
X0264825Y0226616D01*
X0257919Y0227128D02*
X0257919Y0224372D01*
X0257919Y0227128D02*
X0260675Y0227128D01*
X0260675Y0224372D01*
X0257919Y0224372D01*
X0257919Y0225494D02*
X0260675Y0225494D01*
X0260675Y0226616D02*
X0257919Y0226616D01*
X0257919Y0120128D02*
X0257919Y0117372D01*
X0257919Y0120128D02*
X0260675Y0120128D01*
X0260675Y0117372D01*
X0257919Y0117372D01*
X0257919Y0118494D02*
X0260675Y0118494D01*
X0260675Y0119616D02*
X0257919Y0119616D01*
X0264825Y0120128D02*
X0264825Y0117372D01*
X0264825Y0120128D02*
X0267581Y0120128D01*
X0267581Y0117372D01*
X0264825Y0117372D01*
X0264825Y0118494D02*
X0267581Y0118494D01*
X0267581Y0119616D02*
X0264825Y0119616D01*
X0300675Y0120128D02*
X0300675Y0117372D01*
X0297919Y0117372D01*
X0297919Y0120128D01*
X0300675Y0120128D01*
X0300675Y0118494D02*
X0297919Y0118494D01*
X0297919Y0119616D02*
X0300675Y0119616D01*
X0307581Y0120128D02*
X0307581Y0117372D01*
X0304825Y0117372D01*
X0304825Y0120128D01*
X0307581Y0120128D01*
X0307581Y0118494D02*
X0304825Y0118494D01*
X0304825Y0119616D02*
X0307581Y0119616D01*
X0205581Y0120128D02*
X0205581Y0117372D01*
X0202825Y0117372D01*
X0202825Y0120128D01*
X0205581Y0120128D01*
X0205581Y0118494D02*
X0202825Y0118494D01*
X0202825Y0119616D02*
X0205581Y0119616D01*
X0198675Y0120128D02*
X0198675Y0117372D01*
X0195919Y0117372D01*
X0195919Y0120128D01*
X0198675Y0120128D01*
X0198675Y0118494D02*
X0195919Y0118494D01*
X0195919Y0119616D02*
X0198675Y0119616D01*
X0162825Y0120128D02*
X0162825Y0117372D01*
X0162825Y0120128D02*
X0165581Y0120128D01*
X0165581Y0117372D01*
X0162825Y0117372D01*
X0162825Y0118494D02*
X0165581Y0118494D01*
X0165581Y0119616D02*
X0162825Y0119616D01*
X0155919Y0120128D02*
X0155919Y0117372D01*
X0155919Y0120128D02*
X0158675Y0120128D01*
X0158675Y0117372D01*
X0155919Y0117372D01*
X0155919Y0118494D02*
X0158675Y0118494D01*
X0158675Y0119616D02*
X0155919Y0119616D01*
X0103581Y0120128D02*
X0103581Y0117372D01*
X0100825Y0117372D01*
X0100825Y0120128D01*
X0103581Y0120128D01*
X0103581Y0118494D02*
X0100825Y0118494D01*
X0100825Y0119616D02*
X0103581Y0119616D01*
X0096675Y0120128D02*
X0096675Y0117372D01*
X0093919Y0117372D01*
X0093919Y0120128D01*
X0096675Y0120128D01*
X0096675Y0118494D02*
X0093919Y0118494D01*
X0093919Y0119616D02*
X0096675Y0119616D01*
X0060825Y0120128D02*
X0060825Y0117372D01*
X0060825Y0120128D02*
X0063581Y0120128D01*
X0063581Y0117372D01*
X0060825Y0117372D01*
X0060825Y0118494D02*
X0063581Y0118494D01*
X0063581Y0119616D02*
X0060825Y0119616D01*
X0053919Y0120128D02*
X0053919Y0117372D01*
X0053919Y0120128D02*
X0056675Y0120128D01*
X0056675Y0117372D01*
X0053919Y0117372D01*
X0053919Y0118494D02*
X0056675Y0118494D01*
X0056675Y0119616D02*
X0053919Y0119616D01*
D13*
X0099026Y0106614D02*
X0099026Y0100886D01*
X0103750Y0100886D02*
X0103750Y0106614D01*
X0108474Y0106614D02*
X0108474Y0100886D01*
X0201026Y0100886D02*
X0201026Y0106614D01*
X0205750Y0106614D02*
X0205750Y0100886D01*
X0210474Y0100886D02*
X0210474Y0106614D01*
X0303026Y0106614D02*
X0303026Y0100886D01*
X0307750Y0100886D02*
X0307750Y0106614D01*
X0312474Y0106614D02*
X0312474Y0100886D01*
X0312474Y0207886D02*
X0312474Y0213614D01*
X0307750Y0213614D02*
X0307750Y0207886D01*
X0303026Y0207886D02*
X0303026Y0213614D01*
X0210474Y0213614D02*
X0210474Y0207886D01*
X0205750Y0207886D02*
X0205750Y0213614D01*
X0201026Y0213614D02*
X0201026Y0207886D01*
X0108474Y0207886D02*
X0108474Y0213614D01*
X0103750Y0213614D02*
X0103750Y0207886D01*
X0099026Y0207886D02*
X0099026Y0213614D01*
X0099026Y0314886D02*
X0099026Y0320614D01*
X0103750Y0320614D02*
X0103750Y0314886D01*
X0108474Y0314886D02*
X0108474Y0320614D01*
X0201026Y0320614D02*
X0201026Y0314886D01*
X0205750Y0314886D02*
X0205750Y0320614D01*
X0210474Y0320614D02*
X0210474Y0314886D01*
X0303026Y0314886D02*
X0303026Y0320614D01*
X0307750Y0320614D02*
X0307750Y0314886D01*
X0312474Y0314886D02*
X0312474Y0320614D01*
D14*
X0327219Y0308774D03*
X0327219Y0286726D03*
X0327219Y0201774D03*
X0327219Y0179726D03*
X0327219Y0094774D03*
X0327219Y0072726D03*
X0238281Y0072726D03*
X0225219Y0072726D03*
X0225219Y0094774D03*
X0238281Y0094774D03*
X0238281Y0179726D03*
X0225219Y0179726D03*
X0225219Y0201774D03*
X0238281Y0201774D03*
X0238281Y0286726D03*
X0225219Y0286726D03*
X0225219Y0308774D03*
X0238281Y0308774D03*
X0136281Y0308774D03*
X0123219Y0308774D03*
X0123219Y0286726D03*
X0136281Y0286726D03*
X0136281Y0201774D03*
X0123219Y0201774D03*
X0123219Y0179726D03*
X0136281Y0179726D03*
X0136281Y0094774D03*
X0123219Y0094774D03*
X0123219Y0072726D03*
X0136281Y0072726D03*
X0034281Y0072726D03*
X0034281Y0094774D03*
X0034281Y0179726D03*
X0034281Y0201774D03*
X0034281Y0286726D03*
X0034281Y0308774D03*
D15*
X0048750Y0303656D03*
X0048750Y0299719D03*
X0048750Y0295781D03*
X0048750Y0291844D03*
X0108750Y0291844D03*
X0108750Y0295781D03*
X0108750Y0299719D03*
X0108750Y0303656D03*
X0150750Y0303656D03*
X0150750Y0299719D03*
X0150750Y0295781D03*
X0150750Y0291844D03*
X0210750Y0291844D03*
X0210750Y0295781D03*
X0210750Y0299719D03*
X0210750Y0303656D03*
X0252750Y0303656D03*
X0252750Y0299719D03*
X0252750Y0295781D03*
X0252750Y0291844D03*
X0312750Y0291844D03*
X0312750Y0295781D03*
X0312750Y0299719D03*
X0312750Y0303656D03*
X0312750Y0196656D03*
X0312750Y0192719D03*
X0312750Y0188781D03*
X0312750Y0184844D03*
X0252750Y0184844D03*
X0252750Y0188781D03*
X0252750Y0192719D03*
X0252750Y0196656D03*
X0210750Y0196656D03*
X0210750Y0192719D03*
X0210750Y0188781D03*
X0210750Y0184844D03*
X0150750Y0184844D03*
X0150750Y0188781D03*
X0150750Y0192719D03*
X0150750Y0196656D03*
X0108750Y0196656D03*
X0108750Y0192719D03*
X0108750Y0188781D03*
X0108750Y0184844D03*
X0048750Y0184844D03*
X0048750Y0188781D03*
X0048750Y0192719D03*
X0048750Y0196656D03*
X0048750Y0089656D03*
X0048750Y0085719D03*
X0048750Y0081781D03*
X0048750Y0077844D03*
X0108750Y0077844D03*
X0108750Y0081781D03*
X0108750Y0085719D03*
X0108750Y0089656D03*
X0150750Y0089656D03*
X0150750Y0085719D03*
X0150750Y0081781D03*
X0150750Y0077844D03*
X0210750Y0077844D03*
X0210750Y0081781D03*
X0210750Y0085719D03*
X0210750Y0089656D03*
X0252750Y0089656D03*
X0252750Y0085719D03*
X0252750Y0081781D03*
X0252750Y0077844D03*
X0312750Y0077844D03*
X0312750Y0081781D03*
X0312750Y0085719D03*
X0312750Y0089656D03*
D16*
X0299650Y0088474D03*
X0299650Y0085325D03*
X0299650Y0082175D03*
X0299650Y0079026D03*
X0299650Y0075876D03*
X0299650Y0072726D03*
X0299650Y0091624D03*
X0299650Y0094774D03*
X0265850Y0094774D03*
X0265850Y0091624D03*
X0265850Y0088474D03*
X0265850Y0085325D03*
X0265850Y0082175D03*
X0265850Y0079026D03*
X0265850Y0075876D03*
X0265850Y0072726D03*
X0197650Y0072726D03*
X0197650Y0075876D03*
X0197650Y0079026D03*
X0197650Y0082175D03*
X0197650Y0085325D03*
X0197650Y0088474D03*
X0197650Y0091624D03*
X0197650Y0094774D03*
X0163850Y0094774D03*
X0163850Y0091624D03*
X0163850Y0088474D03*
X0163850Y0085325D03*
X0163850Y0082175D03*
X0163850Y0079026D03*
X0163850Y0075876D03*
X0163850Y0072726D03*
X0095650Y0072726D03*
X0095650Y0075876D03*
X0095650Y0079026D03*
X0095650Y0082175D03*
X0095650Y0085325D03*
X0095650Y0088474D03*
X0095650Y0091624D03*
X0095650Y0094774D03*
X0061850Y0094774D03*
X0061850Y0091624D03*
X0061850Y0088474D03*
X0061850Y0085325D03*
X0061850Y0082175D03*
X0061850Y0079026D03*
X0061850Y0075876D03*
X0061850Y0072726D03*
X0061850Y0179726D03*
X0061850Y0182876D03*
X0061850Y0186026D03*
X0061850Y0189175D03*
X0061850Y0192325D03*
X0061850Y0195474D03*
X0061850Y0198624D03*
X0061850Y0201774D03*
X0095650Y0201774D03*
X0095650Y0198624D03*
X0095650Y0195474D03*
X0095650Y0192325D03*
X0095650Y0189175D03*
X0095650Y0186026D03*
X0095650Y0182876D03*
X0095650Y0179726D03*
X0163850Y0179726D03*
X0163850Y0182876D03*
X0163850Y0186026D03*
X0163850Y0189175D03*
X0163850Y0192325D03*
X0163850Y0195474D03*
X0163850Y0198624D03*
X0163850Y0201774D03*
X0197650Y0201774D03*
X0197650Y0198624D03*
X0197650Y0195474D03*
X0197650Y0192325D03*
X0197650Y0189175D03*
X0197650Y0186026D03*
X0197650Y0182876D03*
X0197650Y0179726D03*
X0265850Y0179726D03*
X0265850Y0182876D03*
X0265850Y0186026D03*
X0265850Y0189175D03*
X0265850Y0192325D03*
X0265850Y0195474D03*
X0265850Y0198624D03*
X0265850Y0201774D03*
X0299650Y0201774D03*
X0299650Y0198624D03*
X0299650Y0195474D03*
X0299650Y0192325D03*
X0299650Y0189175D03*
X0299650Y0186026D03*
X0299650Y0182876D03*
X0299650Y0179726D03*
X0299650Y0286726D03*
X0299650Y0289876D03*
X0299650Y0293026D03*
X0299650Y0296175D03*
X0299650Y0299325D03*
X0299650Y0302474D03*
X0299650Y0305624D03*
X0299650Y0308774D03*
X0265850Y0308774D03*
X0265850Y0305624D03*
X0265850Y0302474D03*
X0265850Y0299325D03*
X0265850Y0296175D03*
X0265850Y0293026D03*
X0265850Y0289876D03*
X0265850Y0286726D03*
X0197650Y0286726D03*
X0197650Y0289876D03*
X0197650Y0293026D03*
X0197650Y0296175D03*
X0197650Y0299325D03*
X0197650Y0302474D03*
X0197650Y0305624D03*
X0197650Y0308774D03*
X0163850Y0308774D03*
X0163850Y0305624D03*
X0163850Y0302474D03*
X0163850Y0299325D03*
X0163850Y0296175D03*
X0163850Y0293026D03*
X0163850Y0289876D03*
X0163850Y0286726D03*
X0095650Y0286726D03*
X0095650Y0289876D03*
X0095650Y0293026D03*
X0095650Y0296175D03*
X0095650Y0299325D03*
X0095650Y0302474D03*
X0095650Y0305624D03*
X0095650Y0308774D03*
X0061850Y0308774D03*
X0061850Y0305624D03*
X0061850Y0302474D03*
X0061850Y0299325D03*
X0061850Y0296175D03*
X0061850Y0293026D03*
X0061850Y0289876D03*
X0061850Y0286726D03*
D17*
X0067726Y0280850D03*
X0070876Y0280850D03*
X0074026Y0280850D03*
X0077175Y0280850D03*
X0080325Y0280850D03*
X0083474Y0280850D03*
X0086624Y0280850D03*
X0089774Y0280850D03*
X0089774Y0314650D03*
X0086624Y0314650D03*
X0083474Y0314650D03*
X0080325Y0314650D03*
X0077175Y0314650D03*
X0074026Y0314650D03*
X0070876Y0314650D03*
X0067726Y0314650D03*
X0169726Y0314650D03*
X0172876Y0314650D03*
X0176026Y0314650D03*
X0179175Y0314650D03*
X0182325Y0314650D03*
X0185474Y0314650D03*
X0188624Y0314650D03*
X0191774Y0314650D03*
X0191774Y0280850D03*
X0188624Y0280850D03*
X0185474Y0280850D03*
X0182325Y0280850D03*
X0179175Y0280850D03*
X0176026Y0280850D03*
X0172876Y0280850D03*
X0169726Y0280850D03*
X0169726Y0207650D03*
X0172876Y0207650D03*
X0176026Y0207650D03*
X0179175Y0207650D03*
X0182325Y0207650D03*
X0185474Y0207650D03*
X0188624Y0207650D03*
X0191774Y0207650D03*
X0191774Y0173850D03*
X0188624Y0173850D03*
X0185474Y0173850D03*
X0182325Y0173850D03*
X0179175Y0173850D03*
X0176026Y0173850D03*
X0172876Y0173850D03*
X0169726Y0173850D03*
X0169726Y0100650D03*
X0172876Y0100650D03*
X0176026Y0100650D03*
X0179175Y0100650D03*
X0182325Y0100650D03*
X0185474Y0100650D03*
X0188624Y0100650D03*
X0191774Y0100650D03*
X0191774Y0066850D03*
X0188624Y0066850D03*
X0185474Y0066850D03*
X0182325Y0066850D03*
X0179175Y0066850D03*
X0176026Y0066850D03*
X0172876Y0066850D03*
X0169726Y0066850D03*
X0089774Y0066850D03*
X0086624Y0066850D03*
X0083474Y0066850D03*
X0080325Y0066850D03*
X0077175Y0066850D03*
X0074026Y0066850D03*
X0070876Y0066850D03*
X0067726Y0066850D03*
X0067726Y0100650D03*
X0070876Y0100650D03*
X0074026Y0100650D03*
X0077175Y0100650D03*
X0080325Y0100650D03*
X0083474Y0100650D03*
X0086624Y0100650D03*
X0089774Y0100650D03*
X0089774Y0173850D03*
X0086624Y0173850D03*
X0083474Y0173850D03*
X0080325Y0173850D03*
X0077175Y0173850D03*
X0074026Y0173850D03*
X0070876Y0173850D03*
X0067726Y0173850D03*
X0067726Y0207650D03*
X0070876Y0207650D03*
X0074026Y0207650D03*
X0077175Y0207650D03*
X0080325Y0207650D03*
X0083474Y0207650D03*
X0086624Y0207650D03*
X0089774Y0207650D03*
X0271726Y0207650D03*
X0274876Y0207650D03*
X0278026Y0207650D03*
X0281175Y0207650D03*
X0284325Y0207650D03*
X0287474Y0207650D03*
X0290624Y0207650D03*
X0293774Y0207650D03*
X0293774Y0173850D03*
X0290624Y0173850D03*
X0287474Y0173850D03*
X0284325Y0173850D03*
X0281175Y0173850D03*
X0278026Y0173850D03*
X0274876Y0173850D03*
X0271726Y0173850D03*
X0271726Y0100650D03*
X0274876Y0100650D03*
X0278026Y0100650D03*
X0281175Y0100650D03*
X0284325Y0100650D03*
X0287474Y0100650D03*
X0290624Y0100650D03*
X0293774Y0100650D03*
X0293774Y0066850D03*
X0290624Y0066850D03*
X0287474Y0066850D03*
X0284325Y0066850D03*
X0281175Y0066850D03*
X0278026Y0066850D03*
X0274876Y0066850D03*
X0271726Y0066850D03*
X0271726Y0280850D03*
X0274876Y0280850D03*
X0278026Y0280850D03*
X0281175Y0280850D03*
X0284325Y0280850D03*
X0287474Y0280850D03*
X0290624Y0280850D03*
X0293774Y0280850D03*
X0293774Y0314650D03*
X0290624Y0314650D03*
X0287474Y0314650D03*
X0284325Y0314650D03*
X0281175Y0314650D03*
X0278026Y0314650D03*
X0274876Y0314650D03*
X0271726Y0314650D03*
M02*
