G75*
%MOIN*%
%OFA0B0*%
%FSLAX25Y25*%
%IPPOS*%
%LPD*%
%AMOC8*
5,1,8,0,0,1.08239X$1,22.5*
%
%ADD10R,0.04331X0.03937*%
%ADD11R,0.03937X0.04331*%
%ADD12C,0.01181*%
%ADD13C,0.01772*%
%ADD14R,0.07874X0.04724*%
%ADD15R,0.05315X0.02362*%
%ADD16R,0.05000X0.02200*%
%ADD17R,0.02200X0.05000*%
D10*
X0068404Y0061250D03*
X0075096Y0061250D03*
X0082404Y0061250D03*
X0089096Y0061250D03*
X0095404Y0113750D03*
X0102096Y0113750D03*
X0062096Y0113750D03*
X0055404Y0113750D03*
X0068404Y0168250D03*
X0075096Y0168250D03*
X0082404Y0168250D03*
X0089096Y0168250D03*
X0095404Y0220750D03*
X0102096Y0220750D03*
X0062096Y0220750D03*
X0055404Y0220750D03*
X0068404Y0275250D03*
X0075096Y0275250D03*
X0082404Y0275250D03*
X0089096Y0275250D03*
X0095404Y0327750D03*
X0102096Y0327750D03*
X0062096Y0327750D03*
X0055404Y0327750D03*
X0068404Y0382250D03*
X0075096Y0382250D03*
X0082404Y0382250D03*
X0089096Y0382250D03*
X0095404Y0434750D03*
X0102096Y0434750D03*
X0062096Y0434750D03*
X0055404Y0434750D03*
X0157404Y0434750D03*
X0164096Y0434750D03*
X0197404Y0434750D03*
X0204096Y0434750D03*
X0259404Y0434750D03*
X0266096Y0434750D03*
X0299404Y0434750D03*
X0306096Y0434750D03*
X0361404Y0434750D03*
X0368096Y0434750D03*
X0401404Y0434750D03*
X0408096Y0434750D03*
X0463404Y0434750D03*
X0470096Y0434750D03*
X0503404Y0434750D03*
X0510096Y0434750D03*
X0565404Y0434750D03*
X0572096Y0434750D03*
X0605404Y0434750D03*
X0612096Y0434750D03*
X0667404Y0434750D03*
X0674096Y0434750D03*
X0707404Y0434750D03*
X0714096Y0434750D03*
X0701096Y0382250D03*
X0694404Y0382250D03*
X0687096Y0382250D03*
X0680404Y0382250D03*
X0599096Y0382250D03*
X0592404Y0382250D03*
X0585096Y0382250D03*
X0578404Y0382250D03*
X0497096Y0382250D03*
X0490404Y0382250D03*
X0483096Y0382250D03*
X0476404Y0382250D03*
X0395096Y0382250D03*
X0388404Y0382250D03*
X0381096Y0382250D03*
X0374404Y0382250D03*
X0293096Y0382250D03*
X0286404Y0382250D03*
X0279096Y0382250D03*
X0272404Y0382250D03*
X0191096Y0382250D03*
X0184404Y0382250D03*
X0177096Y0382250D03*
X0170404Y0382250D03*
X0164096Y0327750D03*
X0157404Y0327750D03*
X0197404Y0327750D03*
X0204096Y0327750D03*
X0259404Y0327750D03*
X0266096Y0327750D03*
X0299404Y0327750D03*
X0306096Y0327750D03*
X0361404Y0327750D03*
X0368096Y0327750D03*
X0401404Y0327750D03*
X0408096Y0327750D03*
X0463404Y0327750D03*
X0470096Y0327750D03*
X0503404Y0327750D03*
X0510096Y0327750D03*
X0565404Y0327750D03*
X0572096Y0327750D03*
X0605404Y0327750D03*
X0612096Y0327750D03*
X0667404Y0327750D03*
X0674096Y0327750D03*
X0707404Y0327750D03*
X0714096Y0327750D03*
X0701096Y0275250D03*
X0694404Y0275250D03*
X0687096Y0275250D03*
X0680404Y0275250D03*
X0674096Y0220750D03*
X0667404Y0220750D03*
X0707404Y0220750D03*
X0714096Y0220750D03*
X0701096Y0168250D03*
X0694404Y0168250D03*
X0687096Y0168250D03*
X0680404Y0168250D03*
X0599096Y0168250D03*
X0592404Y0168250D03*
X0585096Y0168250D03*
X0578404Y0168250D03*
X0572096Y0220750D03*
X0565404Y0220750D03*
X0605404Y0220750D03*
X0612096Y0220750D03*
X0599096Y0275250D03*
X0592404Y0275250D03*
X0585096Y0275250D03*
X0578404Y0275250D03*
X0497096Y0275250D03*
X0490404Y0275250D03*
X0483096Y0275250D03*
X0476404Y0275250D03*
X0470096Y0220750D03*
X0463404Y0220750D03*
X0503404Y0220750D03*
X0510096Y0220750D03*
X0497096Y0168250D03*
X0490404Y0168250D03*
X0483096Y0168250D03*
X0476404Y0168250D03*
X0395096Y0168250D03*
X0388404Y0168250D03*
X0381096Y0168250D03*
X0374404Y0168250D03*
X0368096Y0220750D03*
X0361404Y0220750D03*
X0401404Y0220750D03*
X0408096Y0220750D03*
X0395096Y0275250D03*
X0388404Y0275250D03*
X0381096Y0275250D03*
X0374404Y0275250D03*
X0293096Y0275250D03*
X0286404Y0275250D03*
X0279096Y0275250D03*
X0272404Y0275250D03*
X0266096Y0220750D03*
X0259404Y0220750D03*
X0299404Y0220750D03*
X0306096Y0220750D03*
X0293096Y0168250D03*
X0286404Y0168250D03*
X0279096Y0168250D03*
X0272404Y0168250D03*
X0191096Y0168250D03*
X0184404Y0168250D03*
X0177096Y0168250D03*
X0170404Y0168250D03*
X0164096Y0220750D03*
X0157404Y0220750D03*
X0197404Y0220750D03*
X0204096Y0220750D03*
X0191096Y0275250D03*
X0184404Y0275250D03*
X0177096Y0275250D03*
X0170404Y0275250D03*
X0164096Y0113750D03*
X0157404Y0113750D03*
X0197404Y0113750D03*
X0204096Y0113750D03*
X0259404Y0113750D03*
X0266096Y0113750D03*
X0299404Y0113750D03*
X0306096Y0113750D03*
X0361404Y0113750D03*
X0368096Y0113750D03*
X0401404Y0113750D03*
X0408096Y0113750D03*
X0463404Y0113750D03*
X0470096Y0113750D03*
X0503404Y0113750D03*
X0510096Y0113750D03*
X0565404Y0113750D03*
X0572096Y0113750D03*
X0605404Y0113750D03*
X0612096Y0113750D03*
X0667404Y0113750D03*
X0674096Y0113750D03*
X0707404Y0113750D03*
X0714096Y0113750D03*
X0701096Y0061250D03*
X0694404Y0061250D03*
X0687096Y0061250D03*
X0680404Y0061250D03*
X0599096Y0061250D03*
X0592404Y0061250D03*
X0585096Y0061250D03*
X0578404Y0061250D03*
X0497096Y0061250D03*
X0490404Y0061250D03*
X0483096Y0061250D03*
X0476404Y0061250D03*
X0395096Y0061250D03*
X0388404Y0061250D03*
X0381096Y0061250D03*
X0374404Y0061250D03*
X0293096Y0061250D03*
X0286404Y0061250D03*
X0279096Y0061250D03*
X0272404Y0061250D03*
X0191096Y0061250D03*
X0184404Y0061250D03*
X0177096Y0061250D03*
X0170404Y0061250D03*
D11*
X0033750Y0035404D03*
X0033750Y0042096D03*
X0053750Y0042096D03*
X0053750Y0035404D03*
X0055750Y0080404D03*
X0055750Y0087096D03*
X0101750Y0087096D03*
X0101750Y0080404D03*
X0157750Y0080404D03*
X0157750Y0087096D03*
X0203750Y0087096D03*
X0203750Y0080404D03*
X0259750Y0080404D03*
X0259750Y0087096D03*
X0305750Y0087096D03*
X0305750Y0080404D03*
X0361750Y0080404D03*
X0361750Y0087096D03*
X0407750Y0087096D03*
X0407750Y0080404D03*
X0463750Y0080404D03*
X0463750Y0087096D03*
X0509750Y0087096D03*
X0509750Y0080404D03*
X0543750Y0042096D03*
X0543750Y0035404D03*
X0563750Y0035404D03*
X0563750Y0042096D03*
X0565750Y0080404D03*
X0565750Y0087096D03*
X0611750Y0087096D03*
X0611750Y0080404D03*
X0645750Y0042096D03*
X0645750Y0035404D03*
X0665750Y0035404D03*
X0665750Y0042096D03*
X0667750Y0080404D03*
X0667750Y0087096D03*
X0713750Y0087096D03*
X0713750Y0080404D03*
X0665750Y0142404D03*
X0665750Y0149096D03*
X0645750Y0149096D03*
X0645750Y0142404D03*
X0667750Y0187404D03*
X0667750Y0194096D03*
X0713750Y0194096D03*
X0713750Y0187404D03*
X0665750Y0249404D03*
X0665750Y0256096D03*
X0645750Y0256096D03*
X0645750Y0249404D03*
X0667750Y0294404D03*
X0667750Y0301096D03*
X0713750Y0301096D03*
X0713750Y0294404D03*
X0665750Y0356404D03*
X0665750Y0363096D03*
X0645750Y0363096D03*
X0645750Y0356404D03*
X0667750Y0401404D03*
X0667750Y0408096D03*
X0713750Y0408096D03*
X0713750Y0401404D03*
X0611750Y0401404D03*
X0611750Y0408096D03*
X0565750Y0408096D03*
X0565750Y0401404D03*
X0563750Y0363096D03*
X0563750Y0356404D03*
X0543750Y0356404D03*
X0543750Y0363096D03*
X0509750Y0401404D03*
X0509750Y0408096D03*
X0463750Y0408096D03*
X0463750Y0401404D03*
X0407750Y0401404D03*
X0407750Y0408096D03*
X0361750Y0408096D03*
X0361750Y0401404D03*
X0305750Y0401404D03*
X0305750Y0408096D03*
X0259750Y0408096D03*
X0259750Y0401404D03*
X0203750Y0401404D03*
X0203750Y0408096D03*
X0157750Y0408096D03*
X0157750Y0401404D03*
X0101750Y0401404D03*
X0101750Y0408096D03*
X0055750Y0408096D03*
X0055750Y0401404D03*
X0053750Y0363096D03*
X0053750Y0356404D03*
X0033750Y0356404D03*
X0033750Y0363096D03*
X0055750Y0301096D03*
X0055750Y0294404D03*
X0101750Y0294404D03*
X0101750Y0301096D03*
X0157750Y0301096D03*
X0157750Y0294404D03*
X0203750Y0294404D03*
X0203750Y0301096D03*
X0259750Y0301096D03*
X0259750Y0294404D03*
X0305750Y0294404D03*
X0305750Y0301096D03*
X0361750Y0301096D03*
X0361750Y0294404D03*
X0407750Y0294404D03*
X0407750Y0301096D03*
X0463750Y0301096D03*
X0463750Y0294404D03*
X0509750Y0294404D03*
X0509750Y0301096D03*
X0565750Y0301096D03*
X0565750Y0294404D03*
X0611750Y0294404D03*
X0611750Y0301096D03*
X0563750Y0256096D03*
X0563750Y0249404D03*
X0543750Y0249404D03*
X0543750Y0256096D03*
X0461750Y0256096D03*
X0461750Y0249404D03*
X0441750Y0249404D03*
X0441750Y0256096D03*
X0359750Y0256096D03*
X0359750Y0249404D03*
X0339750Y0249404D03*
X0339750Y0256096D03*
X0257750Y0256096D03*
X0257750Y0249404D03*
X0237750Y0249404D03*
X0237750Y0256096D03*
X0155750Y0256096D03*
X0155750Y0249404D03*
X0135750Y0249404D03*
X0135750Y0256096D03*
X0053750Y0256096D03*
X0053750Y0249404D03*
X0033750Y0249404D03*
X0033750Y0256096D03*
X0055750Y0194096D03*
X0055750Y0187404D03*
X0101750Y0187404D03*
X0101750Y0194096D03*
X0157750Y0194096D03*
X0157750Y0187404D03*
X0203750Y0187404D03*
X0203750Y0194096D03*
X0259750Y0194096D03*
X0259750Y0187404D03*
X0305750Y0187404D03*
X0305750Y0194096D03*
X0361750Y0194096D03*
X0361750Y0187404D03*
X0407750Y0187404D03*
X0407750Y0194096D03*
X0463750Y0194096D03*
X0463750Y0187404D03*
X0509750Y0187404D03*
X0509750Y0194096D03*
X0565750Y0194096D03*
X0565750Y0187404D03*
X0611750Y0187404D03*
X0611750Y0194096D03*
X0563750Y0149096D03*
X0563750Y0142404D03*
X0543750Y0142404D03*
X0543750Y0149096D03*
X0461750Y0149096D03*
X0461750Y0142404D03*
X0441750Y0142404D03*
X0441750Y0149096D03*
X0359750Y0149096D03*
X0359750Y0142404D03*
X0339750Y0142404D03*
X0339750Y0149096D03*
X0257750Y0149096D03*
X0257750Y0142404D03*
X0237750Y0142404D03*
X0237750Y0149096D03*
X0155750Y0149096D03*
X0155750Y0142404D03*
X0135750Y0142404D03*
X0135750Y0149096D03*
X0053750Y0149096D03*
X0053750Y0142404D03*
X0033750Y0142404D03*
X0033750Y0149096D03*
X0135750Y0042096D03*
X0135750Y0035404D03*
X0155750Y0035404D03*
X0155750Y0042096D03*
X0237750Y0042096D03*
X0237750Y0035404D03*
X0257750Y0035404D03*
X0257750Y0042096D03*
X0339750Y0042096D03*
X0339750Y0035404D03*
X0359750Y0035404D03*
X0359750Y0042096D03*
X0441750Y0042096D03*
X0441750Y0035404D03*
X0461750Y0035404D03*
X0461750Y0042096D03*
X0461750Y0356404D03*
X0461750Y0363096D03*
X0441750Y0363096D03*
X0441750Y0356404D03*
X0359750Y0356404D03*
X0359750Y0363096D03*
X0339750Y0363096D03*
X0339750Y0356404D03*
X0257750Y0356404D03*
X0257750Y0363096D03*
X0237750Y0363096D03*
X0237750Y0356404D03*
X0155750Y0356404D03*
X0155750Y0363096D03*
X0135750Y0363096D03*
X0135750Y0356404D03*
D12*
X0155919Y0334128D02*
X0155919Y0331372D01*
X0155919Y0334128D02*
X0158675Y0334128D01*
X0158675Y0331372D01*
X0155919Y0331372D01*
X0155919Y0332494D02*
X0158675Y0332494D01*
X0158675Y0333616D02*
X0155919Y0333616D01*
X0162825Y0334128D02*
X0162825Y0331372D01*
X0162825Y0334128D02*
X0165581Y0334128D01*
X0165581Y0331372D01*
X0162825Y0331372D01*
X0162825Y0332494D02*
X0165581Y0332494D01*
X0165581Y0333616D02*
X0162825Y0333616D01*
X0198675Y0334128D02*
X0198675Y0331372D01*
X0195919Y0331372D01*
X0195919Y0334128D01*
X0198675Y0334128D01*
X0198675Y0332494D02*
X0195919Y0332494D01*
X0195919Y0333616D02*
X0198675Y0333616D01*
X0205581Y0334128D02*
X0205581Y0331372D01*
X0202825Y0331372D01*
X0202825Y0334128D01*
X0205581Y0334128D01*
X0205581Y0332494D02*
X0202825Y0332494D01*
X0202825Y0333616D02*
X0205581Y0333616D01*
X0257919Y0334128D02*
X0257919Y0331372D01*
X0257919Y0334128D02*
X0260675Y0334128D01*
X0260675Y0331372D01*
X0257919Y0331372D01*
X0257919Y0332494D02*
X0260675Y0332494D01*
X0260675Y0333616D02*
X0257919Y0333616D01*
X0264825Y0334128D02*
X0264825Y0331372D01*
X0264825Y0334128D02*
X0267581Y0334128D01*
X0267581Y0331372D01*
X0264825Y0331372D01*
X0264825Y0332494D02*
X0267581Y0332494D01*
X0267581Y0333616D02*
X0264825Y0333616D01*
X0300675Y0334128D02*
X0300675Y0331372D01*
X0297919Y0331372D01*
X0297919Y0334128D01*
X0300675Y0334128D01*
X0300675Y0332494D02*
X0297919Y0332494D01*
X0297919Y0333616D02*
X0300675Y0333616D01*
X0307581Y0334128D02*
X0307581Y0331372D01*
X0304825Y0331372D01*
X0304825Y0334128D01*
X0307581Y0334128D01*
X0307581Y0332494D02*
X0304825Y0332494D01*
X0304825Y0333616D02*
X0307581Y0333616D01*
X0359919Y0334128D02*
X0359919Y0331372D01*
X0359919Y0334128D02*
X0362675Y0334128D01*
X0362675Y0331372D01*
X0359919Y0331372D01*
X0359919Y0332494D02*
X0362675Y0332494D01*
X0362675Y0333616D02*
X0359919Y0333616D01*
X0366825Y0334128D02*
X0366825Y0331372D01*
X0366825Y0334128D02*
X0369581Y0334128D01*
X0369581Y0331372D01*
X0366825Y0331372D01*
X0366825Y0332494D02*
X0369581Y0332494D01*
X0369581Y0333616D02*
X0366825Y0333616D01*
X0402675Y0334128D02*
X0402675Y0331372D01*
X0399919Y0331372D01*
X0399919Y0334128D01*
X0402675Y0334128D01*
X0402675Y0332494D02*
X0399919Y0332494D01*
X0399919Y0333616D02*
X0402675Y0333616D01*
X0409581Y0334128D02*
X0409581Y0331372D01*
X0406825Y0331372D01*
X0406825Y0334128D01*
X0409581Y0334128D01*
X0409581Y0332494D02*
X0406825Y0332494D01*
X0406825Y0333616D02*
X0409581Y0333616D01*
X0461919Y0334128D02*
X0461919Y0331372D01*
X0461919Y0334128D02*
X0464675Y0334128D01*
X0464675Y0331372D01*
X0461919Y0331372D01*
X0461919Y0332494D02*
X0464675Y0332494D01*
X0464675Y0333616D02*
X0461919Y0333616D01*
X0468825Y0334128D02*
X0468825Y0331372D01*
X0468825Y0334128D02*
X0471581Y0334128D01*
X0471581Y0331372D01*
X0468825Y0331372D01*
X0468825Y0332494D02*
X0471581Y0332494D01*
X0471581Y0333616D02*
X0468825Y0333616D01*
X0504675Y0334128D02*
X0504675Y0331372D01*
X0501919Y0331372D01*
X0501919Y0334128D01*
X0504675Y0334128D01*
X0504675Y0332494D02*
X0501919Y0332494D01*
X0501919Y0333616D02*
X0504675Y0333616D01*
X0511581Y0334128D02*
X0511581Y0331372D01*
X0508825Y0331372D01*
X0508825Y0334128D01*
X0511581Y0334128D01*
X0511581Y0332494D02*
X0508825Y0332494D01*
X0508825Y0333616D02*
X0511581Y0333616D01*
X0563919Y0334128D02*
X0563919Y0331372D01*
X0563919Y0334128D02*
X0566675Y0334128D01*
X0566675Y0331372D01*
X0563919Y0331372D01*
X0563919Y0332494D02*
X0566675Y0332494D01*
X0566675Y0333616D02*
X0563919Y0333616D01*
X0570825Y0334128D02*
X0570825Y0331372D01*
X0570825Y0334128D02*
X0573581Y0334128D01*
X0573581Y0331372D01*
X0570825Y0331372D01*
X0570825Y0332494D02*
X0573581Y0332494D01*
X0573581Y0333616D02*
X0570825Y0333616D01*
X0606675Y0334128D02*
X0606675Y0331372D01*
X0603919Y0331372D01*
X0603919Y0334128D01*
X0606675Y0334128D01*
X0606675Y0332494D02*
X0603919Y0332494D01*
X0603919Y0333616D02*
X0606675Y0333616D01*
X0613581Y0334128D02*
X0613581Y0331372D01*
X0610825Y0331372D01*
X0610825Y0334128D01*
X0613581Y0334128D01*
X0613581Y0332494D02*
X0610825Y0332494D01*
X0610825Y0333616D02*
X0613581Y0333616D01*
X0665919Y0334128D02*
X0665919Y0331372D01*
X0665919Y0334128D02*
X0668675Y0334128D01*
X0668675Y0331372D01*
X0665919Y0331372D01*
X0665919Y0332494D02*
X0668675Y0332494D01*
X0668675Y0333616D02*
X0665919Y0333616D01*
X0672825Y0334128D02*
X0672825Y0331372D01*
X0672825Y0334128D02*
X0675581Y0334128D01*
X0675581Y0331372D01*
X0672825Y0331372D01*
X0672825Y0332494D02*
X0675581Y0332494D01*
X0675581Y0333616D02*
X0672825Y0333616D01*
X0708675Y0334128D02*
X0708675Y0331372D01*
X0705919Y0331372D01*
X0705919Y0334128D01*
X0708675Y0334128D01*
X0708675Y0332494D02*
X0705919Y0332494D01*
X0705919Y0333616D02*
X0708675Y0333616D01*
X0715581Y0334128D02*
X0715581Y0331372D01*
X0712825Y0331372D01*
X0712825Y0334128D01*
X0715581Y0334128D01*
X0715581Y0332494D02*
X0712825Y0332494D01*
X0712825Y0333616D02*
X0715581Y0333616D01*
X0715581Y0227128D02*
X0715581Y0224372D01*
X0712825Y0224372D01*
X0712825Y0227128D01*
X0715581Y0227128D01*
X0715581Y0225494D02*
X0712825Y0225494D01*
X0712825Y0226616D02*
X0715581Y0226616D01*
X0708675Y0227128D02*
X0708675Y0224372D01*
X0705919Y0224372D01*
X0705919Y0227128D01*
X0708675Y0227128D01*
X0708675Y0225494D02*
X0705919Y0225494D01*
X0705919Y0226616D02*
X0708675Y0226616D01*
X0672825Y0227128D02*
X0672825Y0224372D01*
X0672825Y0227128D02*
X0675581Y0227128D01*
X0675581Y0224372D01*
X0672825Y0224372D01*
X0672825Y0225494D02*
X0675581Y0225494D01*
X0675581Y0226616D02*
X0672825Y0226616D01*
X0665919Y0227128D02*
X0665919Y0224372D01*
X0665919Y0227128D02*
X0668675Y0227128D01*
X0668675Y0224372D01*
X0665919Y0224372D01*
X0665919Y0225494D02*
X0668675Y0225494D01*
X0668675Y0226616D02*
X0665919Y0226616D01*
X0613581Y0227128D02*
X0613581Y0224372D01*
X0610825Y0224372D01*
X0610825Y0227128D01*
X0613581Y0227128D01*
X0613581Y0225494D02*
X0610825Y0225494D01*
X0610825Y0226616D02*
X0613581Y0226616D01*
X0606675Y0227128D02*
X0606675Y0224372D01*
X0603919Y0224372D01*
X0603919Y0227128D01*
X0606675Y0227128D01*
X0606675Y0225494D02*
X0603919Y0225494D01*
X0603919Y0226616D02*
X0606675Y0226616D01*
X0570825Y0227128D02*
X0570825Y0224372D01*
X0570825Y0227128D02*
X0573581Y0227128D01*
X0573581Y0224372D01*
X0570825Y0224372D01*
X0570825Y0225494D02*
X0573581Y0225494D01*
X0573581Y0226616D02*
X0570825Y0226616D01*
X0563919Y0227128D02*
X0563919Y0224372D01*
X0563919Y0227128D02*
X0566675Y0227128D01*
X0566675Y0224372D01*
X0563919Y0224372D01*
X0563919Y0225494D02*
X0566675Y0225494D01*
X0566675Y0226616D02*
X0563919Y0226616D01*
X0511581Y0227128D02*
X0511581Y0224372D01*
X0508825Y0224372D01*
X0508825Y0227128D01*
X0511581Y0227128D01*
X0511581Y0225494D02*
X0508825Y0225494D01*
X0508825Y0226616D02*
X0511581Y0226616D01*
X0504675Y0227128D02*
X0504675Y0224372D01*
X0501919Y0224372D01*
X0501919Y0227128D01*
X0504675Y0227128D01*
X0504675Y0225494D02*
X0501919Y0225494D01*
X0501919Y0226616D02*
X0504675Y0226616D01*
X0468825Y0227128D02*
X0468825Y0224372D01*
X0468825Y0227128D02*
X0471581Y0227128D01*
X0471581Y0224372D01*
X0468825Y0224372D01*
X0468825Y0225494D02*
X0471581Y0225494D01*
X0471581Y0226616D02*
X0468825Y0226616D01*
X0461919Y0227128D02*
X0461919Y0224372D01*
X0461919Y0227128D02*
X0464675Y0227128D01*
X0464675Y0224372D01*
X0461919Y0224372D01*
X0461919Y0225494D02*
X0464675Y0225494D01*
X0464675Y0226616D02*
X0461919Y0226616D01*
X0409581Y0227128D02*
X0409581Y0224372D01*
X0406825Y0224372D01*
X0406825Y0227128D01*
X0409581Y0227128D01*
X0409581Y0225494D02*
X0406825Y0225494D01*
X0406825Y0226616D02*
X0409581Y0226616D01*
X0402675Y0227128D02*
X0402675Y0224372D01*
X0399919Y0224372D01*
X0399919Y0227128D01*
X0402675Y0227128D01*
X0402675Y0225494D02*
X0399919Y0225494D01*
X0399919Y0226616D02*
X0402675Y0226616D01*
X0366825Y0227128D02*
X0366825Y0224372D01*
X0366825Y0227128D02*
X0369581Y0227128D01*
X0369581Y0224372D01*
X0366825Y0224372D01*
X0366825Y0225494D02*
X0369581Y0225494D01*
X0369581Y0226616D02*
X0366825Y0226616D01*
X0359919Y0227128D02*
X0359919Y0224372D01*
X0359919Y0227128D02*
X0362675Y0227128D01*
X0362675Y0224372D01*
X0359919Y0224372D01*
X0359919Y0225494D02*
X0362675Y0225494D01*
X0362675Y0226616D02*
X0359919Y0226616D01*
X0307581Y0227128D02*
X0307581Y0224372D01*
X0304825Y0224372D01*
X0304825Y0227128D01*
X0307581Y0227128D01*
X0307581Y0225494D02*
X0304825Y0225494D01*
X0304825Y0226616D02*
X0307581Y0226616D01*
X0300675Y0227128D02*
X0300675Y0224372D01*
X0297919Y0224372D01*
X0297919Y0227128D01*
X0300675Y0227128D01*
X0300675Y0225494D02*
X0297919Y0225494D01*
X0297919Y0226616D02*
X0300675Y0226616D01*
X0264825Y0227128D02*
X0264825Y0224372D01*
X0264825Y0227128D02*
X0267581Y0227128D01*
X0267581Y0224372D01*
X0264825Y0224372D01*
X0264825Y0225494D02*
X0267581Y0225494D01*
X0267581Y0226616D02*
X0264825Y0226616D01*
X0257919Y0227128D02*
X0257919Y0224372D01*
X0257919Y0227128D02*
X0260675Y0227128D01*
X0260675Y0224372D01*
X0257919Y0224372D01*
X0257919Y0225494D02*
X0260675Y0225494D01*
X0260675Y0226616D02*
X0257919Y0226616D01*
X0205581Y0227128D02*
X0205581Y0224372D01*
X0202825Y0224372D01*
X0202825Y0227128D01*
X0205581Y0227128D01*
X0205581Y0225494D02*
X0202825Y0225494D01*
X0202825Y0226616D02*
X0205581Y0226616D01*
X0198675Y0227128D02*
X0198675Y0224372D01*
X0195919Y0224372D01*
X0195919Y0227128D01*
X0198675Y0227128D01*
X0198675Y0225494D02*
X0195919Y0225494D01*
X0195919Y0226616D02*
X0198675Y0226616D01*
X0162825Y0227128D02*
X0162825Y0224372D01*
X0162825Y0227128D02*
X0165581Y0227128D01*
X0165581Y0224372D01*
X0162825Y0224372D01*
X0162825Y0225494D02*
X0165581Y0225494D01*
X0165581Y0226616D02*
X0162825Y0226616D01*
X0155919Y0227128D02*
X0155919Y0224372D01*
X0155919Y0227128D02*
X0158675Y0227128D01*
X0158675Y0224372D01*
X0155919Y0224372D01*
X0155919Y0225494D02*
X0158675Y0225494D01*
X0158675Y0226616D02*
X0155919Y0226616D01*
X0103581Y0227128D02*
X0103581Y0224372D01*
X0100825Y0224372D01*
X0100825Y0227128D01*
X0103581Y0227128D01*
X0103581Y0225494D02*
X0100825Y0225494D01*
X0100825Y0226616D02*
X0103581Y0226616D01*
X0096675Y0227128D02*
X0096675Y0224372D01*
X0093919Y0224372D01*
X0093919Y0227128D01*
X0096675Y0227128D01*
X0096675Y0225494D02*
X0093919Y0225494D01*
X0093919Y0226616D02*
X0096675Y0226616D01*
X0060825Y0227128D02*
X0060825Y0224372D01*
X0060825Y0227128D02*
X0063581Y0227128D01*
X0063581Y0224372D01*
X0060825Y0224372D01*
X0060825Y0225494D02*
X0063581Y0225494D01*
X0063581Y0226616D02*
X0060825Y0226616D01*
X0053919Y0227128D02*
X0053919Y0224372D01*
X0053919Y0227128D02*
X0056675Y0227128D01*
X0056675Y0224372D01*
X0053919Y0224372D01*
X0053919Y0225494D02*
X0056675Y0225494D01*
X0056675Y0226616D02*
X0053919Y0226616D01*
X0053919Y0331372D02*
X0053919Y0334128D01*
X0056675Y0334128D01*
X0056675Y0331372D01*
X0053919Y0331372D01*
X0053919Y0332494D02*
X0056675Y0332494D01*
X0056675Y0333616D02*
X0053919Y0333616D01*
X0060825Y0334128D02*
X0060825Y0331372D01*
X0060825Y0334128D02*
X0063581Y0334128D01*
X0063581Y0331372D01*
X0060825Y0331372D01*
X0060825Y0332494D02*
X0063581Y0332494D01*
X0063581Y0333616D02*
X0060825Y0333616D01*
X0096675Y0334128D02*
X0096675Y0331372D01*
X0093919Y0331372D01*
X0093919Y0334128D01*
X0096675Y0334128D01*
X0096675Y0332494D02*
X0093919Y0332494D01*
X0093919Y0333616D02*
X0096675Y0333616D01*
X0103581Y0334128D02*
X0103581Y0331372D01*
X0100825Y0331372D01*
X0100825Y0334128D01*
X0103581Y0334128D01*
X0103581Y0332494D02*
X0100825Y0332494D01*
X0100825Y0333616D02*
X0103581Y0333616D01*
X0103581Y0438372D02*
X0103581Y0441128D01*
X0103581Y0438372D02*
X0100825Y0438372D01*
X0100825Y0441128D01*
X0103581Y0441128D01*
X0103581Y0439494D02*
X0100825Y0439494D01*
X0100825Y0440616D02*
X0103581Y0440616D01*
X0096675Y0441128D02*
X0096675Y0438372D01*
X0093919Y0438372D01*
X0093919Y0441128D01*
X0096675Y0441128D01*
X0096675Y0439494D02*
X0093919Y0439494D01*
X0093919Y0440616D02*
X0096675Y0440616D01*
X0060825Y0441128D02*
X0060825Y0438372D01*
X0060825Y0441128D02*
X0063581Y0441128D01*
X0063581Y0438372D01*
X0060825Y0438372D01*
X0060825Y0439494D02*
X0063581Y0439494D01*
X0063581Y0440616D02*
X0060825Y0440616D01*
X0053919Y0441128D02*
X0053919Y0438372D01*
X0053919Y0441128D02*
X0056675Y0441128D01*
X0056675Y0438372D01*
X0053919Y0438372D01*
X0053919Y0439494D02*
X0056675Y0439494D01*
X0056675Y0440616D02*
X0053919Y0440616D01*
X0155919Y0441128D02*
X0155919Y0438372D01*
X0155919Y0441128D02*
X0158675Y0441128D01*
X0158675Y0438372D01*
X0155919Y0438372D01*
X0155919Y0439494D02*
X0158675Y0439494D01*
X0158675Y0440616D02*
X0155919Y0440616D01*
X0162825Y0441128D02*
X0162825Y0438372D01*
X0162825Y0441128D02*
X0165581Y0441128D01*
X0165581Y0438372D01*
X0162825Y0438372D01*
X0162825Y0439494D02*
X0165581Y0439494D01*
X0165581Y0440616D02*
X0162825Y0440616D01*
X0198675Y0441128D02*
X0198675Y0438372D01*
X0195919Y0438372D01*
X0195919Y0441128D01*
X0198675Y0441128D01*
X0198675Y0439494D02*
X0195919Y0439494D01*
X0195919Y0440616D02*
X0198675Y0440616D01*
X0205581Y0441128D02*
X0205581Y0438372D01*
X0202825Y0438372D01*
X0202825Y0441128D01*
X0205581Y0441128D01*
X0205581Y0439494D02*
X0202825Y0439494D01*
X0202825Y0440616D02*
X0205581Y0440616D01*
X0257919Y0441128D02*
X0257919Y0438372D01*
X0257919Y0441128D02*
X0260675Y0441128D01*
X0260675Y0438372D01*
X0257919Y0438372D01*
X0257919Y0439494D02*
X0260675Y0439494D01*
X0260675Y0440616D02*
X0257919Y0440616D01*
X0264825Y0441128D02*
X0264825Y0438372D01*
X0264825Y0441128D02*
X0267581Y0441128D01*
X0267581Y0438372D01*
X0264825Y0438372D01*
X0264825Y0439494D02*
X0267581Y0439494D01*
X0267581Y0440616D02*
X0264825Y0440616D01*
X0300675Y0441128D02*
X0300675Y0438372D01*
X0297919Y0438372D01*
X0297919Y0441128D01*
X0300675Y0441128D01*
X0300675Y0439494D02*
X0297919Y0439494D01*
X0297919Y0440616D02*
X0300675Y0440616D01*
X0307581Y0441128D02*
X0307581Y0438372D01*
X0304825Y0438372D01*
X0304825Y0441128D01*
X0307581Y0441128D01*
X0307581Y0439494D02*
X0304825Y0439494D01*
X0304825Y0440616D02*
X0307581Y0440616D01*
X0359919Y0441128D02*
X0359919Y0438372D01*
X0359919Y0441128D02*
X0362675Y0441128D01*
X0362675Y0438372D01*
X0359919Y0438372D01*
X0359919Y0439494D02*
X0362675Y0439494D01*
X0362675Y0440616D02*
X0359919Y0440616D01*
X0366825Y0441128D02*
X0366825Y0438372D01*
X0366825Y0441128D02*
X0369581Y0441128D01*
X0369581Y0438372D01*
X0366825Y0438372D01*
X0366825Y0439494D02*
X0369581Y0439494D01*
X0369581Y0440616D02*
X0366825Y0440616D01*
X0402675Y0441128D02*
X0402675Y0438372D01*
X0399919Y0438372D01*
X0399919Y0441128D01*
X0402675Y0441128D01*
X0402675Y0439494D02*
X0399919Y0439494D01*
X0399919Y0440616D02*
X0402675Y0440616D01*
X0409581Y0441128D02*
X0409581Y0438372D01*
X0406825Y0438372D01*
X0406825Y0441128D01*
X0409581Y0441128D01*
X0409581Y0439494D02*
X0406825Y0439494D01*
X0406825Y0440616D02*
X0409581Y0440616D01*
X0461919Y0441128D02*
X0461919Y0438372D01*
X0461919Y0441128D02*
X0464675Y0441128D01*
X0464675Y0438372D01*
X0461919Y0438372D01*
X0461919Y0439494D02*
X0464675Y0439494D01*
X0464675Y0440616D02*
X0461919Y0440616D01*
X0468825Y0441128D02*
X0468825Y0438372D01*
X0468825Y0441128D02*
X0471581Y0441128D01*
X0471581Y0438372D01*
X0468825Y0438372D01*
X0468825Y0439494D02*
X0471581Y0439494D01*
X0471581Y0440616D02*
X0468825Y0440616D01*
X0504675Y0441128D02*
X0504675Y0438372D01*
X0501919Y0438372D01*
X0501919Y0441128D01*
X0504675Y0441128D01*
X0504675Y0439494D02*
X0501919Y0439494D01*
X0501919Y0440616D02*
X0504675Y0440616D01*
X0511581Y0441128D02*
X0511581Y0438372D01*
X0508825Y0438372D01*
X0508825Y0441128D01*
X0511581Y0441128D01*
X0511581Y0439494D02*
X0508825Y0439494D01*
X0508825Y0440616D02*
X0511581Y0440616D01*
X0563919Y0441128D02*
X0563919Y0438372D01*
X0563919Y0441128D02*
X0566675Y0441128D01*
X0566675Y0438372D01*
X0563919Y0438372D01*
X0563919Y0439494D02*
X0566675Y0439494D01*
X0566675Y0440616D02*
X0563919Y0440616D01*
X0570825Y0441128D02*
X0570825Y0438372D01*
X0570825Y0441128D02*
X0573581Y0441128D01*
X0573581Y0438372D01*
X0570825Y0438372D01*
X0570825Y0439494D02*
X0573581Y0439494D01*
X0573581Y0440616D02*
X0570825Y0440616D01*
X0606675Y0441128D02*
X0606675Y0438372D01*
X0603919Y0438372D01*
X0603919Y0441128D01*
X0606675Y0441128D01*
X0606675Y0439494D02*
X0603919Y0439494D01*
X0603919Y0440616D02*
X0606675Y0440616D01*
X0613581Y0441128D02*
X0613581Y0438372D01*
X0610825Y0438372D01*
X0610825Y0441128D01*
X0613581Y0441128D01*
X0613581Y0439494D02*
X0610825Y0439494D01*
X0610825Y0440616D02*
X0613581Y0440616D01*
X0665919Y0441128D02*
X0665919Y0438372D01*
X0665919Y0441128D02*
X0668675Y0441128D01*
X0668675Y0438372D01*
X0665919Y0438372D01*
X0665919Y0439494D02*
X0668675Y0439494D01*
X0668675Y0440616D02*
X0665919Y0440616D01*
X0672825Y0441128D02*
X0672825Y0438372D01*
X0672825Y0441128D02*
X0675581Y0441128D01*
X0675581Y0438372D01*
X0672825Y0438372D01*
X0672825Y0439494D02*
X0675581Y0439494D01*
X0675581Y0440616D02*
X0672825Y0440616D01*
X0708675Y0441128D02*
X0708675Y0438372D01*
X0705919Y0438372D01*
X0705919Y0441128D01*
X0708675Y0441128D01*
X0708675Y0439494D02*
X0705919Y0439494D01*
X0705919Y0440616D02*
X0708675Y0440616D01*
X0715581Y0441128D02*
X0715581Y0438372D01*
X0712825Y0438372D01*
X0712825Y0441128D01*
X0715581Y0441128D01*
X0715581Y0439494D02*
X0712825Y0439494D01*
X0712825Y0440616D02*
X0715581Y0440616D01*
X0715581Y0120128D02*
X0715581Y0117372D01*
X0712825Y0117372D01*
X0712825Y0120128D01*
X0715581Y0120128D01*
X0715581Y0118494D02*
X0712825Y0118494D01*
X0712825Y0119616D02*
X0715581Y0119616D01*
X0708675Y0120128D02*
X0708675Y0117372D01*
X0705919Y0117372D01*
X0705919Y0120128D01*
X0708675Y0120128D01*
X0708675Y0118494D02*
X0705919Y0118494D01*
X0705919Y0119616D02*
X0708675Y0119616D01*
X0672825Y0120128D02*
X0672825Y0117372D01*
X0672825Y0120128D02*
X0675581Y0120128D01*
X0675581Y0117372D01*
X0672825Y0117372D01*
X0672825Y0118494D02*
X0675581Y0118494D01*
X0675581Y0119616D02*
X0672825Y0119616D01*
X0665919Y0120128D02*
X0665919Y0117372D01*
X0665919Y0120128D02*
X0668675Y0120128D01*
X0668675Y0117372D01*
X0665919Y0117372D01*
X0665919Y0118494D02*
X0668675Y0118494D01*
X0668675Y0119616D02*
X0665919Y0119616D01*
X0613581Y0120128D02*
X0613581Y0117372D01*
X0610825Y0117372D01*
X0610825Y0120128D01*
X0613581Y0120128D01*
X0613581Y0118494D02*
X0610825Y0118494D01*
X0610825Y0119616D02*
X0613581Y0119616D01*
X0606675Y0120128D02*
X0606675Y0117372D01*
X0603919Y0117372D01*
X0603919Y0120128D01*
X0606675Y0120128D01*
X0606675Y0118494D02*
X0603919Y0118494D01*
X0603919Y0119616D02*
X0606675Y0119616D01*
X0570825Y0120128D02*
X0570825Y0117372D01*
X0570825Y0120128D02*
X0573581Y0120128D01*
X0573581Y0117372D01*
X0570825Y0117372D01*
X0570825Y0118494D02*
X0573581Y0118494D01*
X0573581Y0119616D02*
X0570825Y0119616D01*
X0563919Y0120128D02*
X0563919Y0117372D01*
X0563919Y0120128D02*
X0566675Y0120128D01*
X0566675Y0117372D01*
X0563919Y0117372D01*
X0563919Y0118494D02*
X0566675Y0118494D01*
X0566675Y0119616D02*
X0563919Y0119616D01*
X0511581Y0120128D02*
X0511581Y0117372D01*
X0508825Y0117372D01*
X0508825Y0120128D01*
X0511581Y0120128D01*
X0511581Y0118494D02*
X0508825Y0118494D01*
X0508825Y0119616D02*
X0511581Y0119616D01*
X0504675Y0120128D02*
X0504675Y0117372D01*
X0501919Y0117372D01*
X0501919Y0120128D01*
X0504675Y0120128D01*
X0504675Y0118494D02*
X0501919Y0118494D01*
X0501919Y0119616D02*
X0504675Y0119616D01*
X0468825Y0120128D02*
X0468825Y0117372D01*
X0468825Y0120128D02*
X0471581Y0120128D01*
X0471581Y0117372D01*
X0468825Y0117372D01*
X0468825Y0118494D02*
X0471581Y0118494D01*
X0471581Y0119616D02*
X0468825Y0119616D01*
X0461919Y0120128D02*
X0461919Y0117372D01*
X0461919Y0120128D02*
X0464675Y0120128D01*
X0464675Y0117372D01*
X0461919Y0117372D01*
X0461919Y0118494D02*
X0464675Y0118494D01*
X0464675Y0119616D02*
X0461919Y0119616D01*
X0409581Y0120128D02*
X0409581Y0117372D01*
X0406825Y0117372D01*
X0406825Y0120128D01*
X0409581Y0120128D01*
X0409581Y0118494D02*
X0406825Y0118494D01*
X0406825Y0119616D02*
X0409581Y0119616D01*
X0402675Y0120128D02*
X0402675Y0117372D01*
X0399919Y0117372D01*
X0399919Y0120128D01*
X0402675Y0120128D01*
X0402675Y0118494D02*
X0399919Y0118494D01*
X0399919Y0119616D02*
X0402675Y0119616D01*
X0366825Y0120128D02*
X0366825Y0117372D01*
X0366825Y0120128D02*
X0369581Y0120128D01*
X0369581Y0117372D01*
X0366825Y0117372D01*
X0366825Y0118494D02*
X0369581Y0118494D01*
X0369581Y0119616D02*
X0366825Y0119616D01*
X0359919Y0120128D02*
X0359919Y0117372D01*
X0359919Y0120128D02*
X0362675Y0120128D01*
X0362675Y0117372D01*
X0359919Y0117372D01*
X0359919Y0118494D02*
X0362675Y0118494D01*
X0362675Y0119616D02*
X0359919Y0119616D01*
X0307581Y0120128D02*
X0307581Y0117372D01*
X0304825Y0117372D01*
X0304825Y0120128D01*
X0307581Y0120128D01*
X0307581Y0118494D02*
X0304825Y0118494D01*
X0304825Y0119616D02*
X0307581Y0119616D01*
X0300675Y0120128D02*
X0300675Y0117372D01*
X0297919Y0117372D01*
X0297919Y0120128D01*
X0300675Y0120128D01*
X0300675Y0118494D02*
X0297919Y0118494D01*
X0297919Y0119616D02*
X0300675Y0119616D01*
X0264825Y0120128D02*
X0264825Y0117372D01*
X0264825Y0120128D02*
X0267581Y0120128D01*
X0267581Y0117372D01*
X0264825Y0117372D01*
X0264825Y0118494D02*
X0267581Y0118494D01*
X0267581Y0119616D02*
X0264825Y0119616D01*
X0257919Y0120128D02*
X0257919Y0117372D01*
X0257919Y0120128D02*
X0260675Y0120128D01*
X0260675Y0117372D01*
X0257919Y0117372D01*
X0257919Y0118494D02*
X0260675Y0118494D01*
X0260675Y0119616D02*
X0257919Y0119616D01*
X0205581Y0120128D02*
X0205581Y0117372D01*
X0202825Y0117372D01*
X0202825Y0120128D01*
X0205581Y0120128D01*
X0205581Y0118494D02*
X0202825Y0118494D01*
X0202825Y0119616D02*
X0205581Y0119616D01*
X0198675Y0120128D02*
X0198675Y0117372D01*
X0195919Y0117372D01*
X0195919Y0120128D01*
X0198675Y0120128D01*
X0198675Y0118494D02*
X0195919Y0118494D01*
X0195919Y0119616D02*
X0198675Y0119616D01*
X0162825Y0120128D02*
X0162825Y0117372D01*
X0162825Y0120128D02*
X0165581Y0120128D01*
X0165581Y0117372D01*
X0162825Y0117372D01*
X0162825Y0118494D02*
X0165581Y0118494D01*
X0165581Y0119616D02*
X0162825Y0119616D01*
X0155919Y0120128D02*
X0155919Y0117372D01*
X0155919Y0120128D02*
X0158675Y0120128D01*
X0158675Y0117372D01*
X0155919Y0117372D01*
X0155919Y0118494D02*
X0158675Y0118494D01*
X0158675Y0119616D02*
X0155919Y0119616D01*
X0103581Y0120128D02*
X0103581Y0117372D01*
X0100825Y0117372D01*
X0100825Y0120128D01*
X0103581Y0120128D01*
X0103581Y0118494D02*
X0100825Y0118494D01*
X0100825Y0119616D02*
X0103581Y0119616D01*
X0096675Y0120128D02*
X0096675Y0117372D01*
X0093919Y0117372D01*
X0093919Y0120128D01*
X0096675Y0120128D01*
X0096675Y0118494D02*
X0093919Y0118494D01*
X0093919Y0119616D02*
X0096675Y0119616D01*
X0060825Y0120128D02*
X0060825Y0117372D01*
X0060825Y0120128D02*
X0063581Y0120128D01*
X0063581Y0117372D01*
X0060825Y0117372D01*
X0060825Y0118494D02*
X0063581Y0118494D01*
X0063581Y0119616D02*
X0060825Y0119616D01*
X0053919Y0120128D02*
X0053919Y0117372D01*
X0053919Y0120128D02*
X0056675Y0120128D01*
X0056675Y0117372D01*
X0053919Y0117372D01*
X0053919Y0118494D02*
X0056675Y0118494D01*
X0056675Y0119616D02*
X0053919Y0119616D01*
D13*
X0099026Y0106614D02*
X0099026Y0100886D01*
X0103750Y0100886D02*
X0103750Y0106614D01*
X0108474Y0106614D02*
X0108474Y0100886D01*
X0201026Y0100886D02*
X0201026Y0106614D01*
X0205750Y0106614D02*
X0205750Y0100886D01*
X0210474Y0100886D02*
X0210474Y0106614D01*
X0303026Y0106614D02*
X0303026Y0100886D01*
X0307750Y0100886D02*
X0307750Y0106614D01*
X0312474Y0106614D02*
X0312474Y0100886D01*
X0405026Y0100886D02*
X0405026Y0106614D01*
X0409750Y0106614D02*
X0409750Y0100886D01*
X0414474Y0100886D02*
X0414474Y0106614D01*
X0507026Y0106614D02*
X0507026Y0100886D01*
X0511750Y0100886D02*
X0511750Y0106614D01*
X0516474Y0106614D02*
X0516474Y0100886D01*
X0609026Y0100886D02*
X0609026Y0106614D01*
X0613750Y0106614D02*
X0613750Y0100886D01*
X0618474Y0100886D02*
X0618474Y0106614D01*
X0711026Y0106614D02*
X0711026Y0100886D01*
X0715750Y0100886D02*
X0715750Y0106614D01*
X0720474Y0106614D02*
X0720474Y0100886D01*
X0720474Y0207886D02*
X0720474Y0213614D01*
X0715750Y0213614D02*
X0715750Y0207886D01*
X0711026Y0207886D02*
X0711026Y0213614D01*
X0618474Y0213614D02*
X0618474Y0207886D01*
X0613750Y0207886D02*
X0613750Y0213614D01*
X0609026Y0213614D02*
X0609026Y0207886D01*
X0516474Y0207886D02*
X0516474Y0213614D01*
X0511750Y0213614D02*
X0511750Y0207886D01*
X0507026Y0207886D02*
X0507026Y0213614D01*
X0414474Y0213614D02*
X0414474Y0207886D01*
X0409750Y0207886D02*
X0409750Y0213614D01*
X0405026Y0213614D02*
X0405026Y0207886D01*
X0312474Y0207886D02*
X0312474Y0213614D01*
X0307750Y0213614D02*
X0307750Y0207886D01*
X0303026Y0207886D02*
X0303026Y0213614D01*
X0210474Y0213614D02*
X0210474Y0207886D01*
X0205750Y0207886D02*
X0205750Y0213614D01*
X0201026Y0213614D02*
X0201026Y0207886D01*
X0108474Y0207886D02*
X0108474Y0213614D01*
X0103750Y0213614D02*
X0103750Y0207886D01*
X0099026Y0207886D02*
X0099026Y0213614D01*
X0099026Y0314886D02*
X0099026Y0320614D01*
X0103750Y0320614D02*
X0103750Y0314886D01*
X0108474Y0314886D02*
X0108474Y0320614D01*
X0201026Y0320614D02*
X0201026Y0314886D01*
X0205750Y0314886D02*
X0205750Y0320614D01*
X0210474Y0320614D02*
X0210474Y0314886D01*
X0303026Y0314886D02*
X0303026Y0320614D01*
X0307750Y0320614D02*
X0307750Y0314886D01*
X0312474Y0314886D02*
X0312474Y0320614D01*
X0405026Y0320614D02*
X0405026Y0314886D01*
X0409750Y0314886D02*
X0409750Y0320614D01*
X0414474Y0320614D02*
X0414474Y0314886D01*
X0507026Y0314886D02*
X0507026Y0320614D01*
X0511750Y0320614D02*
X0511750Y0314886D01*
X0516474Y0314886D02*
X0516474Y0320614D01*
X0609026Y0320614D02*
X0609026Y0314886D01*
X0613750Y0314886D02*
X0613750Y0320614D01*
X0618474Y0320614D02*
X0618474Y0314886D01*
X0711026Y0314886D02*
X0711026Y0320614D01*
X0715750Y0320614D02*
X0715750Y0314886D01*
X0720474Y0314886D02*
X0720474Y0320614D01*
X0720474Y0421886D02*
X0720474Y0427614D01*
X0715750Y0427614D02*
X0715750Y0421886D01*
X0711026Y0421886D02*
X0711026Y0427614D01*
X0618474Y0427614D02*
X0618474Y0421886D01*
X0613750Y0421886D02*
X0613750Y0427614D01*
X0609026Y0427614D02*
X0609026Y0421886D01*
X0516474Y0421886D02*
X0516474Y0427614D01*
X0511750Y0427614D02*
X0511750Y0421886D01*
X0507026Y0421886D02*
X0507026Y0427614D01*
X0414474Y0427614D02*
X0414474Y0421886D01*
X0409750Y0421886D02*
X0409750Y0427614D01*
X0405026Y0427614D02*
X0405026Y0421886D01*
X0312474Y0421886D02*
X0312474Y0427614D01*
X0307750Y0427614D02*
X0307750Y0421886D01*
X0303026Y0421886D02*
X0303026Y0427614D01*
X0210474Y0427614D02*
X0210474Y0421886D01*
X0205750Y0421886D02*
X0205750Y0427614D01*
X0201026Y0427614D02*
X0201026Y0421886D01*
X0108474Y0421886D02*
X0108474Y0427614D01*
X0103750Y0427614D02*
X0103750Y0421886D01*
X0099026Y0421886D02*
X0099026Y0427614D01*
D14*
X0123219Y0415774D03*
X0136281Y0415774D03*
X0136281Y0393726D03*
X0123219Y0393726D03*
X0034281Y0393726D03*
X0034281Y0415774D03*
X0034281Y0308774D03*
X0034281Y0286726D03*
X0123219Y0286726D03*
X0136281Y0286726D03*
X0136281Y0308774D03*
X0123219Y0308774D03*
X0225219Y0308774D03*
X0238281Y0308774D03*
X0238281Y0286726D03*
X0225219Y0286726D03*
X0327219Y0286726D03*
X0340281Y0286726D03*
X0340281Y0308774D03*
X0327219Y0308774D03*
X0429219Y0308774D03*
X0442281Y0308774D03*
X0442281Y0286726D03*
X0429219Y0286726D03*
X0531219Y0286726D03*
X0544281Y0286726D03*
X0544281Y0308774D03*
X0531219Y0308774D03*
X0633219Y0308774D03*
X0646281Y0308774D03*
X0646281Y0286726D03*
X0633219Y0286726D03*
X0735219Y0286726D03*
X0735219Y0308774D03*
X0735219Y0393726D03*
X0735219Y0415774D03*
X0646281Y0415774D03*
X0633219Y0415774D03*
X0633219Y0393726D03*
X0646281Y0393726D03*
X0544281Y0393726D03*
X0531219Y0393726D03*
X0531219Y0415774D03*
X0544281Y0415774D03*
X0442281Y0415774D03*
X0429219Y0415774D03*
X0429219Y0393726D03*
X0442281Y0393726D03*
X0340281Y0393726D03*
X0327219Y0393726D03*
X0327219Y0415774D03*
X0340281Y0415774D03*
X0238281Y0415774D03*
X0225219Y0415774D03*
X0225219Y0393726D03*
X0238281Y0393726D03*
X0238281Y0201774D03*
X0225219Y0201774D03*
X0225219Y0179726D03*
X0238281Y0179726D03*
X0327219Y0179726D03*
X0340281Y0179726D03*
X0340281Y0201774D03*
X0327219Y0201774D03*
X0429219Y0201774D03*
X0442281Y0201774D03*
X0442281Y0179726D03*
X0429219Y0179726D03*
X0531219Y0179726D03*
X0544281Y0179726D03*
X0544281Y0201774D03*
X0531219Y0201774D03*
X0633219Y0201774D03*
X0646281Y0201774D03*
X0646281Y0179726D03*
X0633219Y0179726D03*
X0735219Y0179726D03*
X0735219Y0201774D03*
X0735219Y0094774D03*
X0735219Y0072726D03*
X0646281Y0072726D03*
X0633219Y0072726D03*
X0633219Y0094774D03*
X0646281Y0094774D03*
X0544281Y0094774D03*
X0531219Y0094774D03*
X0531219Y0072726D03*
X0544281Y0072726D03*
X0442281Y0072726D03*
X0429219Y0072726D03*
X0429219Y0094774D03*
X0442281Y0094774D03*
X0340281Y0094774D03*
X0327219Y0094774D03*
X0327219Y0072726D03*
X0340281Y0072726D03*
X0238281Y0072726D03*
X0225219Y0072726D03*
X0225219Y0094774D03*
X0238281Y0094774D03*
X0136281Y0094774D03*
X0123219Y0094774D03*
X0123219Y0072726D03*
X0136281Y0072726D03*
X0034281Y0072726D03*
X0034281Y0094774D03*
X0034281Y0179726D03*
X0034281Y0201774D03*
X0123219Y0201774D03*
X0136281Y0201774D03*
X0136281Y0179726D03*
X0123219Y0179726D03*
D15*
X0108750Y0184844D03*
X0108750Y0188781D03*
X0108750Y0192719D03*
X0108750Y0196656D03*
X0150750Y0196656D03*
X0150750Y0192719D03*
X0150750Y0188781D03*
X0150750Y0184844D03*
X0210750Y0184844D03*
X0210750Y0188781D03*
X0210750Y0192719D03*
X0210750Y0196656D03*
X0252750Y0196656D03*
X0252750Y0192719D03*
X0252750Y0188781D03*
X0252750Y0184844D03*
X0312750Y0184844D03*
X0312750Y0188781D03*
X0312750Y0192719D03*
X0312750Y0196656D03*
X0354750Y0196656D03*
X0354750Y0192719D03*
X0354750Y0188781D03*
X0354750Y0184844D03*
X0414750Y0184844D03*
X0414750Y0188781D03*
X0414750Y0192719D03*
X0414750Y0196656D03*
X0456750Y0196656D03*
X0456750Y0192719D03*
X0456750Y0188781D03*
X0456750Y0184844D03*
X0516750Y0184844D03*
X0516750Y0188781D03*
X0516750Y0192719D03*
X0516750Y0196656D03*
X0558750Y0196656D03*
X0558750Y0192719D03*
X0558750Y0188781D03*
X0558750Y0184844D03*
X0618750Y0184844D03*
X0618750Y0188781D03*
X0618750Y0192719D03*
X0618750Y0196656D03*
X0660750Y0196656D03*
X0660750Y0192719D03*
X0660750Y0188781D03*
X0660750Y0184844D03*
X0720750Y0184844D03*
X0720750Y0188781D03*
X0720750Y0192719D03*
X0720750Y0196656D03*
X0720750Y0291844D03*
X0720750Y0295781D03*
X0720750Y0299719D03*
X0720750Y0303656D03*
X0660750Y0303656D03*
X0660750Y0299719D03*
X0660750Y0295781D03*
X0660750Y0291844D03*
X0618750Y0291844D03*
X0618750Y0295781D03*
X0618750Y0299719D03*
X0618750Y0303656D03*
X0558750Y0303656D03*
X0558750Y0299719D03*
X0558750Y0295781D03*
X0558750Y0291844D03*
X0516750Y0291844D03*
X0516750Y0295781D03*
X0516750Y0299719D03*
X0516750Y0303656D03*
X0456750Y0303656D03*
X0456750Y0299719D03*
X0456750Y0295781D03*
X0456750Y0291844D03*
X0414750Y0291844D03*
X0414750Y0295781D03*
X0414750Y0299719D03*
X0414750Y0303656D03*
X0354750Y0303656D03*
X0354750Y0299719D03*
X0354750Y0295781D03*
X0354750Y0291844D03*
X0312750Y0291844D03*
X0312750Y0295781D03*
X0312750Y0299719D03*
X0312750Y0303656D03*
X0252750Y0303656D03*
X0252750Y0299719D03*
X0252750Y0295781D03*
X0252750Y0291844D03*
X0210750Y0291844D03*
X0210750Y0295781D03*
X0210750Y0299719D03*
X0210750Y0303656D03*
X0150750Y0303656D03*
X0150750Y0299719D03*
X0150750Y0295781D03*
X0150750Y0291844D03*
X0108750Y0291844D03*
X0108750Y0295781D03*
X0108750Y0299719D03*
X0108750Y0303656D03*
X0048750Y0303656D03*
X0048750Y0299719D03*
X0048750Y0295781D03*
X0048750Y0291844D03*
X0048750Y0196656D03*
X0048750Y0192719D03*
X0048750Y0188781D03*
X0048750Y0184844D03*
X0048750Y0089656D03*
X0048750Y0085719D03*
X0048750Y0081781D03*
X0048750Y0077844D03*
X0108750Y0077844D03*
X0108750Y0081781D03*
X0108750Y0085719D03*
X0108750Y0089656D03*
X0150750Y0089656D03*
X0150750Y0085719D03*
X0150750Y0081781D03*
X0150750Y0077844D03*
X0210750Y0077844D03*
X0210750Y0081781D03*
X0210750Y0085719D03*
X0210750Y0089656D03*
X0252750Y0089656D03*
X0252750Y0085719D03*
X0252750Y0081781D03*
X0252750Y0077844D03*
X0312750Y0077844D03*
X0312750Y0081781D03*
X0312750Y0085719D03*
X0312750Y0089656D03*
X0354750Y0089656D03*
X0354750Y0085719D03*
X0354750Y0081781D03*
X0354750Y0077844D03*
X0414750Y0077844D03*
X0414750Y0081781D03*
X0414750Y0085719D03*
X0414750Y0089656D03*
X0456750Y0089656D03*
X0456750Y0085719D03*
X0456750Y0081781D03*
X0456750Y0077844D03*
X0516750Y0077844D03*
X0516750Y0081781D03*
X0516750Y0085719D03*
X0516750Y0089656D03*
X0558750Y0089656D03*
X0558750Y0085719D03*
X0558750Y0081781D03*
X0558750Y0077844D03*
X0618750Y0077844D03*
X0618750Y0081781D03*
X0618750Y0085719D03*
X0618750Y0089656D03*
X0660750Y0089656D03*
X0660750Y0085719D03*
X0660750Y0081781D03*
X0660750Y0077844D03*
X0720750Y0077844D03*
X0720750Y0081781D03*
X0720750Y0085719D03*
X0720750Y0089656D03*
X0720750Y0398844D03*
X0720750Y0402781D03*
X0720750Y0406719D03*
X0720750Y0410656D03*
X0660750Y0410656D03*
X0660750Y0406719D03*
X0660750Y0402781D03*
X0660750Y0398844D03*
X0618750Y0398844D03*
X0618750Y0402781D03*
X0618750Y0406719D03*
X0618750Y0410656D03*
X0558750Y0410656D03*
X0558750Y0406719D03*
X0558750Y0402781D03*
X0558750Y0398844D03*
X0516750Y0398844D03*
X0516750Y0402781D03*
X0516750Y0406719D03*
X0516750Y0410656D03*
X0456750Y0410656D03*
X0456750Y0406719D03*
X0456750Y0402781D03*
X0456750Y0398844D03*
X0414750Y0398844D03*
X0414750Y0402781D03*
X0414750Y0406719D03*
X0414750Y0410656D03*
X0354750Y0410656D03*
X0354750Y0406719D03*
X0354750Y0402781D03*
X0354750Y0398844D03*
X0312750Y0398844D03*
X0312750Y0402781D03*
X0312750Y0406719D03*
X0312750Y0410656D03*
X0252750Y0410656D03*
X0252750Y0406719D03*
X0252750Y0402781D03*
X0252750Y0398844D03*
X0210750Y0398844D03*
X0210750Y0402781D03*
X0210750Y0406719D03*
X0210750Y0410656D03*
X0150750Y0410656D03*
X0150750Y0406719D03*
X0150750Y0402781D03*
X0150750Y0398844D03*
X0108750Y0398844D03*
X0108750Y0402781D03*
X0108750Y0406719D03*
X0108750Y0410656D03*
X0048750Y0410656D03*
X0048750Y0406719D03*
X0048750Y0402781D03*
X0048750Y0398844D03*
D16*
X0061850Y0400026D03*
X0061850Y0403175D03*
X0061850Y0406325D03*
X0061850Y0409474D03*
X0061850Y0412624D03*
X0061850Y0415774D03*
X0061850Y0396876D03*
X0061850Y0393726D03*
X0095650Y0393726D03*
X0095650Y0396876D03*
X0095650Y0400026D03*
X0095650Y0403175D03*
X0095650Y0406325D03*
X0095650Y0409474D03*
X0095650Y0412624D03*
X0095650Y0415774D03*
X0163850Y0415774D03*
X0163850Y0412624D03*
X0163850Y0409474D03*
X0163850Y0406325D03*
X0163850Y0403175D03*
X0163850Y0400026D03*
X0163850Y0396876D03*
X0163850Y0393726D03*
X0197650Y0393726D03*
X0197650Y0396876D03*
X0197650Y0400026D03*
X0197650Y0403175D03*
X0197650Y0406325D03*
X0197650Y0409474D03*
X0197650Y0412624D03*
X0197650Y0415774D03*
X0265850Y0415774D03*
X0265850Y0412624D03*
X0265850Y0409474D03*
X0265850Y0406325D03*
X0265850Y0403175D03*
X0265850Y0400026D03*
X0265850Y0396876D03*
X0265850Y0393726D03*
X0299650Y0393726D03*
X0299650Y0396876D03*
X0299650Y0400026D03*
X0299650Y0403175D03*
X0299650Y0406325D03*
X0299650Y0409474D03*
X0299650Y0412624D03*
X0299650Y0415774D03*
X0367850Y0415774D03*
X0367850Y0412624D03*
X0367850Y0409474D03*
X0367850Y0406325D03*
X0367850Y0403175D03*
X0367850Y0400026D03*
X0367850Y0396876D03*
X0367850Y0393726D03*
X0401650Y0393726D03*
X0401650Y0396876D03*
X0401650Y0400026D03*
X0401650Y0403175D03*
X0401650Y0406325D03*
X0401650Y0409474D03*
X0401650Y0412624D03*
X0401650Y0415774D03*
X0469850Y0415774D03*
X0469850Y0412624D03*
X0469850Y0409474D03*
X0469850Y0406325D03*
X0469850Y0403175D03*
X0469850Y0400026D03*
X0469850Y0396876D03*
X0469850Y0393726D03*
X0503650Y0393726D03*
X0503650Y0396876D03*
X0503650Y0400026D03*
X0503650Y0403175D03*
X0503650Y0406325D03*
X0503650Y0409474D03*
X0503650Y0412624D03*
X0503650Y0415774D03*
X0571850Y0415774D03*
X0571850Y0412624D03*
X0571850Y0409474D03*
X0571850Y0406325D03*
X0571850Y0403175D03*
X0571850Y0400026D03*
X0571850Y0396876D03*
X0571850Y0393726D03*
X0605650Y0393726D03*
X0605650Y0396876D03*
X0605650Y0400026D03*
X0605650Y0403175D03*
X0605650Y0406325D03*
X0605650Y0409474D03*
X0605650Y0412624D03*
X0605650Y0415774D03*
X0673850Y0415774D03*
X0673850Y0412624D03*
X0673850Y0409474D03*
X0673850Y0406325D03*
X0673850Y0403175D03*
X0673850Y0400026D03*
X0673850Y0396876D03*
X0673850Y0393726D03*
X0707650Y0393726D03*
X0707650Y0396876D03*
X0707650Y0400026D03*
X0707650Y0403175D03*
X0707650Y0406325D03*
X0707650Y0409474D03*
X0707650Y0412624D03*
X0707650Y0415774D03*
X0707650Y0308774D03*
X0707650Y0305624D03*
X0707650Y0302474D03*
X0707650Y0299325D03*
X0707650Y0296175D03*
X0707650Y0293026D03*
X0707650Y0289876D03*
X0707650Y0286726D03*
X0673850Y0286726D03*
X0673850Y0289876D03*
X0673850Y0293026D03*
X0673850Y0296175D03*
X0673850Y0299325D03*
X0673850Y0302474D03*
X0673850Y0305624D03*
X0673850Y0308774D03*
X0605650Y0308774D03*
X0605650Y0305624D03*
X0605650Y0302474D03*
X0605650Y0299325D03*
X0605650Y0296175D03*
X0605650Y0293026D03*
X0605650Y0289876D03*
X0605650Y0286726D03*
X0571850Y0286726D03*
X0571850Y0289876D03*
X0571850Y0293026D03*
X0571850Y0296175D03*
X0571850Y0299325D03*
X0571850Y0302474D03*
X0571850Y0305624D03*
X0571850Y0308774D03*
X0503650Y0308774D03*
X0503650Y0305624D03*
X0503650Y0302474D03*
X0503650Y0299325D03*
X0503650Y0296175D03*
X0503650Y0293026D03*
X0503650Y0289876D03*
X0503650Y0286726D03*
X0469850Y0286726D03*
X0469850Y0289876D03*
X0469850Y0293026D03*
X0469850Y0296175D03*
X0469850Y0299325D03*
X0469850Y0302474D03*
X0469850Y0305624D03*
X0469850Y0308774D03*
X0401650Y0308774D03*
X0401650Y0305624D03*
X0401650Y0302474D03*
X0401650Y0299325D03*
X0401650Y0296175D03*
X0401650Y0293026D03*
X0401650Y0289876D03*
X0401650Y0286726D03*
X0367850Y0286726D03*
X0367850Y0289876D03*
X0367850Y0293026D03*
X0367850Y0296175D03*
X0367850Y0299325D03*
X0367850Y0302474D03*
X0367850Y0305624D03*
X0367850Y0308774D03*
X0299650Y0308774D03*
X0299650Y0305624D03*
X0299650Y0302474D03*
X0299650Y0299325D03*
X0299650Y0296175D03*
X0299650Y0293026D03*
X0299650Y0289876D03*
X0299650Y0286726D03*
X0265850Y0286726D03*
X0265850Y0289876D03*
X0265850Y0293026D03*
X0265850Y0296175D03*
X0265850Y0299325D03*
X0265850Y0302474D03*
X0265850Y0305624D03*
X0265850Y0308774D03*
X0197650Y0308774D03*
X0197650Y0305624D03*
X0197650Y0302474D03*
X0197650Y0299325D03*
X0197650Y0296175D03*
X0197650Y0293026D03*
X0197650Y0289876D03*
X0197650Y0286726D03*
X0163850Y0286726D03*
X0163850Y0289876D03*
X0163850Y0293026D03*
X0163850Y0296175D03*
X0163850Y0299325D03*
X0163850Y0302474D03*
X0163850Y0305624D03*
X0163850Y0308774D03*
X0095650Y0308774D03*
X0095650Y0305624D03*
X0095650Y0302474D03*
X0095650Y0299325D03*
X0095650Y0296175D03*
X0095650Y0293026D03*
X0095650Y0289876D03*
X0095650Y0286726D03*
X0061850Y0286726D03*
X0061850Y0289876D03*
X0061850Y0293026D03*
X0061850Y0296175D03*
X0061850Y0299325D03*
X0061850Y0302474D03*
X0061850Y0305624D03*
X0061850Y0308774D03*
X0061850Y0201774D03*
X0061850Y0198624D03*
X0061850Y0195474D03*
X0061850Y0192325D03*
X0061850Y0189175D03*
X0061850Y0186026D03*
X0061850Y0182876D03*
X0061850Y0179726D03*
X0095650Y0179726D03*
X0095650Y0182876D03*
X0095650Y0186026D03*
X0095650Y0189175D03*
X0095650Y0192325D03*
X0095650Y0195474D03*
X0095650Y0198624D03*
X0095650Y0201774D03*
X0163850Y0201774D03*
X0163850Y0198624D03*
X0163850Y0195474D03*
X0163850Y0192325D03*
X0163850Y0189175D03*
X0163850Y0186026D03*
X0163850Y0182876D03*
X0163850Y0179726D03*
X0197650Y0179726D03*
X0197650Y0182876D03*
X0197650Y0186026D03*
X0197650Y0189175D03*
X0197650Y0192325D03*
X0197650Y0195474D03*
X0197650Y0198624D03*
X0197650Y0201774D03*
X0265850Y0201774D03*
X0265850Y0198624D03*
X0265850Y0195474D03*
X0265850Y0192325D03*
X0265850Y0189175D03*
X0265850Y0186026D03*
X0265850Y0182876D03*
X0265850Y0179726D03*
X0299650Y0179726D03*
X0299650Y0182876D03*
X0299650Y0186026D03*
X0299650Y0189175D03*
X0299650Y0192325D03*
X0299650Y0195474D03*
X0299650Y0198624D03*
X0299650Y0201774D03*
X0367850Y0201774D03*
X0367850Y0198624D03*
X0367850Y0195474D03*
X0367850Y0192325D03*
X0367850Y0189175D03*
X0367850Y0186026D03*
X0367850Y0182876D03*
X0367850Y0179726D03*
X0401650Y0179726D03*
X0401650Y0182876D03*
X0401650Y0186026D03*
X0401650Y0189175D03*
X0401650Y0192325D03*
X0401650Y0195474D03*
X0401650Y0198624D03*
X0401650Y0201774D03*
X0469850Y0201774D03*
X0469850Y0198624D03*
X0469850Y0195474D03*
X0469850Y0192325D03*
X0469850Y0189175D03*
X0469850Y0186026D03*
X0469850Y0182876D03*
X0469850Y0179726D03*
X0503650Y0179726D03*
X0503650Y0182876D03*
X0503650Y0186026D03*
X0503650Y0189175D03*
X0503650Y0192325D03*
X0503650Y0195474D03*
X0503650Y0198624D03*
X0503650Y0201774D03*
X0571850Y0201774D03*
X0571850Y0198624D03*
X0571850Y0195474D03*
X0571850Y0192325D03*
X0571850Y0189175D03*
X0571850Y0186026D03*
X0571850Y0182876D03*
X0571850Y0179726D03*
X0605650Y0179726D03*
X0605650Y0182876D03*
X0605650Y0186026D03*
X0605650Y0189175D03*
X0605650Y0192325D03*
X0605650Y0195474D03*
X0605650Y0198624D03*
X0605650Y0201774D03*
X0673850Y0201774D03*
X0673850Y0198624D03*
X0673850Y0195474D03*
X0673850Y0192325D03*
X0673850Y0189175D03*
X0673850Y0186026D03*
X0673850Y0182876D03*
X0673850Y0179726D03*
X0707650Y0179726D03*
X0707650Y0182876D03*
X0707650Y0186026D03*
X0707650Y0189175D03*
X0707650Y0192325D03*
X0707650Y0195474D03*
X0707650Y0198624D03*
X0707650Y0201774D03*
X0707650Y0094774D03*
X0707650Y0091624D03*
X0707650Y0088474D03*
X0707650Y0085325D03*
X0707650Y0082175D03*
X0707650Y0079026D03*
X0707650Y0075876D03*
X0707650Y0072726D03*
X0673850Y0072726D03*
X0673850Y0075876D03*
X0673850Y0079026D03*
X0673850Y0082175D03*
X0673850Y0085325D03*
X0673850Y0088474D03*
X0673850Y0091624D03*
X0673850Y0094774D03*
X0605650Y0094774D03*
X0605650Y0091624D03*
X0605650Y0088474D03*
X0605650Y0085325D03*
X0605650Y0082175D03*
X0605650Y0079026D03*
X0605650Y0075876D03*
X0605650Y0072726D03*
X0571850Y0072726D03*
X0571850Y0075876D03*
X0571850Y0079026D03*
X0571850Y0082175D03*
X0571850Y0085325D03*
X0571850Y0088474D03*
X0571850Y0091624D03*
X0571850Y0094774D03*
X0503650Y0094774D03*
X0503650Y0091624D03*
X0503650Y0088474D03*
X0503650Y0085325D03*
X0503650Y0082175D03*
X0503650Y0079026D03*
X0503650Y0075876D03*
X0503650Y0072726D03*
X0469850Y0072726D03*
X0469850Y0075876D03*
X0469850Y0079026D03*
X0469850Y0082175D03*
X0469850Y0085325D03*
X0469850Y0088474D03*
X0469850Y0091624D03*
X0469850Y0094774D03*
X0401650Y0094774D03*
X0401650Y0091624D03*
X0401650Y0088474D03*
X0401650Y0085325D03*
X0401650Y0082175D03*
X0401650Y0079026D03*
X0401650Y0075876D03*
X0401650Y0072726D03*
X0367850Y0072726D03*
X0367850Y0075876D03*
X0367850Y0079026D03*
X0367850Y0082175D03*
X0367850Y0085325D03*
X0367850Y0088474D03*
X0367850Y0091624D03*
X0367850Y0094774D03*
X0299650Y0094774D03*
X0299650Y0091624D03*
X0299650Y0088474D03*
X0299650Y0085325D03*
X0299650Y0082175D03*
X0299650Y0079026D03*
X0299650Y0075876D03*
X0299650Y0072726D03*
X0265850Y0072726D03*
X0265850Y0075876D03*
X0265850Y0079026D03*
X0265850Y0082175D03*
X0265850Y0085325D03*
X0265850Y0088474D03*
X0265850Y0091624D03*
X0265850Y0094774D03*
X0197650Y0094774D03*
X0197650Y0091624D03*
X0197650Y0088474D03*
X0197650Y0085325D03*
X0197650Y0082175D03*
X0197650Y0079026D03*
X0197650Y0075876D03*
X0197650Y0072726D03*
X0163850Y0072726D03*
X0163850Y0075876D03*
X0163850Y0079026D03*
X0163850Y0082175D03*
X0163850Y0085325D03*
X0163850Y0088474D03*
X0163850Y0091624D03*
X0163850Y0094774D03*
X0095650Y0094774D03*
X0095650Y0091624D03*
X0095650Y0088474D03*
X0095650Y0085325D03*
X0095650Y0082175D03*
X0095650Y0079026D03*
X0095650Y0075876D03*
X0095650Y0072726D03*
X0061850Y0072726D03*
X0061850Y0075876D03*
X0061850Y0079026D03*
X0061850Y0082175D03*
X0061850Y0085325D03*
X0061850Y0088474D03*
X0061850Y0091624D03*
X0061850Y0094774D03*
D17*
X0067726Y0100650D03*
X0070876Y0100650D03*
X0074026Y0100650D03*
X0077175Y0100650D03*
X0080325Y0100650D03*
X0083474Y0100650D03*
X0086624Y0100650D03*
X0089774Y0100650D03*
X0089774Y0066850D03*
X0086624Y0066850D03*
X0083474Y0066850D03*
X0080325Y0066850D03*
X0077175Y0066850D03*
X0074026Y0066850D03*
X0070876Y0066850D03*
X0067726Y0066850D03*
X0169726Y0066850D03*
X0172876Y0066850D03*
X0176026Y0066850D03*
X0179175Y0066850D03*
X0182325Y0066850D03*
X0185474Y0066850D03*
X0188624Y0066850D03*
X0191774Y0066850D03*
X0191774Y0100650D03*
X0188624Y0100650D03*
X0185474Y0100650D03*
X0182325Y0100650D03*
X0179175Y0100650D03*
X0176026Y0100650D03*
X0172876Y0100650D03*
X0169726Y0100650D03*
X0271726Y0100650D03*
X0274876Y0100650D03*
X0278026Y0100650D03*
X0281175Y0100650D03*
X0284325Y0100650D03*
X0287474Y0100650D03*
X0290624Y0100650D03*
X0293774Y0100650D03*
X0293774Y0066850D03*
X0290624Y0066850D03*
X0287474Y0066850D03*
X0284325Y0066850D03*
X0281175Y0066850D03*
X0278026Y0066850D03*
X0274876Y0066850D03*
X0271726Y0066850D03*
X0373726Y0066850D03*
X0376876Y0066850D03*
X0380026Y0066850D03*
X0383175Y0066850D03*
X0386325Y0066850D03*
X0389474Y0066850D03*
X0392624Y0066850D03*
X0395774Y0066850D03*
X0395774Y0100650D03*
X0392624Y0100650D03*
X0389474Y0100650D03*
X0386325Y0100650D03*
X0383175Y0100650D03*
X0380026Y0100650D03*
X0376876Y0100650D03*
X0373726Y0100650D03*
X0475726Y0100650D03*
X0478876Y0100650D03*
X0482026Y0100650D03*
X0485175Y0100650D03*
X0488325Y0100650D03*
X0491474Y0100650D03*
X0494624Y0100650D03*
X0497774Y0100650D03*
X0497774Y0066850D03*
X0494624Y0066850D03*
X0491474Y0066850D03*
X0488325Y0066850D03*
X0485175Y0066850D03*
X0482026Y0066850D03*
X0478876Y0066850D03*
X0475726Y0066850D03*
X0577726Y0066850D03*
X0580876Y0066850D03*
X0584026Y0066850D03*
X0587175Y0066850D03*
X0590325Y0066850D03*
X0593474Y0066850D03*
X0596624Y0066850D03*
X0599774Y0066850D03*
X0599774Y0100650D03*
X0596624Y0100650D03*
X0593474Y0100650D03*
X0590325Y0100650D03*
X0587175Y0100650D03*
X0584026Y0100650D03*
X0580876Y0100650D03*
X0577726Y0100650D03*
X0679726Y0100650D03*
X0682876Y0100650D03*
X0686026Y0100650D03*
X0689175Y0100650D03*
X0692325Y0100650D03*
X0695474Y0100650D03*
X0698624Y0100650D03*
X0701774Y0100650D03*
X0701774Y0066850D03*
X0698624Y0066850D03*
X0695474Y0066850D03*
X0692325Y0066850D03*
X0689175Y0066850D03*
X0686026Y0066850D03*
X0682876Y0066850D03*
X0679726Y0066850D03*
X0679726Y0173850D03*
X0682876Y0173850D03*
X0686026Y0173850D03*
X0689175Y0173850D03*
X0692325Y0173850D03*
X0695474Y0173850D03*
X0698624Y0173850D03*
X0701774Y0173850D03*
X0701774Y0207650D03*
X0698624Y0207650D03*
X0695474Y0207650D03*
X0692325Y0207650D03*
X0689175Y0207650D03*
X0686026Y0207650D03*
X0682876Y0207650D03*
X0679726Y0207650D03*
X0599774Y0207650D03*
X0596624Y0207650D03*
X0593474Y0207650D03*
X0590325Y0207650D03*
X0587175Y0207650D03*
X0584026Y0207650D03*
X0580876Y0207650D03*
X0577726Y0207650D03*
X0577726Y0173850D03*
X0580876Y0173850D03*
X0584026Y0173850D03*
X0587175Y0173850D03*
X0590325Y0173850D03*
X0593474Y0173850D03*
X0596624Y0173850D03*
X0599774Y0173850D03*
X0497774Y0173850D03*
X0494624Y0173850D03*
X0491474Y0173850D03*
X0488325Y0173850D03*
X0485175Y0173850D03*
X0482026Y0173850D03*
X0478876Y0173850D03*
X0475726Y0173850D03*
X0475726Y0207650D03*
X0478876Y0207650D03*
X0482026Y0207650D03*
X0485175Y0207650D03*
X0488325Y0207650D03*
X0491474Y0207650D03*
X0494624Y0207650D03*
X0497774Y0207650D03*
X0395774Y0207650D03*
X0392624Y0207650D03*
X0389474Y0207650D03*
X0386325Y0207650D03*
X0383175Y0207650D03*
X0380026Y0207650D03*
X0376876Y0207650D03*
X0373726Y0207650D03*
X0373726Y0173850D03*
X0376876Y0173850D03*
X0380026Y0173850D03*
X0383175Y0173850D03*
X0386325Y0173850D03*
X0389474Y0173850D03*
X0392624Y0173850D03*
X0395774Y0173850D03*
X0293774Y0173850D03*
X0290624Y0173850D03*
X0287474Y0173850D03*
X0284325Y0173850D03*
X0281175Y0173850D03*
X0278026Y0173850D03*
X0274876Y0173850D03*
X0271726Y0173850D03*
X0271726Y0207650D03*
X0274876Y0207650D03*
X0278026Y0207650D03*
X0281175Y0207650D03*
X0284325Y0207650D03*
X0287474Y0207650D03*
X0290624Y0207650D03*
X0293774Y0207650D03*
X0191774Y0207650D03*
X0188624Y0207650D03*
X0185474Y0207650D03*
X0182325Y0207650D03*
X0179175Y0207650D03*
X0176026Y0207650D03*
X0172876Y0207650D03*
X0169726Y0207650D03*
X0169726Y0173850D03*
X0172876Y0173850D03*
X0176026Y0173850D03*
X0179175Y0173850D03*
X0182325Y0173850D03*
X0185474Y0173850D03*
X0188624Y0173850D03*
X0191774Y0173850D03*
X0089774Y0173850D03*
X0086624Y0173850D03*
X0083474Y0173850D03*
X0080325Y0173850D03*
X0077175Y0173850D03*
X0074026Y0173850D03*
X0070876Y0173850D03*
X0067726Y0173850D03*
X0067726Y0207650D03*
X0070876Y0207650D03*
X0074026Y0207650D03*
X0077175Y0207650D03*
X0080325Y0207650D03*
X0083474Y0207650D03*
X0086624Y0207650D03*
X0089774Y0207650D03*
X0089774Y0280850D03*
X0086624Y0280850D03*
X0083474Y0280850D03*
X0080325Y0280850D03*
X0077175Y0280850D03*
X0074026Y0280850D03*
X0070876Y0280850D03*
X0067726Y0280850D03*
X0067726Y0314650D03*
X0070876Y0314650D03*
X0074026Y0314650D03*
X0077175Y0314650D03*
X0080325Y0314650D03*
X0083474Y0314650D03*
X0086624Y0314650D03*
X0089774Y0314650D03*
X0169726Y0314650D03*
X0172876Y0314650D03*
X0176026Y0314650D03*
X0179175Y0314650D03*
X0182325Y0314650D03*
X0185474Y0314650D03*
X0188624Y0314650D03*
X0191774Y0314650D03*
X0191774Y0280850D03*
X0188624Y0280850D03*
X0185474Y0280850D03*
X0182325Y0280850D03*
X0179175Y0280850D03*
X0176026Y0280850D03*
X0172876Y0280850D03*
X0169726Y0280850D03*
X0271726Y0280850D03*
X0274876Y0280850D03*
X0278026Y0280850D03*
X0281175Y0280850D03*
X0284325Y0280850D03*
X0287474Y0280850D03*
X0290624Y0280850D03*
X0293774Y0280850D03*
X0293774Y0314650D03*
X0290624Y0314650D03*
X0287474Y0314650D03*
X0284325Y0314650D03*
X0281175Y0314650D03*
X0278026Y0314650D03*
X0274876Y0314650D03*
X0271726Y0314650D03*
X0373726Y0314650D03*
X0376876Y0314650D03*
X0380026Y0314650D03*
X0383175Y0314650D03*
X0386325Y0314650D03*
X0389474Y0314650D03*
X0392624Y0314650D03*
X0395774Y0314650D03*
X0395774Y0280850D03*
X0392624Y0280850D03*
X0389474Y0280850D03*
X0386325Y0280850D03*
X0383175Y0280850D03*
X0380026Y0280850D03*
X0376876Y0280850D03*
X0373726Y0280850D03*
X0475726Y0280850D03*
X0478876Y0280850D03*
X0482026Y0280850D03*
X0485175Y0280850D03*
X0488325Y0280850D03*
X0491474Y0280850D03*
X0494624Y0280850D03*
X0497774Y0280850D03*
X0497774Y0314650D03*
X0494624Y0314650D03*
X0491474Y0314650D03*
X0488325Y0314650D03*
X0485175Y0314650D03*
X0482026Y0314650D03*
X0478876Y0314650D03*
X0475726Y0314650D03*
X0577726Y0314650D03*
X0580876Y0314650D03*
X0584026Y0314650D03*
X0587175Y0314650D03*
X0590325Y0314650D03*
X0593474Y0314650D03*
X0596624Y0314650D03*
X0599774Y0314650D03*
X0599774Y0280850D03*
X0596624Y0280850D03*
X0593474Y0280850D03*
X0590325Y0280850D03*
X0587175Y0280850D03*
X0584026Y0280850D03*
X0580876Y0280850D03*
X0577726Y0280850D03*
X0679726Y0280850D03*
X0682876Y0280850D03*
X0686026Y0280850D03*
X0689175Y0280850D03*
X0692325Y0280850D03*
X0695474Y0280850D03*
X0698624Y0280850D03*
X0701774Y0280850D03*
X0701774Y0314650D03*
X0698624Y0314650D03*
X0695474Y0314650D03*
X0692325Y0314650D03*
X0689175Y0314650D03*
X0686026Y0314650D03*
X0682876Y0314650D03*
X0679726Y0314650D03*
X0679726Y0387850D03*
X0682876Y0387850D03*
X0686026Y0387850D03*
X0689175Y0387850D03*
X0692325Y0387850D03*
X0695474Y0387850D03*
X0698624Y0387850D03*
X0701774Y0387850D03*
X0701774Y0421650D03*
X0698624Y0421650D03*
X0695474Y0421650D03*
X0692325Y0421650D03*
X0689175Y0421650D03*
X0686026Y0421650D03*
X0682876Y0421650D03*
X0679726Y0421650D03*
X0599774Y0421650D03*
X0596624Y0421650D03*
X0593474Y0421650D03*
X0590325Y0421650D03*
X0587175Y0421650D03*
X0584026Y0421650D03*
X0580876Y0421650D03*
X0577726Y0421650D03*
X0577726Y0387850D03*
X0580876Y0387850D03*
X0584026Y0387850D03*
X0587175Y0387850D03*
X0590325Y0387850D03*
X0593474Y0387850D03*
X0596624Y0387850D03*
X0599774Y0387850D03*
X0497774Y0387850D03*
X0494624Y0387850D03*
X0491474Y0387850D03*
X0488325Y0387850D03*
X0485175Y0387850D03*
X0482026Y0387850D03*
X0478876Y0387850D03*
X0475726Y0387850D03*
X0475726Y0421650D03*
X0478876Y0421650D03*
X0482026Y0421650D03*
X0485175Y0421650D03*
X0488325Y0421650D03*
X0491474Y0421650D03*
X0494624Y0421650D03*
X0497774Y0421650D03*
X0395774Y0421650D03*
X0392624Y0421650D03*
X0389474Y0421650D03*
X0386325Y0421650D03*
X0383175Y0421650D03*
X0380026Y0421650D03*
X0376876Y0421650D03*
X0373726Y0421650D03*
X0373726Y0387850D03*
X0376876Y0387850D03*
X0380026Y0387850D03*
X0383175Y0387850D03*
X0386325Y0387850D03*
X0389474Y0387850D03*
X0392624Y0387850D03*
X0395774Y0387850D03*
X0293774Y0387850D03*
X0290624Y0387850D03*
X0287474Y0387850D03*
X0284325Y0387850D03*
X0281175Y0387850D03*
X0278026Y0387850D03*
X0274876Y0387850D03*
X0271726Y0387850D03*
X0271726Y0421650D03*
X0274876Y0421650D03*
X0278026Y0421650D03*
X0281175Y0421650D03*
X0284325Y0421650D03*
X0287474Y0421650D03*
X0290624Y0421650D03*
X0293774Y0421650D03*
X0191774Y0421650D03*
X0188624Y0421650D03*
X0185474Y0421650D03*
X0182325Y0421650D03*
X0179175Y0421650D03*
X0176026Y0421650D03*
X0172876Y0421650D03*
X0169726Y0421650D03*
X0169726Y0387850D03*
X0172876Y0387850D03*
X0176026Y0387850D03*
X0179175Y0387850D03*
X0182325Y0387850D03*
X0185474Y0387850D03*
X0188624Y0387850D03*
X0191774Y0387850D03*
X0089774Y0387850D03*
X0086624Y0387850D03*
X0083474Y0387850D03*
X0080325Y0387850D03*
X0077175Y0387850D03*
X0074026Y0387850D03*
X0070876Y0387850D03*
X0067726Y0387850D03*
X0067726Y0421650D03*
X0070876Y0421650D03*
X0074026Y0421650D03*
X0077175Y0421650D03*
X0080325Y0421650D03*
X0083474Y0421650D03*
X0086624Y0421650D03*
X0089774Y0421650D03*
M02*
