%
M48
M72
T01C0.0150
T02C0.0200
T03C0.0400
T04C0.1300
%
T01
X5875Y4375
X5925Y6425
X5225Y6875
X4875Y6375
X3875Y6375
X4375Y8375
X3875Y8875
X5675Y9475
X6875Y8375
X7375Y8375
X7875Y8375
X8375Y7875
X8775Y7875
X8375Y9175
X7025Y9525
X8275Y11375
X7875Y14575
X5875Y15075
X5925Y17125
X5225Y17575
X4875Y17075
X3875Y17075
X4375Y19075
X3875Y19575
X5675Y20175
X7025Y20225
X6875Y19075
X7375Y19075
X7875Y19075
X8375Y18575
X8775Y18575
X8375Y19875
X8275Y22075
X7875Y25275
X5875Y25775
X5925Y27825
X5225Y28275
X4875Y27775
X3875Y27775
X4375Y29775
X3875Y30275
X5675Y30875
X7025Y30925
X6875Y29775
X7375Y29775
X7875Y29775
X8375Y29275
X8775Y29275
X8375Y30575
X8275Y32775
X11875Y30275
X11875Y29775
X11875Y29275
X11875Y28025
X14075Y27775
X15075Y27775
X15425Y28275
X16125Y27825
X16075Y25775
X18075Y25275
X18475Y22075
X17225Y20225
X17075Y19075
X17575Y19075
X18075Y19075
X18575Y18575
X18975Y18575
X18575Y19875
X15875Y20175
X14575Y19075
X14075Y19575
X11875Y19575
X11875Y19075
X11875Y18575
X11875Y17325
X14075Y17075
X15075Y17075
X15425Y17575
X16125Y17125
X16075Y15075
X18075Y14575
X18475Y11375
X18575Y9175
X18075Y8375
X17575Y8375
X17075Y8375
X17225Y9525
X15875Y9475
X14575Y8375
X14075Y8875
X11875Y8875
X11875Y8375
X11875Y7875
X11875Y6625
X14075Y6375
X15075Y6375
X15425Y6875
X16125Y6425
X16075Y4375
X18075Y3875
X18575Y7875
X18975Y7875
X22075Y7875
X22075Y8375
X22075Y8875
X24275Y8875
X24775Y8375
X26075Y9475
X27425Y9525
X27275Y8375
X27775Y8375
X28275Y8375
X28775Y7875
X29175Y7875
X28775Y9175
X28675Y11375
X28275Y14575
X26275Y15075
X26325Y17125
X25625Y17575
X25275Y17075
X24275Y17075
X24775Y19075
X24275Y19575
X26075Y20175
X27425Y20225
X27275Y19075
X27775Y19075
X28275Y19075
X28775Y18575
X29175Y18575
X28775Y19875
X28675Y22075
X28275Y25275
X26275Y25775
X26325Y27825
X25625Y28275
X25275Y27775
X24275Y27775
X24775Y29775
X24275Y30275
X26075Y30875
X27425Y30925
X27275Y29775
X27775Y29775
X28275Y29775
X28775Y29275
X29175Y29275
X28775Y30575
X28675Y32775
X32275Y30275
X32275Y29775
X32275Y29275
X32275Y28025
X32275Y19575
X32275Y19075
X32275Y18575
X32275Y17325
X32275Y8875
X32275Y8375
X32275Y7875
X32275Y6625
X28275Y3875
X26275Y4375
X26325Y6425
X25625Y6875
X25275Y6375
X24275Y6375
X22075Y6625
X22075Y17325
X22075Y18575
X22075Y19075
X22075Y19575
X22075Y28025
X22075Y29275
X22075Y29775
X22075Y30275
X18975Y29275
X18575Y29275
X18075Y29775
X17575Y29775
X17075Y29775
X17225Y30925
X15875Y30875
X14575Y29775
X14075Y30275
X18575Y30575
X18475Y32775
X7875Y3875
T02
X7875Y12075
X7875Y13075
X8875Y13075
X8875Y12075
X6875Y12075
X6875Y13075
X6875Y22775
X6875Y23775
X7875Y23775
X8875Y23775
X8875Y22775
X7875Y22775
X17075Y22775
X18075Y22775
X19075Y22775
X19075Y23775
X18075Y23775
X17075Y23775
X17075Y33475
X17075Y34475
X18075Y34475
X18075Y33475
X19075Y33475
X19075Y34475
X27275Y34475
X27275Y33475
X28275Y33475
X28275Y34475
X29275Y34475
X29275Y33475
X29275Y23775
X29275Y22775
X28275Y22775
X27275Y22775
X27275Y23775
X28275Y23775
X28275Y13075
X28275Y12075
X27275Y12075
X27275Y13075
X29275Y13075
X29275Y12075
X19075Y12075
X19075Y13075
X18075Y13075
X18075Y12075
X17075Y12075
X17075Y13075
X8875Y33475
X8875Y34475
X7875Y34475
X7875Y33475
X6875Y33475
X6875Y34475
T03
X5375Y5375
X6375Y5375
X7375Y5375
X8375Y5375
X9375Y5375
X10375Y5375
X9375Y3375
X8375Y3375
X7375Y3375
X6375Y3375
X15575Y5375
X16575Y5375
X17575Y5375
X18575Y5375
X19575Y5375
X20575Y5375
X19575Y3375
X18575Y3375
X17575Y3375
X16575Y3375
X25775Y5375
X26775Y5375
X27775Y5375
X28775Y5375
X29775Y5375
X30775Y5375
X29775Y3375
X28775Y3375
X27775Y3375
X26775Y3375
X26775Y14075
X27775Y14075
X28775Y14075
X29775Y14075
X29775Y16075
X28775Y16075
X27775Y16075
X26775Y16075
X25775Y16075
X30775Y16075
X29775Y24775
X28775Y24775
X27775Y24775
X26775Y24775
X26775Y26775
X25775Y26775
X27775Y26775
X28775Y26775
X29775Y26775
X30775Y26775
X20575Y26775
X19575Y26775
X18575Y26775
X17575Y26775
X16575Y26775
X15575Y26775
X16575Y24775
X17575Y24775
X18575Y24775
X19575Y24775
X19575Y16075
X18575Y16075
X17575Y16075
X16575Y16075
X15575Y16075
X16575Y14075
X17575Y14075
X18575Y14075
X19575Y14075
X20575Y16075
X10375Y16075
X9375Y16075
X8375Y16075
X7375Y16075
X6375Y16075
X5375Y16075
X6375Y14075
X7375Y14075
X8375Y14075
X9375Y14075
X9375Y24775
X8375Y24775
X7375Y24775
X6375Y24775
X6375Y26775
X5375Y26775
X7375Y26775
X8375Y26775
X9375Y26775
X10375Y26775
T04
X11875Y23075
X14075Y23075
X22075Y23075
X24275Y23075
X32275Y23075
X32275Y12375
X24275Y12375
X22075Y12375
X14075Y12375
X11875Y12375
X3875Y12375
X3875Y23075
X3875Y33775
X11875Y33775
X14075Y33775
X22075Y33775
X24275Y33775
X32275Y33775
M30
