G75*
%MOIN*%
%OFA0B0*%
%FSLAX25Y25*%
%IPPOS*%
%LPD*%
%AMOC8*
5,1,8,0,0,1.08239X$1,22.5*
%
%ADD10C,0.03300*%
%ADD11C,0.08200*%
%ADD12R,0.05800X0.03300*%
%ADD13C,0.13800*%
%ADD14R,0.05131X0.04737*%
%ADD15R,0.07887X0.06312*%
%ADD16R,0.06312X0.08280*%
%ADD17R,0.03950X0.06706*%
%ADD18C,0.04737*%
%ADD19C,0.05000*%
%ADD20C,0.06706*%
D10*
X0126250Y0031250D03*
X0228250Y0031250D03*
X0330250Y0031250D03*
X0432250Y0031250D03*
X0534250Y0031250D03*
X0636250Y0031250D03*
X0738250Y0031250D03*
X0643250Y0131250D03*
X0636250Y0138250D03*
X0541250Y0131250D03*
X0534250Y0138250D03*
X0439250Y0131250D03*
X0432250Y0138250D03*
X0337250Y0131250D03*
X0330250Y0138250D03*
X0235250Y0131250D03*
X0228250Y0138250D03*
X0133250Y0131250D03*
X0126250Y0138250D03*
X0031250Y0131250D03*
X0031250Y0238250D03*
X0126250Y0245250D03*
X0133250Y0238250D03*
X0228250Y0245250D03*
X0235250Y0238250D03*
X0330250Y0245250D03*
X0337250Y0238250D03*
X0432250Y0245250D03*
X0439250Y0238250D03*
X0534250Y0245250D03*
X0541250Y0238250D03*
X0636250Y0245250D03*
X0643250Y0238250D03*
X0738250Y0245250D03*
X0643250Y0345250D03*
X0636250Y0352250D03*
X0541250Y0345250D03*
X0534250Y0352250D03*
X0439250Y0345250D03*
X0432250Y0352250D03*
X0337250Y0345250D03*
X0330250Y0352250D03*
X0235250Y0345250D03*
X0228250Y0352250D03*
X0133250Y0345250D03*
X0126250Y0352250D03*
X0031250Y0345250D03*
X0031250Y0452250D03*
X0133250Y0452250D03*
X0235250Y0452250D03*
X0337250Y0452250D03*
X0439250Y0452250D03*
X0541250Y0452250D03*
X0643250Y0452250D03*
X0738250Y0352250D03*
X0738250Y0138250D03*
D11*
X0715750Y0160750D03*
X0705750Y0160750D03*
X0695750Y0160750D03*
X0685750Y0160750D03*
X0675750Y0160750D03*
X0665750Y0160750D03*
X0675750Y0140750D03*
X0685750Y0140750D03*
X0695750Y0140750D03*
X0705750Y0140750D03*
X0613750Y0160750D03*
X0603750Y0160750D03*
X0593750Y0160750D03*
X0583750Y0160750D03*
X0573750Y0160750D03*
X0563750Y0160750D03*
X0573750Y0140750D03*
X0583750Y0140750D03*
X0593750Y0140750D03*
X0603750Y0140750D03*
X0511750Y0160750D03*
X0501750Y0160750D03*
X0491750Y0160750D03*
X0481750Y0160750D03*
X0471750Y0160750D03*
X0461750Y0160750D03*
X0471750Y0140750D03*
X0481750Y0140750D03*
X0491750Y0140750D03*
X0501750Y0140750D03*
X0409750Y0160750D03*
X0399750Y0160750D03*
X0389750Y0160750D03*
X0379750Y0160750D03*
X0369750Y0160750D03*
X0359750Y0160750D03*
X0369750Y0140750D03*
X0379750Y0140750D03*
X0389750Y0140750D03*
X0399750Y0140750D03*
X0307750Y0160750D03*
X0297750Y0160750D03*
X0287750Y0160750D03*
X0277750Y0160750D03*
X0267750Y0160750D03*
X0257750Y0160750D03*
X0267750Y0140750D03*
X0277750Y0140750D03*
X0287750Y0140750D03*
X0297750Y0140750D03*
X0205750Y0160750D03*
X0195750Y0160750D03*
X0185750Y0160750D03*
X0175750Y0160750D03*
X0165750Y0160750D03*
X0155750Y0160750D03*
X0165750Y0140750D03*
X0175750Y0140750D03*
X0185750Y0140750D03*
X0195750Y0140750D03*
X0103750Y0160750D03*
X0093750Y0160750D03*
X0083750Y0160750D03*
X0073750Y0160750D03*
X0063750Y0160750D03*
X0053750Y0160750D03*
X0063750Y0140750D03*
X0073750Y0140750D03*
X0083750Y0140750D03*
X0093750Y0140750D03*
X0093750Y0053750D03*
X0103750Y0053750D03*
X0083750Y0053750D03*
X0073750Y0053750D03*
X0063750Y0053750D03*
X0053750Y0053750D03*
X0063750Y0033750D03*
X0073750Y0033750D03*
X0083750Y0033750D03*
X0093750Y0033750D03*
X0155750Y0053750D03*
X0165750Y0053750D03*
X0175750Y0053750D03*
X0185750Y0053750D03*
X0195750Y0053750D03*
X0205750Y0053750D03*
X0195750Y0033750D03*
X0185750Y0033750D03*
X0175750Y0033750D03*
X0165750Y0033750D03*
X0257750Y0053750D03*
X0267750Y0053750D03*
X0277750Y0053750D03*
X0287750Y0053750D03*
X0297750Y0053750D03*
X0307750Y0053750D03*
X0297750Y0033750D03*
X0287750Y0033750D03*
X0277750Y0033750D03*
X0267750Y0033750D03*
X0359750Y0053750D03*
X0369750Y0053750D03*
X0379750Y0053750D03*
X0389750Y0053750D03*
X0399750Y0053750D03*
X0409750Y0053750D03*
X0399750Y0033750D03*
X0389750Y0033750D03*
X0379750Y0033750D03*
X0369750Y0033750D03*
X0461750Y0053750D03*
X0471750Y0053750D03*
X0481750Y0053750D03*
X0491750Y0053750D03*
X0501750Y0053750D03*
X0511750Y0053750D03*
X0501750Y0033750D03*
X0491750Y0033750D03*
X0481750Y0033750D03*
X0471750Y0033750D03*
X0563750Y0053750D03*
X0573750Y0053750D03*
X0583750Y0053750D03*
X0593750Y0053750D03*
X0603750Y0053750D03*
X0613750Y0053750D03*
X0603750Y0033750D03*
X0593750Y0033750D03*
X0583750Y0033750D03*
X0573750Y0033750D03*
X0665750Y0053750D03*
X0675750Y0053750D03*
X0685750Y0053750D03*
X0695750Y0053750D03*
X0705750Y0053750D03*
X0715750Y0053750D03*
X0705750Y0033750D03*
X0695750Y0033750D03*
X0685750Y0033750D03*
X0675750Y0033750D03*
X0675750Y0247750D03*
X0685750Y0247750D03*
X0695750Y0247750D03*
X0705750Y0247750D03*
X0705750Y0267750D03*
X0695750Y0267750D03*
X0685750Y0267750D03*
X0675750Y0267750D03*
X0665750Y0267750D03*
X0715750Y0267750D03*
X0613750Y0267750D03*
X0603750Y0267750D03*
X0593750Y0267750D03*
X0583750Y0267750D03*
X0573750Y0267750D03*
X0563750Y0267750D03*
X0573750Y0247750D03*
X0583750Y0247750D03*
X0593750Y0247750D03*
X0603750Y0247750D03*
X0511750Y0267750D03*
X0501750Y0267750D03*
X0491750Y0267750D03*
X0481750Y0267750D03*
X0471750Y0267750D03*
X0461750Y0267750D03*
X0471750Y0247750D03*
X0481750Y0247750D03*
X0491750Y0247750D03*
X0501750Y0247750D03*
X0409750Y0267750D03*
X0399750Y0267750D03*
X0389750Y0267750D03*
X0379750Y0267750D03*
X0369750Y0267750D03*
X0359750Y0267750D03*
X0369750Y0247750D03*
X0379750Y0247750D03*
X0389750Y0247750D03*
X0399750Y0247750D03*
X0307750Y0267750D03*
X0297750Y0267750D03*
X0287750Y0267750D03*
X0277750Y0267750D03*
X0267750Y0267750D03*
X0257750Y0267750D03*
X0267750Y0247750D03*
X0277750Y0247750D03*
X0287750Y0247750D03*
X0297750Y0247750D03*
X0205750Y0267750D03*
X0195750Y0267750D03*
X0185750Y0267750D03*
X0175750Y0267750D03*
X0165750Y0267750D03*
X0155750Y0267750D03*
X0165750Y0247750D03*
X0175750Y0247750D03*
X0185750Y0247750D03*
X0195750Y0247750D03*
X0103750Y0267750D03*
X0093750Y0267750D03*
X0083750Y0267750D03*
X0073750Y0267750D03*
X0063750Y0267750D03*
X0053750Y0267750D03*
X0063750Y0247750D03*
X0073750Y0247750D03*
X0083750Y0247750D03*
X0093750Y0247750D03*
X0093750Y0354750D03*
X0083750Y0354750D03*
X0073750Y0354750D03*
X0063750Y0354750D03*
X0063750Y0374750D03*
X0053750Y0374750D03*
X0073750Y0374750D03*
X0083750Y0374750D03*
X0093750Y0374750D03*
X0103750Y0374750D03*
X0155750Y0374750D03*
X0165750Y0374750D03*
X0175750Y0374750D03*
X0185750Y0374750D03*
X0195750Y0374750D03*
X0205750Y0374750D03*
X0195750Y0354750D03*
X0185750Y0354750D03*
X0175750Y0354750D03*
X0165750Y0354750D03*
X0257750Y0374750D03*
X0267750Y0374750D03*
X0277750Y0374750D03*
X0287750Y0374750D03*
X0297750Y0374750D03*
X0307750Y0374750D03*
X0297750Y0354750D03*
X0287750Y0354750D03*
X0277750Y0354750D03*
X0267750Y0354750D03*
X0359750Y0374750D03*
X0369750Y0374750D03*
X0379750Y0374750D03*
X0389750Y0374750D03*
X0399750Y0374750D03*
X0409750Y0374750D03*
X0399750Y0354750D03*
X0389750Y0354750D03*
X0379750Y0354750D03*
X0369750Y0354750D03*
X0461750Y0374750D03*
X0471750Y0374750D03*
X0481750Y0374750D03*
X0491750Y0374750D03*
X0501750Y0374750D03*
X0511750Y0374750D03*
X0501750Y0354750D03*
X0491750Y0354750D03*
X0481750Y0354750D03*
X0471750Y0354750D03*
X0563750Y0374750D03*
X0573750Y0374750D03*
X0583750Y0374750D03*
X0593750Y0374750D03*
X0603750Y0374750D03*
X0613750Y0374750D03*
X0603750Y0354750D03*
X0593750Y0354750D03*
X0583750Y0354750D03*
X0573750Y0354750D03*
X0665750Y0374750D03*
X0675750Y0374750D03*
X0685750Y0374750D03*
X0695750Y0374750D03*
X0705750Y0374750D03*
X0715750Y0374750D03*
X0705750Y0354750D03*
X0695750Y0354750D03*
X0685750Y0354750D03*
X0675750Y0354750D03*
D12*
X0628750Y0372978D03*
X0628750Y0376522D03*
X0526750Y0376522D03*
X0526750Y0372978D03*
X0424750Y0372978D03*
X0424750Y0376522D03*
X0322750Y0376522D03*
X0322750Y0372978D03*
X0220750Y0372978D03*
X0220750Y0376522D03*
X0118750Y0376522D03*
X0118750Y0372978D03*
X0118750Y0269522D03*
X0118750Y0265978D03*
X0220750Y0265978D03*
X0220750Y0269522D03*
X0322750Y0269522D03*
X0322750Y0265978D03*
X0424750Y0265978D03*
X0424750Y0269522D03*
X0526750Y0269522D03*
X0526750Y0265978D03*
X0628750Y0265978D03*
X0628750Y0269522D03*
X0730750Y0269522D03*
X0730750Y0265978D03*
X0730750Y0162522D03*
X0730750Y0158978D03*
X0628750Y0158978D03*
X0628750Y0162522D03*
X0526750Y0162522D03*
X0526750Y0158978D03*
X0424750Y0158978D03*
X0424750Y0162522D03*
X0322750Y0162522D03*
X0322750Y0158978D03*
X0220750Y0158978D03*
X0220750Y0162522D03*
X0118750Y0162522D03*
X0118750Y0158978D03*
X0118750Y0055522D03*
X0118750Y0051978D03*
X0220750Y0051978D03*
X0220750Y0055522D03*
X0322750Y0055522D03*
X0322750Y0051978D03*
X0424750Y0051978D03*
X0424750Y0055522D03*
X0526750Y0055522D03*
X0526750Y0051978D03*
X0628750Y0051978D03*
X0628750Y0055522D03*
X0730750Y0055522D03*
X0730750Y0051978D03*
X0730750Y0372978D03*
X0730750Y0376522D03*
D13*
X0730750Y0337750D03*
X0650750Y0337750D03*
X0628750Y0337750D03*
X0548750Y0337750D03*
X0526750Y0337750D03*
X0446750Y0337750D03*
X0424750Y0337750D03*
X0344750Y0337750D03*
X0322750Y0337750D03*
X0242750Y0337750D03*
X0220750Y0337750D03*
X0140750Y0337750D03*
X0118750Y0337750D03*
X0038750Y0337750D03*
X0038750Y0230750D03*
X0118750Y0230750D03*
X0140750Y0230750D03*
X0220750Y0230750D03*
X0242750Y0230750D03*
X0322750Y0230750D03*
X0344750Y0230750D03*
X0424750Y0230750D03*
X0446750Y0230750D03*
X0526750Y0230750D03*
X0548750Y0230750D03*
X0628750Y0230750D03*
X0650750Y0230750D03*
X0730750Y0230750D03*
X0730750Y0123750D03*
X0650750Y0123750D03*
X0628750Y0123750D03*
X0548750Y0123750D03*
X0526750Y0123750D03*
X0446750Y0123750D03*
X0424750Y0123750D03*
X0344750Y0123750D03*
X0322750Y0123750D03*
X0242750Y0123750D03*
X0220750Y0123750D03*
X0140750Y0123750D03*
X0118750Y0123750D03*
X0038750Y0123750D03*
X0038750Y0444750D03*
X0118750Y0444750D03*
X0140750Y0444750D03*
X0220750Y0444750D03*
X0242750Y0444750D03*
X0322750Y0444750D03*
X0344750Y0444750D03*
X0424750Y0444750D03*
X0446750Y0444750D03*
X0526750Y0444750D03*
X0548750Y0444750D03*
X0628750Y0444750D03*
X0650750Y0444750D03*
X0730750Y0444750D03*
D14*
X0654096Y0429750D03*
X0647404Y0429750D03*
X0552096Y0429750D03*
X0545404Y0429750D03*
X0450096Y0429750D03*
X0443404Y0429750D03*
X0348096Y0429750D03*
X0341404Y0429750D03*
X0246096Y0429750D03*
X0239404Y0429750D03*
X0144096Y0429750D03*
X0137404Y0429750D03*
X0042096Y0429750D03*
X0035404Y0429750D03*
X0035404Y0322750D03*
X0042096Y0322750D03*
X0137404Y0322750D03*
X0144096Y0322750D03*
X0239404Y0322750D03*
X0246096Y0322750D03*
X0341404Y0322750D03*
X0348096Y0322750D03*
X0443404Y0322750D03*
X0450096Y0322750D03*
X0545404Y0322750D03*
X0552096Y0322750D03*
X0647404Y0322750D03*
X0654096Y0322750D03*
X0654096Y0215750D03*
X0647404Y0215750D03*
X0552096Y0215750D03*
X0545404Y0215750D03*
X0450096Y0215750D03*
X0443404Y0215750D03*
X0348096Y0215750D03*
X0341404Y0215750D03*
X0246096Y0215750D03*
X0239404Y0215750D03*
X0144096Y0215750D03*
X0137404Y0215750D03*
X0042096Y0215750D03*
X0035404Y0215750D03*
X0035404Y0108750D03*
X0042096Y0108750D03*
X0137404Y0108750D03*
X0144096Y0108750D03*
X0239404Y0108750D03*
X0246096Y0108750D03*
X0341404Y0108750D03*
X0348096Y0108750D03*
X0443404Y0108750D03*
X0450096Y0108750D03*
X0545404Y0108750D03*
X0552096Y0108750D03*
X0647404Y0108750D03*
X0654096Y0108750D03*
D15*
X0671321Y0069325D03*
X0693762Y0069325D03*
X0591762Y0069325D03*
X0569321Y0069325D03*
X0489762Y0069325D03*
X0467321Y0069325D03*
X0387762Y0069325D03*
X0365321Y0069325D03*
X0285762Y0069325D03*
X0263321Y0069325D03*
X0183762Y0069325D03*
X0161321Y0069325D03*
X0081762Y0069325D03*
X0059321Y0069325D03*
X0059321Y0176325D03*
X0081762Y0176325D03*
X0161321Y0176325D03*
X0183762Y0176325D03*
X0263321Y0176325D03*
X0285762Y0176325D03*
X0365321Y0176325D03*
X0387762Y0176325D03*
X0467321Y0176325D03*
X0489762Y0176325D03*
X0569321Y0176325D03*
X0591762Y0176325D03*
X0671321Y0176325D03*
X0693762Y0176325D03*
X0693762Y0283325D03*
X0671321Y0283325D03*
X0591762Y0283325D03*
X0569321Y0283325D03*
X0489762Y0283325D03*
X0467321Y0283325D03*
X0387762Y0283325D03*
X0365321Y0283325D03*
X0285762Y0283325D03*
X0263321Y0283325D03*
X0183762Y0283325D03*
X0161321Y0283325D03*
X0081762Y0283325D03*
X0059321Y0283325D03*
X0059321Y0390325D03*
X0081762Y0390325D03*
X0161321Y0390325D03*
X0183762Y0390325D03*
X0263321Y0390325D03*
X0285762Y0390325D03*
X0365321Y0390325D03*
X0387762Y0390325D03*
X0467321Y0390325D03*
X0489762Y0390325D03*
X0569321Y0390325D03*
X0591762Y0390325D03*
X0671321Y0390325D03*
X0693762Y0390325D03*
D16*
X0716793Y0339033D03*
X0665022Y0335096D03*
X0614793Y0339033D03*
X0563022Y0335096D03*
X0512793Y0339033D03*
X0461022Y0335096D03*
X0410793Y0339033D03*
X0359022Y0335096D03*
X0308793Y0339033D03*
X0257022Y0335096D03*
X0206793Y0339033D03*
X0155022Y0335096D03*
X0104793Y0339033D03*
X0053022Y0335096D03*
X0053022Y0442096D03*
X0104793Y0446033D03*
X0155022Y0442096D03*
X0206793Y0446033D03*
X0257022Y0442096D03*
X0308793Y0446033D03*
X0359022Y0442096D03*
X0410793Y0446033D03*
X0461022Y0442096D03*
X0512793Y0446033D03*
X0563022Y0442096D03*
X0614793Y0446033D03*
X0665022Y0442096D03*
X0716793Y0446033D03*
X0716793Y0232033D03*
X0665022Y0228096D03*
X0614793Y0232033D03*
X0563022Y0228096D03*
X0512793Y0232033D03*
X0461022Y0228096D03*
X0410793Y0232033D03*
X0359022Y0228096D03*
X0308793Y0232033D03*
X0257022Y0228096D03*
X0206793Y0232033D03*
X0155022Y0228096D03*
X0104793Y0232033D03*
X0053022Y0228096D03*
X0053022Y0121096D03*
X0104793Y0125033D03*
X0155022Y0121096D03*
X0206793Y0125033D03*
X0257022Y0121096D03*
X0308793Y0125033D03*
X0359022Y0121096D03*
X0410793Y0125033D03*
X0461022Y0121096D03*
X0512793Y0125033D03*
X0563022Y0121096D03*
X0614793Y0125033D03*
X0665022Y0121096D03*
X0716793Y0125033D03*
D17*
X0698447Y0109876D03*
X0694116Y0108301D03*
X0689785Y0109876D03*
X0685455Y0110663D03*
X0681124Y0109876D03*
X0676793Y0110663D03*
X0672463Y0109876D03*
X0668132Y0109876D03*
X0596447Y0109876D03*
X0592116Y0108301D03*
X0587785Y0109876D03*
X0583455Y0110663D03*
X0579124Y0109876D03*
X0574793Y0110663D03*
X0570463Y0109876D03*
X0566132Y0109876D03*
X0494447Y0109876D03*
X0490116Y0108301D03*
X0485785Y0109876D03*
X0481455Y0110663D03*
X0477124Y0109876D03*
X0472793Y0110663D03*
X0468463Y0109876D03*
X0464132Y0109876D03*
X0392447Y0109876D03*
X0388116Y0108301D03*
X0383785Y0109876D03*
X0379455Y0110663D03*
X0375124Y0109876D03*
X0370793Y0110663D03*
X0366463Y0109876D03*
X0362132Y0109876D03*
X0290447Y0109876D03*
X0286116Y0108301D03*
X0281785Y0109876D03*
X0277455Y0110663D03*
X0273124Y0109876D03*
X0268793Y0110663D03*
X0264463Y0109876D03*
X0260132Y0109876D03*
X0188447Y0109876D03*
X0184116Y0108301D03*
X0179785Y0109876D03*
X0175455Y0110663D03*
X0171124Y0109876D03*
X0166793Y0110663D03*
X0162463Y0109876D03*
X0158132Y0109876D03*
X0086447Y0109876D03*
X0082116Y0108301D03*
X0077785Y0109876D03*
X0073455Y0110663D03*
X0069124Y0109876D03*
X0064793Y0110663D03*
X0060463Y0109876D03*
X0056132Y0109876D03*
X0056132Y0216876D03*
X0060463Y0216876D03*
X0064793Y0217663D03*
X0069124Y0216876D03*
X0073455Y0217663D03*
X0077785Y0216876D03*
X0082116Y0215301D03*
X0086447Y0216876D03*
X0158132Y0216876D03*
X0162463Y0216876D03*
X0166793Y0217663D03*
X0171124Y0216876D03*
X0175455Y0217663D03*
X0179785Y0216876D03*
X0184116Y0215301D03*
X0188447Y0216876D03*
X0260132Y0216876D03*
X0264463Y0216876D03*
X0268793Y0217663D03*
X0273124Y0216876D03*
X0277455Y0217663D03*
X0281785Y0216876D03*
X0286116Y0215301D03*
X0290447Y0216876D03*
X0362132Y0216876D03*
X0366463Y0216876D03*
X0370793Y0217663D03*
X0375124Y0216876D03*
X0379455Y0217663D03*
X0383785Y0216876D03*
X0388116Y0215301D03*
X0392447Y0216876D03*
X0464132Y0216876D03*
X0468463Y0216876D03*
X0472793Y0217663D03*
X0477124Y0216876D03*
X0481455Y0217663D03*
X0485785Y0216876D03*
X0490116Y0215301D03*
X0494447Y0216876D03*
X0566132Y0216876D03*
X0570463Y0216876D03*
X0574793Y0217663D03*
X0579124Y0216876D03*
X0583455Y0217663D03*
X0587785Y0216876D03*
X0592116Y0215301D03*
X0596447Y0216876D03*
X0668132Y0216876D03*
X0672463Y0216876D03*
X0676793Y0217663D03*
X0681124Y0216876D03*
X0685455Y0217663D03*
X0689785Y0216876D03*
X0694116Y0215301D03*
X0698447Y0216876D03*
X0694116Y0322301D03*
X0689785Y0323876D03*
X0685455Y0324663D03*
X0681124Y0323876D03*
X0676793Y0324663D03*
X0672463Y0323876D03*
X0668132Y0323876D03*
X0698447Y0323876D03*
X0596447Y0323876D03*
X0592116Y0322301D03*
X0587785Y0323876D03*
X0583455Y0324663D03*
X0579124Y0323876D03*
X0574793Y0324663D03*
X0570463Y0323876D03*
X0566132Y0323876D03*
X0494447Y0323876D03*
X0490116Y0322301D03*
X0485785Y0323876D03*
X0481455Y0324663D03*
X0477124Y0323876D03*
X0472793Y0324663D03*
X0468463Y0323876D03*
X0464132Y0323876D03*
X0392447Y0323876D03*
X0388116Y0322301D03*
X0383785Y0323876D03*
X0379455Y0324663D03*
X0375124Y0323876D03*
X0370793Y0324663D03*
X0366463Y0323876D03*
X0362132Y0323876D03*
X0290447Y0323876D03*
X0286116Y0322301D03*
X0281785Y0323876D03*
X0277455Y0324663D03*
X0273124Y0323876D03*
X0268793Y0324663D03*
X0264463Y0323876D03*
X0260132Y0323876D03*
X0188447Y0323876D03*
X0184116Y0322301D03*
X0179785Y0323876D03*
X0175455Y0324663D03*
X0171124Y0323876D03*
X0166793Y0324663D03*
X0162463Y0323876D03*
X0158132Y0323876D03*
X0086447Y0323876D03*
X0082116Y0322301D03*
X0077785Y0323876D03*
X0073455Y0324663D03*
X0069124Y0323876D03*
X0064793Y0324663D03*
X0060463Y0323876D03*
X0056132Y0323876D03*
X0056132Y0430876D03*
X0060463Y0430876D03*
X0064793Y0431663D03*
X0069124Y0430876D03*
X0073455Y0431663D03*
X0077785Y0430876D03*
X0082116Y0429301D03*
X0086447Y0430876D03*
X0158132Y0430876D03*
X0162463Y0430876D03*
X0166793Y0431663D03*
X0171124Y0430876D03*
X0175455Y0431663D03*
X0179785Y0430876D03*
X0184116Y0429301D03*
X0188447Y0430876D03*
X0260132Y0430876D03*
X0264463Y0430876D03*
X0268793Y0431663D03*
X0273124Y0430876D03*
X0277455Y0431663D03*
X0281785Y0430876D03*
X0286116Y0429301D03*
X0290447Y0430876D03*
X0362132Y0430876D03*
X0366463Y0430876D03*
X0370793Y0431663D03*
X0375124Y0430876D03*
X0379455Y0431663D03*
X0383785Y0430876D03*
X0388116Y0429301D03*
X0392447Y0430876D03*
X0464132Y0430876D03*
X0468463Y0430876D03*
X0472793Y0431663D03*
X0477124Y0430876D03*
X0481455Y0431663D03*
X0485785Y0430876D03*
X0490116Y0429301D03*
X0494447Y0430876D03*
X0566132Y0430876D03*
X0570463Y0430876D03*
X0574793Y0431663D03*
X0579124Y0430876D03*
X0583455Y0431663D03*
X0587785Y0430876D03*
X0592116Y0429301D03*
X0596447Y0430876D03*
X0668132Y0430876D03*
X0672463Y0430876D03*
X0676793Y0431663D03*
X0681124Y0430876D03*
X0685455Y0431663D03*
X0689785Y0430876D03*
X0694116Y0429301D03*
X0698447Y0430876D03*
D18*
X0713750Y0463000D03*
X0055750Y0463000D03*
D19*
X0052185Y0020500D02*
X0052187Y0020619D01*
X0052193Y0020738D01*
X0052203Y0020857D01*
X0052217Y0020975D01*
X0052235Y0021093D01*
X0052256Y0021210D01*
X0052282Y0021326D01*
X0052312Y0021442D01*
X0052345Y0021556D01*
X0052382Y0021669D01*
X0052423Y0021781D01*
X0052468Y0021892D01*
X0052516Y0022001D01*
X0052568Y0022108D01*
X0052624Y0022213D01*
X0052683Y0022317D01*
X0052745Y0022418D01*
X0052811Y0022518D01*
X0052880Y0022615D01*
X0052952Y0022709D01*
X0053028Y0022802D01*
X0053106Y0022891D01*
X0053187Y0022978D01*
X0053272Y0023063D01*
X0053359Y0023144D01*
X0053448Y0023222D01*
X0053541Y0023298D01*
X0053635Y0023370D01*
X0053732Y0023439D01*
X0053832Y0023505D01*
X0053933Y0023567D01*
X0054037Y0023626D01*
X0054142Y0023682D01*
X0054249Y0023734D01*
X0054358Y0023782D01*
X0054469Y0023827D01*
X0054581Y0023868D01*
X0054694Y0023905D01*
X0054808Y0023938D01*
X0054924Y0023968D01*
X0055040Y0023994D01*
X0055157Y0024015D01*
X0055275Y0024033D01*
X0055393Y0024047D01*
X0055512Y0024057D01*
X0055631Y0024063D01*
X0055750Y0024065D01*
X0055869Y0024063D01*
X0055988Y0024057D01*
X0056107Y0024047D01*
X0056225Y0024033D01*
X0056343Y0024015D01*
X0056460Y0023994D01*
X0056576Y0023968D01*
X0056692Y0023938D01*
X0056806Y0023905D01*
X0056919Y0023868D01*
X0057031Y0023827D01*
X0057142Y0023782D01*
X0057251Y0023734D01*
X0057358Y0023682D01*
X0057463Y0023626D01*
X0057567Y0023567D01*
X0057668Y0023505D01*
X0057768Y0023439D01*
X0057865Y0023370D01*
X0057959Y0023298D01*
X0058052Y0023222D01*
X0058141Y0023144D01*
X0058228Y0023063D01*
X0058313Y0022978D01*
X0058394Y0022891D01*
X0058472Y0022802D01*
X0058548Y0022709D01*
X0058620Y0022615D01*
X0058689Y0022518D01*
X0058755Y0022418D01*
X0058817Y0022317D01*
X0058876Y0022213D01*
X0058932Y0022108D01*
X0058984Y0022001D01*
X0059032Y0021892D01*
X0059077Y0021781D01*
X0059118Y0021669D01*
X0059155Y0021556D01*
X0059188Y0021442D01*
X0059218Y0021326D01*
X0059244Y0021210D01*
X0059265Y0021093D01*
X0059283Y0020975D01*
X0059297Y0020857D01*
X0059307Y0020738D01*
X0059313Y0020619D01*
X0059315Y0020500D01*
X0059313Y0020381D01*
X0059307Y0020262D01*
X0059297Y0020143D01*
X0059283Y0020025D01*
X0059265Y0019907D01*
X0059244Y0019790D01*
X0059218Y0019674D01*
X0059188Y0019558D01*
X0059155Y0019444D01*
X0059118Y0019331D01*
X0059077Y0019219D01*
X0059032Y0019108D01*
X0058984Y0018999D01*
X0058932Y0018892D01*
X0058876Y0018787D01*
X0058817Y0018683D01*
X0058755Y0018582D01*
X0058689Y0018482D01*
X0058620Y0018385D01*
X0058548Y0018291D01*
X0058472Y0018198D01*
X0058394Y0018109D01*
X0058313Y0018022D01*
X0058228Y0017937D01*
X0058141Y0017856D01*
X0058052Y0017778D01*
X0057959Y0017702D01*
X0057865Y0017630D01*
X0057768Y0017561D01*
X0057668Y0017495D01*
X0057567Y0017433D01*
X0057463Y0017374D01*
X0057358Y0017318D01*
X0057251Y0017266D01*
X0057142Y0017218D01*
X0057031Y0017173D01*
X0056919Y0017132D01*
X0056806Y0017095D01*
X0056692Y0017062D01*
X0056576Y0017032D01*
X0056460Y0017006D01*
X0056343Y0016985D01*
X0056225Y0016967D01*
X0056107Y0016953D01*
X0055988Y0016943D01*
X0055869Y0016937D01*
X0055750Y0016935D01*
X0055631Y0016937D01*
X0055512Y0016943D01*
X0055393Y0016953D01*
X0055275Y0016967D01*
X0055157Y0016985D01*
X0055040Y0017006D01*
X0054924Y0017032D01*
X0054808Y0017062D01*
X0054694Y0017095D01*
X0054581Y0017132D01*
X0054469Y0017173D01*
X0054358Y0017218D01*
X0054249Y0017266D01*
X0054142Y0017318D01*
X0054037Y0017374D01*
X0053933Y0017433D01*
X0053832Y0017495D01*
X0053732Y0017561D01*
X0053635Y0017630D01*
X0053541Y0017702D01*
X0053448Y0017778D01*
X0053359Y0017856D01*
X0053272Y0017937D01*
X0053187Y0018022D01*
X0053106Y0018109D01*
X0053028Y0018198D01*
X0052952Y0018291D01*
X0052880Y0018385D01*
X0052811Y0018482D01*
X0052745Y0018582D01*
X0052683Y0018683D01*
X0052624Y0018787D01*
X0052568Y0018892D01*
X0052516Y0018999D01*
X0052468Y0019108D01*
X0052423Y0019219D01*
X0052382Y0019331D01*
X0052345Y0019444D01*
X0052312Y0019558D01*
X0052282Y0019674D01*
X0052256Y0019790D01*
X0052235Y0019907D01*
X0052217Y0020025D01*
X0052203Y0020143D01*
X0052193Y0020262D01*
X0052187Y0020381D01*
X0052185Y0020500D01*
D20*
X0055750Y0020500D03*
M02*
