%
M48
M72
T01C0.0150
T02C0.0200
T03C0.0400
T04C0.1300
%
T01
X5875Y4375
X7875Y3875
X4875Y6375
X5225Y6875
X3875Y5875
X4375Y8375
X3875Y8875
X5675Y9475
X5825Y10475
X7025Y9525
X8375Y9175
X7875Y8375
X7375Y8375
X6875Y8375
X8375Y7875
X8775Y7875
X11875Y7875
X11875Y8375
X11875Y8875
X14075Y8875
X14575Y8375
X15875Y9475
X16025Y10475
X17225Y9525
X17075Y8375
X17575Y8375
X18075Y8375
X18575Y7875
X18975Y7875
X18575Y9175
X18475Y11375
X22075Y8875
X22075Y8375
X22075Y7875
X24275Y8875
X24775Y8375
X26075Y9475
X26225Y10475
X27425Y9525
X27275Y8375
X27775Y8375
X28275Y8375
X28775Y7875
X29175Y7875
X28775Y9175
X28675Y11375
X32275Y8875
X32275Y8375
X32275Y7875
X34475Y8875
X34975Y8375
X36275Y9475
X36425Y10475
X37625Y9525
X37475Y8375
X37975Y8375
X38475Y8375
X38975Y7875
X39375Y7875
X38975Y9175
X38875Y11375
X42475Y8875
X42475Y8375
X42475Y7875
X44675Y8875
X45175Y8375
X46475Y9475
X47825Y9525
X47675Y8375
X48175Y8375
X48675Y8375
X49175Y7875
X49575Y7875
X49175Y9175
X46625Y10475
X49075Y11375
X52675Y8875
X52675Y8375
X52675Y7875
X52675Y6625
X54875Y5875
X55875Y6375
X56225Y6875
X55375Y8375
X54875Y8875
X56675Y9475
X58025Y9525
X57875Y8375
X58375Y8375
X58875Y8375
X59375Y7875
X59775Y7875
X59375Y9175
X56825Y10475
X59275Y11375
X62875Y8875
X62875Y8375
X62875Y7875
X62875Y6625
X65075Y5875
X66075Y6375
X66425Y6875
X65575Y8375
X65075Y8875
X66875Y9475
X68225Y9525
X68075Y8375
X68575Y8375
X69075Y8375
X69575Y7875
X69975Y7875
X69575Y9175
X67025Y10475
X69475Y11375
X73075Y8875
X73075Y8375
X73075Y7875
X73075Y6625
X69075Y3875
X67075Y4375
X58875Y3875
X56875Y4375
X48675Y3875
X46675Y4375
X44675Y5875
X45675Y6375
X46025Y6875
X42475Y6625
X38475Y3875
X36475Y4375
X34475Y5875
X35475Y6375
X35825Y6875
X32275Y6625
X28275Y3875
X26275Y4375
X24275Y5875
X25275Y6375
X25625Y6875
X22075Y6625
X18075Y3875
X16075Y4375
X14075Y5875
X15075Y6375
X15425Y6875
X11875Y6625
X8275Y11375
X7875Y14575
X5875Y15075
X3875Y16575
X4875Y17075
X5225Y17575
X4375Y19075
X3875Y19575
X5675Y20175
X5825Y21175
X7025Y20225
X8375Y19875
X7875Y19075
X7375Y19075
X6875Y19075
X8375Y18575
X8775Y18575
X11875Y18575
X11875Y19075
X11875Y19575
X14075Y19575
X14575Y19075
X15875Y20175
X16025Y21175
X17225Y20225
X17075Y19075
X17575Y19075
X18075Y19075
X18575Y18575
X18975Y18575
X18575Y19875
X22075Y19575
X22075Y19075
X22075Y18575
X22075Y17325
X24275Y16575
X25275Y17075
X25625Y17575
X24775Y19075
X24275Y19575
X26075Y20175
X26225Y21175
X27425Y20225
X27275Y19075
X27775Y19075
X28275Y19075
X28775Y18575
X29175Y18575
X28775Y19875
X32275Y19575
X32275Y19075
X32275Y18575
X32275Y17325
X34475Y16575
X35475Y17075
X35825Y17575
X34975Y19075
X34475Y19575
X36275Y20175
X36425Y21175
X37625Y20225
X37475Y19075
X37975Y19075
X38475Y19075
X38975Y18575
X39375Y18575
X38975Y19875
X42475Y19575
X42475Y19075
X42475Y18575
X42475Y17325
X44675Y16575
X45675Y17075
X46025Y17575
X45175Y19075
X44675Y19575
X46475Y20175
X47825Y20225
X47675Y19075
X48175Y19075
X48675Y19075
X49175Y18575
X49575Y18575
X49175Y19875
X46625Y21175
X49075Y22075
X52675Y19575
X52675Y19075
X52675Y18575
X52675Y17325
X54875Y16575
X55875Y17075
X56225Y17575
X55375Y19075
X54875Y19575
X56675Y20175
X58025Y20225
X57875Y19075
X58375Y19075
X58875Y19075
X59375Y18575
X59775Y18575
X59375Y19875
X56825Y21175
X59275Y22075
X62875Y19575
X62875Y19075
X62875Y18575
X62875Y17325
X65075Y16575
X66075Y17075
X66425Y17575
X65575Y19075
X65075Y19575
X66875Y20175
X68225Y20225
X68075Y19075
X68575Y19075
X69075Y19075
X69575Y18575
X69975Y18575
X69575Y19875
X67025Y21175
X69475Y22075
X73075Y19575
X73075Y19075
X73075Y18575
X73075Y17325
X69075Y14575
X67075Y15075
X58875Y14575
X56875Y15075
X48675Y14575
X46675Y15075
X38475Y14575
X36475Y15075
X28275Y14575
X26275Y15075
X18075Y14575
X16075Y15075
X14075Y16575
X15075Y17075
X15425Y17575
X11875Y17325
X8275Y22075
X7875Y25275
X5875Y25775
X3875Y27275
X4875Y27775
X5225Y28275
X4375Y29775
X3875Y30275
X5675Y30875
X5825Y31875
X7025Y30925
X8375Y30575
X7875Y29775
X7375Y29775
X6875Y29775
X8375Y29275
X8775Y29275
X11875Y29275
X11875Y29775
X11875Y30275
X14075Y30275
X14575Y29775
X15875Y30875
X16025Y31875
X17225Y30925
X18575Y30575
X18075Y29775
X17575Y29775
X17075Y29775
X18575Y29275
X18975Y29275
X22075Y29275
X22075Y29775
X22075Y30275
X24275Y30275
X24775Y29775
X26075Y30875
X26225Y31875
X27425Y30925
X28775Y30575
X28275Y29775
X27775Y29775
X27275Y29775
X28775Y29275
X29175Y29275
X32275Y29275
X32275Y29775
X32275Y30275
X34475Y30275
X34975Y29775
X36275Y30875
X36425Y31875
X37625Y30925
X38975Y30575
X38475Y29775
X37975Y29775
X37475Y29775
X38975Y29275
X39375Y29275
X42475Y29275
X42475Y29775
X42475Y30275
X44675Y30275
X45175Y29775
X46475Y30875
X47825Y30925
X46625Y31875
X49075Y32775
X49175Y30575
X48675Y29775
X48175Y29775
X47675Y29775
X49175Y29275
X49575Y29275
X52675Y29275
X52675Y29775
X52675Y30275
X54875Y30275
X55375Y29775
X56675Y30875
X58025Y30925
X56825Y31875
X59275Y32775
X59375Y30575
X58875Y29775
X58375Y29775
X57875Y29775
X59375Y29275
X59775Y29275
X62875Y29275
X62875Y29775
X62875Y30275
X65075Y30275
X65575Y29775
X66875Y30875
X68225Y30925
X67025Y31875
X69475Y32775
X69575Y30575
X69075Y29775
X68575Y29775
X68075Y29775
X69575Y29275
X69975Y29275
X73075Y29275
X73075Y29775
X73075Y30275
X73075Y28025
X69075Y25275
X67075Y25775
X65075Y27275
X66075Y27775
X66425Y28275
X62875Y28025
X58875Y25275
X56875Y25775
X54875Y27275
X55875Y27775
X56225Y28275
X52675Y28025
X48675Y25275
X46675Y25775
X44675Y27275
X45675Y27775
X46025Y28275
X42475Y28025
X38475Y25275
X36475Y25775
X34475Y27275
X35475Y27775
X35825Y28275
X32275Y28025
X28275Y25275
X26275Y25775
X24275Y27275
X25275Y27775
X25625Y28275
X22075Y28025
X18075Y25275
X16075Y25775
X14075Y27275
X15075Y27775
X15425Y28275
X11875Y28025
X8275Y32775
X7875Y35975
X5875Y36475
X3875Y37975
X4875Y38475
X5225Y38975
X4375Y40475
X3875Y40975
X5675Y41575
X5825Y42575
X7025Y41625
X8375Y41275
X7875Y40475
X7375Y40475
X6875Y40475
X8375Y39975
X8775Y39975
X11875Y39975
X11875Y40475
X11875Y40975
X14075Y40975
X14575Y40475
X15875Y41575
X16025Y42575
X17225Y41625
X17075Y40475
X17575Y40475
X18075Y40475
X18575Y39975
X18975Y39975
X18575Y41275
X22075Y40975
X22075Y40475
X22075Y39975
X24275Y40975
X24775Y40475
X26075Y41575
X26225Y42575
X27425Y41625
X27275Y40475
X27775Y40475
X28275Y40475
X28775Y39975
X29175Y39975
X28775Y41275
X32275Y40975
X32275Y40475
X32275Y39975
X34475Y40975
X34975Y40475
X36275Y41575
X36425Y42575
X37625Y41625
X37475Y40475
X37975Y40475
X38475Y40475
X38975Y39975
X39375Y39975
X38975Y41275
X42475Y40975
X42475Y40475
X42475Y39975
X44675Y40975
X45175Y40475
X46475Y41575
X47825Y41625
X47675Y40475
X48175Y40475
X48675Y40475
X49175Y39975
X49575Y39975
X49175Y41275
X46625Y42575
X49075Y43475
X52675Y40975
X52675Y40475
X52675Y39975
X52675Y38725
X54875Y37975
X55875Y38475
X56225Y38975
X55375Y40475
X54875Y40975
X56675Y41575
X58025Y41625
X57875Y40475
X58375Y40475
X58875Y40475
X59375Y39975
X59775Y39975
X59375Y41275
X56825Y42575
X59275Y43475
X62875Y40975
X62875Y40475
X62875Y39975
X62875Y38725
X65075Y37975
X66075Y38475
X66425Y38975
X65575Y40475
X65075Y40975
X66875Y41575
X68225Y41625
X68075Y40475
X68575Y40475
X69075Y40475
X69575Y39975
X69975Y39975
X69575Y41275
X67025Y42575
X69475Y43475
X73075Y40975
X73075Y40475
X73075Y39975
X73075Y38725
X69075Y35975
X67075Y36475
X58875Y35975
X56875Y36475
X48675Y35975
X46675Y36475
X44675Y37975
X45675Y38475
X46025Y38975
X42475Y38725
X38475Y35975
X36475Y36475
X34475Y37975
X35475Y38475
X35825Y38975
X32275Y38725
X28275Y35975
X26275Y36475
X24275Y37975
X25275Y38475
X25625Y38975
X22075Y38725
X18075Y35975
X16075Y36475
X14075Y37975
X15075Y38475
X15425Y38975
X11875Y38725
X8275Y43475
X18475Y43475
X28675Y43475
X38875Y43475
X38875Y32775
X28675Y32775
X18475Y32775
X18475Y22075
X28675Y22075
X38875Y22075
T02
X38475Y22775
X37475Y22775
X37475Y23775
X38475Y23775
X39475Y23775
X39475Y22775
X47675Y22775
X48675Y22775
X49675Y22775
X49675Y23775
X48675Y23775
X47675Y23775
X57875Y23775
X58875Y23775
X59875Y23775
X59875Y22775
X58875Y22775
X57875Y22775
X68075Y22775
X69075Y22775
X69075Y23775
X68075Y23775
X70075Y23775
X70075Y22775
X70075Y13075
X70075Y12075
X69075Y12075
X69075Y13075
X68075Y13075
X68075Y12075
X59875Y12075
X59875Y13075
X58875Y13075
X58875Y12075
X57875Y12075
X57875Y13075
X49675Y13075
X49675Y12075
X48675Y12075
X48675Y13075
X47675Y13075
X47675Y12075
X39475Y12075
X39475Y13075
X38475Y13075
X38475Y12075
X37475Y12075
X37475Y13075
X29275Y13075
X29275Y12075
X28275Y12075
X28275Y13075
X27275Y13075
X27275Y12075
X19075Y12075
X19075Y13075
X18075Y13075
X18075Y12075
X17075Y12075
X17075Y13075
X8875Y13075
X8875Y12075
X7875Y12075
X7875Y13075
X6875Y13075
X6875Y12075
X6875Y22775
X7875Y22775
X8875Y22775
X8875Y23775
X7875Y23775
X6875Y23775
X17075Y23775
X18075Y23775
X19075Y23775
X19075Y22775
X18075Y22775
X17075Y22775
X27275Y22775
X28275Y22775
X29275Y22775
X29275Y23775
X28275Y23775
X27275Y23775
X27275Y33475
X28275Y33475
X29275Y33475
X29275Y34475
X28275Y34475
X27275Y34475
X19075Y34475
X18075Y34475
X17075Y34475
X17075Y33475
X18075Y33475
X19075Y33475
X8875Y33475
X7875Y33475
X6875Y33475
X6875Y34475
X7875Y34475
X8875Y34475
X8875Y44175
X7875Y44175
X6875Y44175
X6875Y45175
X7875Y45175
X8875Y45175
X17075Y45175
X18075Y45175
X19075Y45175
X19075Y44175
X18075Y44175
X17075Y44175
X27275Y44175
X28275Y44175
X29275Y44175
X29275Y45175
X28275Y45175
X27275Y45175
X37475Y45175
X38475Y45175
X39475Y45175
X39475Y44175
X38475Y44175
X37475Y44175
X47675Y44175
X48675Y44175
X49675Y44175
X49675Y45175
X48675Y45175
X47675Y45175
X57875Y45175
X58875Y45175
X59875Y45175
X59875Y44175
X58875Y44175
X57875Y44175
X68075Y44175
X69075Y44175
X69075Y45175
X68075Y45175
X70075Y45175
X70075Y44175
X70075Y34475
X70075Y33475
X69075Y33475
X68075Y33475
X68075Y34475
X69075Y34475
X59875Y34475
X58875Y34475
X57875Y34475
X57875Y33475
X58875Y33475
X59875Y33475
X49675Y33475
X48675Y33475
X47675Y33475
X47675Y34475
X48675Y34475
X49675Y34475
X39475Y34475
X38475Y34475
X37475Y34475
X37475Y33475
X38475Y33475
X39475Y33475
T03
X6375Y3375
X7375Y3375
X8375Y3375
X9375Y3375
X9375Y5375
X10375Y5375
X8375Y5375
X7375Y5375
X6375Y5375
X5375Y5375
X15575Y5375
X16575Y5375
X17575Y5375
X18575Y5375
X19575Y5375
X20575Y5375
X19575Y3375
X18575Y3375
X17575Y3375
X16575Y3375
X25775Y5375
X26775Y5375
X27775Y5375
X28775Y5375
X29775Y5375
X30775Y5375
X29775Y3375
X28775Y3375
X27775Y3375
X26775Y3375
X35975Y5375
X36975Y5375
X37975Y5375
X38975Y5375
X39975Y5375
X40975Y5375
X39975Y3375
X38975Y3375
X37975Y3375
X36975Y3375
X46175Y5375
X47175Y5375
X48175Y5375
X49175Y5375
X50175Y5375
X51175Y5375
X50175Y3375
X49175Y3375
X48175Y3375
X47175Y3375
X56375Y5375
X57375Y5375
X58375Y5375
X59375Y5375
X60375Y5375
X61375Y5375
X60375Y3375
X59375Y3375
X58375Y3375
X57375Y3375
X66575Y5375
X67575Y5375
X68575Y5375
X69575Y5375
X70575Y5375
X71575Y5375
X70575Y3375
X69575Y3375
X68575Y3375
X67575Y3375
X67575Y14075
X68575Y14075
X69575Y14075
X70575Y14075
X70575Y16075
X69575Y16075
X68575Y16075
X67575Y16075
X66575Y16075
X71575Y16075
X61375Y16075
X60375Y16075
X59375Y16075
X58375Y16075
X57375Y16075
X56375Y16075
X57375Y14075
X58375Y14075
X59375Y14075
X60375Y14075
X51175Y16075
X50175Y16075
X49175Y16075
X48175Y16075
X47175Y16075
X46175Y16075
X47175Y14075
X48175Y14075
X49175Y14075
X50175Y14075
X40975Y16075
X39975Y16075
X38975Y16075
X37975Y16075
X36975Y16075
X35975Y16075
X36975Y14075
X37975Y14075
X38975Y14075
X39975Y14075
X30775Y16075
X29775Y16075
X28775Y16075
X27775Y16075
X26775Y16075
X25775Y16075
X26775Y14075
X27775Y14075
X28775Y14075
X29775Y14075
X20575Y16075
X19575Y16075
X18575Y16075
X17575Y16075
X16575Y16075
X15575Y16075
X16575Y14075
X17575Y14075
X18575Y14075
X19575Y14075
X10375Y16075
X9375Y16075
X8375Y16075
X7375Y16075
X6375Y16075
X5375Y16075
X6375Y14075
X7375Y14075
X8375Y14075
X9375Y14075
X9375Y24775
X8375Y24775
X7375Y24775
X6375Y24775
X6375Y26775
X5375Y26775
X7375Y26775
X8375Y26775
X9375Y26775
X10375Y26775
X15575Y26775
X16575Y26775
X17575Y26775
X18575Y26775
X19575Y26775
X20575Y26775
X19575Y24775
X18575Y24775
X17575Y24775
X16575Y24775
X25775Y26775
X26775Y26775
X27775Y26775
X28775Y26775
X29775Y26775
X30775Y26775
X29775Y24775
X28775Y24775
X27775Y24775
X26775Y24775
X35975Y26775
X36975Y26775
X37975Y26775
X38975Y26775
X39975Y26775
X40975Y26775
X39975Y24775
X38975Y24775
X37975Y24775
X36975Y24775
X46175Y26775
X47175Y26775
X48175Y26775
X49175Y26775
X50175Y26775
X51175Y26775
X50175Y24775
X49175Y24775
X48175Y24775
X47175Y24775
X56375Y26775
X57375Y26775
X58375Y26775
X59375Y26775
X60375Y26775
X61375Y26775
X60375Y24775
X59375Y24775
X58375Y24775
X57375Y24775
X66575Y26775
X67575Y26775
X68575Y26775
X69575Y26775
X70575Y26775
X71575Y26775
X70575Y24775
X69575Y24775
X68575Y24775
X67575Y24775
X67575Y35475
X68575Y35475
X69575Y35475
X70575Y35475
X70575Y37475
X69575Y37475
X68575Y37475
X67575Y37475
X66575Y37475
X71575Y37475
X61375Y37475
X60375Y37475
X59375Y37475
X58375Y37475
X57375Y37475
X56375Y37475
X57375Y35475
X58375Y35475
X59375Y35475
X60375Y35475
X51175Y37475
X50175Y37475
X49175Y37475
X48175Y37475
X47175Y37475
X46175Y37475
X47175Y35475
X48175Y35475
X49175Y35475
X50175Y35475
X40975Y37475
X39975Y37475
X38975Y37475
X37975Y37475
X36975Y37475
X35975Y37475
X36975Y35475
X37975Y35475
X38975Y35475
X39975Y35475
X30775Y37475
X29775Y37475
X28775Y37475
X27775Y37475
X26775Y37475
X25775Y37475
X26775Y35475
X27775Y35475
X28775Y35475
X29775Y35475
X20575Y37475
X19575Y37475
X18575Y37475
X17575Y37475
X16575Y37475
X15575Y37475
X16575Y35475
X17575Y35475
X18575Y35475
X19575Y35475
X10375Y37475
X9375Y37475
X8375Y37475
X7375Y37475
X6375Y37475
X5375Y37475
X6375Y35475
X7375Y35475
X8375Y35475
X9375Y35475
T04
X11875Y33775
X14075Y33775
X22075Y33775
X24275Y33775
X32275Y33775
X34475Y33775
X42475Y33775
X44675Y33775
X52675Y33775
X54875Y33775
X62875Y33775
X65075Y33775
X73075Y33775
X73075Y23075
X65075Y23075
X62875Y23075
X54875Y23075
X52675Y23075
X44675Y23075
X42475Y23075
X34475Y23075
X32275Y23075
X24275Y23075
X22075Y23075
X14075Y23075
X11875Y23075
X3875Y23075
X3875Y33775
X3875Y44475
X11875Y44475
X14075Y44475
X22075Y44475
X24275Y44475
X32275Y44475
X34475Y44475
X42475Y44475
X44675Y44475
X52675Y44475
X54875Y44475
X62875Y44475
X65075Y44475
X73075Y44475
X73075Y12375
X65075Y12375
X62875Y12375
X54875Y12375
X52675Y12375
X44675Y12375
X42475Y12375
X34475Y12375
X32275Y12375
X24275Y12375
X22075Y12375
X14075Y12375
X11875Y12375
X3875Y12375
M30
