G75*
%MOIN*%
%OFA0B0*%
%FSLAX25Y25*%
%IPPOS*%
%LPD*%
%AMOC8*
5,1,8,0,0,1.08239X$1,22.5*
%
%ADD10R,0.07087X0.05512*%
%ADD11R,0.03150X0.05906*%
%ADD12R,0.05512X0.07480*%
D10*
X0059321Y0069325D03*
X0081762Y0069325D03*
X0161321Y0069325D03*
X0183762Y0069325D03*
X0263321Y0069325D03*
X0285762Y0069325D03*
X0285762Y0176325D03*
X0263321Y0176325D03*
X0183762Y0176325D03*
X0161321Y0176325D03*
X0081762Y0176325D03*
X0059321Y0176325D03*
X0059321Y0283325D03*
X0081762Y0283325D03*
X0161321Y0283325D03*
X0183762Y0283325D03*
X0263321Y0283325D03*
X0285762Y0283325D03*
D11*
X0286116Y0322301D03*
X0281785Y0323876D03*
X0277455Y0324663D03*
X0273124Y0323876D03*
X0268793Y0324663D03*
X0264463Y0323876D03*
X0260132Y0323876D03*
X0290447Y0323876D03*
X0188447Y0323876D03*
X0184116Y0322301D03*
X0179785Y0323876D03*
X0175455Y0324663D03*
X0171124Y0323876D03*
X0166793Y0324663D03*
X0162463Y0323876D03*
X0158132Y0323876D03*
X0086447Y0323876D03*
X0082116Y0322301D03*
X0077785Y0323876D03*
X0073455Y0324663D03*
X0069124Y0323876D03*
X0064793Y0324663D03*
X0060463Y0323876D03*
X0056132Y0323876D03*
X0064793Y0217663D03*
X0060463Y0216876D03*
X0056132Y0216876D03*
X0069124Y0216876D03*
X0073455Y0217663D03*
X0077785Y0216876D03*
X0082116Y0215301D03*
X0086447Y0216876D03*
X0158132Y0216876D03*
X0162463Y0216876D03*
X0166793Y0217663D03*
X0171124Y0216876D03*
X0175455Y0217663D03*
X0179785Y0216876D03*
X0184116Y0215301D03*
X0188447Y0216876D03*
X0260132Y0216876D03*
X0264463Y0216876D03*
X0268793Y0217663D03*
X0273124Y0216876D03*
X0277455Y0217663D03*
X0281785Y0216876D03*
X0286116Y0215301D03*
X0290447Y0216876D03*
X0290447Y0109876D03*
X0286116Y0108301D03*
X0281785Y0109876D03*
X0277455Y0110663D03*
X0273124Y0109876D03*
X0268793Y0110663D03*
X0264463Y0109876D03*
X0260132Y0109876D03*
X0188447Y0109876D03*
X0184116Y0108301D03*
X0179785Y0109876D03*
X0175455Y0110663D03*
X0171124Y0109876D03*
X0166793Y0110663D03*
X0162463Y0109876D03*
X0158132Y0109876D03*
X0086447Y0109876D03*
X0082116Y0108301D03*
X0077785Y0109876D03*
X0073455Y0110663D03*
X0069124Y0109876D03*
X0064793Y0110663D03*
X0060463Y0109876D03*
X0056132Y0109876D03*
D12*
X0053022Y0121096D03*
X0104793Y0125033D03*
X0155022Y0121096D03*
X0206793Y0125033D03*
X0257022Y0121096D03*
X0308793Y0125033D03*
X0257022Y0228096D03*
X0206793Y0232033D03*
X0155022Y0228096D03*
X0104793Y0232033D03*
X0053022Y0228096D03*
X0053022Y0335096D03*
X0104793Y0339033D03*
X0155022Y0335096D03*
X0206793Y0339033D03*
X0257022Y0335096D03*
X0308793Y0339033D03*
X0308793Y0232033D03*
M02*
