G75*
%MOIN*%
%OFA0B0*%
%FSLAX25Y25*%
%IPPOS*%
%LPD*%
%AMOC8*
5,1,8,0,0,1.08239X$1,22.5*
%
%ADD10R,0.05131X0.04737*%
%ADD11R,0.04737X0.05131*%
%ADD12C,0.01990*%
%ADD13C,0.02572*%
%ADD14R,0.13760X0.06040*%
%ADD15C,0.03300*%
%ADD16C,0.08200*%
%ADD17R,0.08674X0.05524*%
%ADD18R,0.06115X0.03162*%
%ADD19R,0.03300X0.05800*%
%ADD20C,0.00500*%
%ADD21C,0.13800*%
%ADD22C,0.04808*%
%ADD23R,0.05800X0.03000*%
%ADD24R,0.03000X0.05800*%
%ADD25C,0.04737*%
%ADD26C,0.05000*%
%ADD27C,0.06706*%
D10*
X0068404Y0061250D03*
X0075096Y0061250D03*
X0082404Y0061250D03*
X0089096Y0061250D03*
X0095404Y0113750D03*
X0102096Y0113750D03*
X0062096Y0113750D03*
X0055404Y0113750D03*
X0068404Y0168250D03*
X0075096Y0168250D03*
X0082404Y0168250D03*
X0089096Y0168250D03*
X0095404Y0220750D03*
X0102096Y0220750D03*
X0062096Y0220750D03*
X0055404Y0220750D03*
X0068404Y0275250D03*
X0075096Y0275250D03*
X0082404Y0275250D03*
X0089096Y0275250D03*
X0095404Y0327750D03*
X0102096Y0327750D03*
X0062096Y0327750D03*
X0055404Y0327750D03*
X0157404Y0327750D03*
X0164096Y0327750D03*
X0197404Y0327750D03*
X0204096Y0327750D03*
X0191096Y0275250D03*
X0184404Y0275250D03*
X0177096Y0275250D03*
X0170404Y0275250D03*
X0164096Y0220750D03*
X0157404Y0220750D03*
X0197404Y0220750D03*
X0204096Y0220750D03*
X0191096Y0168250D03*
X0184404Y0168250D03*
X0177096Y0168250D03*
X0170404Y0168250D03*
X0164096Y0113750D03*
X0157404Y0113750D03*
X0197404Y0113750D03*
X0204096Y0113750D03*
X0191096Y0061250D03*
X0184404Y0061250D03*
X0177096Y0061250D03*
X0170404Y0061250D03*
X0259404Y0113750D03*
X0266096Y0113750D03*
X0299404Y0113750D03*
X0306096Y0113750D03*
X0293096Y0061250D03*
X0286404Y0061250D03*
X0279096Y0061250D03*
X0272404Y0061250D03*
X0272404Y0168250D03*
X0279096Y0168250D03*
X0286404Y0168250D03*
X0293096Y0168250D03*
X0299404Y0220750D03*
X0306096Y0220750D03*
X0266096Y0220750D03*
X0259404Y0220750D03*
X0272404Y0275250D03*
X0279096Y0275250D03*
X0286404Y0275250D03*
X0293096Y0275250D03*
X0299404Y0327750D03*
X0306096Y0327750D03*
X0266096Y0327750D03*
X0259404Y0327750D03*
D11*
X0259750Y0301096D03*
X0259750Y0294404D03*
X0257750Y0256096D03*
X0257750Y0249404D03*
X0237750Y0249404D03*
X0237750Y0256096D03*
X0203750Y0294404D03*
X0203750Y0301096D03*
X0157750Y0301096D03*
X0157750Y0294404D03*
X0155750Y0256096D03*
X0155750Y0249404D03*
X0135750Y0249404D03*
X0135750Y0256096D03*
X0101750Y0294404D03*
X0101750Y0301096D03*
X0055750Y0301096D03*
X0055750Y0294404D03*
X0053750Y0256096D03*
X0053750Y0249404D03*
X0033750Y0249404D03*
X0033750Y0256096D03*
X0055750Y0194096D03*
X0055750Y0187404D03*
X0053750Y0149096D03*
X0053750Y0142404D03*
X0033750Y0142404D03*
X0033750Y0149096D03*
X0055750Y0087096D03*
X0055750Y0080404D03*
X0053750Y0042096D03*
X0053750Y0035404D03*
X0033750Y0035404D03*
X0033750Y0042096D03*
X0101750Y0080404D03*
X0101750Y0087096D03*
X0135750Y0042096D03*
X0135750Y0035404D03*
X0155750Y0035404D03*
X0155750Y0042096D03*
X0157750Y0080404D03*
X0157750Y0087096D03*
X0203750Y0087096D03*
X0203750Y0080404D03*
X0237750Y0042096D03*
X0237750Y0035404D03*
X0257750Y0035404D03*
X0257750Y0042096D03*
X0259750Y0080404D03*
X0259750Y0087096D03*
X0305750Y0087096D03*
X0305750Y0080404D03*
X0257750Y0142404D03*
X0257750Y0149096D03*
X0237750Y0149096D03*
X0237750Y0142404D03*
X0259750Y0187404D03*
X0259750Y0194096D03*
X0305750Y0194096D03*
X0305750Y0187404D03*
X0203750Y0187404D03*
X0203750Y0194096D03*
X0157750Y0194096D03*
X0157750Y0187404D03*
X0155750Y0149096D03*
X0155750Y0142404D03*
X0135750Y0142404D03*
X0135750Y0149096D03*
X0101750Y0187404D03*
X0101750Y0194096D03*
X0305750Y0294404D03*
X0305750Y0301096D03*
D12*
X0307576Y0331377D02*
X0307576Y0334123D01*
X0307576Y0331377D02*
X0304830Y0331377D01*
X0304830Y0334123D01*
X0307576Y0334123D01*
X0307576Y0333267D02*
X0304830Y0333267D01*
X0300670Y0334123D02*
X0300670Y0331377D01*
X0297924Y0331377D01*
X0297924Y0334123D01*
X0300670Y0334123D01*
X0300670Y0333267D02*
X0297924Y0333267D01*
X0264830Y0334123D02*
X0264830Y0331377D01*
X0264830Y0334123D02*
X0267576Y0334123D01*
X0267576Y0331377D01*
X0264830Y0331377D01*
X0264830Y0333267D02*
X0267576Y0333267D01*
X0257924Y0334123D02*
X0257924Y0331377D01*
X0257924Y0334123D02*
X0260670Y0334123D01*
X0260670Y0331377D01*
X0257924Y0331377D01*
X0257924Y0333267D02*
X0260670Y0333267D01*
X0205576Y0334123D02*
X0205576Y0331377D01*
X0202830Y0331377D01*
X0202830Y0334123D01*
X0205576Y0334123D01*
X0205576Y0333267D02*
X0202830Y0333267D01*
X0198670Y0334123D02*
X0198670Y0331377D01*
X0195924Y0331377D01*
X0195924Y0334123D01*
X0198670Y0334123D01*
X0198670Y0333267D02*
X0195924Y0333267D01*
X0162830Y0334123D02*
X0162830Y0331377D01*
X0162830Y0334123D02*
X0165576Y0334123D01*
X0165576Y0331377D01*
X0162830Y0331377D01*
X0162830Y0333267D02*
X0165576Y0333267D01*
X0155924Y0334123D02*
X0155924Y0331377D01*
X0155924Y0334123D02*
X0158670Y0334123D01*
X0158670Y0331377D01*
X0155924Y0331377D01*
X0155924Y0333267D02*
X0158670Y0333267D01*
X0103576Y0334123D02*
X0103576Y0331377D01*
X0100830Y0331377D01*
X0100830Y0334123D01*
X0103576Y0334123D01*
X0103576Y0333267D02*
X0100830Y0333267D01*
X0096670Y0334123D02*
X0096670Y0331377D01*
X0093924Y0331377D01*
X0093924Y0334123D01*
X0096670Y0334123D01*
X0096670Y0333267D02*
X0093924Y0333267D01*
X0060830Y0334123D02*
X0060830Y0331377D01*
X0060830Y0334123D02*
X0063576Y0334123D01*
X0063576Y0331377D01*
X0060830Y0331377D01*
X0060830Y0333267D02*
X0063576Y0333267D01*
X0053924Y0334123D02*
X0053924Y0331377D01*
X0053924Y0334123D02*
X0056670Y0334123D01*
X0056670Y0331377D01*
X0053924Y0331377D01*
X0053924Y0333267D02*
X0056670Y0333267D01*
X0053924Y0227123D02*
X0053924Y0224377D01*
X0053924Y0227123D02*
X0056670Y0227123D01*
X0056670Y0224377D01*
X0053924Y0224377D01*
X0053924Y0226267D02*
X0056670Y0226267D01*
X0060830Y0227123D02*
X0060830Y0224377D01*
X0060830Y0227123D02*
X0063576Y0227123D01*
X0063576Y0224377D01*
X0060830Y0224377D01*
X0060830Y0226267D02*
X0063576Y0226267D01*
X0096670Y0227123D02*
X0096670Y0224377D01*
X0093924Y0224377D01*
X0093924Y0227123D01*
X0096670Y0227123D01*
X0096670Y0226267D02*
X0093924Y0226267D01*
X0103576Y0227123D02*
X0103576Y0224377D01*
X0100830Y0224377D01*
X0100830Y0227123D01*
X0103576Y0227123D01*
X0103576Y0226267D02*
X0100830Y0226267D01*
X0155924Y0227123D02*
X0155924Y0224377D01*
X0155924Y0227123D02*
X0158670Y0227123D01*
X0158670Y0224377D01*
X0155924Y0224377D01*
X0155924Y0226267D02*
X0158670Y0226267D01*
X0162830Y0227123D02*
X0162830Y0224377D01*
X0162830Y0227123D02*
X0165576Y0227123D01*
X0165576Y0224377D01*
X0162830Y0224377D01*
X0162830Y0226267D02*
X0165576Y0226267D01*
X0198670Y0227123D02*
X0198670Y0224377D01*
X0195924Y0224377D01*
X0195924Y0227123D01*
X0198670Y0227123D01*
X0198670Y0226267D02*
X0195924Y0226267D01*
X0205576Y0227123D02*
X0205576Y0224377D01*
X0202830Y0224377D01*
X0202830Y0227123D01*
X0205576Y0227123D01*
X0205576Y0226267D02*
X0202830Y0226267D01*
X0257924Y0227123D02*
X0257924Y0224377D01*
X0257924Y0227123D02*
X0260670Y0227123D01*
X0260670Y0224377D01*
X0257924Y0224377D01*
X0257924Y0226267D02*
X0260670Y0226267D01*
X0264830Y0227123D02*
X0264830Y0224377D01*
X0264830Y0227123D02*
X0267576Y0227123D01*
X0267576Y0224377D01*
X0264830Y0224377D01*
X0264830Y0226267D02*
X0267576Y0226267D01*
X0300670Y0227123D02*
X0300670Y0224377D01*
X0297924Y0224377D01*
X0297924Y0227123D01*
X0300670Y0227123D01*
X0300670Y0226267D02*
X0297924Y0226267D01*
X0307576Y0227123D02*
X0307576Y0224377D01*
X0304830Y0224377D01*
X0304830Y0227123D01*
X0307576Y0227123D01*
X0307576Y0226267D02*
X0304830Y0226267D01*
X0307576Y0120123D02*
X0307576Y0117377D01*
X0304830Y0117377D01*
X0304830Y0120123D01*
X0307576Y0120123D01*
X0307576Y0119267D02*
X0304830Y0119267D01*
X0300670Y0120123D02*
X0300670Y0117377D01*
X0297924Y0117377D01*
X0297924Y0120123D01*
X0300670Y0120123D01*
X0300670Y0119267D02*
X0297924Y0119267D01*
X0264830Y0120123D02*
X0264830Y0117377D01*
X0264830Y0120123D02*
X0267576Y0120123D01*
X0267576Y0117377D01*
X0264830Y0117377D01*
X0264830Y0119267D02*
X0267576Y0119267D01*
X0257924Y0120123D02*
X0257924Y0117377D01*
X0257924Y0120123D02*
X0260670Y0120123D01*
X0260670Y0117377D01*
X0257924Y0117377D01*
X0257924Y0119267D02*
X0260670Y0119267D01*
X0205576Y0120123D02*
X0205576Y0117377D01*
X0202830Y0117377D01*
X0202830Y0120123D01*
X0205576Y0120123D01*
X0205576Y0119267D02*
X0202830Y0119267D01*
X0198670Y0120123D02*
X0198670Y0117377D01*
X0195924Y0117377D01*
X0195924Y0120123D01*
X0198670Y0120123D01*
X0198670Y0119267D02*
X0195924Y0119267D01*
X0162830Y0120123D02*
X0162830Y0117377D01*
X0162830Y0120123D02*
X0165576Y0120123D01*
X0165576Y0117377D01*
X0162830Y0117377D01*
X0162830Y0119267D02*
X0165576Y0119267D01*
X0155924Y0120123D02*
X0155924Y0117377D01*
X0155924Y0120123D02*
X0158670Y0120123D01*
X0158670Y0117377D01*
X0155924Y0117377D01*
X0155924Y0119267D02*
X0158670Y0119267D01*
X0103576Y0120123D02*
X0103576Y0117377D01*
X0100830Y0117377D01*
X0100830Y0120123D01*
X0103576Y0120123D01*
X0103576Y0119267D02*
X0100830Y0119267D01*
X0096670Y0120123D02*
X0096670Y0117377D01*
X0093924Y0117377D01*
X0093924Y0120123D01*
X0096670Y0120123D01*
X0096670Y0119267D02*
X0093924Y0119267D01*
X0060830Y0120123D02*
X0060830Y0117377D01*
X0060830Y0120123D02*
X0063576Y0120123D01*
X0063576Y0117377D01*
X0060830Y0117377D01*
X0060830Y0119267D02*
X0063576Y0119267D01*
X0053924Y0120123D02*
X0053924Y0117377D01*
X0053924Y0120123D02*
X0056670Y0120123D01*
X0056670Y0117377D01*
X0053924Y0117377D01*
X0053924Y0119267D02*
X0056670Y0119267D01*
D13*
X0099026Y0106614D02*
X0099026Y0100886D01*
X0103750Y0100886D02*
X0103750Y0106614D01*
X0108474Y0106614D02*
X0108474Y0100886D01*
X0201026Y0100886D02*
X0201026Y0106614D01*
X0205750Y0106614D02*
X0205750Y0100886D01*
X0210474Y0100886D02*
X0210474Y0106614D01*
X0303026Y0106614D02*
X0303026Y0100886D01*
X0307750Y0100886D02*
X0307750Y0106614D01*
X0312474Y0106614D02*
X0312474Y0100886D01*
X0312474Y0207886D02*
X0312474Y0213614D01*
X0307750Y0213614D02*
X0307750Y0207886D01*
X0303026Y0207886D02*
X0303026Y0213614D01*
X0210474Y0213614D02*
X0210474Y0207886D01*
X0205750Y0207886D02*
X0205750Y0213614D01*
X0201026Y0213614D02*
X0201026Y0207886D01*
X0108474Y0207886D02*
X0108474Y0213614D01*
X0103750Y0213614D02*
X0103750Y0207886D01*
X0099026Y0207886D02*
X0099026Y0213614D01*
X0099026Y0314886D02*
X0099026Y0320614D01*
X0103750Y0320614D02*
X0103750Y0314886D01*
X0108474Y0314886D02*
X0108474Y0320614D01*
X0201026Y0320614D02*
X0201026Y0314886D01*
X0205750Y0314886D02*
X0205750Y0320614D01*
X0210474Y0320614D02*
X0210474Y0314886D01*
X0303026Y0314886D02*
X0303026Y0320614D01*
X0307750Y0320614D02*
X0307750Y0314886D01*
X0312474Y0314886D02*
X0312474Y0320614D01*
D14*
X0307740Y0317740D03*
X0205740Y0317740D03*
X0103740Y0317740D03*
X0103740Y0210740D03*
X0205740Y0210740D03*
X0307740Y0210740D03*
X0307740Y0103740D03*
X0205740Y0103740D03*
X0103740Y0103740D03*
D15*
X0031250Y0031250D03*
X0133250Y0031250D03*
X0235250Y0031250D03*
X0228250Y0131250D03*
X0235250Y0138250D03*
X0330250Y0131250D03*
X0330250Y0238250D03*
X0235250Y0245250D03*
X0228250Y0238250D03*
X0133250Y0245250D03*
X0126250Y0238250D03*
X0031250Y0245250D03*
X0126250Y0345250D03*
X0228250Y0345250D03*
X0330250Y0345250D03*
X0133250Y0138250D03*
X0126250Y0131250D03*
X0031250Y0138250D03*
D16*
X0053750Y0160750D03*
X0063750Y0160750D03*
X0073750Y0160750D03*
X0083750Y0160750D03*
X0093750Y0160750D03*
X0103750Y0160750D03*
X0093750Y0140750D03*
X0083750Y0140750D03*
X0073750Y0140750D03*
X0063750Y0140750D03*
X0063750Y0053750D03*
X0053750Y0053750D03*
X0073750Y0053750D03*
X0083750Y0053750D03*
X0093750Y0053750D03*
X0103750Y0053750D03*
X0093750Y0033750D03*
X0083750Y0033750D03*
X0073750Y0033750D03*
X0063750Y0033750D03*
X0155750Y0053750D03*
X0165750Y0053750D03*
X0175750Y0053750D03*
X0185750Y0053750D03*
X0195750Y0053750D03*
X0205750Y0053750D03*
X0195750Y0033750D03*
X0185750Y0033750D03*
X0175750Y0033750D03*
X0165750Y0033750D03*
X0257750Y0053750D03*
X0267750Y0053750D03*
X0277750Y0053750D03*
X0287750Y0053750D03*
X0297750Y0053750D03*
X0307750Y0053750D03*
X0297750Y0033750D03*
X0287750Y0033750D03*
X0277750Y0033750D03*
X0267750Y0033750D03*
X0267750Y0140750D03*
X0277750Y0140750D03*
X0287750Y0140750D03*
X0297750Y0140750D03*
X0297750Y0160750D03*
X0287750Y0160750D03*
X0277750Y0160750D03*
X0267750Y0160750D03*
X0257750Y0160750D03*
X0307750Y0160750D03*
X0297750Y0247750D03*
X0287750Y0247750D03*
X0277750Y0247750D03*
X0267750Y0247750D03*
X0267750Y0267750D03*
X0257750Y0267750D03*
X0277750Y0267750D03*
X0287750Y0267750D03*
X0297750Y0267750D03*
X0307750Y0267750D03*
X0205750Y0267750D03*
X0195750Y0267750D03*
X0185750Y0267750D03*
X0175750Y0267750D03*
X0165750Y0267750D03*
X0155750Y0267750D03*
X0165750Y0247750D03*
X0175750Y0247750D03*
X0185750Y0247750D03*
X0195750Y0247750D03*
X0195750Y0160750D03*
X0185750Y0160750D03*
X0175750Y0160750D03*
X0165750Y0160750D03*
X0155750Y0160750D03*
X0165750Y0140750D03*
X0175750Y0140750D03*
X0185750Y0140750D03*
X0195750Y0140750D03*
X0205750Y0160750D03*
X0093750Y0247750D03*
X0083750Y0247750D03*
X0073750Y0247750D03*
X0063750Y0247750D03*
X0063750Y0267750D03*
X0053750Y0267750D03*
X0073750Y0267750D03*
X0083750Y0267750D03*
X0093750Y0267750D03*
X0103750Y0267750D03*
D17*
X0123219Y0286726D03*
X0136281Y0286726D03*
X0136281Y0308774D03*
X0123219Y0308774D03*
X0034281Y0308774D03*
X0034281Y0286726D03*
X0034281Y0201774D03*
X0034281Y0179726D03*
X0034281Y0094774D03*
X0034281Y0072726D03*
X0123219Y0072726D03*
X0136281Y0072726D03*
X0136281Y0094774D03*
X0123219Y0094774D03*
X0123219Y0179726D03*
X0136281Y0179726D03*
X0136281Y0201774D03*
X0123219Y0201774D03*
X0225219Y0201774D03*
X0238281Y0201774D03*
X0238281Y0179726D03*
X0225219Y0179726D03*
X0225219Y0094774D03*
X0238281Y0094774D03*
X0238281Y0072726D03*
X0225219Y0072726D03*
X0327219Y0072726D03*
X0327219Y0094774D03*
X0327219Y0179726D03*
X0327219Y0201774D03*
X0327219Y0286726D03*
X0327219Y0308774D03*
X0238281Y0308774D03*
X0225219Y0308774D03*
X0225219Y0286726D03*
X0238281Y0286726D03*
D18*
X0252750Y0291844D03*
X0252750Y0295781D03*
X0252750Y0299719D03*
X0252750Y0303656D03*
X0210750Y0303656D03*
X0210750Y0299719D03*
X0210750Y0295781D03*
X0210750Y0291844D03*
X0150750Y0291844D03*
X0150750Y0295781D03*
X0150750Y0299719D03*
X0150750Y0303656D03*
X0108750Y0303656D03*
X0108750Y0299719D03*
X0108750Y0295781D03*
X0108750Y0291844D03*
X0048750Y0291844D03*
X0048750Y0295781D03*
X0048750Y0299719D03*
X0048750Y0303656D03*
X0048750Y0196656D03*
X0048750Y0192719D03*
X0048750Y0188781D03*
X0048750Y0184844D03*
X0108750Y0184844D03*
X0108750Y0188781D03*
X0108750Y0192719D03*
X0108750Y0196656D03*
X0150750Y0196656D03*
X0150750Y0192719D03*
X0150750Y0188781D03*
X0150750Y0184844D03*
X0210750Y0184844D03*
X0210750Y0188781D03*
X0210750Y0192719D03*
X0210750Y0196656D03*
X0252750Y0196656D03*
X0252750Y0192719D03*
X0252750Y0188781D03*
X0252750Y0184844D03*
X0312750Y0184844D03*
X0312750Y0188781D03*
X0312750Y0192719D03*
X0312750Y0196656D03*
X0312750Y0291844D03*
X0312750Y0295781D03*
X0312750Y0299719D03*
X0312750Y0303656D03*
X0312750Y0089656D03*
X0312750Y0085719D03*
X0312750Y0081781D03*
X0312750Y0077844D03*
X0252750Y0077844D03*
X0252750Y0081781D03*
X0252750Y0085719D03*
X0252750Y0089656D03*
X0210750Y0089656D03*
X0210750Y0085719D03*
X0210750Y0081781D03*
X0210750Y0077844D03*
X0150750Y0077844D03*
X0150750Y0081781D03*
X0150750Y0085719D03*
X0150750Y0089656D03*
X0108750Y0089656D03*
X0108750Y0085719D03*
X0108750Y0081781D03*
X0108750Y0077844D03*
X0048750Y0077844D03*
X0048750Y0081781D03*
X0048750Y0085719D03*
X0048750Y0089656D03*
D19*
X0047750Y0038750D03*
X0043750Y0038750D03*
X0039750Y0038750D03*
X0141750Y0038750D03*
X0145750Y0038750D03*
X0149750Y0038750D03*
X0243750Y0038750D03*
X0247750Y0038750D03*
X0251750Y0038750D03*
X0251750Y0145750D03*
X0247750Y0145750D03*
X0243750Y0145750D03*
X0149750Y0145750D03*
X0145750Y0145750D03*
X0141750Y0145750D03*
X0047750Y0145750D03*
X0043750Y0145750D03*
X0039750Y0145750D03*
X0039750Y0252750D03*
X0043750Y0252750D03*
X0047750Y0252750D03*
X0141750Y0252750D03*
X0145750Y0252750D03*
X0149750Y0252750D03*
X0243750Y0252750D03*
X0247750Y0252750D03*
X0251750Y0252750D03*
D20*
X0250500Y0252582D02*
X0245000Y0252582D01*
X0245000Y0252250D02*
X0245000Y0253250D01*
X0250500Y0253250D01*
X0250500Y0252250D01*
X0245000Y0252250D01*
X0245000Y0253080D02*
X0250500Y0253080D01*
X0148500Y0253080D02*
X0143000Y0253080D01*
X0143000Y0253250D02*
X0148500Y0253250D01*
X0148500Y0252250D01*
X0143000Y0252250D01*
X0143000Y0253250D01*
X0143000Y0252582D02*
X0148500Y0252582D01*
X0046500Y0252582D02*
X0041000Y0252582D01*
X0041000Y0252250D02*
X0041000Y0253250D01*
X0046500Y0253250D01*
X0046500Y0252250D01*
X0041000Y0252250D01*
X0041000Y0253080D02*
X0046500Y0253080D01*
X0046500Y0146250D02*
X0041000Y0146250D01*
X0041000Y0145250D01*
X0046500Y0145250D01*
X0046500Y0146250D01*
X0046500Y0145900D02*
X0041000Y0145900D01*
X0041000Y0145402D02*
X0046500Y0145402D01*
X0143000Y0145402D02*
X0148500Y0145402D01*
X0148500Y0145250D02*
X0148500Y0146250D01*
X0143000Y0146250D01*
X0143000Y0145250D01*
X0148500Y0145250D01*
X0148500Y0145900D02*
X0143000Y0145900D01*
X0245000Y0145900D02*
X0250500Y0145900D01*
X0250500Y0146250D02*
X0250500Y0145250D01*
X0245000Y0145250D01*
X0245000Y0146250D01*
X0250500Y0146250D01*
X0250500Y0145402D02*
X0245000Y0145402D01*
X0245000Y0039250D02*
X0250500Y0039250D01*
X0250500Y0038250D01*
X0245000Y0038250D01*
X0245000Y0039250D01*
X0245000Y0039219D02*
X0250500Y0039219D01*
X0250500Y0038720D02*
X0245000Y0038720D01*
X0148500Y0038720D02*
X0143000Y0038720D01*
X0143000Y0038250D02*
X0143000Y0039250D01*
X0148500Y0039250D01*
X0148500Y0038250D01*
X0143000Y0038250D01*
X0143000Y0039219D02*
X0148500Y0039219D01*
X0046500Y0039219D02*
X0041000Y0039219D01*
X0041000Y0039250D02*
X0046500Y0039250D01*
X0046500Y0038250D01*
X0041000Y0038250D01*
X0041000Y0039250D01*
X0041000Y0038720D02*
X0046500Y0038720D01*
D21*
X0038750Y0123750D03*
X0118750Y0123750D03*
X0140750Y0123750D03*
X0220750Y0123750D03*
X0242750Y0123750D03*
X0322750Y0123750D03*
X0322750Y0230750D03*
X0242750Y0230750D03*
X0220750Y0230750D03*
X0140750Y0230750D03*
X0118750Y0230750D03*
X0038750Y0230750D03*
X0038750Y0337750D03*
X0118750Y0337750D03*
X0140750Y0337750D03*
X0220750Y0337750D03*
X0242750Y0337750D03*
X0322750Y0337750D03*
D22*
X0292750Y0334750D03*
X0292750Y0344750D03*
X0282750Y0344750D03*
X0282750Y0334750D03*
X0272750Y0334750D03*
X0272750Y0344750D03*
X0190750Y0344750D03*
X0190750Y0334750D03*
X0180750Y0334750D03*
X0180750Y0344750D03*
X0170750Y0344750D03*
X0170750Y0334750D03*
X0088750Y0334750D03*
X0088750Y0344750D03*
X0078750Y0344750D03*
X0078750Y0334750D03*
X0068750Y0334750D03*
X0068750Y0344750D03*
X0068750Y0237750D03*
X0068750Y0227750D03*
X0078750Y0227750D03*
X0088750Y0227750D03*
X0088750Y0237750D03*
X0078750Y0237750D03*
X0170750Y0237750D03*
X0180750Y0237750D03*
X0190750Y0237750D03*
X0190750Y0227750D03*
X0180750Y0227750D03*
X0170750Y0227750D03*
X0170750Y0130750D03*
X0170750Y0120750D03*
X0180750Y0120750D03*
X0180750Y0130750D03*
X0190750Y0130750D03*
X0190750Y0120750D03*
X0272750Y0120750D03*
X0272750Y0130750D03*
X0282750Y0130750D03*
X0282750Y0120750D03*
X0292750Y0120750D03*
X0292750Y0130750D03*
X0292750Y0227750D03*
X0292750Y0237750D03*
X0282750Y0237750D03*
X0272750Y0237750D03*
X0272750Y0227750D03*
X0282750Y0227750D03*
X0088750Y0130750D03*
X0088750Y0120750D03*
X0078750Y0120750D03*
X0078750Y0130750D03*
X0068750Y0130750D03*
X0068750Y0120750D03*
D23*
X0061850Y0094774D03*
X0061850Y0091624D03*
X0061850Y0088474D03*
X0061850Y0085325D03*
X0061850Y0082175D03*
X0061850Y0079026D03*
X0061850Y0075876D03*
X0061850Y0072726D03*
X0095650Y0072726D03*
X0095650Y0075876D03*
X0095650Y0079026D03*
X0095650Y0082175D03*
X0095650Y0085325D03*
X0095650Y0088474D03*
X0095650Y0091624D03*
X0095650Y0094774D03*
X0163850Y0094774D03*
X0163850Y0091624D03*
X0163850Y0088474D03*
X0163850Y0085325D03*
X0163850Y0082175D03*
X0163850Y0079026D03*
X0163850Y0075876D03*
X0163850Y0072726D03*
X0197650Y0072726D03*
X0197650Y0075876D03*
X0197650Y0079026D03*
X0197650Y0082175D03*
X0197650Y0085325D03*
X0197650Y0088474D03*
X0197650Y0091624D03*
X0197650Y0094774D03*
X0265850Y0094774D03*
X0265850Y0091624D03*
X0265850Y0088474D03*
X0265850Y0085325D03*
X0265850Y0082175D03*
X0265850Y0079026D03*
X0265850Y0075876D03*
X0265850Y0072726D03*
X0299650Y0072726D03*
X0299650Y0075876D03*
X0299650Y0079026D03*
X0299650Y0082175D03*
X0299650Y0085325D03*
X0299650Y0088474D03*
X0299650Y0091624D03*
X0299650Y0094774D03*
X0299650Y0179726D03*
X0299650Y0182876D03*
X0299650Y0186026D03*
X0299650Y0189175D03*
X0299650Y0192325D03*
X0299650Y0195474D03*
X0299650Y0198624D03*
X0299650Y0201774D03*
X0265850Y0201774D03*
X0265850Y0198624D03*
X0265850Y0195474D03*
X0265850Y0192325D03*
X0265850Y0189175D03*
X0265850Y0186026D03*
X0265850Y0182876D03*
X0265850Y0179726D03*
X0197650Y0179726D03*
X0197650Y0182876D03*
X0197650Y0186026D03*
X0197650Y0189175D03*
X0197650Y0192325D03*
X0197650Y0195474D03*
X0197650Y0198624D03*
X0197650Y0201774D03*
X0163850Y0201774D03*
X0163850Y0198624D03*
X0163850Y0195474D03*
X0163850Y0192325D03*
X0163850Y0189175D03*
X0163850Y0186026D03*
X0163850Y0182876D03*
X0163850Y0179726D03*
X0095650Y0179726D03*
X0095650Y0182876D03*
X0095650Y0186026D03*
X0095650Y0189175D03*
X0095650Y0192325D03*
X0095650Y0195474D03*
X0095650Y0198624D03*
X0095650Y0201774D03*
X0061850Y0201774D03*
X0061850Y0198624D03*
X0061850Y0195474D03*
X0061850Y0192325D03*
X0061850Y0189175D03*
X0061850Y0186026D03*
X0061850Y0182876D03*
X0061850Y0179726D03*
X0061850Y0286726D03*
X0061850Y0289876D03*
X0061850Y0293026D03*
X0061850Y0296175D03*
X0061850Y0299325D03*
X0061850Y0302474D03*
X0061850Y0305624D03*
X0061850Y0308774D03*
X0095650Y0308774D03*
X0095650Y0305624D03*
X0095650Y0302474D03*
X0095650Y0299325D03*
X0095650Y0296175D03*
X0095650Y0293026D03*
X0095650Y0289876D03*
X0095650Y0286726D03*
X0163850Y0286726D03*
X0163850Y0289876D03*
X0163850Y0293026D03*
X0163850Y0296175D03*
X0163850Y0299325D03*
X0163850Y0302474D03*
X0163850Y0305624D03*
X0163850Y0308774D03*
X0197650Y0308774D03*
X0197650Y0305624D03*
X0197650Y0302474D03*
X0197650Y0299325D03*
X0197650Y0296175D03*
X0197650Y0293026D03*
X0197650Y0289876D03*
X0197650Y0286726D03*
X0265850Y0286726D03*
X0265850Y0289876D03*
X0265850Y0293026D03*
X0265850Y0296175D03*
X0265850Y0299325D03*
X0265850Y0302474D03*
X0265850Y0305624D03*
X0265850Y0308774D03*
X0299650Y0308774D03*
X0299650Y0305624D03*
X0299650Y0302474D03*
X0299650Y0299325D03*
X0299650Y0296175D03*
X0299650Y0293026D03*
X0299650Y0289876D03*
X0299650Y0286726D03*
D24*
X0293774Y0280850D03*
X0290624Y0280850D03*
X0287474Y0280850D03*
X0284325Y0280850D03*
X0281175Y0280850D03*
X0278026Y0280850D03*
X0274876Y0280850D03*
X0271726Y0280850D03*
X0271726Y0314650D03*
X0274876Y0314650D03*
X0278026Y0314650D03*
X0281175Y0314650D03*
X0284325Y0314650D03*
X0287474Y0314650D03*
X0290624Y0314650D03*
X0293774Y0314650D03*
X0191774Y0314650D03*
X0188624Y0314650D03*
X0185474Y0314650D03*
X0182325Y0314650D03*
X0179175Y0314650D03*
X0176026Y0314650D03*
X0172876Y0314650D03*
X0169726Y0314650D03*
X0169726Y0280850D03*
X0172876Y0280850D03*
X0176026Y0280850D03*
X0179175Y0280850D03*
X0182325Y0280850D03*
X0185474Y0280850D03*
X0188624Y0280850D03*
X0191774Y0280850D03*
X0191774Y0207650D03*
X0188624Y0207650D03*
X0185474Y0207650D03*
X0182325Y0207650D03*
X0179175Y0207650D03*
X0176026Y0207650D03*
X0172876Y0207650D03*
X0169726Y0207650D03*
X0169726Y0173850D03*
X0172876Y0173850D03*
X0176026Y0173850D03*
X0179175Y0173850D03*
X0182325Y0173850D03*
X0185474Y0173850D03*
X0188624Y0173850D03*
X0191774Y0173850D03*
X0191774Y0100650D03*
X0188624Y0100650D03*
X0185474Y0100650D03*
X0182325Y0100650D03*
X0179175Y0100650D03*
X0176026Y0100650D03*
X0172876Y0100650D03*
X0169726Y0100650D03*
X0169726Y0066850D03*
X0172876Y0066850D03*
X0176026Y0066850D03*
X0179175Y0066850D03*
X0182325Y0066850D03*
X0185474Y0066850D03*
X0188624Y0066850D03*
X0191774Y0066850D03*
X0271726Y0066850D03*
X0274876Y0066850D03*
X0278026Y0066850D03*
X0281175Y0066850D03*
X0284325Y0066850D03*
X0287474Y0066850D03*
X0290624Y0066850D03*
X0293774Y0066850D03*
X0293774Y0100650D03*
X0290624Y0100650D03*
X0287474Y0100650D03*
X0284325Y0100650D03*
X0281175Y0100650D03*
X0278026Y0100650D03*
X0274876Y0100650D03*
X0271726Y0100650D03*
X0271726Y0173850D03*
X0274876Y0173850D03*
X0278026Y0173850D03*
X0281175Y0173850D03*
X0284325Y0173850D03*
X0287474Y0173850D03*
X0290624Y0173850D03*
X0293774Y0173850D03*
X0293774Y0207650D03*
X0290624Y0207650D03*
X0287474Y0207650D03*
X0284325Y0207650D03*
X0281175Y0207650D03*
X0278026Y0207650D03*
X0274876Y0207650D03*
X0271726Y0207650D03*
X0089774Y0207650D03*
X0086624Y0207650D03*
X0083474Y0207650D03*
X0080325Y0207650D03*
X0077175Y0207650D03*
X0074026Y0207650D03*
X0070876Y0207650D03*
X0067726Y0207650D03*
X0067726Y0173850D03*
X0070876Y0173850D03*
X0074026Y0173850D03*
X0077175Y0173850D03*
X0080325Y0173850D03*
X0083474Y0173850D03*
X0086624Y0173850D03*
X0089774Y0173850D03*
X0089774Y0100650D03*
X0086624Y0100650D03*
X0083474Y0100650D03*
X0080325Y0100650D03*
X0077175Y0100650D03*
X0074026Y0100650D03*
X0070876Y0100650D03*
X0067726Y0100650D03*
X0067726Y0066850D03*
X0070876Y0066850D03*
X0074026Y0066850D03*
X0077175Y0066850D03*
X0080325Y0066850D03*
X0083474Y0066850D03*
X0086624Y0066850D03*
X0089774Y0066850D03*
X0089774Y0280850D03*
X0086624Y0280850D03*
X0083474Y0280850D03*
X0080325Y0280850D03*
X0077175Y0280850D03*
X0074026Y0280850D03*
X0070876Y0280850D03*
X0067726Y0280850D03*
X0067726Y0314650D03*
X0070876Y0314650D03*
X0074026Y0314650D03*
X0077175Y0314650D03*
X0080325Y0314650D03*
X0083474Y0314650D03*
X0086624Y0314650D03*
X0089774Y0314650D03*
D25*
X0055750Y0356000D03*
X0305750Y0356000D03*
D26*
X0052185Y0020500D02*
X0052187Y0020619D01*
X0052193Y0020738D01*
X0052203Y0020857D01*
X0052217Y0020975D01*
X0052235Y0021093D01*
X0052256Y0021210D01*
X0052282Y0021326D01*
X0052312Y0021442D01*
X0052345Y0021556D01*
X0052382Y0021669D01*
X0052423Y0021781D01*
X0052468Y0021892D01*
X0052516Y0022001D01*
X0052568Y0022108D01*
X0052624Y0022213D01*
X0052683Y0022317D01*
X0052745Y0022418D01*
X0052811Y0022518D01*
X0052880Y0022615D01*
X0052952Y0022709D01*
X0053028Y0022802D01*
X0053106Y0022891D01*
X0053187Y0022978D01*
X0053272Y0023063D01*
X0053359Y0023144D01*
X0053448Y0023222D01*
X0053541Y0023298D01*
X0053635Y0023370D01*
X0053732Y0023439D01*
X0053832Y0023505D01*
X0053933Y0023567D01*
X0054037Y0023626D01*
X0054142Y0023682D01*
X0054249Y0023734D01*
X0054358Y0023782D01*
X0054469Y0023827D01*
X0054581Y0023868D01*
X0054694Y0023905D01*
X0054808Y0023938D01*
X0054924Y0023968D01*
X0055040Y0023994D01*
X0055157Y0024015D01*
X0055275Y0024033D01*
X0055393Y0024047D01*
X0055512Y0024057D01*
X0055631Y0024063D01*
X0055750Y0024065D01*
X0055869Y0024063D01*
X0055988Y0024057D01*
X0056107Y0024047D01*
X0056225Y0024033D01*
X0056343Y0024015D01*
X0056460Y0023994D01*
X0056576Y0023968D01*
X0056692Y0023938D01*
X0056806Y0023905D01*
X0056919Y0023868D01*
X0057031Y0023827D01*
X0057142Y0023782D01*
X0057251Y0023734D01*
X0057358Y0023682D01*
X0057463Y0023626D01*
X0057567Y0023567D01*
X0057668Y0023505D01*
X0057768Y0023439D01*
X0057865Y0023370D01*
X0057959Y0023298D01*
X0058052Y0023222D01*
X0058141Y0023144D01*
X0058228Y0023063D01*
X0058313Y0022978D01*
X0058394Y0022891D01*
X0058472Y0022802D01*
X0058548Y0022709D01*
X0058620Y0022615D01*
X0058689Y0022518D01*
X0058755Y0022418D01*
X0058817Y0022317D01*
X0058876Y0022213D01*
X0058932Y0022108D01*
X0058984Y0022001D01*
X0059032Y0021892D01*
X0059077Y0021781D01*
X0059118Y0021669D01*
X0059155Y0021556D01*
X0059188Y0021442D01*
X0059218Y0021326D01*
X0059244Y0021210D01*
X0059265Y0021093D01*
X0059283Y0020975D01*
X0059297Y0020857D01*
X0059307Y0020738D01*
X0059313Y0020619D01*
X0059315Y0020500D01*
X0059313Y0020381D01*
X0059307Y0020262D01*
X0059297Y0020143D01*
X0059283Y0020025D01*
X0059265Y0019907D01*
X0059244Y0019790D01*
X0059218Y0019674D01*
X0059188Y0019558D01*
X0059155Y0019444D01*
X0059118Y0019331D01*
X0059077Y0019219D01*
X0059032Y0019108D01*
X0058984Y0018999D01*
X0058932Y0018892D01*
X0058876Y0018787D01*
X0058817Y0018683D01*
X0058755Y0018582D01*
X0058689Y0018482D01*
X0058620Y0018385D01*
X0058548Y0018291D01*
X0058472Y0018198D01*
X0058394Y0018109D01*
X0058313Y0018022D01*
X0058228Y0017937D01*
X0058141Y0017856D01*
X0058052Y0017778D01*
X0057959Y0017702D01*
X0057865Y0017630D01*
X0057768Y0017561D01*
X0057668Y0017495D01*
X0057567Y0017433D01*
X0057463Y0017374D01*
X0057358Y0017318D01*
X0057251Y0017266D01*
X0057142Y0017218D01*
X0057031Y0017173D01*
X0056919Y0017132D01*
X0056806Y0017095D01*
X0056692Y0017062D01*
X0056576Y0017032D01*
X0056460Y0017006D01*
X0056343Y0016985D01*
X0056225Y0016967D01*
X0056107Y0016953D01*
X0055988Y0016943D01*
X0055869Y0016937D01*
X0055750Y0016935D01*
X0055631Y0016937D01*
X0055512Y0016943D01*
X0055393Y0016953D01*
X0055275Y0016967D01*
X0055157Y0016985D01*
X0055040Y0017006D01*
X0054924Y0017032D01*
X0054808Y0017062D01*
X0054694Y0017095D01*
X0054581Y0017132D01*
X0054469Y0017173D01*
X0054358Y0017218D01*
X0054249Y0017266D01*
X0054142Y0017318D01*
X0054037Y0017374D01*
X0053933Y0017433D01*
X0053832Y0017495D01*
X0053732Y0017561D01*
X0053635Y0017630D01*
X0053541Y0017702D01*
X0053448Y0017778D01*
X0053359Y0017856D01*
X0053272Y0017937D01*
X0053187Y0018022D01*
X0053106Y0018109D01*
X0053028Y0018198D01*
X0052952Y0018291D01*
X0052880Y0018385D01*
X0052811Y0018482D01*
X0052745Y0018582D01*
X0052683Y0018683D01*
X0052624Y0018787D01*
X0052568Y0018892D01*
X0052516Y0018999D01*
X0052468Y0019108D01*
X0052423Y0019219D01*
X0052382Y0019331D01*
X0052345Y0019444D01*
X0052312Y0019558D01*
X0052282Y0019674D01*
X0052256Y0019790D01*
X0052235Y0019907D01*
X0052217Y0020025D01*
X0052203Y0020143D01*
X0052193Y0020262D01*
X0052187Y0020381D01*
X0052185Y0020500D01*
D27*
X0055750Y0020500D03*
M02*
