G75*
%MOIN*%
%OFA0B0*%
%FSLAX25Y25*%
%IPPOS*%
%LPD*%
%AMOC8*
5,1,8,0,0,1.08239X$1,22.5*
%
%ADD10C,0.00800*%
%ADD11C,0.01500*%
%ADD12C,0.01100*%
%ADD13C,0.01000*%
%ADD14C,0.00000*%
D10*
X0028750Y0028750D02*
X0128750Y0028750D01*
X0128750Y0133750D01*
X0028750Y0133750D01*
X0028750Y0028750D01*
X0130750Y0028750D02*
X0230750Y0028750D01*
X0230750Y0133750D01*
X0130750Y0133750D01*
X0130750Y0028750D01*
X0232750Y0028750D02*
X0332750Y0028750D01*
X0332750Y0133750D01*
X0232750Y0133750D01*
X0232750Y0028750D01*
X0232750Y0135750D02*
X0332750Y0135750D01*
X0332750Y0240750D01*
X0232750Y0240750D01*
X0232750Y0135750D01*
X0230750Y0135750D02*
X0130750Y0135750D01*
X0130750Y0240750D01*
X0230750Y0240750D01*
X0230750Y0135750D01*
X0128750Y0135750D02*
X0028750Y0135750D01*
X0028750Y0240750D01*
X0128750Y0240750D01*
X0128750Y0135750D01*
X0128750Y0242750D02*
X0028750Y0242750D01*
X0028750Y0347750D01*
X0128750Y0347750D01*
X0128750Y0242750D01*
X0130750Y0242750D02*
X0230750Y0242750D01*
X0230750Y0347750D01*
X0130750Y0347750D01*
X0130750Y0242750D01*
X0232750Y0242750D02*
X0332750Y0242750D01*
X0332750Y0347750D01*
X0232750Y0347750D01*
X0232750Y0242750D01*
D11*
X0384750Y0241750D02*
X0001750Y0241750D01*
X0001750Y0348750D02*
X0384750Y0348750D01*
X0333750Y0399750D02*
X0333750Y0001750D01*
X0384750Y0027750D02*
X0001750Y0027750D01*
X0027750Y0001750D02*
X0027750Y0399750D01*
X0129750Y0399750D02*
X0129750Y0001750D01*
X0231750Y0001750D02*
X0231750Y0399750D01*
X0384750Y0134750D02*
X0001750Y0134750D01*
D12*
X0011852Y0405800D02*
X0013163Y0409733D01*
X0010541Y0409733D02*
X0011852Y0405800D01*
X0015834Y0408094D02*
X0019768Y0408094D01*
X0023136Y0408094D02*
X0024774Y0407439D01*
X0024775Y0407439D02*
X0024827Y0407416D01*
X0024878Y0407389D01*
X0024927Y0407359D01*
X0024974Y0407326D01*
X0025019Y0407290D01*
X0025061Y0407250D01*
X0025100Y0407208D01*
X0025136Y0407164D01*
X0025169Y0407117D01*
X0025199Y0407067D01*
X0025226Y0407016D01*
X0025249Y0406964D01*
X0025268Y0406910D01*
X0025284Y0406854D01*
X0025296Y0406798D01*
X0025304Y0406741D01*
X0025308Y0406684D01*
X0025309Y0406626D01*
X0025305Y0406569D01*
X0025298Y0406512D01*
X0025286Y0406455D01*
X0025271Y0406400D01*
X0025253Y0406345D01*
X0025230Y0406292D01*
X0025204Y0406241D01*
X0025175Y0406192D01*
X0025142Y0406144D01*
X0025106Y0406099D01*
X0025068Y0406057D01*
X0025026Y0406017D01*
X0024982Y0405980D01*
X0024935Y0405946D01*
X0024887Y0405915D01*
X0024836Y0405888D01*
X0024784Y0405864D01*
X0024730Y0405844D01*
X0024675Y0405828D01*
X0024619Y0405815D01*
X0024562Y0405806D01*
X0024504Y0405801D01*
X0024447Y0405800D01*
X0024938Y0409405D02*
X0024831Y0409451D01*
X0024722Y0409494D01*
X0024612Y0409534D01*
X0024500Y0409570D01*
X0024388Y0409602D01*
X0024274Y0409631D01*
X0024160Y0409657D01*
X0024045Y0409678D01*
X0023930Y0409697D01*
X0023813Y0409711D01*
X0023697Y0409722D01*
X0023580Y0409729D01*
X0023463Y0409733D01*
X0023463Y0409734D02*
X0023406Y0409733D01*
X0023348Y0409728D01*
X0023291Y0409719D01*
X0023235Y0409706D01*
X0023180Y0409690D01*
X0023126Y0409670D01*
X0023074Y0409646D01*
X0023023Y0409619D01*
X0022975Y0409588D01*
X0022928Y0409554D01*
X0022884Y0409517D01*
X0022842Y0409477D01*
X0022804Y0409435D01*
X0022768Y0409390D01*
X0022735Y0409342D01*
X0022706Y0409293D01*
X0022680Y0409242D01*
X0022657Y0409189D01*
X0022639Y0409134D01*
X0022624Y0409079D01*
X0022612Y0409022D01*
X0022605Y0408965D01*
X0022601Y0408908D01*
X0022602Y0408850D01*
X0022606Y0408793D01*
X0022614Y0408736D01*
X0022626Y0408680D01*
X0022642Y0408624D01*
X0022661Y0408570D01*
X0022684Y0408518D01*
X0022711Y0408467D01*
X0022741Y0408417D01*
X0022774Y0408370D01*
X0022810Y0408326D01*
X0022849Y0408284D01*
X0022891Y0408244D01*
X0022936Y0408208D01*
X0022983Y0408175D01*
X0023032Y0408145D01*
X0023083Y0408118D01*
X0023135Y0408095D01*
X0022644Y0406128D02*
X0022778Y0406082D01*
X0022913Y0406039D01*
X0023049Y0406000D01*
X0023186Y0405964D01*
X0023323Y0405932D01*
X0023462Y0405903D01*
X0023601Y0405877D01*
X0023741Y0405856D01*
X0023882Y0405837D01*
X0024022Y0405823D01*
X0024164Y0405812D01*
X0024305Y0405804D01*
X0024447Y0405801D01*
X0027988Y0406783D02*
X0027988Y0408750D01*
X0027990Y0408812D01*
X0027996Y0408873D01*
X0028005Y0408934D01*
X0028019Y0408994D01*
X0028036Y0409054D01*
X0028057Y0409112D01*
X0028082Y0409169D01*
X0028110Y0409224D01*
X0028141Y0409277D01*
X0028176Y0409328D01*
X0028214Y0409377D01*
X0028254Y0409423D01*
X0028298Y0409467D01*
X0028344Y0409507D01*
X0028393Y0409545D01*
X0028444Y0409580D01*
X0028497Y0409611D01*
X0028552Y0409639D01*
X0028609Y0409664D01*
X0028667Y0409685D01*
X0028727Y0409702D01*
X0028787Y0409716D01*
X0028848Y0409725D01*
X0028909Y0409731D01*
X0028971Y0409733D01*
X0030282Y0409733D01*
X0032695Y0408422D02*
X0032695Y0407111D01*
X0032696Y0407111D02*
X0032698Y0407040D01*
X0032704Y0406969D01*
X0032713Y0406899D01*
X0032727Y0406829D01*
X0032744Y0406760D01*
X0032765Y0406692D01*
X0032789Y0406626D01*
X0032817Y0406561D01*
X0032849Y0406497D01*
X0032884Y0406435D01*
X0032922Y0406375D01*
X0032963Y0406318D01*
X0033008Y0406262D01*
X0033055Y0406209D01*
X0033105Y0406159D01*
X0033158Y0406112D01*
X0033214Y0406067D01*
X0033271Y0406026D01*
X0033331Y0405988D01*
X0033393Y0405953D01*
X0033457Y0405921D01*
X0033522Y0405893D01*
X0033588Y0405869D01*
X0033656Y0405848D01*
X0033725Y0405831D01*
X0033795Y0405817D01*
X0033865Y0405808D01*
X0033936Y0405802D01*
X0034007Y0405800D01*
X0034078Y0405802D01*
X0034149Y0405808D01*
X0034219Y0405817D01*
X0034289Y0405831D01*
X0034358Y0405848D01*
X0034426Y0405869D01*
X0034492Y0405893D01*
X0034557Y0405921D01*
X0034621Y0405953D01*
X0034683Y0405988D01*
X0034743Y0406026D01*
X0034800Y0406067D01*
X0034856Y0406112D01*
X0034909Y0406159D01*
X0034959Y0406209D01*
X0035006Y0406262D01*
X0035051Y0406318D01*
X0035092Y0406375D01*
X0035130Y0406435D01*
X0035165Y0406497D01*
X0035197Y0406561D01*
X0035225Y0406626D01*
X0035249Y0406692D01*
X0035270Y0406760D01*
X0035287Y0406829D01*
X0035301Y0406899D01*
X0035310Y0406969D01*
X0035316Y0407040D01*
X0035318Y0407111D01*
X0035318Y0408422D01*
X0035316Y0408493D01*
X0035310Y0408564D01*
X0035301Y0408634D01*
X0035287Y0408704D01*
X0035270Y0408773D01*
X0035249Y0408841D01*
X0035225Y0408907D01*
X0035197Y0408972D01*
X0035165Y0409036D01*
X0035130Y0409098D01*
X0035092Y0409158D01*
X0035051Y0409215D01*
X0035006Y0409271D01*
X0034959Y0409324D01*
X0034909Y0409374D01*
X0034856Y0409421D01*
X0034800Y0409466D01*
X0034743Y0409507D01*
X0034683Y0409545D01*
X0034621Y0409580D01*
X0034557Y0409612D01*
X0034492Y0409640D01*
X0034426Y0409664D01*
X0034358Y0409685D01*
X0034289Y0409702D01*
X0034219Y0409716D01*
X0034149Y0409725D01*
X0034078Y0409731D01*
X0034007Y0409733D01*
X0033936Y0409731D01*
X0033865Y0409725D01*
X0033795Y0409716D01*
X0033725Y0409702D01*
X0033656Y0409685D01*
X0033588Y0409664D01*
X0033522Y0409640D01*
X0033457Y0409612D01*
X0033393Y0409580D01*
X0033331Y0409545D01*
X0033271Y0409507D01*
X0033214Y0409466D01*
X0033158Y0409421D01*
X0033105Y0409374D01*
X0033055Y0409324D01*
X0033008Y0409271D01*
X0032963Y0409215D01*
X0032922Y0409158D01*
X0032884Y0409098D01*
X0032849Y0409036D01*
X0032817Y0408972D01*
X0032789Y0408907D01*
X0032765Y0408841D01*
X0032744Y0408773D01*
X0032727Y0408704D01*
X0032713Y0408634D01*
X0032704Y0408564D01*
X0032698Y0408493D01*
X0032696Y0408422D01*
X0030282Y0405800D02*
X0028971Y0405800D01*
X0028909Y0405802D01*
X0028848Y0405808D01*
X0028787Y0405817D01*
X0028727Y0405831D01*
X0028667Y0405848D01*
X0028609Y0405869D01*
X0028552Y0405894D01*
X0028497Y0405922D01*
X0028444Y0405953D01*
X0028393Y0405988D01*
X0028344Y0406026D01*
X0028298Y0406066D01*
X0028254Y0406110D01*
X0028214Y0406156D01*
X0028176Y0406205D01*
X0028141Y0406256D01*
X0028110Y0406309D01*
X0028082Y0406364D01*
X0028057Y0406421D01*
X0028036Y0406479D01*
X0028019Y0406539D01*
X0028005Y0406599D01*
X0027996Y0406660D01*
X0027990Y0406721D01*
X0027988Y0406783D01*
X0038284Y0405800D02*
X0038284Y0409733D01*
X0040251Y0409733D01*
X0040251Y0409078D01*
X0042337Y0408422D02*
X0042337Y0406783D01*
X0042339Y0406721D01*
X0042345Y0406660D01*
X0042354Y0406599D01*
X0042368Y0406539D01*
X0042385Y0406479D01*
X0042406Y0406421D01*
X0042431Y0406364D01*
X0042459Y0406309D01*
X0042490Y0406256D01*
X0042525Y0406205D01*
X0042563Y0406156D01*
X0042603Y0406110D01*
X0042647Y0406066D01*
X0042693Y0406026D01*
X0042742Y0405988D01*
X0042793Y0405953D01*
X0042846Y0405922D01*
X0042901Y0405894D01*
X0042958Y0405869D01*
X0043016Y0405848D01*
X0043076Y0405831D01*
X0043136Y0405817D01*
X0043197Y0405808D01*
X0043258Y0405802D01*
X0043320Y0405800D01*
X0044959Y0405800D01*
X0044959Y0407767D02*
X0042337Y0407767D01*
X0042337Y0408422D02*
X0042339Y0408493D01*
X0042345Y0408564D01*
X0042354Y0408634D01*
X0042368Y0408704D01*
X0042385Y0408773D01*
X0042406Y0408841D01*
X0042430Y0408907D01*
X0042458Y0408972D01*
X0042490Y0409036D01*
X0042525Y0409098D01*
X0042563Y0409158D01*
X0042604Y0409215D01*
X0042649Y0409271D01*
X0042696Y0409324D01*
X0042746Y0409374D01*
X0042799Y0409421D01*
X0042855Y0409466D01*
X0042912Y0409507D01*
X0042972Y0409545D01*
X0043034Y0409580D01*
X0043098Y0409612D01*
X0043163Y0409640D01*
X0043229Y0409664D01*
X0043297Y0409685D01*
X0043366Y0409702D01*
X0043436Y0409716D01*
X0043506Y0409725D01*
X0043577Y0409731D01*
X0043648Y0409733D01*
X0043719Y0409731D01*
X0043790Y0409725D01*
X0043860Y0409716D01*
X0043930Y0409702D01*
X0043999Y0409685D01*
X0044067Y0409664D01*
X0044133Y0409640D01*
X0044198Y0409612D01*
X0044262Y0409580D01*
X0044324Y0409545D01*
X0044384Y0409507D01*
X0044441Y0409466D01*
X0044497Y0409421D01*
X0044550Y0409374D01*
X0044600Y0409324D01*
X0044647Y0409271D01*
X0044692Y0409215D01*
X0044733Y0409158D01*
X0044771Y0409098D01*
X0044806Y0409036D01*
X0044838Y0408972D01*
X0044866Y0408907D01*
X0044890Y0408841D01*
X0044911Y0408773D01*
X0044928Y0408704D01*
X0044942Y0408634D01*
X0044951Y0408564D01*
X0044957Y0408493D01*
X0044959Y0408422D01*
X0044959Y0407767D01*
X0112541Y0409733D02*
X0113852Y0405800D01*
X0115163Y0409733D01*
X0117834Y0408094D02*
X0121768Y0408094D01*
X0125136Y0408094D02*
X0126774Y0407439D01*
X0126775Y0407439D02*
X0126827Y0407416D01*
X0126878Y0407389D01*
X0126927Y0407359D01*
X0126974Y0407326D01*
X0127019Y0407290D01*
X0127061Y0407250D01*
X0127100Y0407208D01*
X0127136Y0407164D01*
X0127169Y0407117D01*
X0127199Y0407067D01*
X0127226Y0407016D01*
X0127249Y0406964D01*
X0127268Y0406910D01*
X0127284Y0406854D01*
X0127296Y0406798D01*
X0127304Y0406741D01*
X0127308Y0406684D01*
X0127309Y0406626D01*
X0127305Y0406569D01*
X0127298Y0406512D01*
X0127286Y0406455D01*
X0127271Y0406400D01*
X0127253Y0406345D01*
X0127230Y0406292D01*
X0127204Y0406241D01*
X0127175Y0406192D01*
X0127142Y0406144D01*
X0127106Y0406099D01*
X0127068Y0406057D01*
X0127026Y0406017D01*
X0126982Y0405980D01*
X0126935Y0405946D01*
X0126887Y0405915D01*
X0126836Y0405888D01*
X0126784Y0405864D01*
X0126730Y0405844D01*
X0126675Y0405828D01*
X0126619Y0405815D01*
X0126562Y0405806D01*
X0126504Y0405801D01*
X0126447Y0405800D01*
X0126938Y0409405D02*
X0126831Y0409451D01*
X0126722Y0409494D01*
X0126612Y0409534D01*
X0126500Y0409570D01*
X0126388Y0409602D01*
X0126274Y0409631D01*
X0126160Y0409657D01*
X0126045Y0409678D01*
X0125930Y0409697D01*
X0125813Y0409711D01*
X0125697Y0409722D01*
X0125580Y0409729D01*
X0125463Y0409733D01*
X0125463Y0409734D02*
X0125406Y0409733D01*
X0125348Y0409728D01*
X0125291Y0409719D01*
X0125235Y0409706D01*
X0125180Y0409690D01*
X0125126Y0409670D01*
X0125074Y0409646D01*
X0125023Y0409619D01*
X0124975Y0409588D01*
X0124928Y0409554D01*
X0124884Y0409517D01*
X0124842Y0409477D01*
X0124804Y0409435D01*
X0124768Y0409390D01*
X0124735Y0409342D01*
X0124706Y0409293D01*
X0124680Y0409242D01*
X0124657Y0409189D01*
X0124639Y0409134D01*
X0124624Y0409079D01*
X0124612Y0409022D01*
X0124605Y0408965D01*
X0124601Y0408908D01*
X0124602Y0408850D01*
X0124606Y0408793D01*
X0124614Y0408736D01*
X0124626Y0408680D01*
X0124642Y0408624D01*
X0124661Y0408570D01*
X0124684Y0408518D01*
X0124711Y0408467D01*
X0124741Y0408417D01*
X0124774Y0408370D01*
X0124810Y0408326D01*
X0124849Y0408284D01*
X0124891Y0408244D01*
X0124936Y0408208D01*
X0124983Y0408175D01*
X0125032Y0408145D01*
X0125083Y0408118D01*
X0125135Y0408095D01*
X0124644Y0406128D02*
X0124778Y0406082D01*
X0124913Y0406039D01*
X0125049Y0406000D01*
X0125186Y0405964D01*
X0125323Y0405932D01*
X0125462Y0405903D01*
X0125601Y0405877D01*
X0125741Y0405856D01*
X0125882Y0405837D01*
X0126022Y0405823D01*
X0126164Y0405812D01*
X0126305Y0405804D01*
X0126447Y0405801D01*
X0129988Y0406783D02*
X0129988Y0408750D01*
X0129990Y0408812D01*
X0129996Y0408873D01*
X0130005Y0408934D01*
X0130019Y0408994D01*
X0130036Y0409054D01*
X0130057Y0409112D01*
X0130082Y0409169D01*
X0130110Y0409224D01*
X0130141Y0409277D01*
X0130176Y0409328D01*
X0130214Y0409377D01*
X0130254Y0409423D01*
X0130298Y0409467D01*
X0130344Y0409507D01*
X0130393Y0409545D01*
X0130444Y0409580D01*
X0130497Y0409611D01*
X0130552Y0409639D01*
X0130609Y0409664D01*
X0130667Y0409685D01*
X0130727Y0409702D01*
X0130787Y0409716D01*
X0130848Y0409725D01*
X0130909Y0409731D01*
X0130971Y0409733D01*
X0132282Y0409733D01*
X0134695Y0408422D02*
X0134695Y0407111D01*
X0134696Y0407111D02*
X0134698Y0407040D01*
X0134704Y0406969D01*
X0134713Y0406899D01*
X0134727Y0406829D01*
X0134744Y0406760D01*
X0134765Y0406692D01*
X0134789Y0406626D01*
X0134817Y0406561D01*
X0134849Y0406497D01*
X0134884Y0406435D01*
X0134922Y0406375D01*
X0134963Y0406318D01*
X0135008Y0406262D01*
X0135055Y0406209D01*
X0135105Y0406159D01*
X0135158Y0406112D01*
X0135214Y0406067D01*
X0135271Y0406026D01*
X0135331Y0405988D01*
X0135393Y0405953D01*
X0135457Y0405921D01*
X0135522Y0405893D01*
X0135588Y0405869D01*
X0135656Y0405848D01*
X0135725Y0405831D01*
X0135795Y0405817D01*
X0135865Y0405808D01*
X0135936Y0405802D01*
X0136007Y0405800D01*
X0136078Y0405802D01*
X0136149Y0405808D01*
X0136219Y0405817D01*
X0136289Y0405831D01*
X0136358Y0405848D01*
X0136426Y0405869D01*
X0136492Y0405893D01*
X0136557Y0405921D01*
X0136621Y0405953D01*
X0136683Y0405988D01*
X0136743Y0406026D01*
X0136800Y0406067D01*
X0136856Y0406112D01*
X0136909Y0406159D01*
X0136959Y0406209D01*
X0137006Y0406262D01*
X0137051Y0406318D01*
X0137092Y0406375D01*
X0137130Y0406435D01*
X0137165Y0406497D01*
X0137197Y0406561D01*
X0137225Y0406626D01*
X0137249Y0406692D01*
X0137270Y0406760D01*
X0137287Y0406829D01*
X0137301Y0406899D01*
X0137310Y0406969D01*
X0137316Y0407040D01*
X0137318Y0407111D01*
X0137318Y0408422D01*
X0137316Y0408493D01*
X0137310Y0408564D01*
X0137301Y0408634D01*
X0137287Y0408704D01*
X0137270Y0408773D01*
X0137249Y0408841D01*
X0137225Y0408907D01*
X0137197Y0408972D01*
X0137165Y0409036D01*
X0137130Y0409098D01*
X0137092Y0409158D01*
X0137051Y0409215D01*
X0137006Y0409271D01*
X0136959Y0409324D01*
X0136909Y0409374D01*
X0136856Y0409421D01*
X0136800Y0409466D01*
X0136743Y0409507D01*
X0136683Y0409545D01*
X0136621Y0409580D01*
X0136557Y0409612D01*
X0136492Y0409640D01*
X0136426Y0409664D01*
X0136358Y0409685D01*
X0136289Y0409702D01*
X0136219Y0409716D01*
X0136149Y0409725D01*
X0136078Y0409731D01*
X0136007Y0409733D01*
X0135936Y0409731D01*
X0135865Y0409725D01*
X0135795Y0409716D01*
X0135725Y0409702D01*
X0135656Y0409685D01*
X0135588Y0409664D01*
X0135522Y0409640D01*
X0135457Y0409612D01*
X0135393Y0409580D01*
X0135331Y0409545D01*
X0135271Y0409507D01*
X0135214Y0409466D01*
X0135158Y0409421D01*
X0135105Y0409374D01*
X0135055Y0409324D01*
X0135008Y0409271D01*
X0134963Y0409215D01*
X0134922Y0409158D01*
X0134884Y0409098D01*
X0134849Y0409036D01*
X0134817Y0408972D01*
X0134789Y0408907D01*
X0134765Y0408841D01*
X0134744Y0408773D01*
X0134727Y0408704D01*
X0134713Y0408634D01*
X0134704Y0408564D01*
X0134698Y0408493D01*
X0134696Y0408422D01*
X0132282Y0405800D02*
X0130971Y0405800D01*
X0130909Y0405802D01*
X0130848Y0405808D01*
X0130787Y0405817D01*
X0130727Y0405831D01*
X0130667Y0405848D01*
X0130609Y0405869D01*
X0130552Y0405894D01*
X0130497Y0405922D01*
X0130444Y0405953D01*
X0130393Y0405988D01*
X0130344Y0406026D01*
X0130298Y0406066D01*
X0130254Y0406110D01*
X0130214Y0406156D01*
X0130176Y0406205D01*
X0130141Y0406256D01*
X0130110Y0406309D01*
X0130082Y0406364D01*
X0130057Y0406421D01*
X0130036Y0406479D01*
X0130019Y0406539D01*
X0130005Y0406599D01*
X0129996Y0406660D01*
X0129990Y0406721D01*
X0129988Y0406783D01*
X0140284Y0405800D02*
X0140284Y0409733D01*
X0142251Y0409733D01*
X0142251Y0409078D01*
X0144337Y0408422D02*
X0144337Y0406783D01*
X0144339Y0406721D01*
X0144345Y0406660D01*
X0144354Y0406599D01*
X0144368Y0406539D01*
X0144385Y0406479D01*
X0144406Y0406421D01*
X0144431Y0406364D01*
X0144459Y0406309D01*
X0144490Y0406256D01*
X0144525Y0406205D01*
X0144563Y0406156D01*
X0144603Y0406110D01*
X0144647Y0406066D01*
X0144693Y0406026D01*
X0144742Y0405988D01*
X0144793Y0405953D01*
X0144846Y0405922D01*
X0144901Y0405894D01*
X0144958Y0405869D01*
X0145016Y0405848D01*
X0145076Y0405831D01*
X0145136Y0405817D01*
X0145197Y0405808D01*
X0145258Y0405802D01*
X0145320Y0405800D01*
X0146959Y0405800D01*
X0146959Y0407767D02*
X0144337Y0407767D01*
X0144337Y0408422D02*
X0144339Y0408493D01*
X0144345Y0408564D01*
X0144354Y0408634D01*
X0144368Y0408704D01*
X0144385Y0408773D01*
X0144406Y0408841D01*
X0144430Y0408907D01*
X0144458Y0408972D01*
X0144490Y0409036D01*
X0144525Y0409098D01*
X0144563Y0409158D01*
X0144604Y0409215D01*
X0144649Y0409271D01*
X0144696Y0409324D01*
X0144746Y0409374D01*
X0144799Y0409421D01*
X0144855Y0409466D01*
X0144912Y0409507D01*
X0144972Y0409545D01*
X0145034Y0409580D01*
X0145098Y0409612D01*
X0145163Y0409640D01*
X0145229Y0409664D01*
X0145297Y0409685D01*
X0145366Y0409702D01*
X0145436Y0409716D01*
X0145506Y0409725D01*
X0145577Y0409731D01*
X0145648Y0409733D01*
X0145719Y0409731D01*
X0145790Y0409725D01*
X0145860Y0409716D01*
X0145930Y0409702D01*
X0145999Y0409685D01*
X0146067Y0409664D01*
X0146133Y0409640D01*
X0146198Y0409612D01*
X0146262Y0409580D01*
X0146324Y0409545D01*
X0146384Y0409507D01*
X0146441Y0409466D01*
X0146497Y0409421D01*
X0146550Y0409374D01*
X0146600Y0409324D01*
X0146647Y0409271D01*
X0146692Y0409215D01*
X0146733Y0409158D01*
X0146771Y0409098D01*
X0146806Y0409036D01*
X0146838Y0408972D01*
X0146866Y0408907D01*
X0146890Y0408841D01*
X0146911Y0408773D01*
X0146928Y0408704D01*
X0146942Y0408634D01*
X0146951Y0408564D01*
X0146957Y0408493D01*
X0146959Y0408422D01*
X0146959Y0407767D01*
X0214541Y0409733D02*
X0215852Y0405800D01*
X0217163Y0409733D01*
X0219834Y0408094D02*
X0223768Y0408094D01*
X0227136Y0408094D02*
X0228774Y0407439D01*
X0228775Y0407439D02*
X0228827Y0407416D01*
X0228878Y0407389D01*
X0228927Y0407359D01*
X0228974Y0407326D01*
X0229019Y0407290D01*
X0229061Y0407250D01*
X0229100Y0407208D01*
X0229136Y0407164D01*
X0229169Y0407117D01*
X0229199Y0407067D01*
X0229226Y0407016D01*
X0229249Y0406964D01*
X0229268Y0406910D01*
X0229284Y0406854D01*
X0229296Y0406798D01*
X0229304Y0406741D01*
X0229308Y0406684D01*
X0229309Y0406626D01*
X0229305Y0406569D01*
X0229298Y0406512D01*
X0229286Y0406455D01*
X0229271Y0406400D01*
X0229253Y0406345D01*
X0229230Y0406292D01*
X0229204Y0406241D01*
X0229175Y0406192D01*
X0229142Y0406144D01*
X0229106Y0406099D01*
X0229068Y0406057D01*
X0229026Y0406017D01*
X0228982Y0405980D01*
X0228935Y0405946D01*
X0228887Y0405915D01*
X0228836Y0405888D01*
X0228784Y0405864D01*
X0228730Y0405844D01*
X0228675Y0405828D01*
X0228619Y0405815D01*
X0228562Y0405806D01*
X0228504Y0405801D01*
X0228447Y0405800D01*
X0228938Y0409405D02*
X0228831Y0409451D01*
X0228722Y0409494D01*
X0228612Y0409534D01*
X0228500Y0409570D01*
X0228388Y0409602D01*
X0228274Y0409631D01*
X0228160Y0409657D01*
X0228045Y0409678D01*
X0227930Y0409697D01*
X0227813Y0409711D01*
X0227697Y0409722D01*
X0227580Y0409729D01*
X0227463Y0409733D01*
X0227463Y0409734D02*
X0227406Y0409733D01*
X0227348Y0409728D01*
X0227291Y0409719D01*
X0227235Y0409706D01*
X0227180Y0409690D01*
X0227126Y0409670D01*
X0227074Y0409646D01*
X0227023Y0409619D01*
X0226975Y0409588D01*
X0226928Y0409554D01*
X0226884Y0409517D01*
X0226842Y0409477D01*
X0226804Y0409435D01*
X0226768Y0409390D01*
X0226735Y0409342D01*
X0226706Y0409293D01*
X0226680Y0409242D01*
X0226657Y0409189D01*
X0226639Y0409134D01*
X0226624Y0409079D01*
X0226612Y0409022D01*
X0226605Y0408965D01*
X0226601Y0408908D01*
X0226602Y0408850D01*
X0226606Y0408793D01*
X0226614Y0408736D01*
X0226626Y0408680D01*
X0226642Y0408624D01*
X0226661Y0408570D01*
X0226684Y0408518D01*
X0226711Y0408467D01*
X0226741Y0408417D01*
X0226774Y0408370D01*
X0226810Y0408326D01*
X0226849Y0408284D01*
X0226891Y0408244D01*
X0226936Y0408208D01*
X0226983Y0408175D01*
X0227032Y0408145D01*
X0227083Y0408118D01*
X0227135Y0408095D01*
X0226644Y0406128D02*
X0226778Y0406082D01*
X0226913Y0406039D01*
X0227049Y0406000D01*
X0227186Y0405964D01*
X0227323Y0405932D01*
X0227462Y0405903D01*
X0227601Y0405877D01*
X0227741Y0405856D01*
X0227882Y0405837D01*
X0228022Y0405823D01*
X0228164Y0405812D01*
X0228305Y0405804D01*
X0228447Y0405801D01*
X0231988Y0406783D02*
X0231988Y0408750D01*
X0231990Y0408812D01*
X0231996Y0408873D01*
X0232005Y0408934D01*
X0232019Y0408994D01*
X0232036Y0409054D01*
X0232057Y0409112D01*
X0232082Y0409169D01*
X0232110Y0409224D01*
X0232141Y0409277D01*
X0232176Y0409328D01*
X0232214Y0409377D01*
X0232254Y0409423D01*
X0232298Y0409467D01*
X0232344Y0409507D01*
X0232393Y0409545D01*
X0232444Y0409580D01*
X0232497Y0409611D01*
X0232552Y0409639D01*
X0232609Y0409664D01*
X0232667Y0409685D01*
X0232727Y0409702D01*
X0232787Y0409716D01*
X0232848Y0409725D01*
X0232909Y0409731D01*
X0232971Y0409733D01*
X0234282Y0409733D01*
X0236695Y0408422D02*
X0236695Y0407111D01*
X0236696Y0407111D02*
X0236698Y0407040D01*
X0236704Y0406969D01*
X0236713Y0406899D01*
X0236727Y0406829D01*
X0236744Y0406760D01*
X0236765Y0406692D01*
X0236789Y0406626D01*
X0236817Y0406561D01*
X0236849Y0406497D01*
X0236884Y0406435D01*
X0236922Y0406375D01*
X0236963Y0406318D01*
X0237008Y0406262D01*
X0237055Y0406209D01*
X0237105Y0406159D01*
X0237158Y0406112D01*
X0237214Y0406067D01*
X0237271Y0406026D01*
X0237331Y0405988D01*
X0237393Y0405953D01*
X0237457Y0405921D01*
X0237522Y0405893D01*
X0237588Y0405869D01*
X0237656Y0405848D01*
X0237725Y0405831D01*
X0237795Y0405817D01*
X0237865Y0405808D01*
X0237936Y0405802D01*
X0238007Y0405800D01*
X0238078Y0405802D01*
X0238149Y0405808D01*
X0238219Y0405817D01*
X0238289Y0405831D01*
X0238358Y0405848D01*
X0238426Y0405869D01*
X0238492Y0405893D01*
X0238557Y0405921D01*
X0238621Y0405953D01*
X0238683Y0405988D01*
X0238743Y0406026D01*
X0238800Y0406067D01*
X0238856Y0406112D01*
X0238909Y0406159D01*
X0238959Y0406209D01*
X0239006Y0406262D01*
X0239051Y0406318D01*
X0239092Y0406375D01*
X0239130Y0406435D01*
X0239165Y0406497D01*
X0239197Y0406561D01*
X0239225Y0406626D01*
X0239249Y0406692D01*
X0239270Y0406760D01*
X0239287Y0406829D01*
X0239301Y0406899D01*
X0239310Y0406969D01*
X0239316Y0407040D01*
X0239318Y0407111D01*
X0239318Y0408422D01*
X0239316Y0408493D01*
X0239310Y0408564D01*
X0239301Y0408634D01*
X0239287Y0408704D01*
X0239270Y0408773D01*
X0239249Y0408841D01*
X0239225Y0408907D01*
X0239197Y0408972D01*
X0239165Y0409036D01*
X0239130Y0409098D01*
X0239092Y0409158D01*
X0239051Y0409215D01*
X0239006Y0409271D01*
X0238959Y0409324D01*
X0238909Y0409374D01*
X0238856Y0409421D01*
X0238800Y0409466D01*
X0238743Y0409507D01*
X0238683Y0409545D01*
X0238621Y0409580D01*
X0238557Y0409612D01*
X0238492Y0409640D01*
X0238426Y0409664D01*
X0238358Y0409685D01*
X0238289Y0409702D01*
X0238219Y0409716D01*
X0238149Y0409725D01*
X0238078Y0409731D01*
X0238007Y0409733D01*
X0237936Y0409731D01*
X0237865Y0409725D01*
X0237795Y0409716D01*
X0237725Y0409702D01*
X0237656Y0409685D01*
X0237588Y0409664D01*
X0237522Y0409640D01*
X0237457Y0409612D01*
X0237393Y0409580D01*
X0237331Y0409545D01*
X0237271Y0409507D01*
X0237214Y0409466D01*
X0237158Y0409421D01*
X0237105Y0409374D01*
X0237055Y0409324D01*
X0237008Y0409271D01*
X0236963Y0409215D01*
X0236922Y0409158D01*
X0236884Y0409098D01*
X0236849Y0409036D01*
X0236817Y0408972D01*
X0236789Y0408907D01*
X0236765Y0408841D01*
X0236744Y0408773D01*
X0236727Y0408704D01*
X0236713Y0408634D01*
X0236704Y0408564D01*
X0236698Y0408493D01*
X0236696Y0408422D01*
X0234282Y0405800D02*
X0232971Y0405800D01*
X0232909Y0405802D01*
X0232848Y0405808D01*
X0232787Y0405817D01*
X0232727Y0405831D01*
X0232667Y0405848D01*
X0232609Y0405869D01*
X0232552Y0405894D01*
X0232497Y0405922D01*
X0232444Y0405953D01*
X0232393Y0405988D01*
X0232344Y0406026D01*
X0232298Y0406066D01*
X0232254Y0406110D01*
X0232214Y0406156D01*
X0232176Y0406205D01*
X0232141Y0406256D01*
X0232110Y0406309D01*
X0232082Y0406364D01*
X0232057Y0406421D01*
X0232036Y0406479D01*
X0232019Y0406539D01*
X0232005Y0406599D01*
X0231996Y0406660D01*
X0231990Y0406721D01*
X0231988Y0406783D01*
X0242284Y0405800D02*
X0242284Y0409733D01*
X0244251Y0409733D01*
X0244251Y0409078D01*
X0246337Y0408422D02*
X0246337Y0406783D01*
X0246339Y0406721D01*
X0246345Y0406660D01*
X0246354Y0406599D01*
X0246368Y0406539D01*
X0246385Y0406479D01*
X0246406Y0406421D01*
X0246431Y0406364D01*
X0246459Y0406309D01*
X0246490Y0406256D01*
X0246525Y0406205D01*
X0246563Y0406156D01*
X0246603Y0406110D01*
X0246647Y0406066D01*
X0246693Y0406026D01*
X0246742Y0405988D01*
X0246793Y0405953D01*
X0246846Y0405922D01*
X0246901Y0405894D01*
X0246958Y0405869D01*
X0247016Y0405848D01*
X0247076Y0405831D01*
X0247136Y0405817D01*
X0247197Y0405808D01*
X0247258Y0405802D01*
X0247320Y0405800D01*
X0248959Y0405800D01*
X0248959Y0407767D02*
X0246337Y0407767D01*
X0246337Y0408422D02*
X0246339Y0408493D01*
X0246345Y0408564D01*
X0246354Y0408634D01*
X0246368Y0408704D01*
X0246385Y0408773D01*
X0246406Y0408841D01*
X0246430Y0408907D01*
X0246458Y0408972D01*
X0246490Y0409036D01*
X0246525Y0409098D01*
X0246563Y0409158D01*
X0246604Y0409215D01*
X0246649Y0409271D01*
X0246696Y0409324D01*
X0246746Y0409374D01*
X0246799Y0409421D01*
X0246855Y0409466D01*
X0246912Y0409507D01*
X0246972Y0409545D01*
X0247034Y0409580D01*
X0247098Y0409612D01*
X0247163Y0409640D01*
X0247229Y0409664D01*
X0247297Y0409685D01*
X0247366Y0409702D01*
X0247436Y0409716D01*
X0247506Y0409725D01*
X0247577Y0409731D01*
X0247648Y0409733D01*
X0247719Y0409731D01*
X0247790Y0409725D01*
X0247860Y0409716D01*
X0247930Y0409702D01*
X0247999Y0409685D01*
X0248067Y0409664D01*
X0248133Y0409640D01*
X0248198Y0409612D01*
X0248262Y0409580D01*
X0248324Y0409545D01*
X0248384Y0409507D01*
X0248441Y0409466D01*
X0248497Y0409421D01*
X0248550Y0409374D01*
X0248600Y0409324D01*
X0248647Y0409271D01*
X0248692Y0409215D01*
X0248733Y0409158D01*
X0248771Y0409098D01*
X0248806Y0409036D01*
X0248838Y0408972D01*
X0248866Y0408907D01*
X0248890Y0408841D01*
X0248911Y0408773D01*
X0248928Y0408704D01*
X0248942Y0408634D01*
X0248951Y0408564D01*
X0248957Y0408493D01*
X0248959Y0408422D01*
X0248959Y0407767D01*
X0316541Y0409733D02*
X0317852Y0405800D01*
X0319163Y0409733D01*
X0321834Y0408094D02*
X0325768Y0408094D01*
X0329136Y0408094D02*
X0330774Y0407439D01*
X0330775Y0407439D02*
X0330827Y0407416D01*
X0330878Y0407389D01*
X0330927Y0407359D01*
X0330974Y0407326D01*
X0331019Y0407290D01*
X0331061Y0407250D01*
X0331100Y0407208D01*
X0331136Y0407164D01*
X0331169Y0407117D01*
X0331199Y0407067D01*
X0331226Y0407016D01*
X0331249Y0406964D01*
X0331268Y0406910D01*
X0331284Y0406854D01*
X0331296Y0406798D01*
X0331304Y0406741D01*
X0331308Y0406684D01*
X0331309Y0406626D01*
X0331305Y0406569D01*
X0331298Y0406512D01*
X0331286Y0406455D01*
X0331271Y0406400D01*
X0331253Y0406345D01*
X0331230Y0406292D01*
X0331204Y0406241D01*
X0331175Y0406192D01*
X0331142Y0406144D01*
X0331106Y0406099D01*
X0331068Y0406057D01*
X0331026Y0406017D01*
X0330982Y0405980D01*
X0330935Y0405946D01*
X0330887Y0405915D01*
X0330836Y0405888D01*
X0330784Y0405864D01*
X0330730Y0405844D01*
X0330675Y0405828D01*
X0330619Y0405815D01*
X0330562Y0405806D01*
X0330504Y0405801D01*
X0330447Y0405800D01*
X0330938Y0409405D02*
X0330831Y0409451D01*
X0330722Y0409494D01*
X0330612Y0409534D01*
X0330500Y0409570D01*
X0330388Y0409602D01*
X0330274Y0409631D01*
X0330160Y0409657D01*
X0330045Y0409678D01*
X0329930Y0409697D01*
X0329813Y0409711D01*
X0329697Y0409722D01*
X0329580Y0409729D01*
X0329463Y0409733D01*
X0329463Y0409734D02*
X0329406Y0409733D01*
X0329348Y0409728D01*
X0329291Y0409719D01*
X0329235Y0409706D01*
X0329180Y0409690D01*
X0329126Y0409670D01*
X0329074Y0409646D01*
X0329023Y0409619D01*
X0328975Y0409588D01*
X0328928Y0409554D01*
X0328884Y0409517D01*
X0328842Y0409477D01*
X0328804Y0409435D01*
X0328768Y0409390D01*
X0328735Y0409342D01*
X0328706Y0409293D01*
X0328680Y0409242D01*
X0328657Y0409189D01*
X0328639Y0409134D01*
X0328624Y0409079D01*
X0328612Y0409022D01*
X0328605Y0408965D01*
X0328601Y0408908D01*
X0328602Y0408850D01*
X0328606Y0408793D01*
X0328614Y0408736D01*
X0328626Y0408680D01*
X0328642Y0408624D01*
X0328661Y0408570D01*
X0328684Y0408518D01*
X0328711Y0408467D01*
X0328741Y0408417D01*
X0328774Y0408370D01*
X0328810Y0408326D01*
X0328849Y0408284D01*
X0328891Y0408244D01*
X0328936Y0408208D01*
X0328983Y0408175D01*
X0329032Y0408145D01*
X0329083Y0408118D01*
X0329135Y0408095D01*
X0328644Y0406128D02*
X0328778Y0406082D01*
X0328913Y0406039D01*
X0329049Y0406000D01*
X0329186Y0405964D01*
X0329323Y0405932D01*
X0329462Y0405903D01*
X0329601Y0405877D01*
X0329741Y0405856D01*
X0329882Y0405837D01*
X0330022Y0405823D01*
X0330164Y0405812D01*
X0330305Y0405804D01*
X0330447Y0405801D01*
X0333988Y0406783D02*
X0333988Y0408750D01*
X0333990Y0408812D01*
X0333996Y0408873D01*
X0334005Y0408934D01*
X0334019Y0408994D01*
X0334036Y0409054D01*
X0334057Y0409112D01*
X0334082Y0409169D01*
X0334110Y0409224D01*
X0334141Y0409277D01*
X0334176Y0409328D01*
X0334214Y0409377D01*
X0334254Y0409423D01*
X0334298Y0409467D01*
X0334344Y0409507D01*
X0334393Y0409545D01*
X0334444Y0409580D01*
X0334497Y0409611D01*
X0334552Y0409639D01*
X0334609Y0409664D01*
X0334667Y0409685D01*
X0334727Y0409702D01*
X0334787Y0409716D01*
X0334848Y0409725D01*
X0334909Y0409731D01*
X0334971Y0409733D01*
X0336282Y0409733D01*
X0338695Y0408422D02*
X0338695Y0407111D01*
X0338696Y0407111D02*
X0338698Y0407040D01*
X0338704Y0406969D01*
X0338713Y0406899D01*
X0338727Y0406829D01*
X0338744Y0406760D01*
X0338765Y0406692D01*
X0338789Y0406626D01*
X0338817Y0406561D01*
X0338849Y0406497D01*
X0338884Y0406435D01*
X0338922Y0406375D01*
X0338963Y0406318D01*
X0339008Y0406262D01*
X0339055Y0406209D01*
X0339105Y0406159D01*
X0339158Y0406112D01*
X0339214Y0406067D01*
X0339271Y0406026D01*
X0339331Y0405988D01*
X0339393Y0405953D01*
X0339457Y0405921D01*
X0339522Y0405893D01*
X0339588Y0405869D01*
X0339656Y0405848D01*
X0339725Y0405831D01*
X0339795Y0405817D01*
X0339865Y0405808D01*
X0339936Y0405802D01*
X0340007Y0405800D01*
X0340078Y0405802D01*
X0340149Y0405808D01*
X0340219Y0405817D01*
X0340289Y0405831D01*
X0340358Y0405848D01*
X0340426Y0405869D01*
X0340492Y0405893D01*
X0340557Y0405921D01*
X0340621Y0405953D01*
X0340683Y0405988D01*
X0340743Y0406026D01*
X0340800Y0406067D01*
X0340856Y0406112D01*
X0340909Y0406159D01*
X0340959Y0406209D01*
X0341006Y0406262D01*
X0341051Y0406318D01*
X0341092Y0406375D01*
X0341130Y0406435D01*
X0341165Y0406497D01*
X0341197Y0406561D01*
X0341225Y0406626D01*
X0341249Y0406692D01*
X0341270Y0406760D01*
X0341287Y0406829D01*
X0341301Y0406899D01*
X0341310Y0406969D01*
X0341316Y0407040D01*
X0341318Y0407111D01*
X0341318Y0408422D01*
X0341316Y0408493D01*
X0341310Y0408564D01*
X0341301Y0408634D01*
X0341287Y0408704D01*
X0341270Y0408773D01*
X0341249Y0408841D01*
X0341225Y0408907D01*
X0341197Y0408972D01*
X0341165Y0409036D01*
X0341130Y0409098D01*
X0341092Y0409158D01*
X0341051Y0409215D01*
X0341006Y0409271D01*
X0340959Y0409324D01*
X0340909Y0409374D01*
X0340856Y0409421D01*
X0340800Y0409466D01*
X0340743Y0409507D01*
X0340683Y0409545D01*
X0340621Y0409580D01*
X0340557Y0409612D01*
X0340492Y0409640D01*
X0340426Y0409664D01*
X0340358Y0409685D01*
X0340289Y0409702D01*
X0340219Y0409716D01*
X0340149Y0409725D01*
X0340078Y0409731D01*
X0340007Y0409733D01*
X0339936Y0409731D01*
X0339865Y0409725D01*
X0339795Y0409716D01*
X0339725Y0409702D01*
X0339656Y0409685D01*
X0339588Y0409664D01*
X0339522Y0409640D01*
X0339457Y0409612D01*
X0339393Y0409580D01*
X0339331Y0409545D01*
X0339271Y0409507D01*
X0339214Y0409466D01*
X0339158Y0409421D01*
X0339105Y0409374D01*
X0339055Y0409324D01*
X0339008Y0409271D01*
X0338963Y0409215D01*
X0338922Y0409158D01*
X0338884Y0409098D01*
X0338849Y0409036D01*
X0338817Y0408972D01*
X0338789Y0408907D01*
X0338765Y0408841D01*
X0338744Y0408773D01*
X0338727Y0408704D01*
X0338713Y0408634D01*
X0338704Y0408564D01*
X0338698Y0408493D01*
X0338696Y0408422D01*
X0336282Y0405800D02*
X0334971Y0405800D01*
X0334909Y0405802D01*
X0334848Y0405808D01*
X0334787Y0405817D01*
X0334727Y0405831D01*
X0334667Y0405848D01*
X0334609Y0405869D01*
X0334552Y0405894D01*
X0334497Y0405922D01*
X0334444Y0405953D01*
X0334393Y0405988D01*
X0334344Y0406026D01*
X0334298Y0406066D01*
X0334254Y0406110D01*
X0334214Y0406156D01*
X0334176Y0406205D01*
X0334141Y0406256D01*
X0334110Y0406309D01*
X0334082Y0406364D01*
X0334057Y0406421D01*
X0334036Y0406479D01*
X0334019Y0406539D01*
X0334005Y0406599D01*
X0333996Y0406660D01*
X0333990Y0406721D01*
X0333988Y0406783D01*
X0344284Y0405800D02*
X0344284Y0409733D01*
X0346251Y0409733D01*
X0346251Y0409078D01*
X0348337Y0408422D02*
X0348337Y0406783D01*
X0348339Y0406721D01*
X0348345Y0406660D01*
X0348354Y0406599D01*
X0348368Y0406539D01*
X0348385Y0406479D01*
X0348406Y0406421D01*
X0348431Y0406364D01*
X0348459Y0406309D01*
X0348490Y0406256D01*
X0348525Y0406205D01*
X0348563Y0406156D01*
X0348603Y0406110D01*
X0348647Y0406066D01*
X0348693Y0406026D01*
X0348742Y0405988D01*
X0348793Y0405953D01*
X0348846Y0405922D01*
X0348901Y0405894D01*
X0348958Y0405869D01*
X0349016Y0405848D01*
X0349076Y0405831D01*
X0349136Y0405817D01*
X0349197Y0405808D01*
X0349258Y0405802D01*
X0349320Y0405800D01*
X0350959Y0405800D01*
X0350959Y0407767D02*
X0348337Y0407767D01*
X0348337Y0408422D02*
X0348339Y0408493D01*
X0348345Y0408564D01*
X0348354Y0408634D01*
X0348368Y0408704D01*
X0348385Y0408773D01*
X0348406Y0408841D01*
X0348430Y0408907D01*
X0348458Y0408972D01*
X0348490Y0409036D01*
X0348525Y0409098D01*
X0348563Y0409158D01*
X0348604Y0409215D01*
X0348649Y0409271D01*
X0348696Y0409324D01*
X0348746Y0409374D01*
X0348799Y0409421D01*
X0348855Y0409466D01*
X0348912Y0409507D01*
X0348972Y0409545D01*
X0349034Y0409580D01*
X0349098Y0409612D01*
X0349163Y0409640D01*
X0349229Y0409664D01*
X0349297Y0409685D01*
X0349366Y0409702D01*
X0349436Y0409716D01*
X0349506Y0409725D01*
X0349577Y0409731D01*
X0349648Y0409733D01*
X0349719Y0409731D01*
X0349790Y0409725D01*
X0349860Y0409716D01*
X0349930Y0409702D01*
X0349999Y0409685D01*
X0350067Y0409664D01*
X0350133Y0409640D01*
X0350198Y0409612D01*
X0350262Y0409580D01*
X0350324Y0409545D01*
X0350384Y0409507D01*
X0350441Y0409466D01*
X0350497Y0409421D01*
X0350550Y0409374D01*
X0350600Y0409324D01*
X0350647Y0409271D01*
X0350692Y0409215D01*
X0350733Y0409158D01*
X0350771Y0409098D01*
X0350806Y0409036D01*
X0350838Y0408972D01*
X0350866Y0408907D01*
X0350890Y0408841D01*
X0350911Y0408773D01*
X0350928Y0408704D01*
X0350942Y0408634D01*
X0350951Y0408564D01*
X0350957Y0408493D01*
X0350959Y0408422D01*
X0350959Y0407767D01*
X0397541Y0349733D02*
X0398852Y0345800D01*
X0400163Y0349733D01*
X0402834Y0348094D02*
X0406768Y0348094D01*
X0410136Y0348094D02*
X0411774Y0347439D01*
X0411775Y0347439D02*
X0411827Y0347416D01*
X0411878Y0347389D01*
X0411927Y0347359D01*
X0411974Y0347326D01*
X0412019Y0347290D01*
X0412061Y0347250D01*
X0412100Y0347208D01*
X0412136Y0347164D01*
X0412169Y0347117D01*
X0412199Y0347067D01*
X0412226Y0347016D01*
X0412249Y0346964D01*
X0412268Y0346910D01*
X0412284Y0346854D01*
X0412296Y0346798D01*
X0412304Y0346741D01*
X0412308Y0346684D01*
X0412309Y0346626D01*
X0412305Y0346569D01*
X0412298Y0346512D01*
X0412286Y0346455D01*
X0412271Y0346400D01*
X0412253Y0346345D01*
X0412230Y0346292D01*
X0412204Y0346241D01*
X0412175Y0346192D01*
X0412142Y0346144D01*
X0412106Y0346099D01*
X0412068Y0346057D01*
X0412026Y0346017D01*
X0411982Y0345980D01*
X0411935Y0345946D01*
X0411887Y0345915D01*
X0411836Y0345888D01*
X0411784Y0345864D01*
X0411730Y0345844D01*
X0411675Y0345828D01*
X0411619Y0345815D01*
X0411562Y0345806D01*
X0411504Y0345801D01*
X0411447Y0345800D01*
X0411938Y0349405D02*
X0411831Y0349451D01*
X0411722Y0349494D01*
X0411612Y0349534D01*
X0411500Y0349570D01*
X0411388Y0349602D01*
X0411274Y0349631D01*
X0411160Y0349657D01*
X0411045Y0349678D01*
X0410930Y0349697D01*
X0410813Y0349711D01*
X0410697Y0349722D01*
X0410580Y0349729D01*
X0410463Y0349733D01*
X0410463Y0349734D02*
X0410406Y0349733D01*
X0410348Y0349728D01*
X0410291Y0349719D01*
X0410235Y0349706D01*
X0410180Y0349690D01*
X0410126Y0349670D01*
X0410074Y0349646D01*
X0410023Y0349619D01*
X0409975Y0349588D01*
X0409928Y0349554D01*
X0409884Y0349517D01*
X0409842Y0349477D01*
X0409804Y0349435D01*
X0409768Y0349390D01*
X0409735Y0349342D01*
X0409706Y0349293D01*
X0409680Y0349242D01*
X0409657Y0349189D01*
X0409639Y0349134D01*
X0409624Y0349079D01*
X0409612Y0349022D01*
X0409605Y0348965D01*
X0409601Y0348908D01*
X0409602Y0348850D01*
X0409606Y0348793D01*
X0409614Y0348736D01*
X0409626Y0348680D01*
X0409642Y0348624D01*
X0409661Y0348570D01*
X0409684Y0348518D01*
X0409711Y0348467D01*
X0409741Y0348417D01*
X0409774Y0348370D01*
X0409810Y0348326D01*
X0409849Y0348284D01*
X0409891Y0348244D01*
X0409936Y0348208D01*
X0409983Y0348175D01*
X0410032Y0348145D01*
X0410083Y0348118D01*
X0410135Y0348095D01*
X0409644Y0346128D02*
X0409778Y0346082D01*
X0409913Y0346039D01*
X0410049Y0346000D01*
X0410186Y0345964D01*
X0410323Y0345932D01*
X0410462Y0345903D01*
X0410601Y0345877D01*
X0410741Y0345856D01*
X0410882Y0345837D01*
X0411022Y0345823D01*
X0411164Y0345812D01*
X0411305Y0345804D01*
X0411447Y0345801D01*
X0414988Y0346783D02*
X0414988Y0348750D01*
X0414990Y0348812D01*
X0414996Y0348873D01*
X0415005Y0348934D01*
X0415019Y0348994D01*
X0415036Y0349054D01*
X0415057Y0349112D01*
X0415082Y0349169D01*
X0415110Y0349224D01*
X0415141Y0349277D01*
X0415176Y0349328D01*
X0415214Y0349377D01*
X0415254Y0349423D01*
X0415298Y0349467D01*
X0415344Y0349507D01*
X0415393Y0349545D01*
X0415444Y0349580D01*
X0415497Y0349611D01*
X0415552Y0349639D01*
X0415609Y0349664D01*
X0415667Y0349685D01*
X0415727Y0349702D01*
X0415787Y0349716D01*
X0415848Y0349725D01*
X0415909Y0349731D01*
X0415971Y0349733D01*
X0417282Y0349733D01*
X0419695Y0348422D02*
X0419695Y0347111D01*
X0419696Y0347111D02*
X0419698Y0347040D01*
X0419704Y0346969D01*
X0419713Y0346899D01*
X0419727Y0346829D01*
X0419744Y0346760D01*
X0419765Y0346692D01*
X0419789Y0346626D01*
X0419817Y0346561D01*
X0419849Y0346497D01*
X0419884Y0346435D01*
X0419922Y0346375D01*
X0419963Y0346318D01*
X0420008Y0346262D01*
X0420055Y0346209D01*
X0420105Y0346159D01*
X0420158Y0346112D01*
X0420214Y0346067D01*
X0420271Y0346026D01*
X0420331Y0345988D01*
X0420393Y0345953D01*
X0420457Y0345921D01*
X0420522Y0345893D01*
X0420588Y0345869D01*
X0420656Y0345848D01*
X0420725Y0345831D01*
X0420795Y0345817D01*
X0420865Y0345808D01*
X0420936Y0345802D01*
X0421007Y0345800D01*
X0421078Y0345802D01*
X0421149Y0345808D01*
X0421219Y0345817D01*
X0421289Y0345831D01*
X0421358Y0345848D01*
X0421426Y0345869D01*
X0421492Y0345893D01*
X0421557Y0345921D01*
X0421621Y0345953D01*
X0421683Y0345988D01*
X0421743Y0346026D01*
X0421800Y0346067D01*
X0421856Y0346112D01*
X0421909Y0346159D01*
X0421959Y0346209D01*
X0422006Y0346262D01*
X0422051Y0346318D01*
X0422092Y0346375D01*
X0422130Y0346435D01*
X0422165Y0346497D01*
X0422197Y0346561D01*
X0422225Y0346626D01*
X0422249Y0346692D01*
X0422270Y0346760D01*
X0422287Y0346829D01*
X0422301Y0346899D01*
X0422310Y0346969D01*
X0422316Y0347040D01*
X0422318Y0347111D01*
X0422318Y0348422D01*
X0422316Y0348493D01*
X0422310Y0348564D01*
X0422301Y0348634D01*
X0422287Y0348704D01*
X0422270Y0348773D01*
X0422249Y0348841D01*
X0422225Y0348907D01*
X0422197Y0348972D01*
X0422165Y0349036D01*
X0422130Y0349098D01*
X0422092Y0349158D01*
X0422051Y0349215D01*
X0422006Y0349271D01*
X0421959Y0349324D01*
X0421909Y0349374D01*
X0421856Y0349421D01*
X0421800Y0349466D01*
X0421743Y0349507D01*
X0421683Y0349545D01*
X0421621Y0349580D01*
X0421557Y0349612D01*
X0421492Y0349640D01*
X0421426Y0349664D01*
X0421358Y0349685D01*
X0421289Y0349702D01*
X0421219Y0349716D01*
X0421149Y0349725D01*
X0421078Y0349731D01*
X0421007Y0349733D01*
X0420936Y0349731D01*
X0420865Y0349725D01*
X0420795Y0349716D01*
X0420725Y0349702D01*
X0420656Y0349685D01*
X0420588Y0349664D01*
X0420522Y0349640D01*
X0420457Y0349612D01*
X0420393Y0349580D01*
X0420331Y0349545D01*
X0420271Y0349507D01*
X0420214Y0349466D01*
X0420158Y0349421D01*
X0420105Y0349374D01*
X0420055Y0349324D01*
X0420008Y0349271D01*
X0419963Y0349215D01*
X0419922Y0349158D01*
X0419884Y0349098D01*
X0419849Y0349036D01*
X0419817Y0348972D01*
X0419789Y0348907D01*
X0419765Y0348841D01*
X0419744Y0348773D01*
X0419727Y0348704D01*
X0419713Y0348634D01*
X0419704Y0348564D01*
X0419698Y0348493D01*
X0419696Y0348422D01*
X0417282Y0345800D02*
X0415971Y0345800D01*
X0415909Y0345802D01*
X0415848Y0345808D01*
X0415787Y0345817D01*
X0415727Y0345831D01*
X0415667Y0345848D01*
X0415609Y0345869D01*
X0415552Y0345894D01*
X0415497Y0345922D01*
X0415444Y0345953D01*
X0415393Y0345988D01*
X0415344Y0346026D01*
X0415298Y0346066D01*
X0415254Y0346110D01*
X0415214Y0346156D01*
X0415176Y0346205D01*
X0415141Y0346256D01*
X0415110Y0346309D01*
X0415082Y0346364D01*
X0415057Y0346421D01*
X0415036Y0346479D01*
X0415019Y0346539D01*
X0415005Y0346599D01*
X0414996Y0346660D01*
X0414990Y0346721D01*
X0414988Y0346783D01*
X0425284Y0345800D02*
X0425284Y0349733D01*
X0427251Y0349733D01*
X0427251Y0349078D01*
X0429337Y0348422D02*
X0429337Y0346783D01*
X0429339Y0346721D01*
X0429345Y0346660D01*
X0429354Y0346599D01*
X0429368Y0346539D01*
X0429385Y0346479D01*
X0429406Y0346421D01*
X0429431Y0346364D01*
X0429459Y0346309D01*
X0429490Y0346256D01*
X0429525Y0346205D01*
X0429563Y0346156D01*
X0429603Y0346110D01*
X0429647Y0346066D01*
X0429693Y0346026D01*
X0429742Y0345988D01*
X0429793Y0345953D01*
X0429846Y0345922D01*
X0429901Y0345894D01*
X0429958Y0345869D01*
X0430016Y0345848D01*
X0430076Y0345831D01*
X0430136Y0345817D01*
X0430197Y0345808D01*
X0430258Y0345802D01*
X0430320Y0345800D01*
X0431959Y0345800D01*
X0431959Y0347767D02*
X0429337Y0347767D01*
X0429337Y0348422D02*
X0429339Y0348493D01*
X0429345Y0348564D01*
X0429354Y0348634D01*
X0429368Y0348704D01*
X0429385Y0348773D01*
X0429406Y0348841D01*
X0429430Y0348907D01*
X0429458Y0348972D01*
X0429490Y0349036D01*
X0429525Y0349098D01*
X0429563Y0349158D01*
X0429604Y0349215D01*
X0429649Y0349271D01*
X0429696Y0349324D01*
X0429746Y0349374D01*
X0429799Y0349421D01*
X0429855Y0349466D01*
X0429912Y0349507D01*
X0429972Y0349545D01*
X0430034Y0349580D01*
X0430098Y0349612D01*
X0430163Y0349640D01*
X0430229Y0349664D01*
X0430297Y0349685D01*
X0430366Y0349702D01*
X0430436Y0349716D01*
X0430506Y0349725D01*
X0430577Y0349731D01*
X0430648Y0349733D01*
X0430719Y0349731D01*
X0430790Y0349725D01*
X0430860Y0349716D01*
X0430930Y0349702D01*
X0430999Y0349685D01*
X0431067Y0349664D01*
X0431133Y0349640D01*
X0431198Y0349612D01*
X0431262Y0349580D01*
X0431324Y0349545D01*
X0431384Y0349507D01*
X0431441Y0349466D01*
X0431497Y0349421D01*
X0431550Y0349374D01*
X0431600Y0349324D01*
X0431647Y0349271D01*
X0431692Y0349215D01*
X0431733Y0349158D01*
X0431771Y0349098D01*
X0431806Y0349036D01*
X0431838Y0348972D01*
X0431866Y0348907D01*
X0431890Y0348841D01*
X0431911Y0348773D01*
X0431928Y0348704D01*
X0431942Y0348634D01*
X0431951Y0348564D01*
X0431957Y0348493D01*
X0431959Y0348422D01*
X0431959Y0347767D01*
X0427251Y0242733D02*
X0425284Y0242733D01*
X0425284Y0238800D01*
X0422318Y0240111D02*
X0422318Y0241422D01*
X0422316Y0241493D01*
X0422310Y0241564D01*
X0422301Y0241634D01*
X0422287Y0241704D01*
X0422270Y0241773D01*
X0422249Y0241841D01*
X0422225Y0241907D01*
X0422197Y0241972D01*
X0422165Y0242036D01*
X0422130Y0242098D01*
X0422092Y0242158D01*
X0422051Y0242215D01*
X0422006Y0242271D01*
X0421959Y0242324D01*
X0421909Y0242374D01*
X0421856Y0242421D01*
X0421800Y0242466D01*
X0421743Y0242507D01*
X0421683Y0242545D01*
X0421621Y0242580D01*
X0421557Y0242612D01*
X0421492Y0242640D01*
X0421426Y0242664D01*
X0421358Y0242685D01*
X0421289Y0242702D01*
X0421219Y0242716D01*
X0421149Y0242725D01*
X0421078Y0242731D01*
X0421007Y0242733D01*
X0420936Y0242731D01*
X0420865Y0242725D01*
X0420795Y0242716D01*
X0420725Y0242702D01*
X0420656Y0242685D01*
X0420588Y0242664D01*
X0420522Y0242640D01*
X0420457Y0242612D01*
X0420393Y0242580D01*
X0420331Y0242545D01*
X0420271Y0242507D01*
X0420214Y0242466D01*
X0420158Y0242421D01*
X0420105Y0242374D01*
X0420055Y0242324D01*
X0420008Y0242271D01*
X0419963Y0242215D01*
X0419922Y0242158D01*
X0419884Y0242098D01*
X0419849Y0242036D01*
X0419817Y0241972D01*
X0419789Y0241907D01*
X0419765Y0241841D01*
X0419744Y0241773D01*
X0419727Y0241704D01*
X0419713Y0241634D01*
X0419704Y0241564D01*
X0419698Y0241493D01*
X0419696Y0241422D01*
X0419695Y0241422D02*
X0419695Y0240111D01*
X0419696Y0240111D02*
X0419698Y0240040D01*
X0419704Y0239969D01*
X0419713Y0239899D01*
X0419727Y0239829D01*
X0419744Y0239760D01*
X0419765Y0239692D01*
X0419789Y0239626D01*
X0419817Y0239561D01*
X0419849Y0239497D01*
X0419884Y0239435D01*
X0419922Y0239375D01*
X0419963Y0239318D01*
X0420008Y0239262D01*
X0420055Y0239209D01*
X0420105Y0239159D01*
X0420158Y0239112D01*
X0420214Y0239067D01*
X0420271Y0239026D01*
X0420331Y0238988D01*
X0420393Y0238953D01*
X0420457Y0238921D01*
X0420522Y0238893D01*
X0420588Y0238869D01*
X0420656Y0238848D01*
X0420725Y0238831D01*
X0420795Y0238817D01*
X0420865Y0238808D01*
X0420936Y0238802D01*
X0421007Y0238800D01*
X0421078Y0238802D01*
X0421149Y0238808D01*
X0421219Y0238817D01*
X0421289Y0238831D01*
X0421358Y0238848D01*
X0421426Y0238869D01*
X0421492Y0238893D01*
X0421557Y0238921D01*
X0421621Y0238953D01*
X0421683Y0238988D01*
X0421743Y0239026D01*
X0421800Y0239067D01*
X0421856Y0239112D01*
X0421909Y0239159D01*
X0421959Y0239209D01*
X0422006Y0239262D01*
X0422051Y0239318D01*
X0422092Y0239375D01*
X0422130Y0239435D01*
X0422165Y0239497D01*
X0422197Y0239561D01*
X0422225Y0239626D01*
X0422249Y0239692D01*
X0422270Y0239760D01*
X0422287Y0239829D01*
X0422301Y0239899D01*
X0422310Y0239969D01*
X0422316Y0240040D01*
X0422318Y0240111D01*
X0417282Y0238800D02*
X0415971Y0238800D01*
X0415909Y0238802D01*
X0415848Y0238808D01*
X0415787Y0238817D01*
X0415727Y0238831D01*
X0415667Y0238848D01*
X0415609Y0238869D01*
X0415552Y0238894D01*
X0415497Y0238922D01*
X0415444Y0238953D01*
X0415393Y0238988D01*
X0415344Y0239026D01*
X0415298Y0239066D01*
X0415254Y0239110D01*
X0415214Y0239156D01*
X0415176Y0239205D01*
X0415141Y0239256D01*
X0415110Y0239309D01*
X0415082Y0239364D01*
X0415057Y0239421D01*
X0415036Y0239479D01*
X0415019Y0239539D01*
X0415005Y0239599D01*
X0414996Y0239660D01*
X0414990Y0239721D01*
X0414988Y0239783D01*
X0414988Y0241750D01*
X0414990Y0241812D01*
X0414996Y0241873D01*
X0415005Y0241934D01*
X0415019Y0241994D01*
X0415036Y0242054D01*
X0415057Y0242112D01*
X0415082Y0242169D01*
X0415110Y0242224D01*
X0415141Y0242277D01*
X0415176Y0242328D01*
X0415214Y0242377D01*
X0415254Y0242423D01*
X0415298Y0242467D01*
X0415344Y0242507D01*
X0415393Y0242545D01*
X0415444Y0242580D01*
X0415497Y0242611D01*
X0415552Y0242639D01*
X0415609Y0242664D01*
X0415667Y0242685D01*
X0415727Y0242702D01*
X0415787Y0242716D01*
X0415848Y0242725D01*
X0415909Y0242731D01*
X0415971Y0242733D01*
X0417282Y0242733D01*
X0411774Y0240439D02*
X0410136Y0241094D01*
X0410135Y0241095D02*
X0410083Y0241118D01*
X0410032Y0241145D01*
X0409983Y0241175D01*
X0409936Y0241208D01*
X0409891Y0241244D01*
X0409849Y0241284D01*
X0409810Y0241326D01*
X0409774Y0241370D01*
X0409741Y0241417D01*
X0409711Y0241467D01*
X0409684Y0241518D01*
X0409661Y0241570D01*
X0409642Y0241624D01*
X0409626Y0241680D01*
X0409614Y0241736D01*
X0409606Y0241793D01*
X0409602Y0241850D01*
X0409601Y0241908D01*
X0409605Y0241965D01*
X0409612Y0242022D01*
X0409624Y0242079D01*
X0409639Y0242134D01*
X0409657Y0242189D01*
X0409680Y0242242D01*
X0409706Y0242293D01*
X0409735Y0242342D01*
X0409768Y0242390D01*
X0409804Y0242435D01*
X0409842Y0242477D01*
X0409884Y0242517D01*
X0409928Y0242554D01*
X0409975Y0242588D01*
X0410023Y0242619D01*
X0410074Y0242646D01*
X0410126Y0242670D01*
X0410180Y0242690D01*
X0410235Y0242706D01*
X0410291Y0242719D01*
X0410348Y0242728D01*
X0410406Y0242733D01*
X0410463Y0242734D01*
X0409644Y0239128D02*
X0409778Y0239082D01*
X0409913Y0239039D01*
X0410049Y0239000D01*
X0410186Y0238964D01*
X0410323Y0238932D01*
X0410462Y0238903D01*
X0410601Y0238877D01*
X0410741Y0238856D01*
X0410882Y0238837D01*
X0411022Y0238823D01*
X0411164Y0238812D01*
X0411305Y0238804D01*
X0411447Y0238801D01*
X0411447Y0238800D02*
X0411504Y0238801D01*
X0411562Y0238806D01*
X0411619Y0238815D01*
X0411675Y0238828D01*
X0411730Y0238844D01*
X0411784Y0238864D01*
X0411836Y0238888D01*
X0411887Y0238915D01*
X0411935Y0238946D01*
X0411982Y0238980D01*
X0412026Y0239017D01*
X0412068Y0239057D01*
X0412106Y0239099D01*
X0412142Y0239144D01*
X0412175Y0239192D01*
X0412204Y0239241D01*
X0412230Y0239292D01*
X0412253Y0239345D01*
X0412271Y0239400D01*
X0412286Y0239455D01*
X0412298Y0239512D01*
X0412305Y0239569D01*
X0412309Y0239626D01*
X0412308Y0239684D01*
X0412304Y0239741D01*
X0412296Y0239798D01*
X0412284Y0239854D01*
X0412268Y0239910D01*
X0412249Y0239964D01*
X0412226Y0240016D01*
X0412199Y0240067D01*
X0412169Y0240117D01*
X0412136Y0240164D01*
X0412100Y0240208D01*
X0412061Y0240250D01*
X0412019Y0240290D01*
X0411974Y0240326D01*
X0411927Y0240359D01*
X0411878Y0240389D01*
X0411827Y0240416D01*
X0411775Y0240439D01*
X0411938Y0242405D02*
X0411831Y0242451D01*
X0411722Y0242494D01*
X0411612Y0242534D01*
X0411500Y0242570D01*
X0411388Y0242602D01*
X0411274Y0242631D01*
X0411160Y0242657D01*
X0411045Y0242678D01*
X0410930Y0242697D01*
X0410813Y0242711D01*
X0410697Y0242722D01*
X0410580Y0242729D01*
X0410463Y0242733D01*
X0406768Y0241094D02*
X0402834Y0241094D01*
X0400163Y0242733D02*
X0398852Y0238800D01*
X0397541Y0242733D01*
X0427251Y0242733D02*
X0427251Y0242078D01*
X0429337Y0241422D02*
X0429337Y0239783D01*
X0429339Y0239721D01*
X0429345Y0239660D01*
X0429354Y0239599D01*
X0429368Y0239539D01*
X0429385Y0239479D01*
X0429406Y0239421D01*
X0429431Y0239364D01*
X0429459Y0239309D01*
X0429490Y0239256D01*
X0429525Y0239205D01*
X0429563Y0239156D01*
X0429603Y0239110D01*
X0429647Y0239066D01*
X0429693Y0239026D01*
X0429742Y0238988D01*
X0429793Y0238953D01*
X0429846Y0238922D01*
X0429901Y0238894D01*
X0429958Y0238869D01*
X0430016Y0238848D01*
X0430076Y0238831D01*
X0430136Y0238817D01*
X0430197Y0238808D01*
X0430258Y0238802D01*
X0430320Y0238800D01*
X0431959Y0238800D01*
X0431959Y0240767D02*
X0429337Y0240767D01*
X0429337Y0241422D02*
X0429339Y0241493D01*
X0429345Y0241564D01*
X0429354Y0241634D01*
X0429368Y0241704D01*
X0429385Y0241773D01*
X0429406Y0241841D01*
X0429430Y0241907D01*
X0429458Y0241972D01*
X0429490Y0242036D01*
X0429525Y0242098D01*
X0429563Y0242158D01*
X0429604Y0242215D01*
X0429649Y0242271D01*
X0429696Y0242324D01*
X0429746Y0242374D01*
X0429799Y0242421D01*
X0429855Y0242466D01*
X0429912Y0242507D01*
X0429972Y0242545D01*
X0430034Y0242580D01*
X0430098Y0242612D01*
X0430163Y0242640D01*
X0430229Y0242664D01*
X0430297Y0242685D01*
X0430366Y0242702D01*
X0430436Y0242716D01*
X0430506Y0242725D01*
X0430577Y0242731D01*
X0430648Y0242733D01*
X0430719Y0242731D01*
X0430790Y0242725D01*
X0430860Y0242716D01*
X0430930Y0242702D01*
X0430999Y0242685D01*
X0431067Y0242664D01*
X0431133Y0242640D01*
X0431198Y0242612D01*
X0431262Y0242580D01*
X0431324Y0242545D01*
X0431384Y0242507D01*
X0431441Y0242466D01*
X0431497Y0242421D01*
X0431550Y0242374D01*
X0431600Y0242324D01*
X0431647Y0242271D01*
X0431692Y0242215D01*
X0431733Y0242158D01*
X0431771Y0242098D01*
X0431806Y0242036D01*
X0431838Y0241972D01*
X0431866Y0241907D01*
X0431890Y0241841D01*
X0431911Y0241773D01*
X0431928Y0241704D01*
X0431942Y0241634D01*
X0431951Y0241564D01*
X0431957Y0241493D01*
X0431959Y0241422D01*
X0431959Y0240767D01*
X0427251Y0135733D02*
X0425284Y0135733D01*
X0425284Y0131800D01*
X0422318Y0133111D02*
X0422318Y0134422D01*
X0422316Y0134493D01*
X0422310Y0134564D01*
X0422301Y0134634D01*
X0422287Y0134704D01*
X0422270Y0134773D01*
X0422249Y0134841D01*
X0422225Y0134907D01*
X0422197Y0134972D01*
X0422165Y0135036D01*
X0422130Y0135098D01*
X0422092Y0135158D01*
X0422051Y0135215D01*
X0422006Y0135271D01*
X0421959Y0135324D01*
X0421909Y0135374D01*
X0421856Y0135421D01*
X0421800Y0135466D01*
X0421743Y0135507D01*
X0421683Y0135545D01*
X0421621Y0135580D01*
X0421557Y0135612D01*
X0421492Y0135640D01*
X0421426Y0135664D01*
X0421358Y0135685D01*
X0421289Y0135702D01*
X0421219Y0135716D01*
X0421149Y0135725D01*
X0421078Y0135731D01*
X0421007Y0135733D01*
X0420936Y0135731D01*
X0420865Y0135725D01*
X0420795Y0135716D01*
X0420725Y0135702D01*
X0420656Y0135685D01*
X0420588Y0135664D01*
X0420522Y0135640D01*
X0420457Y0135612D01*
X0420393Y0135580D01*
X0420331Y0135545D01*
X0420271Y0135507D01*
X0420214Y0135466D01*
X0420158Y0135421D01*
X0420105Y0135374D01*
X0420055Y0135324D01*
X0420008Y0135271D01*
X0419963Y0135215D01*
X0419922Y0135158D01*
X0419884Y0135098D01*
X0419849Y0135036D01*
X0419817Y0134972D01*
X0419789Y0134907D01*
X0419765Y0134841D01*
X0419744Y0134773D01*
X0419727Y0134704D01*
X0419713Y0134634D01*
X0419704Y0134564D01*
X0419698Y0134493D01*
X0419696Y0134422D01*
X0419695Y0134422D02*
X0419695Y0133111D01*
X0419696Y0133111D02*
X0419698Y0133040D01*
X0419704Y0132969D01*
X0419713Y0132899D01*
X0419727Y0132829D01*
X0419744Y0132760D01*
X0419765Y0132692D01*
X0419789Y0132626D01*
X0419817Y0132561D01*
X0419849Y0132497D01*
X0419884Y0132435D01*
X0419922Y0132375D01*
X0419963Y0132318D01*
X0420008Y0132262D01*
X0420055Y0132209D01*
X0420105Y0132159D01*
X0420158Y0132112D01*
X0420214Y0132067D01*
X0420271Y0132026D01*
X0420331Y0131988D01*
X0420393Y0131953D01*
X0420457Y0131921D01*
X0420522Y0131893D01*
X0420588Y0131869D01*
X0420656Y0131848D01*
X0420725Y0131831D01*
X0420795Y0131817D01*
X0420865Y0131808D01*
X0420936Y0131802D01*
X0421007Y0131800D01*
X0421078Y0131802D01*
X0421149Y0131808D01*
X0421219Y0131817D01*
X0421289Y0131831D01*
X0421358Y0131848D01*
X0421426Y0131869D01*
X0421492Y0131893D01*
X0421557Y0131921D01*
X0421621Y0131953D01*
X0421683Y0131988D01*
X0421743Y0132026D01*
X0421800Y0132067D01*
X0421856Y0132112D01*
X0421909Y0132159D01*
X0421959Y0132209D01*
X0422006Y0132262D01*
X0422051Y0132318D01*
X0422092Y0132375D01*
X0422130Y0132435D01*
X0422165Y0132497D01*
X0422197Y0132561D01*
X0422225Y0132626D01*
X0422249Y0132692D01*
X0422270Y0132760D01*
X0422287Y0132829D01*
X0422301Y0132899D01*
X0422310Y0132969D01*
X0422316Y0133040D01*
X0422318Y0133111D01*
X0417282Y0131800D02*
X0415971Y0131800D01*
X0415909Y0131802D01*
X0415848Y0131808D01*
X0415787Y0131817D01*
X0415727Y0131831D01*
X0415667Y0131848D01*
X0415609Y0131869D01*
X0415552Y0131894D01*
X0415497Y0131922D01*
X0415444Y0131953D01*
X0415393Y0131988D01*
X0415344Y0132026D01*
X0415298Y0132066D01*
X0415254Y0132110D01*
X0415214Y0132156D01*
X0415176Y0132205D01*
X0415141Y0132256D01*
X0415110Y0132309D01*
X0415082Y0132364D01*
X0415057Y0132421D01*
X0415036Y0132479D01*
X0415019Y0132539D01*
X0415005Y0132599D01*
X0414996Y0132660D01*
X0414990Y0132721D01*
X0414988Y0132783D01*
X0414988Y0134750D01*
X0414990Y0134812D01*
X0414996Y0134873D01*
X0415005Y0134934D01*
X0415019Y0134994D01*
X0415036Y0135054D01*
X0415057Y0135112D01*
X0415082Y0135169D01*
X0415110Y0135224D01*
X0415141Y0135277D01*
X0415176Y0135328D01*
X0415214Y0135377D01*
X0415254Y0135423D01*
X0415298Y0135467D01*
X0415344Y0135507D01*
X0415393Y0135545D01*
X0415444Y0135580D01*
X0415497Y0135611D01*
X0415552Y0135639D01*
X0415609Y0135664D01*
X0415667Y0135685D01*
X0415727Y0135702D01*
X0415787Y0135716D01*
X0415848Y0135725D01*
X0415909Y0135731D01*
X0415971Y0135733D01*
X0417282Y0135733D01*
X0411774Y0133439D02*
X0410136Y0134094D01*
X0410135Y0134095D02*
X0410083Y0134118D01*
X0410032Y0134145D01*
X0409983Y0134175D01*
X0409936Y0134208D01*
X0409891Y0134244D01*
X0409849Y0134284D01*
X0409810Y0134326D01*
X0409774Y0134370D01*
X0409741Y0134417D01*
X0409711Y0134467D01*
X0409684Y0134518D01*
X0409661Y0134570D01*
X0409642Y0134624D01*
X0409626Y0134680D01*
X0409614Y0134736D01*
X0409606Y0134793D01*
X0409602Y0134850D01*
X0409601Y0134908D01*
X0409605Y0134965D01*
X0409612Y0135022D01*
X0409624Y0135079D01*
X0409639Y0135134D01*
X0409657Y0135189D01*
X0409680Y0135242D01*
X0409706Y0135293D01*
X0409735Y0135342D01*
X0409768Y0135390D01*
X0409804Y0135435D01*
X0409842Y0135477D01*
X0409884Y0135517D01*
X0409928Y0135554D01*
X0409975Y0135588D01*
X0410023Y0135619D01*
X0410074Y0135646D01*
X0410126Y0135670D01*
X0410180Y0135690D01*
X0410235Y0135706D01*
X0410291Y0135719D01*
X0410348Y0135728D01*
X0410406Y0135733D01*
X0410463Y0135734D01*
X0409644Y0132128D02*
X0409778Y0132082D01*
X0409913Y0132039D01*
X0410049Y0132000D01*
X0410186Y0131964D01*
X0410323Y0131932D01*
X0410462Y0131903D01*
X0410601Y0131877D01*
X0410741Y0131856D01*
X0410882Y0131837D01*
X0411022Y0131823D01*
X0411164Y0131812D01*
X0411305Y0131804D01*
X0411447Y0131801D01*
X0411447Y0131800D02*
X0411504Y0131801D01*
X0411562Y0131806D01*
X0411619Y0131815D01*
X0411675Y0131828D01*
X0411730Y0131844D01*
X0411784Y0131864D01*
X0411836Y0131888D01*
X0411887Y0131915D01*
X0411935Y0131946D01*
X0411982Y0131980D01*
X0412026Y0132017D01*
X0412068Y0132057D01*
X0412106Y0132099D01*
X0412142Y0132144D01*
X0412175Y0132192D01*
X0412204Y0132241D01*
X0412230Y0132292D01*
X0412253Y0132345D01*
X0412271Y0132400D01*
X0412286Y0132455D01*
X0412298Y0132512D01*
X0412305Y0132569D01*
X0412309Y0132626D01*
X0412308Y0132684D01*
X0412304Y0132741D01*
X0412296Y0132798D01*
X0412284Y0132854D01*
X0412268Y0132910D01*
X0412249Y0132964D01*
X0412226Y0133016D01*
X0412199Y0133067D01*
X0412169Y0133117D01*
X0412136Y0133164D01*
X0412100Y0133208D01*
X0412061Y0133250D01*
X0412019Y0133290D01*
X0411974Y0133326D01*
X0411927Y0133359D01*
X0411878Y0133389D01*
X0411827Y0133416D01*
X0411775Y0133439D01*
X0411938Y0135405D02*
X0411831Y0135451D01*
X0411722Y0135494D01*
X0411612Y0135534D01*
X0411500Y0135570D01*
X0411388Y0135602D01*
X0411274Y0135631D01*
X0411160Y0135657D01*
X0411045Y0135678D01*
X0410930Y0135697D01*
X0410813Y0135711D01*
X0410697Y0135722D01*
X0410580Y0135729D01*
X0410463Y0135733D01*
X0406768Y0134094D02*
X0402834Y0134094D01*
X0400163Y0135733D02*
X0398852Y0131800D01*
X0397541Y0135733D01*
X0427251Y0135733D02*
X0427251Y0135078D01*
X0429337Y0134422D02*
X0429337Y0132783D01*
X0429339Y0132721D01*
X0429345Y0132660D01*
X0429354Y0132599D01*
X0429368Y0132539D01*
X0429385Y0132479D01*
X0429406Y0132421D01*
X0429431Y0132364D01*
X0429459Y0132309D01*
X0429490Y0132256D01*
X0429525Y0132205D01*
X0429563Y0132156D01*
X0429603Y0132110D01*
X0429647Y0132066D01*
X0429693Y0132026D01*
X0429742Y0131988D01*
X0429793Y0131953D01*
X0429846Y0131922D01*
X0429901Y0131894D01*
X0429958Y0131869D01*
X0430016Y0131848D01*
X0430076Y0131831D01*
X0430136Y0131817D01*
X0430197Y0131808D01*
X0430258Y0131802D01*
X0430320Y0131800D01*
X0431959Y0131800D01*
X0431959Y0133767D02*
X0429337Y0133767D01*
X0429337Y0134422D02*
X0429339Y0134493D01*
X0429345Y0134564D01*
X0429354Y0134634D01*
X0429368Y0134704D01*
X0429385Y0134773D01*
X0429406Y0134841D01*
X0429430Y0134907D01*
X0429458Y0134972D01*
X0429490Y0135036D01*
X0429525Y0135098D01*
X0429563Y0135158D01*
X0429604Y0135215D01*
X0429649Y0135271D01*
X0429696Y0135324D01*
X0429746Y0135374D01*
X0429799Y0135421D01*
X0429855Y0135466D01*
X0429912Y0135507D01*
X0429972Y0135545D01*
X0430034Y0135580D01*
X0430098Y0135612D01*
X0430163Y0135640D01*
X0430229Y0135664D01*
X0430297Y0135685D01*
X0430366Y0135702D01*
X0430436Y0135716D01*
X0430506Y0135725D01*
X0430577Y0135731D01*
X0430648Y0135733D01*
X0430719Y0135731D01*
X0430790Y0135725D01*
X0430860Y0135716D01*
X0430930Y0135702D01*
X0430999Y0135685D01*
X0431067Y0135664D01*
X0431133Y0135640D01*
X0431198Y0135612D01*
X0431262Y0135580D01*
X0431324Y0135545D01*
X0431384Y0135507D01*
X0431441Y0135466D01*
X0431497Y0135421D01*
X0431550Y0135374D01*
X0431600Y0135324D01*
X0431647Y0135271D01*
X0431692Y0135215D01*
X0431733Y0135158D01*
X0431771Y0135098D01*
X0431806Y0135036D01*
X0431838Y0134972D01*
X0431866Y0134907D01*
X0431890Y0134841D01*
X0431911Y0134773D01*
X0431928Y0134704D01*
X0431942Y0134634D01*
X0431951Y0134564D01*
X0431957Y0134493D01*
X0431959Y0134422D01*
X0431959Y0133767D01*
X0411447Y0024801D02*
X0411305Y0024804D01*
X0411164Y0024812D01*
X0411022Y0024823D01*
X0410882Y0024837D01*
X0410741Y0024856D01*
X0410601Y0024877D01*
X0410462Y0024903D01*
X0410323Y0024932D01*
X0410186Y0024964D01*
X0410049Y0025000D01*
X0409913Y0025039D01*
X0409778Y0025082D01*
X0409644Y0025128D01*
X0410463Y0028733D02*
X0410580Y0028729D01*
X0410697Y0028722D01*
X0410813Y0028711D01*
X0410930Y0028697D01*
X0411045Y0028678D01*
X0411160Y0028657D01*
X0411274Y0028631D01*
X0411388Y0028602D01*
X0411500Y0028570D01*
X0411612Y0028534D01*
X0411722Y0028494D01*
X0411831Y0028451D01*
X0411938Y0028405D01*
X0410463Y0028734D02*
X0410406Y0028733D01*
X0410348Y0028728D01*
X0410291Y0028719D01*
X0410235Y0028706D01*
X0410180Y0028690D01*
X0410126Y0028670D01*
X0410074Y0028646D01*
X0410023Y0028619D01*
X0409975Y0028588D01*
X0409928Y0028554D01*
X0409884Y0028517D01*
X0409842Y0028477D01*
X0409804Y0028435D01*
X0409768Y0028390D01*
X0409735Y0028342D01*
X0409706Y0028293D01*
X0409680Y0028242D01*
X0409657Y0028189D01*
X0409639Y0028134D01*
X0409624Y0028079D01*
X0409612Y0028022D01*
X0409605Y0027965D01*
X0409601Y0027908D01*
X0409602Y0027850D01*
X0409606Y0027793D01*
X0409614Y0027736D01*
X0409626Y0027680D01*
X0409642Y0027624D01*
X0409661Y0027570D01*
X0409684Y0027518D01*
X0409711Y0027467D01*
X0409741Y0027417D01*
X0409774Y0027370D01*
X0409810Y0027326D01*
X0409849Y0027284D01*
X0409891Y0027244D01*
X0409936Y0027208D01*
X0409983Y0027175D01*
X0410032Y0027145D01*
X0410083Y0027118D01*
X0410135Y0027095D01*
X0410136Y0027094D02*
X0411774Y0026439D01*
X0411775Y0026439D02*
X0411827Y0026416D01*
X0411878Y0026389D01*
X0411927Y0026359D01*
X0411974Y0026326D01*
X0412019Y0026290D01*
X0412061Y0026250D01*
X0412100Y0026208D01*
X0412136Y0026164D01*
X0412169Y0026117D01*
X0412199Y0026067D01*
X0412226Y0026016D01*
X0412249Y0025964D01*
X0412268Y0025910D01*
X0412284Y0025854D01*
X0412296Y0025798D01*
X0412304Y0025741D01*
X0412308Y0025684D01*
X0412309Y0025626D01*
X0412305Y0025569D01*
X0412298Y0025512D01*
X0412286Y0025455D01*
X0412271Y0025400D01*
X0412253Y0025345D01*
X0412230Y0025292D01*
X0412204Y0025241D01*
X0412175Y0025192D01*
X0412142Y0025144D01*
X0412106Y0025099D01*
X0412068Y0025057D01*
X0412026Y0025017D01*
X0411982Y0024980D01*
X0411935Y0024946D01*
X0411887Y0024915D01*
X0411836Y0024888D01*
X0411784Y0024864D01*
X0411730Y0024844D01*
X0411675Y0024828D01*
X0411619Y0024815D01*
X0411562Y0024806D01*
X0411504Y0024801D01*
X0411447Y0024800D01*
X0414988Y0025783D02*
X0414988Y0027750D01*
X0414990Y0027812D01*
X0414996Y0027873D01*
X0415005Y0027934D01*
X0415019Y0027994D01*
X0415036Y0028054D01*
X0415057Y0028112D01*
X0415082Y0028169D01*
X0415110Y0028224D01*
X0415141Y0028277D01*
X0415176Y0028328D01*
X0415214Y0028377D01*
X0415254Y0028423D01*
X0415298Y0028467D01*
X0415344Y0028507D01*
X0415393Y0028545D01*
X0415444Y0028580D01*
X0415497Y0028611D01*
X0415552Y0028639D01*
X0415609Y0028664D01*
X0415667Y0028685D01*
X0415727Y0028702D01*
X0415787Y0028716D01*
X0415848Y0028725D01*
X0415909Y0028731D01*
X0415971Y0028733D01*
X0417282Y0028733D01*
X0419695Y0027422D02*
X0419695Y0026111D01*
X0419696Y0026111D02*
X0419698Y0026040D01*
X0419704Y0025969D01*
X0419713Y0025899D01*
X0419727Y0025829D01*
X0419744Y0025760D01*
X0419765Y0025692D01*
X0419789Y0025626D01*
X0419817Y0025561D01*
X0419849Y0025497D01*
X0419884Y0025435D01*
X0419922Y0025375D01*
X0419963Y0025318D01*
X0420008Y0025262D01*
X0420055Y0025209D01*
X0420105Y0025159D01*
X0420158Y0025112D01*
X0420214Y0025067D01*
X0420271Y0025026D01*
X0420331Y0024988D01*
X0420393Y0024953D01*
X0420457Y0024921D01*
X0420522Y0024893D01*
X0420588Y0024869D01*
X0420656Y0024848D01*
X0420725Y0024831D01*
X0420795Y0024817D01*
X0420865Y0024808D01*
X0420936Y0024802D01*
X0421007Y0024800D01*
X0421078Y0024802D01*
X0421149Y0024808D01*
X0421219Y0024817D01*
X0421289Y0024831D01*
X0421358Y0024848D01*
X0421426Y0024869D01*
X0421492Y0024893D01*
X0421557Y0024921D01*
X0421621Y0024953D01*
X0421683Y0024988D01*
X0421743Y0025026D01*
X0421800Y0025067D01*
X0421856Y0025112D01*
X0421909Y0025159D01*
X0421959Y0025209D01*
X0422006Y0025262D01*
X0422051Y0025318D01*
X0422092Y0025375D01*
X0422130Y0025435D01*
X0422165Y0025497D01*
X0422197Y0025561D01*
X0422225Y0025626D01*
X0422249Y0025692D01*
X0422270Y0025760D01*
X0422287Y0025829D01*
X0422301Y0025899D01*
X0422310Y0025969D01*
X0422316Y0026040D01*
X0422318Y0026111D01*
X0422318Y0027422D01*
X0422316Y0027493D01*
X0422310Y0027564D01*
X0422301Y0027634D01*
X0422287Y0027704D01*
X0422270Y0027773D01*
X0422249Y0027841D01*
X0422225Y0027907D01*
X0422197Y0027972D01*
X0422165Y0028036D01*
X0422130Y0028098D01*
X0422092Y0028158D01*
X0422051Y0028215D01*
X0422006Y0028271D01*
X0421959Y0028324D01*
X0421909Y0028374D01*
X0421856Y0028421D01*
X0421800Y0028466D01*
X0421743Y0028507D01*
X0421683Y0028545D01*
X0421621Y0028580D01*
X0421557Y0028612D01*
X0421492Y0028640D01*
X0421426Y0028664D01*
X0421358Y0028685D01*
X0421289Y0028702D01*
X0421219Y0028716D01*
X0421149Y0028725D01*
X0421078Y0028731D01*
X0421007Y0028733D01*
X0420936Y0028731D01*
X0420865Y0028725D01*
X0420795Y0028716D01*
X0420725Y0028702D01*
X0420656Y0028685D01*
X0420588Y0028664D01*
X0420522Y0028640D01*
X0420457Y0028612D01*
X0420393Y0028580D01*
X0420331Y0028545D01*
X0420271Y0028507D01*
X0420214Y0028466D01*
X0420158Y0028421D01*
X0420105Y0028374D01*
X0420055Y0028324D01*
X0420008Y0028271D01*
X0419963Y0028215D01*
X0419922Y0028158D01*
X0419884Y0028098D01*
X0419849Y0028036D01*
X0419817Y0027972D01*
X0419789Y0027907D01*
X0419765Y0027841D01*
X0419744Y0027773D01*
X0419727Y0027704D01*
X0419713Y0027634D01*
X0419704Y0027564D01*
X0419698Y0027493D01*
X0419696Y0027422D01*
X0417282Y0024800D02*
X0415971Y0024800D01*
X0415909Y0024802D01*
X0415848Y0024808D01*
X0415787Y0024817D01*
X0415727Y0024831D01*
X0415667Y0024848D01*
X0415609Y0024869D01*
X0415552Y0024894D01*
X0415497Y0024922D01*
X0415444Y0024953D01*
X0415393Y0024988D01*
X0415344Y0025026D01*
X0415298Y0025066D01*
X0415254Y0025110D01*
X0415214Y0025156D01*
X0415176Y0025205D01*
X0415141Y0025256D01*
X0415110Y0025309D01*
X0415082Y0025364D01*
X0415057Y0025421D01*
X0415036Y0025479D01*
X0415019Y0025539D01*
X0415005Y0025599D01*
X0414996Y0025660D01*
X0414990Y0025721D01*
X0414988Y0025783D01*
X0406768Y0027094D02*
X0402834Y0027094D01*
X0400163Y0028733D02*
X0398852Y0024800D01*
X0397541Y0028733D01*
X0425284Y0028733D02*
X0425284Y0024800D01*
X0427251Y0028078D02*
X0427251Y0028733D01*
X0425284Y0028733D01*
X0429337Y0027422D02*
X0429337Y0025783D01*
X0429339Y0025721D01*
X0429345Y0025660D01*
X0429354Y0025599D01*
X0429368Y0025539D01*
X0429385Y0025479D01*
X0429406Y0025421D01*
X0429431Y0025364D01*
X0429459Y0025309D01*
X0429490Y0025256D01*
X0429525Y0025205D01*
X0429563Y0025156D01*
X0429603Y0025110D01*
X0429647Y0025066D01*
X0429693Y0025026D01*
X0429742Y0024988D01*
X0429793Y0024953D01*
X0429846Y0024922D01*
X0429901Y0024894D01*
X0429958Y0024869D01*
X0430016Y0024848D01*
X0430076Y0024831D01*
X0430136Y0024817D01*
X0430197Y0024808D01*
X0430258Y0024802D01*
X0430320Y0024800D01*
X0431959Y0024800D01*
X0431959Y0026767D02*
X0429337Y0026767D01*
X0429337Y0027422D02*
X0429339Y0027493D01*
X0429345Y0027564D01*
X0429354Y0027634D01*
X0429368Y0027704D01*
X0429385Y0027773D01*
X0429406Y0027841D01*
X0429430Y0027907D01*
X0429458Y0027972D01*
X0429490Y0028036D01*
X0429525Y0028098D01*
X0429563Y0028158D01*
X0429604Y0028215D01*
X0429649Y0028271D01*
X0429696Y0028324D01*
X0429746Y0028374D01*
X0429799Y0028421D01*
X0429855Y0028466D01*
X0429912Y0028507D01*
X0429972Y0028545D01*
X0430034Y0028580D01*
X0430098Y0028612D01*
X0430163Y0028640D01*
X0430229Y0028664D01*
X0430297Y0028685D01*
X0430366Y0028702D01*
X0430436Y0028716D01*
X0430506Y0028725D01*
X0430577Y0028731D01*
X0430648Y0028733D01*
X0430719Y0028731D01*
X0430790Y0028725D01*
X0430860Y0028716D01*
X0430930Y0028702D01*
X0430999Y0028685D01*
X0431067Y0028664D01*
X0431133Y0028640D01*
X0431198Y0028612D01*
X0431262Y0028580D01*
X0431324Y0028545D01*
X0431384Y0028507D01*
X0431441Y0028466D01*
X0431497Y0028421D01*
X0431550Y0028374D01*
X0431600Y0028324D01*
X0431647Y0028271D01*
X0431692Y0028215D01*
X0431733Y0028158D01*
X0431771Y0028098D01*
X0431806Y0028036D01*
X0431838Y0027972D01*
X0431866Y0027907D01*
X0431890Y0027841D01*
X0431911Y0027773D01*
X0431928Y0027704D01*
X0431942Y0027634D01*
X0431951Y0027564D01*
X0431957Y0027493D01*
X0431959Y0027422D01*
X0431959Y0026767D01*
D13*
X0001750Y0026750D02*
X0001750Y0001750D01*
X0359750Y0001750D01*
X0359750Y0026750D01*
X0001750Y0026750D01*
X0001750Y0028750D02*
X0001750Y0347750D01*
X0026750Y0347750D01*
X0026750Y0028750D01*
X0001750Y0028750D01*
X0334750Y0028750D02*
X0334750Y0347750D01*
X0359750Y0347750D01*
X0359750Y0028750D01*
X0334750Y0028750D01*
X0359750Y0349750D02*
X0001750Y0349750D01*
X0001750Y0374750D01*
X0359750Y0374750D01*
X0359750Y0349750D01*
D14*
X0316250Y0337750D02*
X0316252Y0337911D01*
X0316258Y0338071D01*
X0316268Y0338232D01*
X0316282Y0338392D01*
X0316300Y0338552D01*
X0316321Y0338711D01*
X0316347Y0338870D01*
X0316377Y0339028D01*
X0316410Y0339185D01*
X0316448Y0339342D01*
X0316489Y0339497D01*
X0316534Y0339651D01*
X0316583Y0339804D01*
X0316636Y0339956D01*
X0316692Y0340107D01*
X0316753Y0340256D01*
X0316816Y0340404D01*
X0316884Y0340550D01*
X0316955Y0340694D01*
X0317029Y0340836D01*
X0317107Y0340977D01*
X0317189Y0341115D01*
X0317274Y0341252D01*
X0317362Y0341386D01*
X0317454Y0341518D01*
X0317549Y0341648D01*
X0317647Y0341776D01*
X0317748Y0341901D01*
X0317852Y0342023D01*
X0317959Y0342143D01*
X0318069Y0342260D01*
X0318182Y0342375D01*
X0318298Y0342486D01*
X0318417Y0342595D01*
X0318538Y0342700D01*
X0318662Y0342803D01*
X0318788Y0342903D01*
X0318916Y0342999D01*
X0319047Y0343092D01*
X0319181Y0343182D01*
X0319316Y0343269D01*
X0319454Y0343352D01*
X0319593Y0343432D01*
X0319735Y0343508D01*
X0319878Y0343581D01*
X0320023Y0343650D01*
X0320170Y0343716D01*
X0320318Y0343778D01*
X0320468Y0343836D01*
X0320619Y0343891D01*
X0320772Y0343942D01*
X0320926Y0343989D01*
X0321081Y0344032D01*
X0321237Y0344071D01*
X0321393Y0344107D01*
X0321551Y0344138D01*
X0321709Y0344166D01*
X0321868Y0344190D01*
X0322028Y0344210D01*
X0322188Y0344226D01*
X0322348Y0344238D01*
X0322509Y0344246D01*
X0322670Y0344250D01*
X0322830Y0344250D01*
X0322991Y0344246D01*
X0323152Y0344238D01*
X0323312Y0344226D01*
X0323472Y0344210D01*
X0323632Y0344190D01*
X0323791Y0344166D01*
X0323949Y0344138D01*
X0324107Y0344107D01*
X0324263Y0344071D01*
X0324419Y0344032D01*
X0324574Y0343989D01*
X0324728Y0343942D01*
X0324881Y0343891D01*
X0325032Y0343836D01*
X0325182Y0343778D01*
X0325330Y0343716D01*
X0325477Y0343650D01*
X0325622Y0343581D01*
X0325765Y0343508D01*
X0325907Y0343432D01*
X0326046Y0343352D01*
X0326184Y0343269D01*
X0326319Y0343182D01*
X0326453Y0343092D01*
X0326584Y0342999D01*
X0326712Y0342903D01*
X0326838Y0342803D01*
X0326962Y0342700D01*
X0327083Y0342595D01*
X0327202Y0342486D01*
X0327318Y0342375D01*
X0327431Y0342260D01*
X0327541Y0342143D01*
X0327648Y0342023D01*
X0327752Y0341901D01*
X0327853Y0341776D01*
X0327951Y0341648D01*
X0328046Y0341518D01*
X0328138Y0341386D01*
X0328226Y0341252D01*
X0328311Y0341115D01*
X0328393Y0340977D01*
X0328471Y0340836D01*
X0328545Y0340694D01*
X0328616Y0340550D01*
X0328684Y0340404D01*
X0328747Y0340256D01*
X0328808Y0340107D01*
X0328864Y0339956D01*
X0328917Y0339804D01*
X0328966Y0339651D01*
X0329011Y0339497D01*
X0329052Y0339342D01*
X0329090Y0339185D01*
X0329123Y0339028D01*
X0329153Y0338870D01*
X0329179Y0338711D01*
X0329200Y0338552D01*
X0329218Y0338392D01*
X0329232Y0338232D01*
X0329242Y0338071D01*
X0329248Y0337911D01*
X0329250Y0337750D01*
X0329248Y0337589D01*
X0329242Y0337429D01*
X0329232Y0337268D01*
X0329218Y0337108D01*
X0329200Y0336948D01*
X0329179Y0336789D01*
X0329153Y0336630D01*
X0329123Y0336472D01*
X0329090Y0336315D01*
X0329052Y0336158D01*
X0329011Y0336003D01*
X0328966Y0335849D01*
X0328917Y0335696D01*
X0328864Y0335544D01*
X0328808Y0335393D01*
X0328747Y0335244D01*
X0328684Y0335096D01*
X0328616Y0334950D01*
X0328545Y0334806D01*
X0328471Y0334664D01*
X0328393Y0334523D01*
X0328311Y0334385D01*
X0328226Y0334248D01*
X0328138Y0334114D01*
X0328046Y0333982D01*
X0327951Y0333852D01*
X0327853Y0333724D01*
X0327752Y0333599D01*
X0327648Y0333477D01*
X0327541Y0333357D01*
X0327431Y0333240D01*
X0327318Y0333125D01*
X0327202Y0333014D01*
X0327083Y0332905D01*
X0326962Y0332800D01*
X0326838Y0332697D01*
X0326712Y0332597D01*
X0326584Y0332501D01*
X0326453Y0332408D01*
X0326319Y0332318D01*
X0326184Y0332231D01*
X0326046Y0332148D01*
X0325907Y0332068D01*
X0325765Y0331992D01*
X0325622Y0331919D01*
X0325477Y0331850D01*
X0325330Y0331784D01*
X0325182Y0331722D01*
X0325032Y0331664D01*
X0324881Y0331609D01*
X0324728Y0331558D01*
X0324574Y0331511D01*
X0324419Y0331468D01*
X0324263Y0331429D01*
X0324107Y0331393D01*
X0323949Y0331362D01*
X0323791Y0331334D01*
X0323632Y0331310D01*
X0323472Y0331290D01*
X0323312Y0331274D01*
X0323152Y0331262D01*
X0322991Y0331254D01*
X0322830Y0331250D01*
X0322670Y0331250D01*
X0322509Y0331254D01*
X0322348Y0331262D01*
X0322188Y0331274D01*
X0322028Y0331290D01*
X0321868Y0331310D01*
X0321709Y0331334D01*
X0321551Y0331362D01*
X0321393Y0331393D01*
X0321237Y0331429D01*
X0321081Y0331468D01*
X0320926Y0331511D01*
X0320772Y0331558D01*
X0320619Y0331609D01*
X0320468Y0331664D01*
X0320318Y0331722D01*
X0320170Y0331784D01*
X0320023Y0331850D01*
X0319878Y0331919D01*
X0319735Y0331992D01*
X0319593Y0332068D01*
X0319454Y0332148D01*
X0319316Y0332231D01*
X0319181Y0332318D01*
X0319047Y0332408D01*
X0318916Y0332501D01*
X0318788Y0332597D01*
X0318662Y0332697D01*
X0318538Y0332800D01*
X0318417Y0332905D01*
X0318298Y0333014D01*
X0318182Y0333125D01*
X0318069Y0333240D01*
X0317959Y0333357D01*
X0317852Y0333477D01*
X0317748Y0333599D01*
X0317647Y0333724D01*
X0317549Y0333852D01*
X0317454Y0333982D01*
X0317362Y0334114D01*
X0317274Y0334248D01*
X0317189Y0334385D01*
X0317107Y0334523D01*
X0317029Y0334664D01*
X0316955Y0334806D01*
X0316884Y0334950D01*
X0316816Y0335096D01*
X0316753Y0335244D01*
X0316692Y0335393D01*
X0316636Y0335544D01*
X0316583Y0335696D01*
X0316534Y0335849D01*
X0316489Y0336003D01*
X0316448Y0336158D01*
X0316410Y0336315D01*
X0316377Y0336472D01*
X0316347Y0336630D01*
X0316321Y0336789D01*
X0316300Y0336948D01*
X0316282Y0337108D01*
X0316268Y0337268D01*
X0316258Y0337429D01*
X0316252Y0337589D01*
X0316250Y0337750D01*
X0236250Y0337750D02*
X0236252Y0337911D01*
X0236258Y0338071D01*
X0236268Y0338232D01*
X0236282Y0338392D01*
X0236300Y0338552D01*
X0236321Y0338711D01*
X0236347Y0338870D01*
X0236377Y0339028D01*
X0236410Y0339185D01*
X0236448Y0339342D01*
X0236489Y0339497D01*
X0236534Y0339651D01*
X0236583Y0339804D01*
X0236636Y0339956D01*
X0236692Y0340107D01*
X0236753Y0340256D01*
X0236816Y0340404D01*
X0236884Y0340550D01*
X0236955Y0340694D01*
X0237029Y0340836D01*
X0237107Y0340977D01*
X0237189Y0341115D01*
X0237274Y0341252D01*
X0237362Y0341386D01*
X0237454Y0341518D01*
X0237549Y0341648D01*
X0237647Y0341776D01*
X0237748Y0341901D01*
X0237852Y0342023D01*
X0237959Y0342143D01*
X0238069Y0342260D01*
X0238182Y0342375D01*
X0238298Y0342486D01*
X0238417Y0342595D01*
X0238538Y0342700D01*
X0238662Y0342803D01*
X0238788Y0342903D01*
X0238916Y0342999D01*
X0239047Y0343092D01*
X0239181Y0343182D01*
X0239316Y0343269D01*
X0239454Y0343352D01*
X0239593Y0343432D01*
X0239735Y0343508D01*
X0239878Y0343581D01*
X0240023Y0343650D01*
X0240170Y0343716D01*
X0240318Y0343778D01*
X0240468Y0343836D01*
X0240619Y0343891D01*
X0240772Y0343942D01*
X0240926Y0343989D01*
X0241081Y0344032D01*
X0241237Y0344071D01*
X0241393Y0344107D01*
X0241551Y0344138D01*
X0241709Y0344166D01*
X0241868Y0344190D01*
X0242028Y0344210D01*
X0242188Y0344226D01*
X0242348Y0344238D01*
X0242509Y0344246D01*
X0242670Y0344250D01*
X0242830Y0344250D01*
X0242991Y0344246D01*
X0243152Y0344238D01*
X0243312Y0344226D01*
X0243472Y0344210D01*
X0243632Y0344190D01*
X0243791Y0344166D01*
X0243949Y0344138D01*
X0244107Y0344107D01*
X0244263Y0344071D01*
X0244419Y0344032D01*
X0244574Y0343989D01*
X0244728Y0343942D01*
X0244881Y0343891D01*
X0245032Y0343836D01*
X0245182Y0343778D01*
X0245330Y0343716D01*
X0245477Y0343650D01*
X0245622Y0343581D01*
X0245765Y0343508D01*
X0245907Y0343432D01*
X0246046Y0343352D01*
X0246184Y0343269D01*
X0246319Y0343182D01*
X0246453Y0343092D01*
X0246584Y0342999D01*
X0246712Y0342903D01*
X0246838Y0342803D01*
X0246962Y0342700D01*
X0247083Y0342595D01*
X0247202Y0342486D01*
X0247318Y0342375D01*
X0247431Y0342260D01*
X0247541Y0342143D01*
X0247648Y0342023D01*
X0247752Y0341901D01*
X0247853Y0341776D01*
X0247951Y0341648D01*
X0248046Y0341518D01*
X0248138Y0341386D01*
X0248226Y0341252D01*
X0248311Y0341115D01*
X0248393Y0340977D01*
X0248471Y0340836D01*
X0248545Y0340694D01*
X0248616Y0340550D01*
X0248684Y0340404D01*
X0248747Y0340256D01*
X0248808Y0340107D01*
X0248864Y0339956D01*
X0248917Y0339804D01*
X0248966Y0339651D01*
X0249011Y0339497D01*
X0249052Y0339342D01*
X0249090Y0339185D01*
X0249123Y0339028D01*
X0249153Y0338870D01*
X0249179Y0338711D01*
X0249200Y0338552D01*
X0249218Y0338392D01*
X0249232Y0338232D01*
X0249242Y0338071D01*
X0249248Y0337911D01*
X0249250Y0337750D01*
X0249248Y0337589D01*
X0249242Y0337429D01*
X0249232Y0337268D01*
X0249218Y0337108D01*
X0249200Y0336948D01*
X0249179Y0336789D01*
X0249153Y0336630D01*
X0249123Y0336472D01*
X0249090Y0336315D01*
X0249052Y0336158D01*
X0249011Y0336003D01*
X0248966Y0335849D01*
X0248917Y0335696D01*
X0248864Y0335544D01*
X0248808Y0335393D01*
X0248747Y0335244D01*
X0248684Y0335096D01*
X0248616Y0334950D01*
X0248545Y0334806D01*
X0248471Y0334664D01*
X0248393Y0334523D01*
X0248311Y0334385D01*
X0248226Y0334248D01*
X0248138Y0334114D01*
X0248046Y0333982D01*
X0247951Y0333852D01*
X0247853Y0333724D01*
X0247752Y0333599D01*
X0247648Y0333477D01*
X0247541Y0333357D01*
X0247431Y0333240D01*
X0247318Y0333125D01*
X0247202Y0333014D01*
X0247083Y0332905D01*
X0246962Y0332800D01*
X0246838Y0332697D01*
X0246712Y0332597D01*
X0246584Y0332501D01*
X0246453Y0332408D01*
X0246319Y0332318D01*
X0246184Y0332231D01*
X0246046Y0332148D01*
X0245907Y0332068D01*
X0245765Y0331992D01*
X0245622Y0331919D01*
X0245477Y0331850D01*
X0245330Y0331784D01*
X0245182Y0331722D01*
X0245032Y0331664D01*
X0244881Y0331609D01*
X0244728Y0331558D01*
X0244574Y0331511D01*
X0244419Y0331468D01*
X0244263Y0331429D01*
X0244107Y0331393D01*
X0243949Y0331362D01*
X0243791Y0331334D01*
X0243632Y0331310D01*
X0243472Y0331290D01*
X0243312Y0331274D01*
X0243152Y0331262D01*
X0242991Y0331254D01*
X0242830Y0331250D01*
X0242670Y0331250D01*
X0242509Y0331254D01*
X0242348Y0331262D01*
X0242188Y0331274D01*
X0242028Y0331290D01*
X0241868Y0331310D01*
X0241709Y0331334D01*
X0241551Y0331362D01*
X0241393Y0331393D01*
X0241237Y0331429D01*
X0241081Y0331468D01*
X0240926Y0331511D01*
X0240772Y0331558D01*
X0240619Y0331609D01*
X0240468Y0331664D01*
X0240318Y0331722D01*
X0240170Y0331784D01*
X0240023Y0331850D01*
X0239878Y0331919D01*
X0239735Y0331992D01*
X0239593Y0332068D01*
X0239454Y0332148D01*
X0239316Y0332231D01*
X0239181Y0332318D01*
X0239047Y0332408D01*
X0238916Y0332501D01*
X0238788Y0332597D01*
X0238662Y0332697D01*
X0238538Y0332800D01*
X0238417Y0332905D01*
X0238298Y0333014D01*
X0238182Y0333125D01*
X0238069Y0333240D01*
X0237959Y0333357D01*
X0237852Y0333477D01*
X0237748Y0333599D01*
X0237647Y0333724D01*
X0237549Y0333852D01*
X0237454Y0333982D01*
X0237362Y0334114D01*
X0237274Y0334248D01*
X0237189Y0334385D01*
X0237107Y0334523D01*
X0237029Y0334664D01*
X0236955Y0334806D01*
X0236884Y0334950D01*
X0236816Y0335096D01*
X0236753Y0335244D01*
X0236692Y0335393D01*
X0236636Y0335544D01*
X0236583Y0335696D01*
X0236534Y0335849D01*
X0236489Y0336003D01*
X0236448Y0336158D01*
X0236410Y0336315D01*
X0236377Y0336472D01*
X0236347Y0336630D01*
X0236321Y0336789D01*
X0236300Y0336948D01*
X0236282Y0337108D01*
X0236268Y0337268D01*
X0236258Y0337429D01*
X0236252Y0337589D01*
X0236250Y0337750D01*
X0214250Y0337750D02*
X0214252Y0337911D01*
X0214258Y0338071D01*
X0214268Y0338232D01*
X0214282Y0338392D01*
X0214300Y0338552D01*
X0214321Y0338711D01*
X0214347Y0338870D01*
X0214377Y0339028D01*
X0214410Y0339185D01*
X0214448Y0339342D01*
X0214489Y0339497D01*
X0214534Y0339651D01*
X0214583Y0339804D01*
X0214636Y0339956D01*
X0214692Y0340107D01*
X0214753Y0340256D01*
X0214816Y0340404D01*
X0214884Y0340550D01*
X0214955Y0340694D01*
X0215029Y0340836D01*
X0215107Y0340977D01*
X0215189Y0341115D01*
X0215274Y0341252D01*
X0215362Y0341386D01*
X0215454Y0341518D01*
X0215549Y0341648D01*
X0215647Y0341776D01*
X0215748Y0341901D01*
X0215852Y0342023D01*
X0215959Y0342143D01*
X0216069Y0342260D01*
X0216182Y0342375D01*
X0216298Y0342486D01*
X0216417Y0342595D01*
X0216538Y0342700D01*
X0216662Y0342803D01*
X0216788Y0342903D01*
X0216916Y0342999D01*
X0217047Y0343092D01*
X0217181Y0343182D01*
X0217316Y0343269D01*
X0217454Y0343352D01*
X0217593Y0343432D01*
X0217735Y0343508D01*
X0217878Y0343581D01*
X0218023Y0343650D01*
X0218170Y0343716D01*
X0218318Y0343778D01*
X0218468Y0343836D01*
X0218619Y0343891D01*
X0218772Y0343942D01*
X0218926Y0343989D01*
X0219081Y0344032D01*
X0219237Y0344071D01*
X0219393Y0344107D01*
X0219551Y0344138D01*
X0219709Y0344166D01*
X0219868Y0344190D01*
X0220028Y0344210D01*
X0220188Y0344226D01*
X0220348Y0344238D01*
X0220509Y0344246D01*
X0220670Y0344250D01*
X0220830Y0344250D01*
X0220991Y0344246D01*
X0221152Y0344238D01*
X0221312Y0344226D01*
X0221472Y0344210D01*
X0221632Y0344190D01*
X0221791Y0344166D01*
X0221949Y0344138D01*
X0222107Y0344107D01*
X0222263Y0344071D01*
X0222419Y0344032D01*
X0222574Y0343989D01*
X0222728Y0343942D01*
X0222881Y0343891D01*
X0223032Y0343836D01*
X0223182Y0343778D01*
X0223330Y0343716D01*
X0223477Y0343650D01*
X0223622Y0343581D01*
X0223765Y0343508D01*
X0223907Y0343432D01*
X0224046Y0343352D01*
X0224184Y0343269D01*
X0224319Y0343182D01*
X0224453Y0343092D01*
X0224584Y0342999D01*
X0224712Y0342903D01*
X0224838Y0342803D01*
X0224962Y0342700D01*
X0225083Y0342595D01*
X0225202Y0342486D01*
X0225318Y0342375D01*
X0225431Y0342260D01*
X0225541Y0342143D01*
X0225648Y0342023D01*
X0225752Y0341901D01*
X0225853Y0341776D01*
X0225951Y0341648D01*
X0226046Y0341518D01*
X0226138Y0341386D01*
X0226226Y0341252D01*
X0226311Y0341115D01*
X0226393Y0340977D01*
X0226471Y0340836D01*
X0226545Y0340694D01*
X0226616Y0340550D01*
X0226684Y0340404D01*
X0226747Y0340256D01*
X0226808Y0340107D01*
X0226864Y0339956D01*
X0226917Y0339804D01*
X0226966Y0339651D01*
X0227011Y0339497D01*
X0227052Y0339342D01*
X0227090Y0339185D01*
X0227123Y0339028D01*
X0227153Y0338870D01*
X0227179Y0338711D01*
X0227200Y0338552D01*
X0227218Y0338392D01*
X0227232Y0338232D01*
X0227242Y0338071D01*
X0227248Y0337911D01*
X0227250Y0337750D01*
X0227248Y0337589D01*
X0227242Y0337429D01*
X0227232Y0337268D01*
X0227218Y0337108D01*
X0227200Y0336948D01*
X0227179Y0336789D01*
X0227153Y0336630D01*
X0227123Y0336472D01*
X0227090Y0336315D01*
X0227052Y0336158D01*
X0227011Y0336003D01*
X0226966Y0335849D01*
X0226917Y0335696D01*
X0226864Y0335544D01*
X0226808Y0335393D01*
X0226747Y0335244D01*
X0226684Y0335096D01*
X0226616Y0334950D01*
X0226545Y0334806D01*
X0226471Y0334664D01*
X0226393Y0334523D01*
X0226311Y0334385D01*
X0226226Y0334248D01*
X0226138Y0334114D01*
X0226046Y0333982D01*
X0225951Y0333852D01*
X0225853Y0333724D01*
X0225752Y0333599D01*
X0225648Y0333477D01*
X0225541Y0333357D01*
X0225431Y0333240D01*
X0225318Y0333125D01*
X0225202Y0333014D01*
X0225083Y0332905D01*
X0224962Y0332800D01*
X0224838Y0332697D01*
X0224712Y0332597D01*
X0224584Y0332501D01*
X0224453Y0332408D01*
X0224319Y0332318D01*
X0224184Y0332231D01*
X0224046Y0332148D01*
X0223907Y0332068D01*
X0223765Y0331992D01*
X0223622Y0331919D01*
X0223477Y0331850D01*
X0223330Y0331784D01*
X0223182Y0331722D01*
X0223032Y0331664D01*
X0222881Y0331609D01*
X0222728Y0331558D01*
X0222574Y0331511D01*
X0222419Y0331468D01*
X0222263Y0331429D01*
X0222107Y0331393D01*
X0221949Y0331362D01*
X0221791Y0331334D01*
X0221632Y0331310D01*
X0221472Y0331290D01*
X0221312Y0331274D01*
X0221152Y0331262D01*
X0220991Y0331254D01*
X0220830Y0331250D01*
X0220670Y0331250D01*
X0220509Y0331254D01*
X0220348Y0331262D01*
X0220188Y0331274D01*
X0220028Y0331290D01*
X0219868Y0331310D01*
X0219709Y0331334D01*
X0219551Y0331362D01*
X0219393Y0331393D01*
X0219237Y0331429D01*
X0219081Y0331468D01*
X0218926Y0331511D01*
X0218772Y0331558D01*
X0218619Y0331609D01*
X0218468Y0331664D01*
X0218318Y0331722D01*
X0218170Y0331784D01*
X0218023Y0331850D01*
X0217878Y0331919D01*
X0217735Y0331992D01*
X0217593Y0332068D01*
X0217454Y0332148D01*
X0217316Y0332231D01*
X0217181Y0332318D01*
X0217047Y0332408D01*
X0216916Y0332501D01*
X0216788Y0332597D01*
X0216662Y0332697D01*
X0216538Y0332800D01*
X0216417Y0332905D01*
X0216298Y0333014D01*
X0216182Y0333125D01*
X0216069Y0333240D01*
X0215959Y0333357D01*
X0215852Y0333477D01*
X0215748Y0333599D01*
X0215647Y0333724D01*
X0215549Y0333852D01*
X0215454Y0333982D01*
X0215362Y0334114D01*
X0215274Y0334248D01*
X0215189Y0334385D01*
X0215107Y0334523D01*
X0215029Y0334664D01*
X0214955Y0334806D01*
X0214884Y0334950D01*
X0214816Y0335096D01*
X0214753Y0335244D01*
X0214692Y0335393D01*
X0214636Y0335544D01*
X0214583Y0335696D01*
X0214534Y0335849D01*
X0214489Y0336003D01*
X0214448Y0336158D01*
X0214410Y0336315D01*
X0214377Y0336472D01*
X0214347Y0336630D01*
X0214321Y0336789D01*
X0214300Y0336948D01*
X0214282Y0337108D01*
X0214268Y0337268D01*
X0214258Y0337429D01*
X0214252Y0337589D01*
X0214250Y0337750D01*
X0134250Y0337750D02*
X0134252Y0337911D01*
X0134258Y0338071D01*
X0134268Y0338232D01*
X0134282Y0338392D01*
X0134300Y0338552D01*
X0134321Y0338711D01*
X0134347Y0338870D01*
X0134377Y0339028D01*
X0134410Y0339185D01*
X0134448Y0339342D01*
X0134489Y0339497D01*
X0134534Y0339651D01*
X0134583Y0339804D01*
X0134636Y0339956D01*
X0134692Y0340107D01*
X0134753Y0340256D01*
X0134816Y0340404D01*
X0134884Y0340550D01*
X0134955Y0340694D01*
X0135029Y0340836D01*
X0135107Y0340977D01*
X0135189Y0341115D01*
X0135274Y0341252D01*
X0135362Y0341386D01*
X0135454Y0341518D01*
X0135549Y0341648D01*
X0135647Y0341776D01*
X0135748Y0341901D01*
X0135852Y0342023D01*
X0135959Y0342143D01*
X0136069Y0342260D01*
X0136182Y0342375D01*
X0136298Y0342486D01*
X0136417Y0342595D01*
X0136538Y0342700D01*
X0136662Y0342803D01*
X0136788Y0342903D01*
X0136916Y0342999D01*
X0137047Y0343092D01*
X0137181Y0343182D01*
X0137316Y0343269D01*
X0137454Y0343352D01*
X0137593Y0343432D01*
X0137735Y0343508D01*
X0137878Y0343581D01*
X0138023Y0343650D01*
X0138170Y0343716D01*
X0138318Y0343778D01*
X0138468Y0343836D01*
X0138619Y0343891D01*
X0138772Y0343942D01*
X0138926Y0343989D01*
X0139081Y0344032D01*
X0139237Y0344071D01*
X0139393Y0344107D01*
X0139551Y0344138D01*
X0139709Y0344166D01*
X0139868Y0344190D01*
X0140028Y0344210D01*
X0140188Y0344226D01*
X0140348Y0344238D01*
X0140509Y0344246D01*
X0140670Y0344250D01*
X0140830Y0344250D01*
X0140991Y0344246D01*
X0141152Y0344238D01*
X0141312Y0344226D01*
X0141472Y0344210D01*
X0141632Y0344190D01*
X0141791Y0344166D01*
X0141949Y0344138D01*
X0142107Y0344107D01*
X0142263Y0344071D01*
X0142419Y0344032D01*
X0142574Y0343989D01*
X0142728Y0343942D01*
X0142881Y0343891D01*
X0143032Y0343836D01*
X0143182Y0343778D01*
X0143330Y0343716D01*
X0143477Y0343650D01*
X0143622Y0343581D01*
X0143765Y0343508D01*
X0143907Y0343432D01*
X0144046Y0343352D01*
X0144184Y0343269D01*
X0144319Y0343182D01*
X0144453Y0343092D01*
X0144584Y0342999D01*
X0144712Y0342903D01*
X0144838Y0342803D01*
X0144962Y0342700D01*
X0145083Y0342595D01*
X0145202Y0342486D01*
X0145318Y0342375D01*
X0145431Y0342260D01*
X0145541Y0342143D01*
X0145648Y0342023D01*
X0145752Y0341901D01*
X0145853Y0341776D01*
X0145951Y0341648D01*
X0146046Y0341518D01*
X0146138Y0341386D01*
X0146226Y0341252D01*
X0146311Y0341115D01*
X0146393Y0340977D01*
X0146471Y0340836D01*
X0146545Y0340694D01*
X0146616Y0340550D01*
X0146684Y0340404D01*
X0146747Y0340256D01*
X0146808Y0340107D01*
X0146864Y0339956D01*
X0146917Y0339804D01*
X0146966Y0339651D01*
X0147011Y0339497D01*
X0147052Y0339342D01*
X0147090Y0339185D01*
X0147123Y0339028D01*
X0147153Y0338870D01*
X0147179Y0338711D01*
X0147200Y0338552D01*
X0147218Y0338392D01*
X0147232Y0338232D01*
X0147242Y0338071D01*
X0147248Y0337911D01*
X0147250Y0337750D01*
X0147248Y0337589D01*
X0147242Y0337429D01*
X0147232Y0337268D01*
X0147218Y0337108D01*
X0147200Y0336948D01*
X0147179Y0336789D01*
X0147153Y0336630D01*
X0147123Y0336472D01*
X0147090Y0336315D01*
X0147052Y0336158D01*
X0147011Y0336003D01*
X0146966Y0335849D01*
X0146917Y0335696D01*
X0146864Y0335544D01*
X0146808Y0335393D01*
X0146747Y0335244D01*
X0146684Y0335096D01*
X0146616Y0334950D01*
X0146545Y0334806D01*
X0146471Y0334664D01*
X0146393Y0334523D01*
X0146311Y0334385D01*
X0146226Y0334248D01*
X0146138Y0334114D01*
X0146046Y0333982D01*
X0145951Y0333852D01*
X0145853Y0333724D01*
X0145752Y0333599D01*
X0145648Y0333477D01*
X0145541Y0333357D01*
X0145431Y0333240D01*
X0145318Y0333125D01*
X0145202Y0333014D01*
X0145083Y0332905D01*
X0144962Y0332800D01*
X0144838Y0332697D01*
X0144712Y0332597D01*
X0144584Y0332501D01*
X0144453Y0332408D01*
X0144319Y0332318D01*
X0144184Y0332231D01*
X0144046Y0332148D01*
X0143907Y0332068D01*
X0143765Y0331992D01*
X0143622Y0331919D01*
X0143477Y0331850D01*
X0143330Y0331784D01*
X0143182Y0331722D01*
X0143032Y0331664D01*
X0142881Y0331609D01*
X0142728Y0331558D01*
X0142574Y0331511D01*
X0142419Y0331468D01*
X0142263Y0331429D01*
X0142107Y0331393D01*
X0141949Y0331362D01*
X0141791Y0331334D01*
X0141632Y0331310D01*
X0141472Y0331290D01*
X0141312Y0331274D01*
X0141152Y0331262D01*
X0140991Y0331254D01*
X0140830Y0331250D01*
X0140670Y0331250D01*
X0140509Y0331254D01*
X0140348Y0331262D01*
X0140188Y0331274D01*
X0140028Y0331290D01*
X0139868Y0331310D01*
X0139709Y0331334D01*
X0139551Y0331362D01*
X0139393Y0331393D01*
X0139237Y0331429D01*
X0139081Y0331468D01*
X0138926Y0331511D01*
X0138772Y0331558D01*
X0138619Y0331609D01*
X0138468Y0331664D01*
X0138318Y0331722D01*
X0138170Y0331784D01*
X0138023Y0331850D01*
X0137878Y0331919D01*
X0137735Y0331992D01*
X0137593Y0332068D01*
X0137454Y0332148D01*
X0137316Y0332231D01*
X0137181Y0332318D01*
X0137047Y0332408D01*
X0136916Y0332501D01*
X0136788Y0332597D01*
X0136662Y0332697D01*
X0136538Y0332800D01*
X0136417Y0332905D01*
X0136298Y0333014D01*
X0136182Y0333125D01*
X0136069Y0333240D01*
X0135959Y0333357D01*
X0135852Y0333477D01*
X0135748Y0333599D01*
X0135647Y0333724D01*
X0135549Y0333852D01*
X0135454Y0333982D01*
X0135362Y0334114D01*
X0135274Y0334248D01*
X0135189Y0334385D01*
X0135107Y0334523D01*
X0135029Y0334664D01*
X0134955Y0334806D01*
X0134884Y0334950D01*
X0134816Y0335096D01*
X0134753Y0335244D01*
X0134692Y0335393D01*
X0134636Y0335544D01*
X0134583Y0335696D01*
X0134534Y0335849D01*
X0134489Y0336003D01*
X0134448Y0336158D01*
X0134410Y0336315D01*
X0134377Y0336472D01*
X0134347Y0336630D01*
X0134321Y0336789D01*
X0134300Y0336948D01*
X0134282Y0337108D01*
X0134268Y0337268D01*
X0134258Y0337429D01*
X0134252Y0337589D01*
X0134250Y0337750D01*
X0112250Y0337750D02*
X0112252Y0337911D01*
X0112258Y0338071D01*
X0112268Y0338232D01*
X0112282Y0338392D01*
X0112300Y0338552D01*
X0112321Y0338711D01*
X0112347Y0338870D01*
X0112377Y0339028D01*
X0112410Y0339185D01*
X0112448Y0339342D01*
X0112489Y0339497D01*
X0112534Y0339651D01*
X0112583Y0339804D01*
X0112636Y0339956D01*
X0112692Y0340107D01*
X0112753Y0340256D01*
X0112816Y0340404D01*
X0112884Y0340550D01*
X0112955Y0340694D01*
X0113029Y0340836D01*
X0113107Y0340977D01*
X0113189Y0341115D01*
X0113274Y0341252D01*
X0113362Y0341386D01*
X0113454Y0341518D01*
X0113549Y0341648D01*
X0113647Y0341776D01*
X0113748Y0341901D01*
X0113852Y0342023D01*
X0113959Y0342143D01*
X0114069Y0342260D01*
X0114182Y0342375D01*
X0114298Y0342486D01*
X0114417Y0342595D01*
X0114538Y0342700D01*
X0114662Y0342803D01*
X0114788Y0342903D01*
X0114916Y0342999D01*
X0115047Y0343092D01*
X0115181Y0343182D01*
X0115316Y0343269D01*
X0115454Y0343352D01*
X0115593Y0343432D01*
X0115735Y0343508D01*
X0115878Y0343581D01*
X0116023Y0343650D01*
X0116170Y0343716D01*
X0116318Y0343778D01*
X0116468Y0343836D01*
X0116619Y0343891D01*
X0116772Y0343942D01*
X0116926Y0343989D01*
X0117081Y0344032D01*
X0117237Y0344071D01*
X0117393Y0344107D01*
X0117551Y0344138D01*
X0117709Y0344166D01*
X0117868Y0344190D01*
X0118028Y0344210D01*
X0118188Y0344226D01*
X0118348Y0344238D01*
X0118509Y0344246D01*
X0118670Y0344250D01*
X0118830Y0344250D01*
X0118991Y0344246D01*
X0119152Y0344238D01*
X0119312Y0344226D01*
X0119472Y0344210D01*
X0119632Y0344190D01*
X0119791Y0344166D01*
X0119949Y0344138D01*
X0120107Y0344107D01*
X0120263Y0344071D01*
X0120419Y0344032D01*
X0120574Y0343989D01*
X0120728Y0343942D01*
X0120881Y0343891D01*
X0121032Y0343836D01*
X0121182Y0343778D01*
X0121330Y0343716D01*
X0121477Y0343650D01*
X0121622Y0343581D01*
X0121765Y0343508D01*
X0121907Y0343432D01*
X0122046Y0343352D01*
X0122184Y0343269D01*
X0122319Y0343182D01*
X0122453Y0343092D01*
X0122584Y0342999D01*
X0122712Y0342903D01*
X0122838Y0342803D01*
X0122962Y0342700D01*
X0123083Y0342595D01*
X0123202Y0342486D01*
X0123318Y0342375D01*
X0123431Y0342260D01*
X0123541Y0342143D01*
X0123648Y0342023D01*
X0123752Y0341901D01*
X0123853Y0341776D01*
X0123951Y0341648D01*
X0124046Y0341518D01*
X0124138Y0341386D01*
X0124226Y0341252D01*
X0124311Y0341115D01*
X0124393Y0340977D01*
X0124471Y0340836D01*
X0124545Y0340694D01*
X0124616Y0340550D01*
X0124684Y0340404D01*
X0124747Y0340256D01*
X0124808Y0340107D01*
X0124864Y0339956D01*
X0124917Y0339804D01*
X0124966Y0339651D01*
X0125011Y0339497D01*
X0125052Y0339342D01*
X0125090Y0339185D01*
X0125123Y0339028D01*
X0125153Y0338870D01*
X0125179Y0338711D01*
X0125200Y0338552D01*
X0125218Y0338392D01*
X0125232Y0338232D01*
X0125242Y0338071D01*
X0125248Y0337911D01*
X0125250Y0337750D01*
X0125248Y0337589D01*
X0125242Y0337429D01*
X0125232Y0337268D01*
X0125218Y0337108D01*
X0125200Y0336948D01*
X0125179Y0336789D01*
X0125153Y0336630D01*
X0125123Y0336472D01*
X0125090Y0336315D01*
X0125052Y0336158D01*
X0125011Y0336003D01*
X0124966Y0335849D01*
X0124917Y0335696D01*
X0124864Y0335544D01*
X0124808Y0335393D01*
X0124747Y0335244D01*
X0124684Y0335096D01*
X0124616Y0334950D01*
X0124545Y0334806D01*
X0124471Y0334664D01*
X0124393Y0334523D01*
X0124311Y0334385D01*
X0124226Y0334248D01*
X0124138Y0334114D01*
X0124046Y0333982D01*
X0123951Y0333852D01*
X0123853Y0333724D01*
X0123752Y0333599D01*
X0123648Y0333477D01*
X0123541Y0333357D01*
X0123431Y0333240D01*
X0123318Y0333125D01*
X0123202Y0333014D01*
X0123083Y0332905D01*
X0122962Y0332800D01*
X0122838Y0332697D01*
X0122712Y0332597D01*
X0122584Y0332501D01*
X0122453Y0332408D01*
X0122319Y0332318D01*
X0122184Y0332231D01*
X0122046Y0332148D01*
X0121907Y0332068D01*
X0121765Y0331992D01*
X0121622Y0331919D01*
X0121477Y0331850D01*
X0121330Y0331784D01*
X0121182Y0331722D01*
X0121032Y0331664D01*
X0120881Y0331609D01*
X0120728Y0331558D01*
X0120574Y0331511D01*
X0120419Y0331468D01*
X0120263Y0331429D01*
X0120107Y0331393D01*
X0119949Y0331362D01*
X0119791Y0331334D01*
X0119632Y0331310D01*
X0119472Y0331290D01*
X0119312Y0331274D01*
X0119152Y0331262D01*
X0118991Y0331254D01*
X0118830Y0331250D01*
X0118670Y0331250D01*
X0118509Y0331254D01*
X0118348Y0331262D01*
X0118188Y0331274D01*
X0118028Y0331290D01*
X0117868Y0331310D01*
X0117709Y0331334D01*
X0117551Y0331362D01*
X0117393Y0331393D01*
X0117237Y0331429D01*
X0117081Y0331468D01*
X0116926Y0331511D01*
X0116772Y0331558D01*
X0116619Y0331609D01*
X0116468Y0331664D01*
X0116318Y0331722D01*
X0116170Y0331784D01*
X0116023Y0331850D01*
X0115878Y0331919D01*
X0115735Y0331992D01*
X0115593Y0332068D01*
X0115454Y0332148D01*
X0115316Y0332231D01*
X0115181Y0332318D01*
X0115047Y0332408D01*
X0114916Y0332501D01*
X0114788Y0332597D01*
X0114662Y0332697D01*
X0114538Y0332800D01*
X0114417Y0332905D01*
X0114298Y0333014D01*
X0114182Y0333125D01*
X0114069Y0333240D01*
X0113959Y0333357D01*
X0113852Y0333477D01*
X0113748Y0333599D01*
X0113647Y0333724D01*
X0113549Y0333852D01*
X0113454Y0333982D01*
X0113362Y0334114D01*
X0113274Y0334248D01*
X0113189Y0334385D01*
X0113107Y0334523D01*
X0113029Y0334664D01*
X0112955Y0334806D01*
X0112884Y0334950D01*
X0112816Y0335096D01*
X0112753Y0335244D01*
X0112692Y0335393D01*
X0112636Y0335544D01*
X0112583Y0335696D01*
X0112534Y0335849D01*
X0112489Y0336003D01*
X0112448Y0336158D01*
X0112410Y0336315D01*
X0112377Y0336472D01*
X0112347Y0336630D01*
X0112321Y0336789D01*
X0112300Y0336948D01*
X0112282Y0337108D01*
X0112268Y0337268D01*
X0112258Y0337429D01*
X0112252Y0337589D01*
X0112250Y0337750D01*
X0032250Y0337750D02*
X0032252Y0337911D01*
X0032258Y0338071D01*
X0032268Y0338232D01*
X0032282Y0338392D01*
X0032300Y0338552D01*
X0032321Y0338711D01*
X0032347Y0338870D01*
X0032377Y0339028D01*
X0032410Y0339185D01*
X0032448Y0339342D01*
X0032489Y0339497D01*
X0032534Y0339651D01*
X0032583Y0339804D01*
X0032636Y0339956D01*
X0032692Y0340107D01*
X0032753Y0340256D01*
X0032816Y0340404D01*
X0032884Y0340550D01*
X0032955Y0340694D01*
X0033029Y0340836D01*
X0033107Y0340977D01*
X0033189Y0341115D01*
X0033274Y0341252D01*
X0033362Y0341386D01*
X0033454Y0341518D01*
X0033549Y0341648D01*
X0033647Y0341776D01*
X0033748Y0341901D01*
X0033852Y0342023D01*
X0033959Y0342143D01*
X0034069Y0342260D01*
X0034182Y0342375D01*
X0034298Y0342486D01*
X0034417Y0342595D01*
X0034538Y0342700D01*
X0034662Y0342803D01*
X0034788Y0342903D01*
X0034916Y0342999D01*
X0035047Y0343092D01*
X0035181Y0343182D01*
X0035316Y0343269D01*
X0035454Y0343352D01*
X0035593Y0343432D01*
X0035735Y0343508D01*
X0035878Y0343581D01*
X0036023Y0343650D01*
X0036170Y0343716D01*
X0036318Y0343778D01*
X0036468Y0343836D01*
X0036619Y0343891D01*
X0036772Y0343942D01*
X0036926Y0343989D01*
X0037081Y0344032D01*
X0037237Y0344071D01*
X0037393Y0344107D01*
X0037551Y0344138D01*
X0037709Y0344166D01*
X0037868Y0344190D01*
X0038028Y0344210D01*
X0038188Y0344226D01*
X0038348Y0344238D01*
X0038509Y0344246D01*
X0038670Y0344250D01*
X0038830Y0344250D01*
X0038991Y0344246D01*
X0039152Y0344238D01*
X0039312Y0344226D01*
X0039472Y0344210D01*
X0039632Y0344190D01*
X0039791Y0344166D01*
X0039949Y0344138D01*
X0040107Y0344107D01*
X0040263Y0344071D01*
X0040419Y0344032D01*
X0040574Y0343989D01*
X0040728Y0343942D01*
X0040881Y0343891D01*
X0041032Y0343836D01*
X0041182Y0343778D01*
X0041330Y0343716D01*
X0041477Y0343650D01*
X0041622Y0343581D01*
X0041765Y0343508D01*
X0041907Y0343432D01*
X0042046Y0343352D01*
X0042184Y0343269D01*
X0042319Y0343182D01*
X0042453Y0343092D01*
X0042584Y0342999D01*
X0042712Y0342903D01*
X0042838Y0342803D01*
X0042962Y0342700D01*
X0043083Y0342595D01*
X0043202Y0342486D01*
X0043318Y0342375D01*
X0043431Y0342260D01*
X0043541Y0342143D01*
X0043648Y0342023D01*
X0043752Y0341901D01*
X0043853Y0341776D01*
X0043951Y0341648D01*
X0044046Y0341518D01*
X0044138Y0341386D01*
X0044226Y0341252D01*
X0044311Y0341115D01*
X0044393Y0340977D01*
X0044471Y0340836D01*
X0044545Y0340694D01*
X0044616Y0340550D01*
X0044684Y0340404D01*
X0044747Y0340256D01*
X0044808Y0340107D01*
X0044864Y0339956D01*
X0044917Y0339804D01*
X0044966Y0339651D01*
X0045011Y0339497D01*
X0045052Y0339342D01*
X0045090Y0339185D01*
X0045123Y0339028D01*
X0045153Y0338870D01*
X0045179Y0338711D01*
X0045200Y0338552D01*
X0045218Y0338392D01*
X0045232Y0338232D01*
X0045242Y0338071D01*
X0045248Y0337911D01*
X0045250Y0337750D01*
X0045248Y0337589D01*
X0045242Y0337429D01*
X0045232Y0337268D01*
X0045218Y0337108D01*
X0045200Y0336948D01*
X0045179Y0336789D01*
X0045153Y0336630D01*
X0045123Y0336472D01*
X0045090Y0336315D01*
X0045052Y0336158D01*
X0045011Y0336003D01*
X0044966Y0335849D01*
X0044917Y0335696D01*
X0044864Y0335544D01*
X0044808Y0335393D01*
X0044747Y0335244D01*
X0044684Y0335096D01*
X0044616Y0334950D01*
X0044545Y0334806D01*
X0044471Y0334664D01*
X0044393Y0334523D01*
X0044311Y0334385D01*
X0044226Y0334248D01*
X0044138Y0334114D01*
X0044046Y0333982D01*
X0043951Y0333852D01*
X0043853Y0333724D01*
X0043752Y0333599D01*
X0043648Y0333477D01*
X0043541Y0333357D01*
X0043431Y0333240D01*
X0043318Y0333125D01*
X0043202Y0333014D01*
X0043083Y0332905D01*
X0042962Y0332800D01*
X0042838Y0332697D01*
X0042712Y0332597D01*
X0042584Y0332501D01*
X0042453Y0332408D01*
X0042319Y0332318D01*
X0042184Y0332231D01*
X0042046Y0332148D01*
X0041907Y0332068D01*
X0041765Y0331992D01*
X0041622Y0331919D01*
X0041477Y0331850D01*
X0041330Y0331784D01*
X0041182Y0331722D01*
X0041032Y0331664D01*
X0040881Y0331609D01*
X0040728Y0331558D01*
X0040574Y0331511D01*
X0040419Y0331468D01*
X0040263Y0331429D01*
X0040107Y0331393D01*
X0039949Y0331362D01*
X0039791Y0331334D01*
X0039632Y0331310D01*
X0039472Y0331290D01*
X0039312Y0331274D01*
X0039152Y0331262D01*
X0038991Y0331254D01*
X0038830Y0331250D01*
X0038670Y0331250D01*
X0038509Y0331254D01*
X0038348Y0331262D01*
X0038188Y0331274D01*
X0038028Y0331290D01*
X0037868Y0331310D01*
X0037709Y0331334D01*
X0037551Y0331362D01*
X0037393Y0331393D01*
X0037237Y0331429D01*
X0037081Y0331468D01*
X0036926Y0331511D01*
X0036772Y0331558D01*
X0036619Y0331609D01*
X0036468Y0331664D01*
X0036318Y0331722D01*
X0036170Y0331784D01*
X0036023Y0331850D01*
X0035878Y0331919D01*
X0035735Y0331992D01*
X0035593Y0332068D01*
X0035454Y0332148D01*
X0035316Y0332231D01*
X0035181Y0332318D01*
X0035047Y0332408D01*
X0034916Y0332501D01*
X0034788Y0332597D01*
X0034662Y0332697D01*
X0034538Y0332800D01*
X0034417Y0332905D01*
X0034298Y0333014D01*
X0034182Y0333125D01*
X0034069Y0333240D01*
X0033959Y0333357D01*
X0033852Y0333477D01*
X0033748Y0333599D01*
X0033647Y0333724D01*
X0033549Y0333852D01*
X0033454Y0333982D01*
X0033362Y0334114D01*
X0033274Y0334248D01*
X0033189Y0334385D01*
X0033107Y0334523D01*
X0033029Y0334664D01*
X0032955Y0334806D01*
X0032884Y0334950D01*
X0032816Y0335096D01*
X0032753Y0335244D01*
X0032692Y0335393D01*
X0032636Y0335544D01*
X0032583Y0335696D01*
X0032534Y0335849D01*
X0032489Y0336003D01*
X0032448Y0336158D01*
X0032410Y0336315D01*
X0032377Y0336472D01*
X0032347Y0336630D01*
X0032321Y0336789D01*
X0032300Y0336948D01*
X0032282Y0337108D01*
X0032268Y0337268D01*
X0032258Y0337429D01*
X0032252Y0337589D01*
X0032250Y0337750D01*
X0032250Y0230750D02*
X0032252Y0230911D01*
X0032258Y0231071D01*
X0032268Y0231232D01*
X0032282Y0231392D01*
X0032300Y0231552D01*
X0032321Y0231711D01*
X0032347Y0231870D01*
X0032377Y0232028D01*
X0032410Y0232185D01*
X0032448Y0232342D01*
X0032489Y0232497D01*
X0032534Y0232651D01*
X0032583Y0232804D01*
X0032636Y0232956D01*
X0032692Y0233107D01*
X0032753Y0233256D01*
X0032816Y0233404D01*
X0032884Y0233550D01*
X0032955Y0233694D01*
X0033029Y0233836D01*
X0033107Y0233977D01*
X0033189Y0234115D01*
X0033274Y0234252D01*
X0033362Y0234386D01*
X0033454Y0234518D01*
X0033549Y0234648D01*
X0033647Y0234776D01*
X0033748Y0234901D01*
X0033852Y0235023D01*
X0033959Y0235143D01*
X0034069Y0235260D01*
X0034182Y0235375D01*
X0034298Y0235486D01*
X0034417Y0235595D01*
X0034538Y0235700D01*
X0034662Y0235803D01*
X0034788Y0235903D01*
X0034916Y0235999D01*
X0035047Y0236092D01*
X0035181Y0236182D01*
X0035316Y0236269D01*
X0035454Y0236352D01*
X0035593Y0236432D01*
X0035735Y0236508D01*
X0035878Y0236581D01*
X0036023Y0236650D01*
X0036170Y0236716D01*
X0036318Y0236778D01*
X0036468Y0236836D01*
X0036619Y0236891D01*
X0036772Y0236942D01*
X0036926Y0236989D01*
X0037081Y0237032D01*
X0037237Y0237071D01*
X0037393Y0237107D01*
X0037551Y0237138D01*
X0037709Y0237166D01*
X0037868Y0237190D01*
X0038028Y0237210D01*
X0038188Y0237226D01*
X0038348Y0237238D01*
X0038509Y0237246D01*
X0038670Y0237250D01*
X0038830Y0237250D01*
X0038991Y0237246D01*
X0039152Y0237238D01*
X0039312Y0237226D01*
X0039472Y0237210D01*
X0039632Y0237190D01*
X0039791Y0237166D01*
X0039949Y0237138D01*
X0040107Y0237107D01*
X0040263Y0237071D01*
X0040419Y0237032D01*
X0040574Y0236989D01*
X0040728Y0236942D01*
X0040881Y0236891D01*
X0041032Y0236836D01*
X0041182Y0236778D01*
X0041330Y0236716D01*
X0041477Y0236650D01*
X0041622Y0236581D01*
X0041765Y0236508D01*
X0041907Y0236432D01*
X0042046Y0236352D01*
X0042184Y0236269D01*
X0042319Y0236182D01*
X0042453Y0236092D01*
X0042584Y0235999D01*
X0042712Y0235903D01*
X0042838Y0235803D01*
X0042962Y0235700D01*
X0043083Y0235595D01*
X0043202Y0235486D01*
X0043318Y0235375D01*
X0043431Y0235260D01*
X0043541Y0235143D01*
X0043648Y0235023D01*
X0043752Y0234901D01*
X0043853Y0234776D01*
X0043951Y0234648D01*
X0044046Y0234518D01*
X0044138Y0234386D01*
X0044226Y0234252D01*
X0044311Y0234115D01*
X0044393Y0233977D01*
X0044471Y0233836D01*
X0044545Y0233694D01*
X0044616Y0233550D01*
X0044684Y0233404D01*
X0044747Y0233256D01*
X0044808Y0233107D01*
X0044864Y0232956D01*
X0044917Y0232804D01*
X0044966Y0232651D01*
X0045011Y0232497D01*
X0045052Y0232342D01*
X0045090Y0232185D01*
X0045123Y0232028D01*
X0045153Y0231870D01*
X0045179Y0231711D01*
X0045200Y0231552D01*
X0045218Y0231392D01*
X0045232Y0231232D01*
X0045242Y0231071D01*
X0045248Y0230911D01*
X0045250Y0230750D01*
X0045248Y0230589D01*
X0045242Y0230429D01*
X0045232Y0230268D01*
X0045218Y0230108D01*
X0045200Y0229948D01*
X0045179Y0229789D01*
X0045153Y0229630D01*
X0045123Y0229472D01*
X0045090Y0229315D01*
X0045052Y0229158D01*
X0045011Y0229003D01*
X0044966Y0228849D01*
X0044917Y0228696D01*
X0044864Y0228544D01*
X0044808Y0228393D01*
X0044747Y0228244D01*
X0044684Y0228096D01*
X0044616Y0227950D01*
X0044545Y0227806D01*
X0044471Y0227664D01*
X0044393Y0227523D01*
X0044311Y0227385D01*
X0044226Y0227248D01*
X0044138Y0227114D01*
X0044046Y0226982D01*
X0043951Y0226852D01*
X0043853Y0226724D01*
X0043752Y0226599D01*
X0043648Y0226477D01*
X0043541Y0226357D01*
X0043431Y0226240D01*
X0043318Y0226125D01*
X0043202Y0226014D01*
X0043083Y0225905D01*
X0042962Y0225800D01*
X0042838Y0225697D01*
X0042712Y0225597D01*
X0042584Y0225501D01*
X0042453Y0225408D01*
X0042319Y0225318D01*
X0042184Y0225231D01*
X0042046Y0225148D01*
X0041907Y0225068D01*
X0041765Y0224992D01*
X0041622Y0224919D01*
X0041477Y0224850D01*
X0041330Y0224784D01*
X0041182Y0224722D01*
X0041032Y0224664D01*
X0040881Y0224609D01*
X0040728Y0224558D01*
X0040574Y0224511D01*
X0040419Y0224468D01*
X0040263Y0224429D01*
X0040107Y0224393D01*
X0039949Y0224362D01*
X0039791Y0224334D01*
X0039632Y0224310D01*
X0039472Y0224290D01*
X0039312Y0224274D01*
X0039152Y0224262D01*
X0038991Y0224254D01*
X0038830Y0224250D01*
X0038670Y0224250D01*
X0038509Y0224254D01*
X0038348Y0224262D01*
X0038188Y0224274D01*
X0038028Y0224290D01*
X0037868Y0224310D01*
X0037709Y0224334D01*
X0037551Y0224362D01*
X0037393Y0224393D01*
X0037237Y0224429D01*
X0037081Y0224468D01*
X0036926Y0224511D01*
X0036772Y0224558D01*
X0036619Y0224609D01*
X0036468Y0224664D01*
X0036318Y0224722D01*
X0036170Y0224784D01*
X0036023Y0224850D01*
X0035878Y0224919D01*
X0035735Y0224992D01*
X0035593Y0225068D01*
X0035454Y0225148D01*
X0035316Y0225231D01*
X0035181Y0225318D01*
X0035047Y0225408D01*
X0034916Y0225501D01*
X0034788Y0225597D01*
X0034662Y0225697D01*
X0034538Y0225800D01*
X0034417Y0225905D01*
X0034298Y0226014D01*
X0034182Y0226125D01*
X0034069Y0226240D01*
X0033959Y0226357D01*
X0033852Y0226477D01*
X0033748Y0226599D01*
X0033647Y0226724D01*
X0033549Y0226852D01*
X0033454Y0226982D01*
X0033362Y0227114D01*
X0033274Y0227248D01*
X0033189Y0227385D01*
X0033107Y0227523D01*
X0033029Y0227664D01*
X0032955Y0227806D01*
X0032884Y0227950D01*
X0032816Y0228096D01*
X0032753Y0228244D01*
X0032692Y0228393D01*
X0032636Y0228544D01*
X0032583Y0228696D01*
X0032534Y0228849D01*
X0032489Y0229003D01*
X0032448Y0229158D01*
X0032410Y0229315D01*
X0032377Y0229472D01*
X0032347Y0229630D01*
X0032321Y0229789D01*
X0032300Y0229948D01*
X0032282Y0230108D01*
X0032268Y0230268D01*
X0032258Y0230429D01*
X0032252Y0230589D01*
X0032250Y0230750D01*
X0112250Y0230750D02*
X0112252Y0230911D01*
X0112258Y0231071D01*
X0112268Y0231232D01*
X0112282Y0231392D01*
X0112300Y0231552D01*
X0112321Y0231711D01*
X0112347Y0231870D01*
X0112377Y0232028D01*
X0112410Y0232185D01*
X0112448Y0232342D01*
X0112489Y0232497D01*
X0112534Y0232651D01*
X0112583Y0232804D01*
X0112636Y0232956D01*
X0112692Y0233107D01*
X0112753Y0233256D01*
X0112816Y0233404D01*
X0112884Y0233550D01*
X0112955Y0233694D01*
X0113029Y0233836D01*
X0113107Y0233977D01*
X0113189Y0234115D01*
X0113274Y0234252D01*
X0113362Y0234386D01*
X0113454Y0234518D01*
X0113549Y0234648D01*
X0113647Y0234776D01*
X0113748Y0234901D01*
X0113852Y0235023D01*
X0113959Y0235143D01*
X0114069Y0235260D01*
X0114182Y0235375D01*
X0114298Y0235486D01*
X0114417Y0235595D01*
X0114538Y0235700D01*
X0114662Y0235803D01*
X0114788Y0235903D01*
X0114916Y0235999D01*
X0115047Y0236092D01*
X0115181Y0236182D01*
X0115316Y0236269D01*
X0115454Y0236352D01*
X0115593Y0236432D01*
X0115735Y0236508D01*
X0115878Y0236581D01*
X0116023Y0236650D01*
X0116170Y0236716D01*
X0116318Y0236778D01*
X0116468Y0236836D01*
X0116619Y0236891D01*
X0116772Y0236942D01*
X0116926Y0236989D01*
X0117081Y0237032D01*
X0117237Y0237071D01*
X0117393Y0237107D01*
X0117551Y0237138D01*
X0117709Y0237166D01*
X0117868Y0237190D01*
X0118028Y0237210D01*
X0118188Y0237226D01*
X0118348Y0237238D01*
X0118509Y0237246D01*
X0118670Y0237250D01*
X0118830Y0237250D01*
X0118991Y0237246D01*
X0119152Y0237238D01*
X0119312Y0237226D01*
X0119472Y0237210D01*
X0119632Y0237190D01*
X0119791Y0237166D01*
X0119949Y0237138D01*
X0120107Y0237107D01*
X0120263Y0237071D01*
X0120419Y0237032D01*
X0120574Y0236989D01*
X0120728Y0236942D01*
X0120881Y0236891D01*
X0121032Y0236836D01*
X0121182Y0236778D01*
X0121330Y0236716D01*
X0121477Y0236650D01*
X0121622Y0236581D01*
X0121765Y0236508D01*
X0121907Y0236432D01*
X0122046Y0236352D01*
X0122184Y0236269D01*
X0122319Y0236182D01*
X0122453Y0236092D01*
X0122584Y0235999D01*
X0122712Y0235903D01*
X0122838Y0235803D01*
X0122962Y0235700D01*
X0123083Y0235595D01*
X0123202Y0235486D01*
X0123318Y0235375D01*
X0123431Y0235260D01*
X0123541Y0235143D01*
X0123648Y0235023D01*
X0123752Y0234901D01*
X0123853Y0234776D01*
X0123951Y0234648D01*
X0124046Y0234518D01*
X0124138Y0234386D01*
X0124226Y0234252D01*
X0124311Y0234115D01*
X0124393Y0233977D01*
X0124471Y0233836D01*
X0124545Y0233694D01*
X0124616Y0233550D01*
X0124684Y0233404D01*
X0124747Y0233256D01*
X0124808Y0233107D01*
X0124864Y0232956D01*
X0124917Y0232804D01*
X0124966Y0232651D01*
X0125011Y0232497D01*
X0125052Y0232342D01*
X0125090Y0232185D01*
X0125123Y0232028D01*
X0125153Y0231870D01*
X0125179Y0231711D01*
X0125200Y0231552D01*
X0125218Y0231392D01*
X0125232Y0231232D01*
X0125242Y0231071D01*
X0125248Y0230911D01*
X0125250Y0230750D01*
X0125248Y0230589D01*
X0125242Y0230429D01*
X0125232Y0230268D01*
X0125218Y0230108D01*
X0125200Y0229948D01*
X0125179Y0229789D01*
X0125153Y0229630D01*
X0125123Y0229472D01*
X0125090Y0229315D01*
X0125052Y0229158D01*
X0125011Y0229003D01*
X0124966Y0228849D01*
X0124917Y0228696D01*
X0124864Y0228544D01*
X0124808Y0228393D01*
X0124747Y0228244D01*
X0124684Y0228096D01*
X0124616Y0227950D01*
X0124545Y0227806D01*
X0124471Y0227664D01*
X0124393Y0227523D01*
X0124311Y0227385D01*
X0124226Y0227248D01*
X0124138Y0227114D01*
X0124046Y0226982D01*
X0123951Y0226852D01*
X0123853Y0226724D01*
X0123752Y0226599D01*
X0123648Y0226477D01*
X0123541Y0226357D01*
X0123431Y0226240D01*
X0123318Y0226125D01*
X0123202Y0226014D01*
X0123083Y0225905D01*
X0122962Y0225800D01*
X0122838Y0225697D01*
X0122712Y0225597D01*
X0122584Y0225501D01*
X0122453Y0225408D01*
X0122319Y0225318D01*
X0122184Y0225231D01*
X0122046Y0225148D01*
X0121907Y0225068D01*
X0121765Y0224992D01*
X0121622Y0224919D01*
X0121477Y0224850D01*
X0121330Y0224784D01*
X0121182Y0224722D01*
X0121032Y0224664D01*
X0120881Y0224609D01*
X0120728Y0224558D01*
X0120574Y0224511D01*
X0120419Y0224468D01*
X0120263Y0224429D01*
X0120107Y0224393D01*
X0119949Y0224362D01*
X0119791Y0224334D01*
X0119632Y0224310D01*
X0119472Y0224290D01*
X0119312Y0224274D01*
X0119152Y0224262D01*
X0118991Y0224254D01*
X0118830Y0224250D01*
X0118670Y0224250D01*
X0118509Y0224254D01*
X0118348Y0224262D01*
X0118188Y0224274D01*
X0118028Y0224290D01*
X0117868Y0224310D01*
X0117709Y0224334D01*
X0117551Y0224362D01*
X0117393Y0224393D01*
X0117237Y0224429D01*
X0117081Y0224468D01*
X0116926Y0224511D01*
X0116772Y0224558D01*
X0116619Y0224609D01*
X0116468Y0224664D01*
X0116318Y0224722D01*
X0116170Y0224784D01*
X0116023Y0224850D01*
X0115878Y0224919D01*
X0115735Y0224992D01*
X0115593Y0225068D01*
X0115454Y0225148D01*
X0115316Y0225231D01*
X0115181Y0225318D01*
X0115047Y0225408D01*
X0114916Y0225501D01*
X0114788Y0225597D01*
X0114662Y0225697D01*
X0114538Y0225800D01*
X0114417Y0225905D01*
X0114298Y0226014D01*
X0114182Y0226125D01*
X0114069Y0226240D01*
X0113959Y0226357D01*
X0113852Y0226477D01*
X0113748Y0226599D01*
X0113647Y0226724D01*
X0113549Y0226852D01*
X0113454Y0226982D01*
X0113362Y0227114D01*
X0113274Y0227248D01*
X0113189Y0227385D01*
X0113107Y0227523D01*
X0113029Y0227664D01*
X0112955Y0227806D01*
X0112884Y0227950D01*
X0112816Y0228096D01*
X0112753Y0228244D01*
X0112692Y0228393D01*
X0112636Y0228544D01*
X0112583Y0228696D01*
X0112534Y0228849D01*
X0112489Y0229003D01*
X0112448Y0229158D01*
X0112410Y0229315D01*
X0112377Y0229472D01*
X0112347Y0229630D01*
X0112321Y0229789D01*
X0112300Y0229948D01*
X0112282Y0230108D01*
X0112268Y0230268D01*
X0112258Y0230429D01*
X0112252Y0230589D01*
X0112250Y0230750D01*
X0134250Y0230750D02*
X0134252Y0230911D01*
X0134258Y0231071D01*
X0134268Y0231232D01*
X0134282Y0231392D01*
X0134300Y0231552D01*
X0134321Y0231711D01*
X0134347Y0231870D01*
X0134377Y0232028D01*
X0134410Y0232185D01*
X0134448Y0232342D01*
X0134489Y0232497D01*
X0134534Y0232651D01*
X0134583Y0232804D01*
X0134636Y0232956D01*
X0134692Y0233107D01*
X0134753Y0233256D01*
X0134816Y0233404D01*
X0134884Y0233550D01*
X0134955Y0233694D01*
X0135029Y0233836D01*
X0135107Y0233977D01*
X0135189Y0234115D01*
X0135274Y0234252D01*
X0135362Y0234386D01*
X0135454Y0234518D01*
X0135549Y0234648D01*
X0135647Y0234776D01*
X0135748Y0234901D01*
X0135852Y0235023D01*
X0135959Y0235143D01*
X0136069Y0235260D01*
X0136182Y0235375D01*
X0136298Y0235486D01*
X0136417Y0235595D01*
X0136538Y0235700D01*
X0136662Y0235803D01*
X0136788Y0235903D01*
X0136916Y0235999D01*
X0137047Y0236092D01*
X0137181Y0236182D01*
X0137316Y0236269D01*
X0137454Y0236352D01*
X0137593Y0236432D01*
X0137735Y0236508D01*
X0137878Y0236581D01*
X0138023Y0236650D01*
X0138170Y0236716D01*
X0138318Y0236778D01*
X0138468Y0236836D01*
X0138619Y0236891D01*
X0138772Y0236942D01*
X0138926Y0236989D01*
X0139081Y0237032D01*
X0139237Y0237071D01*
X0139393Y0237107D01*
X0139551Y0237138D01*
X0139709Y0237166D01*
X0139868Y0237190D01*
X0140028Y0237210D01*
X0140188Y0237226D01*
X0140348Y0237238D01*
X0140509Y0237246D01*
X0140670Y0237250D01*
X0140830Y0237250D01*
X0140991Y0237246D01*
X0141152Y0237238D01*
X0141312Y0237226D01*
X0141472Y0237210D01*
X0141632Y0237190D01*
X0141791Y0237166D01*
X0141949Y0237138D01*
X0142107Y0237107D01*
X0142263Y0237071D01*
X0142419Y0237032D01*
X0142574Y0236989D01*
X0142728Y0236942D01*
X0142881Y0236891D01*
X0143032Y0236836D01*
X0143182Y0236778D01*
X0143330Y0236716D01*
X0143477Y0236650D01*
X0143622Y0236581D01*
X0143765Y0236508D01*
X0143907Y0236432D01*
X0144046Y0236352D01*
X0144184Y0236269D01*
X0144319Y0236182D01*
X0144453Y0236092D01*
X0144584Y0235999D01*
X0144712Y0235903D01*
X0144838Y0235803D01*
X0144962Y0235700D01*
X0145083Y0235595D01*
X0145202Y0235486D01*
X0145318Y0235375D01*
X0145431Y0235260D01*
X0145541Y0235143D01*
X0145648Y0235023D01*
X0145752Y0234901D01*
X0145853Y0234776D01*
X0145951Y0234648D01*
X0146046Y0234518D01*
X0146138Y0234386D01*
X0146226Y0234252D01*
X0146311Y0234115D01*
X0146393Y0233977D01*
X0146471Y0233836D01*
X0146545Y0233694D01*
X0146616Y0233550D01*
X0146684Y0233404D01*
X0146747Y0233256D01*
X0146808Y0233107D01*
X0146864Y0232956D01*
X0146917Y0232804D01*
X0146966Y0232651D01*
X0147011Y0232497D01*
X0147052Y0232342D01*
X0147090Y0232185D01*
X0147123Y0232028D01*
X0147153Y0231870D01*
X0147179Y0231711D01*
X0147200Y0231552D01*
X0147218Y0231392D01*
X0147232Y0231232D01*
X0147242Y0231071D01*
X0147248Y0230911D01*
X0147250Y0230750D01*
X0147248Y0230589D01*
X0147242Y0230429D01*
X0147232Y0230268D01*
X0147218Y0230108D01*
X0147200Y0229948D01*
X0147179Y0229789D01*
X0147153Y0229630D01*
X0147123Y0229472D01*
X0147090Y0229315D01*
X0147052Y0229158D01*
X0147011Y0229003D01*
X0146966Y0228849D01*
X0146917Y0228696D01*
X0146864Y0228544D01*
X0146808Y0228393D01*
X0146747Y0228244D01*
X0146684Y0228096D01*
X0146616Y0227950D01*
X0146545Y0227806D01*
X0146471Y0227664D01*
X0146393Y0227523D01*
X0146311Y0227385D01*
X0146226Y0227248D01*
X0146138Y0227114D01*
X0146046Y0226982D01*
X0145951Y0226852D01*
X0145853Y0226724D01*
X0145752Y0226599D01*
X0145648Y0226477D01*
X0145541Y0226357D01*
X0145431Y0226240D01*
X0145318Y0226125D01*
X0145202Y0226014D01*
X0145083Y0225905D01*
X0144962Y0225800D01*
X0144838Y0225697D01*
X0144712Y0225597D01*
X0144584Y0225501D01*
X0144453Y0225408D01*
X0144319Y0225318D01*
X0144184Y0225231D01*
X0144046Y0225148D01*
X0143907Y0225068D01*
X0143765Y0224992D01*
X0143622Y0224919D01*
X0143477Y0224850D01*
X0143330Y0224784D01*
X0143182Y0224722D01*
X0143032Y0224664D01*
X0142881Y0224609D01*
X0142728Y0224558D01*
X0142574Y0224511D01*
X0142419Y0224468D01*
X0142263Y0224429D01*
X0142107Y0224393D01*
X0141949Y0224362D01*
X0141791Y0224334D01*
X0141632Y0224310D01*
X0141472Y0224290D01*
X0141312Y0224274D01*
X0141152Y0224262D01*
X0140991Y0224254D01*
X0140830Y0224250D01*
X0140670Y0224250D01*
X0140509Y0224254D01*
X0140348Y0224262D01*
X0140188Y0224274D01*
X0140028Y0224290D01*
X0139868Y0224310D01*
X0139709Y0224334D01*
X0139551Y0224362D01*
X0139393Y0224393D01*
X0139237Y0224429D01*
X0139081Y0224468D01*
X0138926Y0224511D01*
X0138772Y0224558D01*
X0138619Y0224609D01*
X0138468Y0224664D01*
X0138318Y0224722D01*
X0138170Y0224784D01*
X0138023Y0224850D01*
X0137878Y0224919D01*
X0137735Y0224992D01*
X0137593Y0225068D01*
X0137454Y0225148D01*
X0137316Y0225231D01*
X0137181Y0225318D01*
X0137047Y0225408D01*
X0136916Y0225501D01*
X0136788Y0225597D01*
X0136662Y0225697D01*
X0136538Y0225800D01*
X0136417Y0225905D01*
X0136298Y0226014D01*
X0136182Y0226125D01*
X0136069Y0226240D01*
X0135959Y0226357D01*
X0135852Y0226477D01*
X0135748Y0226599D01*
X0135647Y0226724D01*
X0135549Y0226852D01*
X0135454Y0226982D01*
X0135362Y0227114D01*
X0135274Y0227248D01*
X0135189Y0227385D01*
X0135107Y0227523D01*
X0135029Y0227664D01*
X0134955Y0227806D01*
X0134884Y0227950D01*
X0134816Y0228096D01*
X0134753Y0228244D01*
X0134692Y0228393D01*
X0134636Y0228544D01*
X0134583Y0228696D01*
X0134534Y0228849D01*
X0134489Y0229003D01*
X0134448Y0229158D01*
X0134410Y0229315D01*
X0134377Y0229472D01*
X0134347Y0229630D01*
X0134321Y0229789D01*
X0134300Y0229948D01*
X0134282Y0230108D01*
X0134268Y0230268D01*
X0134258Y0230429D01*
X0134252Y0230589D01*
X0134250Y0230750D01*
X0214250Y0230750D02*
X0214252Y0230911D01*
X0214258Y0231071D01*
X0214268Y0231232D01*
X0214282Y0231392D01*
X0214300Y0231552D01*
X0214321Y0231711D01*
X0214347Y0231870D01*
X0214377Y0232028D01*
X0214410Y0232185D01*
X0214448Y0232342D01*
X0214489Y0232497D01*
X0214534Y0232651D01*
X0214583Y0232804D01*
X0214636Y0232956D01*
X0214692Y0233107D01*
X0214753Y0233256D01*
X0214816Y0233404D01*
X0214884Y0233550D01*
X0214955Y0233694D01*
X0215029Y0233836D01*
X0215107Y0233977D01*
X0215189Y0234115D01*
X0215274Y0234252D01*
X0215362Y0234386D01*
X0215454Y0234518D01*
X0215549Y0234648D01*
X0215647Y0234776D01*
X0215748Y0234901D01*
X0215852Y0235023D01*
X0215959Y0235143D01*
X0216069Y0235260D01*
X0216182Y0235375D01*
X0216298Y0235486D01*
X0216417Y0235595D01*
X0216538Y0235700D01*
X0216662Y0235803D01*
X0216788Y0235903D01*
X0216916Y0235999D01*
X0217047Y0236092D01*
X0217181Y0236182D01*
X0217316Y0236269D01*
X0217454Y0236352D01*
X0217593Y0236432D01*
X0217735Y0236508D01*
X0217878Y0236581D01*
X0218023Y0236650D01*
X0218170Y0236716D01*
X0218318Y0236778D01*
X0218468Y0236836D01*
X0218619Y0236891D01*
X0218772Y0236942D01*
X0218926Y0236989D01*
X0219081Y0237032D01*
X0219237Y0237071D01*
X0219393Y0237107D01*
X0219551Y0237138D01*
X0219709Y0237166D01*
X0219868Y0237190D01*
X0220028Y0237210D01*
X0220188Y0237226D01*
X0220348Y0237238D01*
X0220509Y0237246D01*
X0220670Y0237250D01*
X0220830Y0237250D01*
X0220991Y0237246D01*
X0221152Y0237238D01*
X0221312Y0237226D01*
X0221472Y0237210D01*
X0221632Y0237190D01*
X0221791Y0237166D01*
X0221949Y0237138D01*
X0222107Y0237107D01*
X0222263Y0237071D01*
X0222419Y0237032D01*
X0222574Y0236989D01*
X0222728Y0236942D01*
X0222881Y0236891D01*
X0223032Y0236836D01*
X0223182Y0236778D01*
X0223330Y0236716D01*
X0223477Y0236650D01*
X0223622Y0236581D01*
X0223765Y0236508D01*
X0223907Y0236432D01*
X0224046Y0236352D01*
X0224184Y0236269D01*
X0224319Y0236182D01*
X0224453Y0236092D01*
X0224584Y0235999D01*
X0224712Y0235903D01*
X0224838Y0235803D01*
X0224962Y0235700D01*
X0225083Y0235595D01*
X0225202Y0235486D01*
X0225318Y0235375D01*
X0225431Y0235260D01*
X0225541Y0235143D01*
X0225648Y0235023D01*
X0225752Y0234901D01*
X0225853Y0234776D01*
X0225951Y0234648D01*
X0226046Y0234518D01*
X0226138Y0234386D01*
X0226226Y0234252D01*
X0226311Y0234115D01*
X0226393Y0233977D01*
X0226471Y0233836D01*
X0226545Y0233694D01*
X0226616Y0233550D01*
X0226684Y0233404D01*
X0226747Y0233256D01*
X0226808Y0233107D01*
X0226864Y0232956D01*
X0226917Y0232804D01*
X0226966Y0232651D01*
X0227011Y0232497D01*
X0227052Y0232342D01*
X0227090Y0232185D01*
X0227123Y0232028D01*
X0227153Y0231870D01*
X0227179Y0231711D01*
X0227200Y0231552D01*
X0227218Y0231392D01*
X0227232Y0231232D01*
X0227242Y0231071D01*
X0227248Y0230911D01*
X0227250Y0230750D01*
X0227248Y0230589D01*
X0227242Y0230429D01*
X0227232Y0230268D01*
X0227218Y0230108D01*
X0227200Y0229948D01*
X0227179Y0229789D01*
X0227153Y0229630D01*
X0227123Y0229472D01*
X0227090Y0229315D01*
X0227052Y0229158D01*
X0227011Y0229003D01*
X0226966Y0228849D01*
X0226917Y0228696D01*
X0226864Y0228544D01*
X0226808Y0228393D01*
X0226747Y0228244D01*
X0226684Y0228096D01*
X0226616Y0227950D01*
X0226545Y0227806D01*
X0226471Y0227664D01*
X0226393Y0227523D01*
X0226311Y0227385D01*
X0226226Y0227248D01*
X0226138Y0227114D01*
X0226046Y0226982D01*
X0225951Y0226852D01*
X0225853Y0226724D01*
X0225752Y0226599D01*
X0225648Y0226477D01*
X0225541Y0226357D01*
X0225431Y0226240D01*
X0225318Y0226125D01*
X0225202Y0226014D01*
X0225083Y0225905D01*
X0224962Y0225800D01*
X0224838Y0225697D01*
X0224712Y0225597D01*
X0224584Y0225501D01*
X0224453Y0225408D01*
X0224319Y0225318D01*
X0224184Y0225231D01*
X0224046Y0225148D01*
X0223907Y0225068D01*
X0223765Y0224992D01*
X0223622Y0224919D01*
X0223477Y0224850D01*
X0223330Y0224784D01*
X0223182Y0224722D01*
X0223032Y0224664D01*
X0222881Y0224609D01*
X0222728Y0224558D01*
X0222574Y0224511D01*
X0222419Y0224468D01*
X0222263Y0224429D01*
X0222107Y0224393D01*
X0221949Y0224362D01*
X0221791Y0224334D01*
X0221632Y0224310D01*
X0221472Y0224290D01*
X0221312Y0224274D01*
X0221152Y0224262D01*
X0220991Y0224254D01*
X0220830Y0224250D01*
X0220670Y0224250D01*
X0220509Y0224254D01*
X0220348Y0224262D01*
X0220188Y0224274D01*
X0220028Y0224290D01*
X0219868Y0224310D01*
X0219709Y0224334D01*
X0219551Y0224362D01*
X0219393Y0224393D01*
X0219237Y0224429D01*
X0219081Y0224468D01*
X0218926Y0224511D01*
X0218772Y0224558D01*
X0218619Y0224609D01*
X0218468Y0224664D01*
X0218318Y0224722D01*
X0218170Y0224784D01*
X0218023Y0224850D01*
X0217878Y0224919D01*
X0217735Y0224992D01*
X0217593Y0225068D01*
X0217454Y0225148D01*
X0217316Y0225231D01*
X0217181Y0225318D01*
X0217047Y0225408D01*
X0216916Y0225501D01*
X0216788Y0225597D01*
X0216662Y0225697D01*
X0216538Y0225800D01*
X0216417Y0225905D01*
X0216298Y0226014D01*
X0216182Y0226125D01*
X0216069Y0226240D01*
X0215959Y0226357D01*
X0215852Y0226477D01*
X0215748Y0226599D01*
X0215647Y0226724D01*
X0215549Y0226852D01*
X0215454Y0226982D01*
X0215362Y0227114D01*
X0215274Y0227248D01*
X0215189Y0227385D01*
X0215107Y0227523D01*
X0215029Y0227664D01*
X0214955Y0227806D01*
X0214884Y0227950D01*
X0214816Y0228096D01*
X0214753Y0228244D01*
X0214692Y0228393D01*
X0214636Y0228544D01*
X0214583Y0228696D01*
X0214534Y0228849D01*
X0214489Y0229003D01*
X0214448Y0229158D01*
X0214410Y0229315D01*
X0214377Y0229472D01*
X0214347Y0229630D01*
X0214321Y0229789D01*
X0214300Y0229948D01*
X0214282Y0230108D01*
X0214268Y0230268D01*
X0214258Y0230429D01*
X0214252Y0230589D01*
X0214250Y0230750D01*
X0236250Y0230750D02*
X0236252Y0230911D01*
X0236258Y0231071D01*
X0236268Y0231232D01*
X0236282Y0231392D01*
X0236300Y0231552D01*
X0236321Y0231711D01*
X0236347Y0231870D01*
X0236377Y0232028D01*
X0236410Y0232185D01*
X0236448Y0232342D01*
X0236489Y0232497D01*
X0236534Y0232651D01*
X0236583Y0232804D01*
X0236636Y0232956D01*
X0236692Y0233107D01*
X0236753Y0233256D01*
X0236816Y0233404D01*
X0236884Y0233550D01*
X0236955Y0233694D01*
X0237029Y0233836D01*
X0237107Y0233977D01*
X0237189Y0234115D01*
X0237274Y0234252D01*
X0237362Y0234386D01*
X0237454Y0234518D01*
X0237549Y0234648D01*
X0237647Y0234776D01*
X0237748Y0234901D01*
X0237852Y0235023D01*
X0237959Y0235143D01*
X0238069Y0235260D01*
X0238182Y0235375D01*
X0238298Y0235486D01*
X0238417Y0235595D01*
X0238538Y0235700D01*
X0238662Y0235803D01*
X0238788Y0235903D01*
X0238916Y0235999D01*
X0239047Y0236092D01*
X0239181Y0236182D01*
X0239316Y0236269D01*
X0239454Y0236352D01*
X0239593Y0236432D01*
X0239735Y0236508D01*
X0239878Y0236581D01*
X0240023Y0236650D01*
X0240170Y0236716D01*
X0240318Y0236778D01*
X0240468Y0236836D01*
X0240619Y0236891D01*
X0240772Y0236942D01*
X0240926Y0236989D01*
X0241081Y0237032D01*
X0241237Y0237071D01*
X0241393Y0237107D01*
X0241551Y0237138D01*
X0241709Y0237166D01*
X0241868Y0237190D01*
X0242028Y0237210D01*
X0242188Y0237226D01*
X0242348Y0237238D01*
X0242509Y0237246D01*
X0242670Y0237250D01*
X0242830Y0237250D01*
X0242991Y0237246D01*
X0243152Y0237238D01*
X0243312Y0237226D01*
X0243472Y0237210D01*
X0243632Y0237190D01*
X0243791Y0237166D01*
X0243949Y0237138D01*
X0244107Y0237107D01*
X0244263Y0237071D01*
X0244419Y0237032D01*
X0244574Y0236989D01*
X0244728Y0236942D01*
X0244881Y0236891D01*
X0245032Y0236836D01*
X0245182Y0236778D01*
X0245330Y0236716D01*
X0245477Y0236650D01*
X0245622Y0236581D01*
X0245765Y0236508D01*
X0245907Y0236432D01*
X0246046Y0236352D01*
X0246184Y0236269D01*
X0246319Y0236182D01*
X0246453Y0236092D01*
X0246584Y0235999D01*
X0246712Y0235903D01*
X0246838Y0235803D01*
X0246962Y0235700D01*
X0247083Y0235595D01*
X0247202Y0235486D01*
X0247318Y0235375D01*
X0247431Y0235260D01*
X0247541Y0235143D01*
X0247648Y0235023D01*
X0247752Y0234901D01*
X0247853Y0234776D01*
X0247951Y0234648D01*
X0248046Y0234518D01*
X0248138Y0234386D01*
X0248226Y0234252D01*
X0248311Y0234115D01*
X0248393Y0233977D01*
X0248471Y0233836D01*
X0248545Y0233694D01*
X0248616Y0233550D01*
X0248684Y0233404D01*
X0248747Y0233256D01*
X0248808Y0233107D01*
X0248864Y0232956D01*
X0248917Y0232804D01*
X0248966Y0232651D01*
X0249011Y0232497D01*
X0249052Y0232342D01*
X0249090Y0232185D01*
X0249123Y0232028D01*
X0249153Y0231870D01*
X0249179Y0231711D01*
X0249200Y0231552D01*
X0249218Y0231392D01*
X0249232Y0231232D01*
X0249242Y0231071D01*
X0249248Y0230911D01*
X0249250Y0230750D01*
X0249248Y0230589D01*
X0249242Y0230429D01*
X0249232Y0230268D01*
X0249218Y0230108D01*
X0249200Y0229948D01*
X0249179Y0229789D01*
X0249153Y0229630D01*
X0249123Y0229472D01*
X0249090Y0229315D01*
X0249052Y0229158D01*
X0249011Y0229003D01*
X0248966Y0228849D01*
X0248917Y0228696D01*
X0248864Y0228544D01*
X0248808Y0228393D01*
X0248747Y0228244D01*
X0248684Y0228096D01*
X0248616Y0227950D01*
X0248545Y0227806D01*
X0248471Y0227664D01*
X0248393Y0227523D01*
X0248311Y0227385D01*
X0248226Y0227248D01*
X0248138Y0227114D01*
X0248046Y0226982D01*
X0247951Y0226852D01*
X0247853Y0226724D01*
X0247752Y0226599D01*
X0247648Y0226477D01*
X0247541Y0226357D01*
X0247431Y0226240D01*
X0247318Y0226125D01*
X0247202Y0226014D01*
X0247083Y0225905D01*
X0246962Y0225800D01*
X0246838Y0225697D01*
X0246712Y0225597D01*
X0246584Y0225501D01*
X0246453Y0225408D01*
X0246319Y0225318D01*
X0246184Y0225231D01*
X0246046Y0225148D01*
X0245907Y0225068D01*
X0245765Y0224992D01*
X0245622Y0224919D01*
X0245477Y0224850D01*
X0245330Y0224784D01*
X0245182Y0224722D01*
X0245032Y0224664D01*
X0244881Y0224609D01*
X0244728Y0224558D01*
X0244574Y0224511D01*
X0244419Y0224468D01*
X0244263Y0224429D01*
X0244107Y0224393D01*
X0243949Y0224362D01*
X0243791Y0224334D01*
X0243632Y0224310D01*
X0243472Y0224290D01*
X0243312Y0224274D01*
X0243152Y0224262D01*
X0242991Y0224254D01*
X0242830Y0224250D01*
X0242670Y0224250D01*
X0242509Y0224254D01*
X0242348Y0224262D01*
X0242188Y0224274D01*
X0242028Y0224290D01*
X0241868Y0224310D01*
X0241709Y0224334D01*
X0241551Y0224362D01*
X0241393Y0224393D01*
X0241237Y0224429D01*
X0241081Y0224468D01*
X0240926Y0224511D01*
X0240772Y0224558D01*
X0240619Y0224609D01*
X0240468Y0224664D01*
X0240318Y0224722D01*
X0240170Y0224784D01*
X0240023Y0224850D01*
X0239878Y0224919D01*
X0239735Y0224992D01*
X0239593Y0225068D01*
X0239454Y0225148D01*
X0239316Y0225231D01*
X0239181Y0225318D01*
X0239047Y0225408D01*
X0238916Y0225501D01*
X0238788Y0225597D01*
X0238662Y0225697D01*
X0238538Y0225800D01*
X0238417Y0225905D01*
X0238298Y0226014D01*
X0238182Y0226125D01*
X0238069Y0226240D01*
X0237959Y0226357D01*
X0237852Y0226477D01*
X0237748Y0226599D01*
X0237647Y0226724D01*
X0237549Y0226852D01*
X0237454Y0226982D01*
X0237362Y0227114D01*
X0237274Y0227248D01*
X0237189Y0227385D01*
X0237107Y0227523D01*
X0237029Y0227664D01*
X0236955Y0227806D01*
X0236884Y0227950D01*
X0236816Y0228096D01*
X0236753Y0228244D01*
X0236692Y0228393D01*
X0236636Y0228544D01*
X0236583Y0228696D01*
X0236534Y0228849D01*
X0236489Y0229003D01*
X0236448Y0229158D01*
X0236410Y0229315D01*
X0236377Y0229472D01*
X0236347Y0229630D01*
X0236321Y0229789D01*
X0236300Y0229948D01*
X0236282Y0230108D01*
X0236268Y0230268D01*
X0236258Y0230429D01*
X0236252Y0230589D01*
X0236250Y0230750D01*
X0316250Y0230750D02*
X0316252Y0230911D01*
X0316258Y0231071D01*
X0316268Y0231232D01*
X0316282Y0231392D01*
X0316300Y0231552D01*
X0316321Y0231711D01*
X0316347Y0231870D01*
X0316377Y0232028D01*
X0316410Y0232185D01*
X0316448Y0232342D01*
X0316489Y0232497D01*
X0316534Y0232651D01*
X0316583Y0232804D01*
X0316636Y0232956D01*
X0316692Y0233107D01*
X0316753Y0233256D01*
X0316816Y0233404D01*
X0316884Y0233550D01*
X0316955Y0233694D01*
X0317029Y0233836D01*
X0317107Y0233977D01*
X0317189Y0234115D01*
X0317274Y0234252D01*
X0317362Y0234386D01*
X0317454Y0234518D01*
X0317549Y0234648D01*
X0317647Y0234776D01*
X0317748Y0234901D01*
X0317852Y0235023D01*
X0317959Y0235143D01*
X0318069Y0235260D01*
X0318182Y0235375D01*
X0318298Y0235486D01*
X0318417Y0235595D01*
X0318538Y0235700D01*
X0318662Y0235803D01*
X0318788Y0235903D01*
X0318916Y0235999D01*
X0319047Y0236092D01*
X0319181Y0236182D01*
X0319316Y0236269D01*
X0319454Y0236352D01*
X0319593Y0236432D01*
X0319735Y0236508D01*
X0319878Y0236581D01*
X0320023Y0236650D01*
X0320170Y0236716D01*
X0320318Y0236778D01*
X0320468Y0236836D01*
X0320619Y0236891D01*
X0320772Y0236942D01*
X0320926Y0236989D01*
X0321081Y0237032D01*
X0321237Y0237071D01*
X0321393Y0237107D01*
X0321551Y0237138D01*
X0321709Y0237166D01*
X0321868Y0237190D01*
X0322028Y0237210D01*
X0322188Y0237226D01*
X0322348Y0237238D01*
X0322509Y0237246D01*
X0322670Y0237250D01*
X0322830Y0237250D01*
X0322991Y0237246D01*
X0323152Y0237238D01*
X0323312Y0237226D01*
X0323472Y0237210D01*
X0323632Y0237190D01*
X0323791Y0237166D01*
X0323949Y0237138D01*
X0324107Y0237107D01*
X0324263Y0237071D01*
X0324419Y0237032D01*
X0324574Y0236989D01*
X0324728Y0236942D01*
X0324881Y0236891D01*
X0325032Y0236836D01*
X0325182Y0236778D01*
X0325330Y0236716D01*
X0325477Y0236650D01*
X0325622Y0236581D01*
X0325765Y0236508D01*
X0325907Y0236432D01*
X0326046Y0236352D01*
X0326184Y0236269D01*
X0326319Y0236182D01*
X0326453Y0236092D01*
X0326584Y0235999D01*
X0326712Y0235903D01*
X0326838Y0235803D01*
X0326962Y0235700D01*
X0327083Y0235595D01*
X0327202Y0235486D01*
X0327318Y0235375D01*
X0327431Y0235260D01*
X0327541Y0235143D01*
X0327648Y0235023D01*
X0327752Y0234901D01*
X0327853Y0234776D01*
X0327951Y0234648D01*
X0328046Y0234518D01*
X0328138Y0234386D01*
X0328226Y0234252D01*
X0328311Y0234115D01*
X0328393Y0233977D01*
X0328471Y0233836D01*
X0328545Y0233694D01*
X0328616Y0233550D01*
X0328684Y0233404D01*
X0328747Y0233256D01*
X0328808Y0233107D01*
X0328864Y0232956D01*
X0328917Y0232804D01*
X0328966Y0232651D01*
X0329011Y0232497D01*
X0329052Y0232342D01*
X0329090Y0232185D01*
X0329123Y0232028D01*
X0329153Y0231870D01*
X0329179Y0231711D01*
X0329200Y0231552D01*
X0329218Y0231392D01*
X0329232Y0231232D01*
X0329242Y0231071D01*
X0329248Y0230911D01*
X0329250Y0230750D01*
X0329248Y0230589D01*
X0329242Y0230429D01*
X0329232Y0230268D01*
X0329218Y0230108D01*
X0329200Y0229948D01*
X0329179Y0229789D01*
X0329153Y0229630D01*
X0329123Y0229472D01*
X0329090Y0229315D01*
X0329052Y0229158D01*
X0329011Y0229003D01*
X0328966Y0228849D01*
X0328917Y0228696D01*
X0328864Y0228544D01*
X0328808Y0228393D01*
X0328747Y0228244D01*
X0328684Y0228096D01*
X0328616Y0227950D01*
X0328545Y0227806D01*
X0328471Y0227664D01*
X0328393Y0227523D01*
X0328311Y0227385D01*
X0328226Y0227248D01*
X0328138Y0227114D01*
X0328046Y0226982D01*
X0327951Y0226852D01*
X0327853Y0226724D01*
X0327752Y0226599D01*
X0327648Y0226477D01*
X0327541Y0226357D01*
X0327431Y0226240D01*
X0327318Y0226125D01*
X0327202Y0226014D01*
X0327083Y0225905D01*
X0326962Y0225800D01*
X0326838Y0225697D01*
X0326712Y0225597D01*
X0326584Y0225501D01*
X0326453Y0225408D01*
X0326319Y0225318D01*
X0326184Y0225231D01*
X0326046Y0225148D01*
X0325907Y0225068D01*
X0325765Y0224992D01*
X0325622Y0224919D01*
X0325477Y0224850D01*
X0325330Y0224784D01*
X0325182Y0224722D01*
X0325032Y0224664D01*
X0324881Y0224609D01*
X0324728Y0224558D01*
X0324574Y0224511D01*
X0324419Y0224468D01*
X0324263Y0224429D01*
X0324107Y0224393D01*
X0323949Y0224362D01*
X0323791Y0224334D01*
X0323632Y0224310D01*
X0323472Y0224290D01*
X0323312Y0224274D01*
X0323152Y0224262D01*
X0322991Y0224254D01*
X0322830Y0224250D01*
X0322670Y0224250D01*
X0322509Y0224254D01*
X0322348Y0224262D01*
X0322188Y0224274D01*
X0322028Y0224290D01*
X0321868Y0224310D01*
X0321709Y0224334D01*
X0321551Y0224362D01*
X0321393Y0224393D01*
X0321237Y0224429D01*
X0321081Y0224468D01*
X0320926Y0224511D01*
X0320772Y0224558D01*
X0320619Y0224609D01*
X0320468Y0224664D01*
X0320318Y0224722D01*
X0320170Y0224784D01*
X0320023Y0224850D01*
X0319878Y0224919D01*
X0319735Y0224992D01*
X0319593Y0225068D01*
X0319454Y0225148D01*
X0319316Y0225231D01*
X0319181Y0225318D01*
X0319047Y0225408D01*
X0318916Y0225501D01*
X0318788Y0225597D01*
X0318662Y0225697D01*
X0318538Y0225800D01*
X0318417Y0225905D01*
X0318298Y0226014D01*
X0318182Y0226125D01*
X0318069Y0226240D01*
X0317959Y0226357D01*
X0317852Y0226477D01*
X0317748Y0226599D01*
X0317647Y0226724D01*
X0317549Y0226852D01*
X0317454Y0226982D01*
X0317362Y0227114D01*
X0317274Y0227248D01*
X0317189Y0227385D01*
X0317107Y0227523D01*
X0317029Y0227664D01*
X0316955Y0227806D01*
X0316884Y0227950D01*
X0316816Y0228096D01*
X0316753Y0228244D01*
X0316692Y0228393D01*
X0316636Y0228544D01*
X0316583Y0228696D01*
X0316534Y0228849D01*
X0316489Y0229003D01*
X0316448Y0229158D01*
X0316410Y0229315D01*
X0316377Y0229472D01*
X0316347Y0229630D01*
X0316321Y0229789D01*
X0316300Y0229948D01*
X0316282Y0230108D01*
X0316268Y0230268D01*
X0316258Y0230429D01*
X0316252Y0230589D01*
X0316250Y0230750D01*
X0316250Y0123750D02*
X0316252Y0123911D01*
X0316258Y0124071D01*
X0316268Y0124232D01*
X0316282Y0124392D01*
X0316300Y0124552D01*
X0316321Y0124711D01*
X0316347Y0124870D01*
X0316377Y0125028D01*
X0316410Y0125185D01*
X0316448Y0125342D01*
X0316489Y0125497D01*
X0316534Y0125651D01*
X0316583Y0125804D01*
X0316636Y0125956D01*
X0316692Y0126107D01*
X0316753Y0126256D01*
X0316816Y0126404D01*
X0316884Y0126550D01*
X0316955Y0126694D01*
X0317029Y0126836D01*
X0317107Y0126977D01*
X0317189Y0127115D01*
X0317274Y0127252D01*
X0317362Y0127386D01*
X0317454Y0127518D01*
X0317549Y0127648D01*
X0317647Y0127776D01*
X0317748Y0127901D01*
X0317852Y0128023D01*
X0317959Y0128143D01*
X0318069Y0128260D01*
X0318182Y0128375D01*
X0318298Y0128486D01*
X0318417Y0128595D01*
X0318538Y0128700D01*
X0318662Y0128803D01*
X0318788Y0128903D01*
X0318916Y0128999D01*
X0319047Y0129092D01*
X0319181Y0129182D01*
X0319316Y0129269D01*
X0319454Y0129352D01*
X0319593Y0129432D01*
X0319735Y0129508D01*
X0319878Y0129581D01*
X0320023Y0129650D01*
X0320170Y0129716D01*
X0320318Y0129778D01*
X0320468Y0129836D01*
X0320619Y0129891D01*
X0320772Y0129942D01*
X0320926Y0129989D01*
X0321081Y0130032D01*
X0321237Y0130071D01*
X0321393Y0130107D01*
X0321551Y0130138D01*
X0321709Y0130166D01*
X0321868Y0130190D01*
X0322028Y0130210D01*
X0322188Y0130226D01*
X0322348Y0130238D01*
X0322509Y0130246D01*
X0322670Y0130250D01*
X0322830Y0130250D01*
X0322991Y0130246D01*
X0323152Y0130238D01*
X0323312Y0130226D01*
X0323472Y0130210D01*
X0323632Y0130190D01*
X0323791Y0130166D01*
X0323949Y0130138D01*
X0324107Y0130107D01*
X0324263Y0130071D01*
X0324419Y0130032D01*
X0324574Y0129989D01*
X0324728Y0129942D01*
X0324881Y0129891D01*
X0325032Y0129836D01*
X0325182Y0129778D01*
X0325330Y0129716D01*
X0325477Y0129650D01*
X0325622Y0129581D01*
X0325765Y0129508D01*
X0325907Y0129432D01*
X0326046Y0129352D01*
X0326184Y0129269D01*
X0326319Y0129182D01*
X0326453Y0129092D01*
X0326584Y0128999D01*
X0326712Y0128903D01*
X0326838Y0128803D01*
X0326962Y0128700D01*
X0327083Y0128595D01*
X0327202Y0128486D01*
X0327318Y0128375D01*
X0327431Y0128260D01*
X0327541Y0128143D01*
X0327648Y0128023D01*
X0327752Y0127901D01*
X0327853Y0127776D01*
X0327951Y0127648D01*
X0328046Y0127518D01*
X0328138Y0127386D01*
X0328226Y0127252D01*
X0328311Y0127115D01*
X0328393Y0126977D01*
X0328471Y0126836D01*
X0328545Y0126694D01*
X0328616Y0126550D01*
X0328684Y0126404D01*
X0328747Y0126256D01*
X0328808Y0126107D01*
X0328864Y0125956D01*
X0328917Y0125804D01*
X0328966Y0125651D01*
X0329011Y0125497D01*
X0329052Y0125342D01*
X0329090Y0125185D01*
X0329123Y0125028D01*
X0329153Y0124870D01*
X0329179Y0124711D01*
X0329200Y0124552D01*
X0329218Y0124392D01*
X0329232Y0124232D01*
X0329242Y0124071D01*
X0329248Y0123911D01*
X0329250Y0123750D01*
X0329248Y0123589D01*
X0329242Y0123429D01*
X0329232Y0123268D01*
X0329218Y0123108D01*
X0329200Y0122948D01*
X0329179Y0122789D01*
X0329153Y0122630D01*
X0329123Y0122472D01*
X0329090Y0122315D01*
X0329052Y0122158D01*
X0329011Y0122003D01*
X0328966Y0121849D01*
X0328917Y0121696D01*
X0328864Y0121544D01*
X0328808Y0121393D01*
X0328747Y0121244D01*
X0328684Y0121096D01*
X0328616Y0120950D01*
X0328545Y0120806D01*
X0328471Y0120664D01*
X0328393Y0120523D01*
X0328311Y0120385D01*
X0328226Y0120248D01*
X0328138Y0120114D01*
X0328046Y0119982D01*
X0327951Y0119852D01*
X0327853Y0119724D01*
X0327752Y0119599D01*
X0327648Y0119477D01*
X0327541Y0119357D01*
X0327431Y0119240D01*
X0327318Y0119125D01*
X0327202Y0119014D01*
X0327083Y0118905D01*
X0326962Y0118800D01*
X0326838Y0118697D01*
X0326712Y0118597D01*
X0326584Y0118501D01*
X0326453Y0118408D01*
X0326319Y0118318D01*
X0326184Y0118231D01*
X0326046Y0118148D01*
X0325907Y0118068D01*
X0325765Y0117992D01*
X0325622Y0117919D01*
X0325477Y0117850D01*
X0325330Y0117784D01*
X0325182Y0117722D01*
X0325032Y0117664D01*
X0324881Y0117609D01*
X0324728Y0117558D01*
X0324574Y0117511D01*
X0324419Y0117468D01*
X0324263Y0117429D01*
X0324107Y0117393D01*
X0323949Y0117362D01*
X0323791Y0117334D01*
X0323632Y0117310D01*
X0323472Y0117290D01*
X0323312Y0117274D01*
X0323152Y0117262D01*
X0322991Y0117254D01*
X0322830Y0117250D01*
X0322670Y0117250D01*
X0322509Y0117254D01*
X0322348Y0117262D01*
X0322188Y0117274D01*
X0322028Y0117290D01*
X0321868Y0117310D01*
X0321709Y0117334D01*
X0321551Y0117362D01*
X0321393Y0117393D01*
X0321237Y0117429D01*
X0321081Y0117468D01*
X0320926Y0117511D01*
X0320772Y0117558D01*
X0320619Y0117609D01*
X0320468Y0117664D01*
X0320318Y0117722D01*
X0320170Y0117784D01*
X0320023Y0117850D01*
X0319878Y0117919D01*
X0319735Y0117992D01*
X0319593Y0118068D01*
X0319454Y0118148D01*
X0319316Y0118231D01*
X0319181Y0118318D01*
X0319047Y0118408D01*
X0318916Y0118501D01*
X0318788Y0118597D01*
X0318662Y0118697D01*
X0318538Y0118800D01*
X0318417Y0118905D01*
X0318298Y0119014D01*
X0318182Y0119125D01*
X0318069Y0119240D01*
X0317959Y0119357D01*
X0317852Y0119477D01*
X0317748Y0119599D01*
X0317647Y0119724D01*
X0317549Y0119852D01*
X0317454Y0119982D01*
X0317362Y0120114D01*
X0317274Y0120248D01*
X0317189Y0120385D01*
X0317107Y0120523D01*
X0317029Y0120664D01*
X0316955Y0120806D01*
X0316884Y0120950D01*
X0316816Y0121096D01*
X0316753Y0121244D01*
X0316692Y0121393D01*
X0316636Y0121544D01*
X0316583Y0121696D01*
X0316534Y0121849D01*
X0316489Y0122003D01*
X0316448Y0122158D01*
X0316410Y0122315D01*
X0316377Y0122472D01*
X0316347Y0122630D01*
X0316321Y0122789D01*
X0316300Y0122948D01*
X0316282Y0123108D01*
X0316268Y0123268D01*
X0316258Y0123429D01*
X0316252Y0123589D01*
X0316250Y0123750D01*
X0236250Y0123750D02*
X0236252Y0123911D01*
X0236258Y0124071D01*
X0236268Y0124232D01*
X0236282Y0124392D01*
X0236300Y0124552D01*
X0236321Y0124711D01*
X0236347Y0124870D01*
X0236377Y0125028D01*
X0236410Y0125185D01*
X0236448Y0125342D01*
X0236489Y0125497D01*
X0236534Y0125651D01*
X0236583Y0125804D01*
X0236636Y0125956D01*
X0236692Y0126107D01*
X0236753Y0126256D01*
X0236816Y0126404D01*
X0236884Y0126550D01*
X0236955Y0126694D01*
X0237029Y0126836D01*
X0237107Y0126977D01*
X0237189Y0127115D01*
X0237274Y0127252D01*
X0237362Y0127386D01*
X0237454Y0127518D01*
X0237549Y0127648D01*
X0237647Y0127776D01*
X0237748Y0127901D01*
X0237852Y0128023D01*
X0237959Y0128143D01*
X0238069Y0128260D01*
X0238182Y0128375D01*
X0238298Y0128486D01*
X0238417Y0128595D01*
X0238538Y0128700D01*
X0238662Y0128803D01*
X0238788Y0128903D01*
X0238916Y0128999D01*
X0239047Y0129092D01*
X0239181Y0129182D01*
X0239316Y0129269D01*
X0239454Y0129352D01*
X0239593Y0129432D01*
X0239735Y0129508D01*
X0239878Y0129581D01*
X0240023Y0129650D01*
X0240170Y0129716D01*
X0240318Y0129778D01*
X0240468Y0129836D01*
X0240619Y0129891D01*
X0240772Y0129942D01*
X0240926Y0129989D01*
X0241081Y0130032D01*
X0241237Y0130071D01*
X0241393Y0130107D01*
X0241551Y0130138D01*
X0241709Y0130166D01*
X0241868Y0130190D01*
X0242028Y0130210D01*
X0242188Y0130226D01*
X0242348Y0130238D01*
X0242509Y0130246D01*
X0242670Y0130250D01*
X0242830Y0130250D01*
X0242991Y0130246D01*
X0243152Y0130238D01*
X0243312Y0130226D01*
X0243472Y0130210D01*
X0243632Y0130190D01*
X0243791Y0130166D01*
X0243949Y0130138D01*
X0244107Y0130107D01*
X0244263Y0130071D01*
X0244419Y0130032D01*
X0244574Y0129989D01*
X0244728Y0129942D01*
X0244881Y0129891D01*
X0245032Y0129836D01*
X0245182Y0129778D01*
X0245330Y0129716D01*
X0245477Y0129650D01*
X0245622Y0129581D01*
X0245765Y0129508D01*
X0245907Y0129432D01*
X0246046Y0129352D01*
X0246184Y0129269D01*
X0246319Y0129182D01*
X0246453Y0129092D01*
X0246584Y0128999D01*
X0246712Y0128903D01*
X0246838Y0128803D01*
X0246962Y0128700D01*
X0247083Y0128595D01*
X0247202Y0128486D01*
X0247318Y0128375D01*
X0247431Y0128260D01*
X0247541Y0128143D01*
X0247648Y0128023D01*
X0247752Y0127901D01*
X0247853Y0127776D01*
X0247951Y0127648D01*
X0248046Y0127518D01*
X0248138Y0127386D01*
X0248226Y0127252D01*
X0248311Y0127115D01*
X0248393Y0126977D01*
X0248471Y0126836D01*
X0248545Y0126694D01*
X0248616Y0126550D01*
X0248684Y0126404D01*
X0248747Y0126256D01*
X0248808Y0126107D01*
X0248864Y0125956D01*
X0248917Y0125804D01*
X0248966Y0125651D01*
X0249011Y0125497D01*
X0249052Y0125342D01*
X0249090Y0125185D01*
X0249123Y0125028D01*
X0249153Y0124870D01*
X0249179Y0124711D01*
X0249200Y0124552D01*
X0249218Y0124392D01*
X0249232Y0124232D01*
X0249242Y0124071D01*
X0249248Y0123911D01*
X0249250Y0123750D01*
X0249248Y0123589D01*
X0249242Y0123429D01*
X0249232Y0123268D01*
X0249218Y0123108D01*
X0249200Y0122948D01*
X0249179Y0122789D01*
X0249153Y0122630D01*
X0249123Y0122472D01*
X0249090Y0122315D01*
X0249052Y0122158D01*
X0249011Y0122003D01*
X0248966Y0121849D01*
X0248917Y0121696D01*
X0248864Y0121544D01*
X0248808Y0121393D01*
X0248747Y0121244D01*
X0248684Y0121096D01*
X0248616Y0120950D01*
X0248545Y0120806D01*
X0248471Y0120664D01*
X0248393Y0120523D01*
X0248311Y0120385D01*
X0248226Y0120248D01*
X0248138Y0120114D01*
X0248046Y0119982D01*
X0247951Y0119852D01*
X0247853Y0119724D01*
X0247752Y0119599D01*
X0247648Y0119477D01*
X0247541Y0119357D01*
X0247431Y0119240D01*
X0247318Y0119125D01*
X0247202Y0119014D01*
X0247083Y0118905D01*
X0246962Y0118800D01*
X0246838Y0118697D01*
X0246712Y0118597D01*
X0246584Y0118501D01*
X0246453Y0118408D01*
X0246319Y0118318D01*
X0246184Y0118231D01*
X0246046Y0118148D01*
X0245907Y0118068D01*
X0245765Y0117992D01*
X0245622Y0117919D01*
X0245477Y0117850D01*
X0245330Y0117784D01*
X0245182Y0117722D01*
X0245032Y0117664D01*
X0244881Y0117609D01*
X0244728Y0117558D01*
X0244574Y0117511D01*
X0244419Y0117468D01*
X0244263Y0117429D01*
X0244107Y0117393D01*
X0243949Y0117362D01*
X0243791Y0117334D01*
X0243632Y0117310D01*
X0243472Y0117290D01*
X0243312Y0117274D01*
X0243152Y0117262D01*
X0242991Y0117254D01*
X0242830Y0117250D01*
X0242670Y0117250D01*
X0242509Y0117254D01*
X0242348Y0117262D01*
X0242188Y0117274D01*
X0242028Y0117290D01*
X0241868Y0117310D01*
X0241709Y0117334D01*
X0241551Y0117362D01*
X0241393Y0117393D01*
X0241237Y0117429D01*
X0241081Y0117468D01*
X0240926Y0117511D01*
X0240772Y0117558D01*
X0240619Y0117609D01*
X0240468Y0117664D01*
X0240318Y0117722D01*
X0240170Y0117784D01*
X0240023Y0117850D01*
X0239878Y0117919D01*
X0239735Y0117992D01*
X0239593Y0118068D01*
X0239454Y0118148D01*
X0239316Y0118231D01*
X0239181Y0118318D01*
X0239047Y0118408D01*
X0238916Y0118501D01*
X0238788Y0118597D01*
X0238662Y0118697D01*
X0238538Y0118800D01*
X0238417Y0118905D01*
X0238298Y0119014D01*
X0238182Y0119125D01*
X0238069Y0119240D01*
X0237959Y0119357D01*
X0237852Y0119477D01*
X0237748Y0119599D01*
X0237647Y0119724D01*
X0237549Y0119852D01*
X0237454Y0119982D01*
X0237362Y0120114D01*
X0237274Y0120248D01*
X0237189Y0120385D01*
X0237107Y0120523D01*
X0237029Y0120664D01*
X0236955Y0120806D01*
X0236884Y0120950D01*
X0236816Y0121096D01*
X0236753Y0121244D01*
X0236692Y0121393D01*
X0236636Y0121544D01*
X0236583Y0121696D01*
X0236534Y0121849D01*
X0236489Y0122003D01*
X0236448Y0122158D01*
X0236410Y0122315D01*
X0236377Y0122472D01*
X0236347Y0122630D01*
X0236321Y0122789D01*
X0236300Y0122948D01*
X0236282Y0123108D01*
X0236268Y0123268D01*
X0236258Y0123429D01*
X0236252Y0123589D01*
X0236250Y0123750D01*
X0214250Y0123750D02*
X0214252Y0123911D01*
X0214258Y0124071D01*
X0214268Y0124232D01*
X0214282Y0124392D01*
X0214300Y0124552D01*
X0214321Y0124711D01*
X0214347Y0124870D01*
X0214377Y0125028D01*
X0214410Y0125185D01*
X0214448Y0125342D01*
X0214489Y0125497D01*
X0214534Y0125651D01*
X0214583Y0125804D01*
X0214636Y0125956D01*
X0214692Y0126107D01*
X0214753Y0126256D01*
X0214816Y0126404D01*
X0214884Y0126550D01*
X0214955Y0126694D01*
X0215029Y0126836D01*
X0215107Y0126977D01*
X0215189Y0127115D01*
X0215274Y0127252D01*
X0215362Y0127386D01*
X0215454Y0127518D01*
X0215549Y0127648D01*
X0215647Y0127776D01*
X0215748Y0127901D01*
X0215852Y0128023D01*
X0215959Y0128143D01*
X0216069Y0128260D01*
X0216182Y0128375D01*
X0216298Y0128486D01*
X0216417Y0128595D01*
X0216538Y0128700D01*
X0216662Y0128803D01*
X0216788Y0128903D01*
X0216916Y0128999D01*
X0217047Y0129092D01*
X0217181Y0129182D01*
X0217316Y0129269D01*
X0217454Y0129352D01*
X0217593Y0129432D01*
X0217735Y0129508D01*
X0217878Y0129581D01*
X0218023Y0129650D01*
X0218170Y0129716D01*
X0218318Y0129778D01*
X0218468Y0129836D01*
X0218619Y0129891D01*
X0218772Y0129942D01*
X0218926Y0129989D01*
X0219081Y0130032D01*
X0219237Y0130071D01*
X0219393Y0130107D01*
X0219551Y0130138D01*
X0219709Y0130166D01*
X0219868Y0130190D01*
X0220028Y0130210D01*
X0220188Y0130226D01*
X0220348Y0130238D01*
X0220509Y0130246D01*
X0220670Y0130250D01*
X0220830Y0130250D01*
X0220991Y0130246D01*
X0221152Y0130238D01*
X0221312Y0130226D01*
X0221472Y0130210D01*
X0221632Y0130190D01*
X0221791Y0130166D01*
X0221949Y0130138D01*
X0222107Y0130107D01*
X0222263Y0130071D01*
X0222419Y0130032D01*
X0222574Y0129989D01*
X0222728Y0129942D01*
X0222881Y0129891D01*
X0223032Y0129836D01*
X0223182Y0129778D01*
X0223330Y0129716D01*
X0223477Y0129650D01*
X0223622Y0129581D01*
X0223765Y0129508D01*
X0223907Y0129432D01*
X0224046Y0129352D01*
X0224184Y0129269D01*
X0224319Y0129182D01*
X0224453Y0129092D01*
X0224584Y0128999D01*
X0224712Y0128903D01*
X0224838Y0128803D01*
X0224962Y0128700D01*
X0225083Y0128595D01*
X0225202Y0128486D01*
X0225318Y0128375D01*
X0225431Y0128260D01*
X0225541Y0128143D01*
X0225648Y0128023D01*
X0225752Y0127901D01*
X0225853Y0127776D01*
X0225951Y0127648D01*
X0226046Y0127518D01*
X0226138Y0127386D01*
X0226226Y0127252D01*
X0226311Y0127115D01*
X0226393Y0126977D01*
X0226471Y0126836D01*
X0226545Y0126694D01*
X0226616Y0126550D01*
X0226684Y0126404D01*
X0226747Y0126256D01*
X0226808Y0126107D01*
X0226864Y0125956D01*
X0226917Y0125804D01*
X0226966Y0125651D01*
X0227011Y0125497D01*
X0227052Y0125342D01*
X0227090Y0125185D01*
X0227123Y0125028D01*
X0227153Y0124870D01*
X0227179Y0124711D01*
X0227200Y0124552D01*
X0227218Y0124392D01*
X0227232Y0124232D01*
X0227242Y0124071D01*
X0227248Y0123911D01*
X0227250Y0123750D01*
X0227248Y0123589D01*
X0227242Y0123429D01*
X0227232Y0123268D01*
X0227218Y0123108D01*
X0227200Y0122948D01*
X0227179Y0122789D01*
X0227153Y0122630D01*
X0227123Y0122472D01*
X0227090Y0122315D01*
X0227052Y0122158D01*
X0227011Y0122003D01*
X0226966Y0121849D01*
X0226917Y0121696D01*
X0226864Y0121544D01*
X0226808Y0121393D01*
X0226747Y0121244D01*
X0226684Y0121096D01*
X0226616Y0120950D01*
X0226545Y0120806D01*
X0226471Y0120664D01*
X0226393Y0120523D01*
X0226311Y0120385D01*
X0226226Y0120248D01*
X0226138Y0120114D01*
X0226046Y0119982D01*
X0225951Y0119852D01*
X0225853Y0119724D01*
X0225752Y0119599D01*
X0225648Y0119477D01*
X0225541Y0119357D01*
X0225431Y0119240D01*
X0225318Y0119125D01*
X0225202Y0119014D01*
X0225083Y0118905D01*
X0224962Y0118800D01*
X0224838Y0118697D01*
X0224712Y0118597D01*
X0224584Y0118501D01*
X0224453Y0118408D01*
X0224319Y0118318D01*
X0224184Y0118231D01*
X0224046Y0118148D01*
X0223907Y0118068D01*
X0223765Y0117992D01*
X0223622Y0117919D01*
X0223477Y0117850D01*
X0223330Y0117784D01*
X0223182Y0117722D01*
X0223032Y0117664D01*
X0222881Y0117609D01*
X0222728Y0117558D01*
X0222574Y0117511D01*
X0222419Y0117468D01*
X0222263Y0117429D01*
X0222107Y0117393D01*
X0221949Y0117362D01*
X0221791Y0117334D01*
X0221632Y0117310D01*
X0221472Y0117290D01*
X0221312Y0117274D01*
X0221152Y0117262D01*
X0220991Y0117254D01*
X0220830Y0117250D01*
X0220670Y0117250D01*
X0220509Y0117254D01*
X0220348Y0117262D01*
X0220188Y0117274D01*
X0220028Y0117290D01*
X0219868Y0117310D01*
X0219709Y0117334D01*
X0219551Y0117362D01*
X0219393Y0117393D01*
X0219237Y0117429D01*
X0219081Y0117468D01*
X0218926Y0117511D01*
X0218772Y0117558D01*
X0218619Y0117609D01*
X0218468Y0117664D01*
X0218318Y0117722D01*
X0218170Y0117784D01*
X0218023Y0117850D01*
X0217878Y0117919D01*
X0217735Y0117992D01*
X0217593Y0118068D01*
X0217454Y0118148D01*
X0217316Y0118231D01*
X0217181Y0118318D01*
X0217047Y0118408D01*
X0216916Y0118501D01*
X0216788Y0118597D01*
X0216662Y0118697D01*
X0216538Y0118800D01*
X0216417Y0118905D01*
X0216298Y0119014D01*
X0216182Y0119125D01*
X0216069Y0119240D01*
X0215959Y0119357D01*
X0215852Y0119477D01*
X0215748Y0119599D01*
X0215647Y0119724D01*
X0215549Y0119852D01*
X0215454Y0119982D01*
X0215362Y0120114D01*
X0215274Y0120248D01*
X0215189Y0120385D01*
X0215107Y0120523D01*
X0215029Y0120664D01*
X0214955Y0120806D01*
X0214884Y0120950D01*
X0214816Y0121096D01*
X0214753Y0121244D01*
X0214692Y0121393D01*
X0214636Y0121544D01*
X0214583Y0121696D01*
X0214534Y0121849D01*
X0214489Y0122003D01*
X0214448Y0122158D01*
X0214410Y0122315D01*
X0214377Y0122472D01*
X0214347Y0122630D01*
X0214321Y0122789D01*
X0214300Y0122948D01*
X0214282Y0123108D01*
X0214268Y0123268D01*
X0214258Y0123429D01*
X0214252Y0123589D01*
X0214250Y0123750D01*
X0134250Y0123750D02*
X0134252Y0123911D01*
X0134258Y0124071D01*
X0134268Y0124232D01*
X0134282Y0124392D01*
X0134300Y0124552D01*
X0134321Y0124711D01*
X0134347Y0124870D01*
X0134377Y0125028D01*
X0134410Y0125185D01*
X0134448Y0125342D01*
X0134489Y0125497D01*
X0134534Y0125651D01*
X0134583Y0125804D01*
X0134636Y0125956D01*
X0134692Y0126107D01*
X0134753Y0126256D01*
X0134816Y0126404D01*
X0134884Y0126550D01*
X0134955Y0126694D01*
X0135029Y0126836D01*
X0135107Y0126977D01*
X0135189Y0127115D01*
X0135274Y0127252D01*
X0135362Y0127386D01*
X0135454Y0127518D01*
X0135549Y0127648D01*
X0135647Y0127776D01*
X0135748Y0127901D01*
X0135852Y0128023D01*
X0135959Y0128143D01*
X0136069Y0128260D01*
X0136182Y0128375D01*
X0136298Y0128486D01*
X0136417Y0128595D01*
X0136538Y0128700D01*
X0136662Y0128803D01*
X0136788Y0128903D01*
X0136916Y0128999D01*
X0137047Y0129092D01*
X0137181Y0129182D01*
X0137316Y0129269D01*
X0137454Y0129352D01*
X0137593Y0129432D01*
X0137735Y0129508D01*
X0137878Y0129581D01*
X0138023Y0129650D01*
X0138170Y0129716D01*
X0138318Y0129778D01*
X0138468Y0129836D01*
X0138619Y0129891D01*
X0138772Y0129942D01*
X0138926Y0129989D01*
X0139081Y0130032D01*
X0139237Y0130071D01*
X0139393Y0130107D01*
X0139551Y0130138D01*
X0139709Y0130166D01*
X0139868Y0130190D01*
X0140028Y0130210D01*
X0140188Y0130226D01*
X0140348Y0130238D01*
X0140509Y0130246D01*
X0140670Y0130250D01*
X0140830Y0130250D01*
X0140991Y0130246D01*
X0141152Y0130238D01*
X0141312Y0130226D01*
X0141472Y0130210D01*
X0141632Y0130190D01*
X0141791Y0130166D01*
X0141949Y0130138D01*
X0142107Y0130107D01*
X0142263Y0130071D01*
X0142419Y0130032D01*
X0142574Y0129989D01*
X0142728Y0129942D01*
X0142881Y0129891D01*
X0143032Y0129836D01*
X0143182Y0129778D01*
X0143330Y0129716D01*
X0143477Y0129650D01*
X0143622Y0129581D01*
X0143765Y0129508D01*
X0143907Y0129432D01*
X0144046Y0129352D01*
X0144184Y0129269D01*
X0144319Y0129182D01*
X0144453Y0129092D01*
X0144584Y0128999D01*
X0144712Y0128903D01*
X0144838Y0128803D01*
X0144962Y0128700D01*
X0145083Y0128595D01*
X0145202Y0128486D01*
X0145318Y0128375D01*
X0145431Y0128260D01*
X0145541Y0128143D01*
X0145648Y0128023D01*
X0145752Y0127901D01*
X0145853Y0127776D01*
X0145951Y0127648D01*
X0146046Y0127518D01*
X0146138Y0127386D01*
X0146226Y0127252D01*
X0146311Y0127115D01*
X0146393Y0126977D01*
X0146471Y0126836D01*
X0146545Y0126694D01*
X0146616Y0126550D01*
X0146684Y0126404D01*
X0146747Y0126256D01*
X0146808Y0126107D01*
X0146864Y0125956D01*
X0146917Y0125804D01*
X0146966Y0125651D01*
X0147011Y0125497D01*
X0147052Y0125342D01*
X0147090Y0125185D01*
X0147123Y0125028D01*
X0147153Y0124870D01*
X0147179Y0124711D01*
X0147200Y0124552D01*
X0147218Y0124392D01*
X0147232Y0124232D01*
X0147242Y0124071D01*
X0147248Y0123911D01*
X0147250Y0123750D01*
X0147248Y0123589D01*
X0147242Y0123429D01*
X0147232Y0123268D01*
X0147218Y0123108D01*
X0147200Y0122948D01*
X0147179Y0122789D01*
X0147153Y0122630D01*
X0147123Y0122472D01*
X0147090Y0122315D01*
X0147052Y0122158D01*
X0147011Y0122003D01*
X0146966Y0121849D01*
X0146917Y0121696D01*
X0146864Y0121544D01*
X0146808Y0121393D01*
X0146747Y0121244D01*
X0146684Y0121096D01*
X0146616Y0120950D01*
X0146545Y0120806D01*
X0146471Y0120664D01*
X0146393Y0120523D01*
X0146311Y0120385D01*
X0146226Y0120248D01*
X0146138Y0120114D01*
X0146046Y0119982D01*
X0145951Y0119852D01*
X0145853Y0119724D01*
X0145752Y0119599D01*
X0145648Y0119477D01*
X0145541Y0119357D01*
X0145431Y0119240D01*
X0145318Y0119125D01*
X0145202Y0119014D01*
X0145083Y0118905D01*
X0144962Y0118800D01*
X0144838Y0118697D01*
X0144712Y0118597D01*
X0144584Y0118501D01*
X0144453Y0118408D01*
X0144319Y0118318D01*
X0144184Y0118231D01*
X0144046Y0118148D01*
X0143907Y0118068D01*
X0143765Y0117992D01*
X0143622Y0117919D01*
X0143477Y0117850D01*
X0143330Y0117784D01*
X0143182Y0117722D01*
X0143032Y0117664D01*
X0142881Y0117609D01*
X0142728Y0117558D01*
X0142574Y0117511D01*
X0142419Y0117468D01*
X0142263Y0117429D01*
X0142107Y0117393D01*
X0141949Y0117362D01*
X0141791Y0117334D01*
X0141632Y0117310D01*
X0141472Y0117290D01*
X0141312Y0117274D01*
X0141152Y0117262D01*
X0140991Y0117254D01*
X0140830Y0117250D01*
X0140670Y0117250D01*
X0140509Y0117254D01*
X0140348Y0117262D01*
X0140188Y0117274D01*
X0140028Y0117290D01*
X0139868Y0117310D01*
X0139709Y0117334D01*
X0139551Y0117362D01*
X0139393Y0117393D01*
X0139237Y0117429D01*
X0139081Y0117468D01*
X0138926Y0117511D01*
X0138772Y0117558D01*
X0138619Y0117609D01*
X0138468Y0117664D01*
X0138318Y0117722D01*
X0138170Y0117784D01*
X0138023Y0117850D01*
X0137878Y0117919D01*
X0137735Y0117992D01*
X0137593Y0118068D01*
X0137454Y0118148D01*
X0137316Y0118231D01*
X0137181Y0118318D01*
X0137047Y0118408D01*
X0136916Y0118501D01*
X0136788Y0118597D01*
X0136662Y0118697D01*
X0136538Y0118800D01*
X0136417Y0118905D01*
X0136298Y0119014D01*
X0136182Y0119125D01*
X0136069Y0119240D01*
X0135959Y0119357D01*
X0135852Y0119477D01*
X0135748Y0119599D01*
X0135647Y0119724D01*
X0135549Y0119852D01*
X0135454Y0119982D01*
X0135362Y0120114D01*
X0135274Y0120248D01*
X0135189Y0120385D01*
X0135107Y0120523D01*
X0135029Y0120664D01*
X0134955Y0120806D01*
X0134884Y0120950D01*
X0134816Y0121096D01*
X0134753Y0121244D01*
X0134692Y0121393D01*
X0134636Y0121544D01*
X0134583Y0121696D01*
X0134534Y0121849D01*
X0134489Y0122003D01*
X0134448Y0122158D01*
X0134410Y0122315D01*
X0134377Y0122472D01*
X0134347Y0122630D01*
X0134321Y0122789D01*
X0134300Y0122948D01*
X0134282Y0123108D01*
X0134268Y0123268D01*
X0134258Y0123429D01*
X0134252Y0123589D01*
X0134250Y0123750D01*
X0112250Y0123750D02*
X0112252Y0123911D01*
X0112258Y0124071D01*
X0112268Y0124232D01*
X0112282Y0124392D01*
X0112300Y0124552D01*
X0112321Y0124711D01*
X0112347Y0124870D01*
X0112377Y0125028D01*
X0112410Y0125185D01*
X0112448Y0125342D01*
X0112489Y0125497D01*
X0112534Y0125651D01*
X0112583Y0125804D01*
X0112636Y0125956D01*
X0112692Y0126107D01*
X0112753Y0126256D01*
X0112816Y0126404D01*
X0112884Y0126550D01*
X0112955Y0126694D01*
X0113029Y0126836D01*
X0113107Y0126977D01*
X0113189Y0127115D01*
X0113274Y0127252D01*
X0113362Y0127386D01*
X0113454Y0127518D01*
X0113549Y0127648D01*
X0113647Y0127776D01*
X0113748Y0127901D01*
X0113852Y0128023D01*
X0113959Y0128143D01*
X0114069Y0128260D01*
X0114182Y0128375D01*
X0114298Y0128486D01*
X0114417Y0128595D01*
X0114538Y0128700D01*
X0114662Y0128803D01*
X0114788Y0128903D01*
X0114916Y0128999D01*
X0115047Y0129092D01*
X0115181Y0129182D01*
X0115316Y0129269D01*
X0115454Y0129352D01*
X0115593Y0129432D01*
X0115735Y0129508D01*
X0115878Y0129581D01*
X0116023Y0129650D01*
X0116170Y0129716D01*
X0116318Y0129778D01*
X0116468Y0129836D01*
X0116619Y0129891D01*
X0116772Y0129942D01*
X0116926Y0129989D01*
X0117081Y0130032D01*
X0117237Y0130071D01*
X0117393Y0130107D01*
X0117551Y0130138D01*
X0117709Y0130166D01*
X0117868Y0130190D01*
X0118028Y0130210D01*
X0118188Y0130226D01*
X0118348Y0130238D01*
X0118509Y0130246D01*
X0118670Y0130250D01*
X0118830Y0130250D01*
X0118991Y0130246D01*
X0119152Y0130238D01*
X0119312Y0130226D01*
X0119472Y0130210D01*
X0119632Y0130190D01*
X0119791Y0130166D01*
X0119949Y0130138D01*
X0120107Y0130107D01*
X0120263Y0130071D01*
X0120419Y0130032D01*
X0120574Y0129989D01*
X0120728Y0129942D01*
X0120881Y0129891D01*
X0121032Y0129836D01*
X0121182Y0129778D01*
X0121330Y0129716D01*
X0121477Y0129650D01*
X0121622Y0129581D01*
X0121765Y0129508D01*
X0121907Y0129432D01*
X0122046Y0129352D01*
X0122184Y0129269D01*
X0122319Y0129182D01*
X0122453Y0129092D01*
X0122584Y0128999D01*
X0122712Y0128903D01*
X0122838Y0128803D01*
X0122962Y0128700D01*
X0123083Y0128595D01*
X0123202Y0128486D01*
X0123318Y0128375D01*
X0123431Y0128260D01*
X0123541Y0128143D01*
X0123648Y0128023D01*
X0123752Y0127901D01*
X0123853Y0127776D01*
X0123951Y0127648D01*
X0124046Y0127518D01*
X0124138Y0127386D01*
X0124226Y0127252D01*
X0124311Y0127115D01*
X0124393Y0126977D01*
X0124471Y0126836D01*
X0124545Y0126694D01*
X0124616Y0126550D01*
X0124684Y0126404D01*
X0124747Y0126256D01*
X0124808Y0126107D01*
X0124864Y0125956D01*
X0124917Y0125804D01*
X0124966Y0125651D01*
X0125011Y0125497D01*
X0125052Y0125342D01*
X0125090Y0125185D01*
X0125123Y0125028D01*
X0125153Y0124870D01*
X0125179Y0124711D01*
X0125200Y0124552D01*
X0125218Y0124392D01*
X0125232Y0124232D01*
X0125242Y0124071D01*
X0125248Y0123911D01*
X0125250Y0123750D01*
X0125248Y0123589D01*
X0125242Y0123429D01*
X0125232Y0123268D01*
X0125218Y0123108D01*
X0125200Y0122948D01*
X0125179Y0122789D01*
X0125153Y0122630D01*
X0125123Y0122472D01*
X0125090Y0122315D01*
X0125052Y0122158D01*
X0125011Y0122003D01*
X0124966Y0121849D01*
X0124917Y0121696D01*
X0124864Y0121544D01*
X0124808Y0121393D01*
X0124747Y0121244D01*
X0124684Y0121096D01*
X0124616Y0120950D01*
X0124545Y0120806D01*
X0124471Y0120664D01*
X0124393Y0120523D01*
X0124311Y0120385D01*
X0124226Y0120248D01*
X0124138Y0120114D01*
X0124046Y0119982D01*
X0123951Y0119852D01*
X0123853Y0119724D01*
X0123752Y0119599D01*
X0123648Y0119477D01*
X0123541Y0119357D01*
X0123431Y0119240D01*
X0123318Y0119125D01*
X0123202Y0119014D01*
X0123083Y0118905D01*
X0122962Y0118800D01*
X0122838Y0118697D01*
X0122712Y0118597D01*
X0122584Y0118501D01*
X0122453Y0118408D01*
X0122319Y0118318D01*
X0122184Y0118231D01*
X0122046Y0118148D01*
X0121907Y0118068D01*
X0121765Y0117992D01*
X0121622Y0117919D01*
X0121477Y0117850D01*
X0121330Y0117784D01*
X0121182Y0117722D01*
X0121032Y0117664D01*
X0120881Y0117609D01*
X0120728Y0117558D01*
X0120574Y0117511D01*
X0120419Y0117468D01*
X0120263Y0117429D01*
X0120107Y0117393D01*
X0119949Y0117362D01*
X0119791Y0117334D01*
X0119632Y0117310D01*
X0119472Y0117290D01*
X0119312Y0117274D01*
X0119152Y0117262D01*
X0118991Y0117254D01*
X0118830Y0117250D01*
X0118670Y0117250D01*
X0118509Y0117254D01*
X0118348Y0117262D01*
X0118188Y0117274D01*
X0118028Y0117290D01*
X0117868Y0117310D01*
X0117709Y0117334D01*
X0117551Y0117362D01*
X0117393Y0117393D01*
X0117237Y0117429D01*
X0117081Y0117468D01*
X0116926Y0117511D01*
X0116772Y0117558D01*
X0116619Y0117609D01*
X0116468Y0117664D01*
X0116318Y0117722D01*
X0116170Y0117784D01*
X0116023Y0117850D01*
X0115878Y0117919D01*
X0115735Y0117992D01*
X0115593Y0118068D01*
X0115454Y0118148D01*
X0115316Y0118231D01*
X0115181Y0118318D01*
X0115047Y0118408D01*
X0114916Y0118501D01*
X0114788Y0118597D01*
X0114662Y0118697D01*
X0114538Y0118800D01*
X0114417Y0118905D01*
X0114298Y0119014D01*
X0114182Y0119125D01*
X0114069Y0119240D01*
X0113959Y0119357D01*
X0113852Y0119477D01*
X0113748Y0119599D01*
X0113647Y0119724D01*
X0113549Y0119852D01*
X0113454Y0119982D01*
X0113362Y0120114D01*
X0113274Y0120248D01*
X0113189Y0120385D01*
X0113107Y0120523D01*
X0113029Y0120664D01*
X0112955Y0120806D01*
X0112884Y0120950D01*
X0112816Y0121096D01*
X0112753Y0121244D01*
X0112692Y0121393D01*
X0112636Y0121544D01*
X0112583Y0121696D01*
X0112534Y0121849D01*
X0112489Y0122003D01*
X0112448Y0122158D01*
X0112410Y0122315D01*
X0112377Y0122472D01*
X0112347Y0122630D01*
X0112321Y0122789D01*
X0112300Y0122948D01*
X0112282Y0123108D01*
X0112268Y0123268D01*
X0112258Y0123429D01*
X0112252Y0123589D01*
X0112250Y0123750D01*
X0032250Y0123750D02*
X0032252Y0123911D01*
X0032258Y0124071D01*
X0032268Y0124232D01*
X0032282Y0124392D01*
X0032300Y0124552D01*
X0032321Y0124711D01*
X0032347Y0124870D01*
X0032377Y0125028D01*
X0032410Y0125185D01*
X0032448Y0125342D01*
X0032489Y0125497D01*
X0032534Y0125651D01*
X0032583Y0125804D01*
X0032636Y0125956D01*
X0032692Y0126107D01*
X0032753Y0126256D01*
X0032816Y0126404D01*
X0032884Y0126550D01*
X0032955Y0126694D01*
X0033029Y0126836D01*
X0033107Y0126977D01*
X0033189Y0127115D01*
X0033274Y0127252D01*
X0033362Y0127386D01*
X0033454Y0127518D01*
X0033549Y0127648D01*
X0033647Y0127776D01*
X0033748Y0127901D01*
X0033852Y0128023D01*
X0033959Y0128143D01*
X0034069Y0128260D01*
X0034182Y0128375D01*
X0034298Y0128486D01*
X0034417Y0128595D01*
X0034538Y0128700D01*
X0034662Y0128803D01*
X0034788Y0128903D01*
X0034916Y0128999D01*
X0035047Y0129092D01*
X0035181Y0129182D01*
X0035316Y0129269D01*
X0035454Y0129352D01*
X0035593Y0129432D01*
X0035735Y0129508D01*
X0035878Y0129581D01*
X0036023Y0129650D01*
X0036170Y0129716D01*
X0036318Y0129778D01*
X0036468Y0129836D01*
X0036619Y0129891D01*
X0036772Y0129942D01*
X0036926Y0129989D01*
X0037081Y0130032D01*
X0037237Y0130071D01*
X0037393Y0130107D01*
X0037551Y0130138D01*
X0037709Y0130166D01*
X0037868Y0130190D01*
X0038028Y0130210D01*
X0038188Y0130226D01*
X0038348Y0130238D01*
X0038509Y0130246D01*
X0038670Y0130250D01*
X0038830Y0130250D01*
X0038991Y0130246D01*
X0039152Y0130238D01*
X0039312Y0130226D01*
X0039472Y0130210D01*
X0039632Y0130190D01*
X0039791Y0130166D01*
X0039949Y0130138D01*
X0040107Y0130107D01*
X0040263Y0130071D01*
X0040419Y0130032D01*
X0040574Y0129989D01*
X0040728Y0129942D01*
X0040881Y0129891D01*
X0041032Y0129836D01*
X0041182Y0129778D01*
X0041330Y0129716D01*
X0041477Y0129650D01*
X0041622Y0129581D01*
X0041765Y0129508D01*
X0041907Y0129432D01*
X0042046Y0129352D01*
X0042184Y0129269D01*
X0042319Y0129182D01*
X0042453Y0129092D01*
X0042584Y0128999D01*
X0042712Y0128903D01*
X0042838Y0128803D01*
X0042962Y0128700D01*
X0043083Y0128595D01*
X0043202Y0128486D01*
X0043318Y0128375D01*
X0043431Y0128260D01*
X0043541Y0128143D01*
X0043648Y0128023D01*
X0043752Y0127901D01*
X0043853Y0127776D01*
X0043951Y0127648D01*
X0044046Y0127518D01*
X0044138Y0127386D01*
X0044226Y0127252D01*
X0044311Y0127115D01*
X0044393Y0126977D01*
X0044471Y0126836D01*
X0044545Y0126694D01*
X0044616Y0126550D01*
X0044684Y0126404D01*
X0044747Y0126256D01*
X0044808Y0126107D01*
X0044864Y0125956D01*
X0044917Y0125804D01*
X0044966Y0125651D01*
X0045011Y0125497D01*
X0045052Y0125342D01*
X0045090Y0125185D01*
X0045123Y0125028D01*
X0045153Y0124870D01*
X0045179Y0124711D01*
X0045200Y0124552D01*
X0045218Y0124392D01*
X0045232Y0124232D01*
X0045242Y0124071D01*
X0045248Y0123911D01*
X0045250Y0123750D01*
X0045248Y0123589D01*
X0045242Y0123429D01*
X0045232Y0123268D01*
X0045218Y0123108D01*
X0045200Y0122948D01*
X0045179Y0122789D01*
X0045153Y0122630D01*
X0045123Y0122472D01*
X0045090Y0122315D01*
X0045052Y0122158D01*
X0045011Y0122003D01*
X0044966Y0121849D01*
X0044917Y0121696D01*
X0044864Y0121544D01*
X0044808Y0121393D01*
X0044747Y0121244D01*
X0044684Y0121096D01*
X0044616Y0120950D01*
X0044545Y0120806D01*
X0044471Y0120664D01*
X0044393Y0120523D01*
X0044311Y0120385D01*
X0044226Y0120248D01*
X0044138Y0120114D01*
X0044046Y0119982D01*
X0043951Y0119852D01*
X0043853Y0119724D01*
X0043752Y0119599D01*
X0043648Y0119477D01*
X0043541Y0119357D01*
X0043431Y0119240D01*
X0043318Y0119125D01*
X0043202Y0119014D01*
X0043083Y0118905D01*
X0042962Y0118800D01*
X0042838Y0118697D01*
X0042712Y0118597D01*
X0042584Y0118501D01*
X0042453Y0118408D01*
X0042319Y0118318D01*
X0042184Y0118231D01*
X0042046Y0118148D01*
X0041907Y0118068D01*
X0041765Y0117992D01*
X0041622Y0117919D01*
X0041477Y0117850D01*
X0041330Y0117784D01*
X0041182Y0117722D01*
X0041032Y0117664D01*
X0040881Y0117609D01*
X0040728Y0117558D01*
X0040574Y0117511D01*
X0040419Y0117468D01*
X0040263Y0117429D01*
X0040107Y0117393D01*
X0039949Y0117362D01*
X0039791Y0117334D01*
X0039632Y0117310D01*
X0039472Y0117290D01*
X0039312Y0117274D01*
X0039152Y0117262D01*
X0038991Y0117254D01*
X0038830Y0117250D01*
X0038670Y0117250D01*
X0038509Y0117254D01*
X0038348Y0117262D01*
X0038188Y0117274D01*
X0038028Y0117290D01*
X0037868Y0117310D01*
X0037709Y0117334D01*
X0037551Y0117362D01*
X0037393Y0117393D01*
X0037237Y0117429D01*
X0037081Y0117468D01*
X0036926Y0117511D01*
X0036772Y0117558D01*
X0036619Y0117609D01*
X0036468Y0117664D01*
X0036318Y0117722D01*
X0036170Y0117784D01*
X0036023Y0117850D01*
X0035878Y0117919D01*
X0035735Y0117992D01*
X0035593Y0118068D01*
X0035454Y0118148D01*
X0035316Y0118231D01*
X0035181Y0118318D01*
X0035047Y0118408D01*
X0034916Y0118501D01*
X0034788Y0118597D01*
X0034662Y0118697D01*
X0034538Y0118800D01*
X0034417Y0118905D01*
X0034298Y0119014D01*
X0034182Y0119125D01*
X0034069Y0119240D01*
X0033959Y0119357D01*
X0033852Y0119477D01*
X0033748Y0119599D01*
X0033647Y0119724D01*
X0033549Y0119852D01*
X0033454Y0119982D01*
X0033362Y0120114D01*
X0033274Y0120248D01*
X0033189Y0120385D01*
X0033107Y0120523D01*
X0033029Y0120664D01*
X0032955Y0120806D01*
X0032884Y0120950D01*
X0032816Y0121096D01*
X0032753Y0121244D01*
X0032692Y0121393D01*
X0032636Y0121544D01*
X0032583Y0121696D01*
X0032534Y0121849D01*
X0032489Y0122003D01*
X0032448Y0122158D01*
X0032410Y0122315D01*
X0032377Y0122472D01*
X0032347Y0122630D01*
X0032321Y0122789D01*
X0032300Y0122948D01*
X0032282Y0123108D01*
X0032268Y0123268D01*
X0032258Y0123429D01*
X0032252Y0123589D01*
X0032250Y0123750D01*
M02*
